<svg xmlns="http://www.w3.org/2000/svg" viewBox="0 0 500 500"><g id="freepik--Floor--inject-13"><path id="freepik--floor--inject-13" d="M77.66,254.16c-95.18,55-95.17,144,0,199s249.49,55,344.67,0,95.17-144,0-199S172.84,199.21,77.66,254.16Z" style="fill:#fafafa"></path></g><g id="freepik--Globe--inject-13"><g id="freepik--World--inject-13"><path d="M126.64,281.67C172,359.84,272.15,386.41,350.32,341.06a163.65,163.65,0,1,0-223.68-59.39Z" style="fill:#e0e0e0"></path><path d="M166.52,72.52a4.69,4.69,0,0,0,2.9,1.1,9.92,9.92,0,0,0,1.79-.22c.72-.16,2.43-1.15,2.88-.92s-.49,1.77-1.22,2.62a14.78,14.78,0,0,1-4.22,3.22c-2.43,1.18-3.79,1.25-5.31.85-.51-.14-2.58-.85-3.49-.09s-.69,1.17-.31,1.48a5.48,5.48,0,0,0,2.27.57,1.7,1.7,0,0,1,1,.33c.75.68-1.09,2.83-.53,3.63.34.49,1.28.37,2,.4a13.6,13.6,0,0,0,3.13,0,8.54,8.54,0,0,0,2-.65,34.14,34.14,0,0,1,4.94-1.24,2.64,2.64,0,0,0,2.41-2.56c.1-1.18-.94-1.23-2.22-.94-1.71.38-3.7,1.09-4.2,1.17s-.73,0-.53-.31c.39-.64,2.45-1.14,2.84-1.27l2.48-.92c1.36-.49,2.91-.9,3.56-1.11a8.39,8.39,0,0,0,3-1.66c1-1.07.32-1.68,1.21-2.64a9.33,9.33,0,0,1,2.56-1.59,25.08,25.08,0,0,0,2.69-1.5c1.64-1.2,1.66-2.74,2.89-4.24a10.45,10.45,0,0,1,2.44-2.11c1.3-.84,3.07-1.79,4.05-2.46l1.76-1.2a11.15,11.15,0,0,0,2-1.71c.4-.42.76-1,1.14-1.37a3.78,3.78,0,0,1,1.21-.91,7.92,7.92,0,0,0,3.28-3.16c.92-1.78-.5-1.4-.79-1.8-.48-.68-1.36-.65-2.34-.54-2.14.22-4.76,1.14-7.31,1.68Q191.16,55,186.07,58c-2.92,1.69-5.74,3.48-8.52,5.32a5,5,0,0,0,1.71.73c1.43.49,4-1,5.91-1.48.88-.23,3.58-1.25,3.69-.44.17,1.26-2.85,2.58-3.49,2.85a3.54,3.54,0,0,0-1.46.93c-.79.91-2.07,2.12-2.83,1.56-.48-.36-.88-.85-1.44-1a1,1,0,0,0-1.15.52c-.61.85-2.35,2.2-2.56,1.15-.13-.61,0-1.47-.5-1.75s-.94-.24-1.26-.51c-.07-.06-.11-.13-.17-.19-2.76,1.94-5.46,4-8.07,6A3,3,0,0,0,166.52,72.52Z" style="fill:#f5f5f5"></path><path d="M342.49,85.31a20.3,20.3,0,0,1,5-2.93c.85-.35,1.72-.66,2.6-.94.53-.18,1.08-.34,1.62-.49a8.74,8.74,0,0,0,1.31-.21,1.29,1.29,0,0,0,.07-2.24,2.11,2.11,0,0,0-.48-.29,1.57,1.57,0,0,0-1.3.07,11.19,11.19,0,0,1-3.46.59C343,79,338.91,80.54,337,84.82a24.29,24.29,0,0,0-1.75,4.65c-.07.6-.15,1.21-.8,1.27-.41,0-.6.16-.47.71a6,6,0,0,0,2.61,3.18,21,21,0,0,0,2,1.46,2.87,2.87,0,0,0,2.88.12c.51-.4-.07-1.5-.41-2.29-.13-.3-.29-.59-.42-.87a7.82,7.82,0,0,1-.53-3,7,7,0,0,1,.31-1.79A6.89,6.89,0,0,1,342.49,85.31Z" style="fill:#f5f5f5"></path><path d="M272.93,62.08c.4.46.73,1.07,1.11,1.56a7.58,7.58,0,0,0,1.54,1.48,20.82,20.82,0,0,1,1.9,1.57,1.94,1.94,0,0,1,.2.33c.21.45.05.34,0,.66-.08.58.27.95.83,1.29a14.77,14.77,0,0,1,1.37,1c.76.58,2.25.9,2.55.09a6.5,6.5,0,0,0,.27-1.7,12.83,12.83,0,0,1,.29-2.84,3.7,3.7,0,0,0,.08-.39c0-.23.58-.48,1.25-.07.47.29.95.66,1.22.83s.38.21.49.29a.89.89,0,0,1,.21.78.46.46,0,0,0,.1.31c.16.24.34.27.53.39a7,7,0,0,0,2,.86,2.44,2.44,0,0,0,.82,0,.8.8,0,0,0,.24-1.37A22,22,0,0,1,287,65.45a8,8,0,0,1-1.56-1.86c-.79-1.36.19-1.55,1-1.51a9.42,9.42,0,0,0,1.92-.06,4.07,4.07,0,0,0,2.53-1.25,1.92,1.92,0,0,0,0-1.49,1,1,0,0,0-.09-.13,2.7,2.7,0,0,0-2.5-.93c-1,0-2.15,0-3.2-.09a6.91,6.91,0,0,1-1.42-.11,3.31,3.31,0,0,0-1.06-.27,4.61,4.61,0,0,0-1.82.65,3.44,3.44,0,0,1-2.15.48c-.44-.05-1.16-.35-1.23.2-.1.8.85,1.59,1,2.37.1.59-.57.33-1-.16s-.35-1.17-.72-1.61-.66-.27-.75,0c-.16.41-.08,1-.83.46-.43-.33-.6-.74-1.09-.92-.83-.31-2.74.2-2.08,1.74C272.19,61.45,272.6,61.68,272.93,62.08Z" style="fill:#f5f5f5"></path><path d="M269,136.66c-.74-1.33-2.6-2.12-2.22-4.08.13-.63,1-1.17.78-1.91-.11-.41-.52-.51-.79-.71s-1.47-1.41-1.32-2c.09-.37-3.08-.85-2.84.27.35,1.67-2.34,2-1.18,3.17l.15.14a20.24,20.24,0,0,0-.25,2.14c0,1.16,1.63,1.71,1.68,2.71s1.67.32,2.14,1.23.35,2.81-.57,3.12-.65,2.24-1.29,2.66c-.41.26-.83.52-.51,1.19.2.39,1.35-.28,1.32.66,0,.78-1.23.94-.93,1.77.25.67,1.19.54,1.7.52,2.11-.07,5-.51,6.52-2.35.59-.7,1.81-2.45.85-3.23-.37-.3-.85-.35-1.2-.73a6,6,0,0,1-.88-1.72A20.75,20.75,0,0,0,269,136.66Z" style="fill:#f5f5f5"></path><path d="M106.83,193.83c.63.73,1.69,3.21,2.6,3.22,1.57,0-.09-3.24-.43-3.73s-2.84-5.48-2.79-5.52a.6.6,0,0,0,.3-.59c0-.2-.84-.86-1.38-1.56-.18,2-.31,4-.4,6C105.33,192.46,106.35,193.27,106.83,193.83Z" style="fill:#f5f5f5"></path><path d="M332.91,287.19a54.31,54.31,0,0,0,3.33-11.4c.12-.76.23-1.56.29-2.34a7.14,7.14,0,0,0-.35-3.13,5.33,5.33,0,0,1-.46-.72c-.09-.18-.16-.42-.25-.65a2.67,2.67,0,0,0-.34-.72c-.25-.34-1.37,0-1.68,1.13-.2.7-.29,1.5-.4,2-.53,2.87-3,4.08-4.48,6.1-2.13,2.81-1.75,5.94-2,9-.19,2-1.35,4.69-.75,6.51C327.74,299,331.77,290,332.91,287.19Z" style="fill:#f5f5f5"></path><path d="M419.58,257.29a2,2,0,0,0-1.42-1.16,26.12,26.12,0,0,0-4.12-.24,5.14,5.14,0,0,1-2.19-.5,2.21,2.21,0,0,1-.9-.85c-.51-.89-.17-2,0-3.21a4.39,4.39,0,0,0-.74-3.36c-.25-.43-.51-.9-.78-1.31-.43-.66-1.09-1-1.51-1.68a3.68,3.68,0,0,1-.65-2.4,2.24,2.24,0,0,1,.72-1.31,4.14,4.14,0,0,0,.72-3.06c-.14-.62-.35-1.22-.47-1.66a20.33,20.33,0,0,0-.91-2.41c-.17-.39-.45-.64-.62-1a17.55,17.55,0,0,1-1.3-9c.16-.89.53-1.77,1.3-1.68a1.35,1.35,0,0,1,.65.31,7.89,7.89,0,0,1,1.26,1.68c.31.54.64,1.07.77,1.06,1.56,0,1.27,5.66,3.48,3.46.69-.68,1.61-1,2.33-1.71a10.12,10.12,0,0,0,.85-.88,8.65,8.65,0,0,0,1.53-3,7.19,7.19,0,0,0,.17-2.12,15,15,0,0,0-2.55-6.38,2.31,2.31,0,0,1-.82-1.9c.07-2.13,2-4.44,3.83-3.67a3,3,0,0,0,3.38-.43c1.26-1,2.34-2.24,3.83-2.79,1.91-.71,4.42-1.39,6-2.88l.42-.42a163.27,163.27,0,0,0-.82-20.36c-.08-.72-.21-1.92-.34-2.94a164.1,164.1,0,0,0-41.52-90.26c-.32,0-.66,0-1,0a23.58,23.58,0,0,0-4.75,0,4.2,4.2,0,0,0-2.8,2.3,3.85,3.85,0,0,1-1.45,1.7,4.2,4.2,0,0,1-2.53.32c-.66-.06-1.94-.21-1.76.9s1.74,2.6,2.26,3.62c1.17,2.28-1.74.28-2.49-.24A8.27,8.27,0,0,0,372,96.45c-.53-.13-1.71-.58-1.8.07a5.3,5.3,0,0,0,.78,2.11c.4.85.45,1.13-.16,1.27s-1.32.19-2,.32a6.15,6.15,0,0,1-3.23-.09c-1.39-.52-2.31-2.1-2.92-3.64a4.5,4.5,0,0,0-1.25-2.1,3.87,3.87,0,0,0-1.88-1c-1.37-.22-1.66,1.09-1.47,2.5s-1.11,1.71-.8,3a9.11,9.11,0,0,0,2.28,3.5c.76.86,2.11,2.1,1.68,3-.62,1.34-2.42.15-3.66-.76-1.68-1.24-3.41-2.21-5.1-3.46a11,11,0,0,0-4.7-2c-.87-.15-1.45.28-.49,1.44.45.53,2,1.55,1.81,2.43s-2.19.5-2.82.53a21.66,21.66,0,0,1-5.43-.16c-1.38-.29-2.84-1-4.14-.8a6.7,6.7,0,0,0-1.77.48,4.2,4.2,0,0,0-1.74,1.81.88.88,0,0,1-.51.44,2.55,2.55,0,0,1-.71.16,2.12,2.12,0,0,1-1.82-1.93c0-.82.09-1.71-.62-2.24a3.44,3.44,0,0,0-2.75-.42,1.1,1.1,0,0,0-.59.81c-.14.65.14,2.43-.08,3.64a2.75,2.75,0,0,1-.91,1.75,6.93,6.93,0,0,1-1.46.61,3.09,3.09,0,0,0-1.51,1.59c-.75,1.32-1.34,2.52-2.75,2.74s-2.42-.4-3.68-2a32.74,32.74,0,0,1-2.57-3.44c-1.12-1.89,1.43-.84,2.12-.65,1,.29,2.05.29,3.07.5a10.14,10.14,0,0,0,2.54.23c.68,0,1.87-.11,1.84-1.22-.06-2.46-4.71-5.4-6.06-6.31-.65-.45-1.3-.87-2-1.26-1.08-.67-2.93-1.74-4.13-2.4a6.56,6.56,0,0,0-2.17-.85c-1.15-.12-2.12,1.36-3.3-1-.69-1.39-1.13-1.9-2.35-2.28a11.2,11.2,0,0,0-6.69,0,6.16,6.16,0,0,0-1.67.9c-.85.63-1.77,1.91-2.42,2.22a2.28,2.28,0,0,1-1.32.17c-2.77-.42-3.86,2-4.29,5.37-.12.9-.13,1.93-.32,2.8a5.36,5.36,0,0,1-.54,1.4c-.37.71-1.29,2.32-2,3.66-.43.82-.88,1.63-1.32,2.5-1.24,2.4-2.66,4.85-4.13,7.4a9.79,9.79,0,0,0-1.67,6.07,6.27,6.27,0,0,0,2.52,4c1.49,1.21,3,.94,4.41.48,2.13-.68,3,.41,3.89,3,.39,1.12.75,2.47,1.64,3.18a3.79,3.79,0,0,0,3.15.66c1.14-.35,1.58-1.57,1.5-3a4.15,4.15,0,0,1,.95-3.35,3.38,3.38,0,0,0,.37-3.31c-.58-2-1.88-4.49-2.12-5.79a5.45,5.45,0,0,1,0-2.24,9.68,9.68,0,0,1,.61-1.77c.41-.88,1.79-2.45,2.81-3.93a10.17,10.17,0,0,0,1.47-3.12,5.19,5.19,0,0,1,.6-1.48,2.21,2.21,0,0,1,2.43-.5,2.07,2.07,0,0,1,1.22,1.2,4.73,4.73,0,0,1-.49,3.56c-.57,1.14-1.61,1.38-2.26,2.41s-.63,2.88-.61,4.42-.1,3.35.66,4.59c1,1.56,2.93,1.25,4.23,1.19.59,0,1.25,0,1.91,0a6.82,6.82,0,0,1,2.75.67c.43.29.84,1.55.37,1.8a2.61,2.61,0,0,1-.93.18c-1.29.13-2.63-.07-3.92,0-.82,0-2.12-.07-2.29,1.2-.13,1,.77,1.82,1.27,2.44a2.68,2.68,0,0,1,.87,2.18.74.74,0,0,1-.93.6,3.76,3.76,0,0,1-1.74-1.25c-.31-.36-.73-1.07-1.16-.86-.7.34-.37,2.79-.36,3.56a6.7,6.7,0,0,1-.7,3.81c-1.45,2.13-4.25,2-6.44,1.8a22.51,22.51,0,0,1-4-.9,6.84,6.84,0,0,1-2.51-.94c-1.74-1.35-.68-4.67-1-6.67-.39-2.35-2.41-.78-2.8.6-.63,2.17,1,4.78.26,6.81-.54,1.41-2.25,1.4-3.38,1.8-1.54.56-2.37,2.17-2.65,4-.15,1-.88,1.53-1.46,2.18-.79.87-1.67,1.57-2.49,2.35a3,3,0,0,1-2.16,1c-.54,0-1.3-.45-1.72-.08s-.19,1.21-1,1.5-1.95-.11-2.86,0c-.61.07-1.52.47-1,1.26s1.7,1.11,2.37,1.56c1.39.94,1.84,2.6,1.95,4.39.16,2.46-.49,4.39-2.79,4.54s-4.45-.39-6.75.59c-2,.84-2,4.66-2.09,6.78a4.17,4.17,0,0,0,.59,2.47,9.13,9.13,0,0,0,.95,2,3.16,3.16,0,0,0,2.39.77,2.92,2.92,0,0,1,2.36.94,3.13,3.13,0,0,0,.5.41c.31.17.77-.67,1.42-.8a4,4,0,0,1,1.19.06,3.53,3.53,0,0,0,1.16.09c.39-.07.56-.46.84-.55a3.81,3.81,0,0,0,2-2.69c.19-.57.32-1.17.53-1.73a19.59,19.59,0,0,1,1-1.79,9.85,9.85,0,0,1,.57-1.37c.57-.82,1.31-.66,2.09-.9a2.52,2.52,0,0,0,1.78-2.17c.19-.88.17-1.9,1-2.24.68-.27,1.46.26,2.16.3,1.23.08,2.22-.76,3.26-1.31,2.08-1.09,3.72-.39,4.94,1.82a17.38,17.38,0,0,0,1.83,2.86c.55.65,1.26,1,1.81,1.7.69.83,1.55,1.47,2.22,2.27s.57,2.49.28,3.63c-.11.45-.49,1.17-.17,1.59s.84,0,1.12-.28c.9-.94.76-2.12.79-3.47,0-.62-.06-1.37.45-1.54a1.33,1.33,0,0,1,.72.17c.4.14.38-1.2-.46-1.88a3.44,3.44,0,0,0-1.59-.8c-.43,0-1.49-1.59-1.83-2a25.26,25.26,0,0,1-2.37-2.93,5.3,5.3,0,0,1-1.14-2.79c0-1.52,1.54-1.36,2.35-.67.65.56.69,1.43,1.07,2.21.82,1.71,2.56,2.1,3.84,3,.9.64.87,1.47,1.24,2.58a15.2,15.2,0,0,1,.89,2.53,1.75,1.75,0,0,0,.44,1.23,10.22,10.22,0,0,0,1.22,1.24,7,7,0,0,1,1.19,1.06c.34.5.19.44.1.95-.19,1.1-.26,2.23.74,2.85s1.25-1.37,1.66-2.16a2,2,0,0,0,.34-1.76c-.18-.59-.78-1-1-1.56-.57-1.47.77-1.29,1.43-1.75.85-.57,1.76-1.59,2.87-.71.64.51.5,1,.42,1.74a6.7,6.7,0,0,0,.47,2.4,8.77,8.77,0,0,0,.53,2.35,5.68,5.68,0,0,0,4.47,2.84c.73,0,1.41-.54,2.14-.34.31.08.51.36.79.5a3.45,3.45,0,0,0,1.61.22c.73,0,1.43-.25,2.16-.23,1.18,0,1.52.37,1.19,1.73a49.29,49.29,0,0,0-1.29,6.24c-.09.79.07,2.77-.43,3.33s-1.74-.61-2.31-.91a10.71,10.71,0,0,0-5.39-1,23.06,23.06,0,0,1-2.88,0,5.24,5.24,0,0,1-2.65-.61c-1.35-1.13-4.84-4.36-6.39-2-1,1.55-.58,4.53-3,4a11.22,11.22,0,0,1-3.11-1.69,25.48,25.48,0,0,0-4.8-2.11,6,6,0,0,1-3.06-2c-1.1-1.48.75-1.89,1-3.33a4,4,0,0,0-1.12-3.55,4.72,4.72,0,0,0-2.95-.59c-.52,0-1-.14-1.5-.16a6.28,6.28,0,0,0-1.69.39,16.76,16.76,0,0,1-3.66.26c-.65,0-1.3,0-1.93,0-.38,0-1.36-.13-1.67.13-1.65,1.41-3.71,2.93-5.94,2.71-1.4-.13-2.56-.6-4-.06a13.3,13.3,0,0,0-3.69,2.52c-.94.82-1.83,1.71-2.71,2.61-1,1.06-1,2.49-1,4a3.94,3.94,0,0,1-.84,2.48,8.85,8.85,0,0,1-3.25,2.93,8.39,8.39,0,0,0-3.66,3,24.05,24.05,0,0,0-2,4.23,13.33,13.33,0,0,0,.19,9.45c.36.79-.71,3.17-.91,4a7.9,7.9,0,0,0,.12,4.59,7.36,7.36,0,0,0,1.66,2.67c1.45,1.5,2.27,3.61,3.49,5.42a29.51,29.51,0,0,0,3.87,4.82,11.11,11.11,0,0,0,6.54,3.35,6.65,6.65,0,0,0,3.5-.43,4.81,4.81,0,0,1,1.86-.41,10.94,10.94,0,0,0,3.88-.87c.65-.34,1.29-.74,1.88-1.08a4.26,4.26,0,0,1,4.09-.5,6.25,6.25,0,0,1,1.59,1.11,16.88,16.88,0,0,0,3,2.35,5,5,0,0,0,1.72.46A4.3,4.3,0,0,1,284,238.1c2,2,.79,4.69-.41,7-1.12,2.14-.29,4.37.63,6.17.45.86.76,1.74,1.22,2.55a8.73,8.73,0,0,1,1.26,2.85c.15,1,.38,1.9.56,2.83a21.87,21.87,0,0,1,.12,5.77c-.13.94-.31,1.88-.52,2.82-.1.46-.2.92-.32,1.37a16.4,16.4,0,0,1-.81,2.48,7.91,7.91,0,0,0-.47,1.1,15.12,15.12,0,0,0-.55,2.85c-.18,1.6-.54,4.4-.7,6a13.78,13.78,0,0,0,0,2.87,72.78,72.78,0,0,0,3,12.16c.57,1.88,1,3.85,1.59,5.71.28.95.45,2,.81,2.9a14.45,14.45,0,0,1,.48,3.16c.32,2.19,1,3.53,2.7,4.08a7.65,7.65,0,0,0,4.44-.44,18.29,18.29,0,0,0,8.37-5.33,23.31,23.31,0,0,0,3.58-5.84,14.29,14.29,0,0,0,1.18-3c.26-1.12.43-2.28.77-3.39.53-1.68,1-3.54,1.61-5.19,1-2.59,1.45-4.83,3.36-6.77a36,36,0,0,1,2.83-2.41c1.54-1.27,4.36-3.33,4.52-6,.77-12.76-2.57-22.8,9.17-31.84,3.17-3.28,7.33-8.81,8.64-14,.62-2.47-1-4.1-2.57-3.52a25.8,25.8,0,0,1-2.91.92c-.9.22-1.82.3-2.73.46a4.47,4.47,0,0,1-2.58-.71,2.6,2.6,0,0,1-1.6-1.91c-.31-1-.15-1.95-.37-2.92a4.52,4.52,0,0,0-1.5-2.15,18.07,18.07,0,0,1-3.27-4.91,22.3,22.3,0,0,1-1.33-6,9.65,9.65,0,0,0-1.54-3.74,25.51,25.51,0,0,1-1.76-3.76c-.5-1.29-2.35-5.76-.56-6.63,1.4-.69,2.33,3.35,2.78,4.42.9,2.13,1.87,4.08,2.87,6l1.56,3c.87,1.63,1.89,3.64,2.29,4.47.25.5.49,1,.72,1.51a11.66,11.66,0,0,1,1.29,3c.46,4,1.62,6.27,3.85,6.18,2-.07,5.09-2.12,7-3.1a61.6,61.6,0,0,0,9.6-6.07,14.33,14.33,0,0,0,2-2.66,10.51,10.51,0,0,0,1.79-3.33,2.21,2.21,0,0,0-.84-2.58c-.56-.38-1.24-.16-1.7-.6s-.64-1.61-1.06-2.26c-.83-1.27-1.81-.41-2.79.12s-3,1.72-4,.9c-.65-.58-.27-1.24-.57-2s-.74-.38-1.23-.56c-1.25-.44-1.7-2.3-2.26-3.52-.43-.93-1.38-3-1-4.13.62-1.85,2.5.71,3,1.38a27.1,27.1,0,0,1,2.12,2.31,4.29,4.29,0,0,0,1.93,1.54,16,16,0,0,0,2.29,1.11c.61.15,1.24-.07,1.86.18a2.12,2.12,0,0,1,.92.7,6.17,6.17,0,0,0,4.1,2.15c1.74.06,3.56-.31,5.21-.39a7.67,7.67,0,0,1,3.86.48,7.27,7.27,0,0,1,3.27,3.57c.48,1.27.86,3,2.09,3.69s2.13-2.23,2.84-1.51c.39.39.3,1.55.33,2.09a17.21,17.21,0,0,0,.24,2c.24,1.53.48,3.09.73,4.65a75.8,75.8,0,0,0,1.95,9.52c.44,1.47,1.09,3.7,2.39,4.23.57.23,1.53-.55,1.94-1.1a7.34,7.34,0,0,0,.86-2,23.39,23.39,0,0,0,.71-2.67,30.65,30.65,0,0,1,1.46-4.92,15.82,15.82,0,0,1,1.1-2,17.7,17.7,0,0,1,2.58-3.29,14.67,14.67,0,0,0,2.25-2.15c.26-.36.51-.73.76-1.1a24.46,24.46,0,0,1,1.58-2.07,2.64,2.64,0,0,1,.95-.73,6.52,6.52,0,0,1,1.33-.11c.89-.13,1.19-.84,1.94-1.23s1.45.25,1.9.8c1.25,1.55,1.17,4,1.29,6,.07,1,.1,2.31,1.06,2.45s1.55-.43,2.28.39.75,2.51,1.16,3.68,1.29,1.62,1.37,2.89c.06.81-.28.93-.62,1.55a2,2,0,0,0,0,1.73,4.05,4.05,0,0,1,0,2.21,6.07,6.07,0,0,0-.59,2,.94.94,0,0,0,.63.9,2.81,2.81,0,0,1,1.25,1.85c.09.5.15,1,.2,1.39a8,8,0,0,0,.34,1.66c.08.17.16.31.24.46a3.7,3.7,0,0,1,.18,1.79,1.25,1.25,0,0,1-.57,1c-.3.12-.67-.08-1-.36-.51-.4-1.28-1-1.75-1.35a2.33,2.33,0,0,0-.91-.39c-1.68-.19,0,3.9.38,4.56s.71,1,1,1.51a4.63,4.63,0,0,1,.49,1.88,20.81,20.81,0,0,0,1.38,4,15.76,15.76,0,0,0,1.77,3.45,7.9,7.9,0,0,0,1.19,1.31c.13.11,1.4.84,1.39.9-.48,4.84,3.73,2,5.36,3.57,1.26,1.4,2.93,1,4.56.91a8.22,8.22,0,0,0,1.28-.18c.16-.41.3-.81.46-1.22C420.37,258,419.79,257.81,419.58,257.29ZM325.27,170a17.46,17.46,0,0,1-4.27-1.33c-2-.77-5.2-.15-7.21.2a6.36,6.36,0,0,1-3-.06c-2-.66-.6-5.19.33-7.33a9.25,9.25,0,0,1,1.85-3.13c1.59-1.41,4.65.66,4.12,1.19s.17,1.14.27,1.73.65,1.16,1.24.65,0-3.12,1.86-4c.22-.1.45-.2.7-.29,1.91-.69,2.82.4,2.44,2.8a4.8,4.8,0,0,0,0,1.73c.5,2.47,2.94,2.87,2.95,3.14s.92.64,1.62,1.56S327.33,170.19,325.27,170Zm21.38,8.23c-.46,1.81-2.61,2.12-4.62,1s-2-4.47-1.91-6.64-3.24-4.36-3.52-6.83c-.5-4.38,3.28-7.56,5.95-7.23,2.06.26.55,3.25-.54,5.22-.37.69-.06,1.34.59,2.29,1.35,2,3.14,2.93,4,3.85s-.27,2-1.39,2.26S347.23,175.92,346.65,178.22Z" style="fill:#f5f5f5"></path><path d="M204.65,290.58c.76-1.39,3.06-2.69,4.73-3.3,1.31-.48,2.17-.47,3.13-2a10.84,10.84,0,0,0,1.15-6.06c-.21-1.37.45-2.68.3-3.66s-1-3.89-.63-6.48c.5-4,4.18-6.3,4.83-10.47.41-2.6-2.17-5.23-4-6.19s-3.83-4.42-6-4.49l-.7,0c-2.14-.07-5.18-3-7.29-3.94a13.38,13.38,0,0,0-1.46-.52c-2.13-.64-4.5-3.34-5.51-5.84-.93-2.32-2.11-4.53-3.8-5.58-2.29-1.41-5.53.37-7.41-2.25a10.69,10.69,0,0,0-2.87-2.93,11.34,11.34,0,0,1-3.11-2.7c-1.22-1.73-2.39-.52-3.85-1.27-.84-.43-1.13-.9-2.15-1a39.07,39.07,0,0,1-3.91-.18c-1.05-.16-1.41-.73-2.23-1.43-1.87-1.59-5-.63-6.33,1-.64.8-.92,2.06-1.55,2.77-1.28,1.45-3.92.09-5.49-.86a9.63,9.63,0,0,1-3.09-2.93c-.94-1.47-1.69-1.88-1.55-3.7.1-1.31.45-3-.44-4.2a4.15,4.15,0,0,0-3-1.27c-.84-.09-2,.22-2.75-.29a3.05,3.05,0,0,1-1.16-2.9c.23-.68,1-1.06,1.36-1.61a2.37,2.37,0,0,0,.48-1c0-.19-.13-1-.09-1.06.84-1.4.55-2.26-.24-2.65-1.41-.68-3.91.55-4.35,2.36s-3.45,2.89-5.31,2c-3.63-1.82-5.06-8.86-3.65-13.5.64-2.13,3.11-5,5.05-5.13,1.56-.13,3.19.6,5,.83.73.16.73-.36.74-.88,0-.84,1.69-.72,2.9-.72s3.9.61,5.06,2.56a15.89,15.89,0,0,1,1.16,3c.7,2.18,3.51,3.57,3.06,1.23-.27-1.47-.91-3.34-1.26-5-.47-2.33,1.43-5.27,3-6.4a25.55,25.55,0,0,0,2.76-2.08,5.06,5.06,0,0,0,1.73-2.62c.15-1.24-.63-2.43-.45-3.79a6.55,6.55,0,0,1,.83-2.68,8.38,8.38,0,0,1,3.24-3.21c1.22-.62,3.29-.31,4-1.92s.81-2.64,2.22-3.88a12.14,12.14,0,0,1,2.9-1.82c1.67-.78.65,2.06,2.63,1.93a16.46,16.46,0,0,0,5.74-2.46c1.91-1.19,2.83-3.31,2.29-4s-2.42,2.92-4.29,2.4a2.87,2.87,0,0,1-.57-.24c-1.7-1-1.21-3.91-1.55-3.87s-.28-.46.18-.64,1.27-3.36-.7-2.7a9.72,9.72,0,0,0-1.05.43c-1.94.86-2.07-.66-.14-1.55,3.07-1.43,6.61-1.55,10-2.2,2-.4,2.68.7,1.37,2.83s-2,3.56-.56,3.94c1.93.5,4.34-.27,4.32.51,0,.5,0,1,.69.51,1.05-.68,2,1.06,2.94-.16a2.16,2.16,0,0,0,0-2.16c-.47-1.07-1-3-2.19-3.11s-1.22-3.11-.4-5.51l.24-.75c.71-2.42-2.13-4.55-3.51-5.94-4.07-4.1-2.42-4.22-4.05-9.7-.61-2-2.39-1.8-4.13-.18-.92.86-1.84,1.47-2.5,1.34-1.7-.33-.15-5.43-1.25-6-.6-.32-1.43-.48-1.68-1.54-.37-1.88-2.13-2.64-3.94-2.41s-3.76,3.16-3.83,5-2,4.55-1.52,5.88,1,4.68-.52,6.51c-.93,1.11-2.18,1.93-3,3.07-1.42,2-.19,5.34-1.09,6.47a1.34,1.34,0,0,1-1.86.45,5.13,5.13,0,0,1-2-3.43c-.08-2.92,1.21-4.56-1.2-5.35a25.53,25.53,0,0,1-8.69-4.82c-1.17-1-.86-2.3-1-4s-1.54-2.23.59-4.38c1.33-1.35,3.23-2.25,4.21-4.34s-.94-2.31.48-3.9,4.22-.74,5.63-1.24a2.89,2.89,0,0,0,1.83-1.36c.78-1.43-.38-1.57-.55-2.32,0-.24.4-.36.85-.41a4.44,4.44,0,0,0,1.78-.37,3,3,0,0,0,.9-.84c.27-.39.27-.7.61-1.07a2.09,2.09,0,0,1,1.09-.55,5.49,5.49,0,0,0,2.37-.71,8.2,8.2,0,0,0,3.24-2.76,6.69,6.69,0,0,0,1-2.74c-.1-.52-.75-.5-.6-1.3.48-2.63,3.33-2.46,4.28-2.59,1.45-.19,3.17-.48,2.43,2.11-.34,1.15-1,3.92.73,2.49,1-.82,1.33-1.22,1.78-.38a2.44,2.44,0,0,1,.38,2.38,3.17,3.17,0,0,1-1.7,1.92c-1.08.64-2.63,4.31-4.3,4.49-.27,0-.55,0-.81.09-1.69.23-2.08,4.07-.37,3.44s3.46.55,4.42,2c1.35,2,3.49,4.21,4.65,4.29,1.74.11,1.05-3.73,1.93-4a4.46,4.46,0,0,1,1.57-.26c.28,0,.7-2.19.71-2.42a3.4,3.4,0,0,0-.46-1.85c-.63-1-1.71-1.14-1.93-2.65-.24-1.69,1.59-3,2.42-2.39a3.28,3.28,0,0,1,.73,1.66c.29,1.08,1.11,1.73,1.54,1.56a2.22,2.22,0,0,0,.77-.5c.61-.62.68-1.43,1.19-2.08.82-1.05,1.76-.66,2.55-1.66a1.4,1.4,0,0,0-.16-2.19c-1.2-1.09-2.61-1.78-3.76-2.78a8.11,8.11,0,0,1-.68-.55c-.34-.36-.28-1.66,0-2.6a9,9,0,0,0,.39-1.66,2.52,2.52,0,0,0-.75-1.83,8.57,8.57,0,0,0-1.39-1.54c-.86-.71-3-1-3.63-2.34s-.91-3-2.08-3c-.14,0-.62.39-.83.45a1.21,1.21,0,0,1-.78,0c-.47-.17-.71-.62-1.1-.88a2.89,2.89,0,0,0-3.07,0,11,11,0,0,1-1.41.63,12,12,0,0,1-2.51.26,11.8,11.8,0,0,0-3.67,2,9.44,9.44,0,0,0-2.05,2c-.87,1.24-1.67,3.27-.85,3.57s2.37,0,3.39.14,3.18.24,2.06,2.41c-.86,1.65-2.67,1-3.13,3-.15.66,0,1.24-.46,2a8.34,8.34,0,0,1-1.63,1.67A12.85,12.85,0,0,1,158,105.6c-.74.4-1.64.12-1.41-.85.18-.78,1-1.34,1.3-2.13a.94.94,0,0,0-.47-1.29,2.59,2.59,0,0,0-.69-.26,2.08,2.08,0,0,1-1.15-1,4.25,4.25,0,0,1-.28-.92c-.11-.56-.36-1.1-.48-1.71A4.54,4.54,0,0,1,156,94.14c.31-.26.67-.49,1.08-.84a19.73,19.73,0,0,0,2.28-2.45c1.5-1.88,2-3.77.54-3.76s-4,1.55-5.26,3.87a26,26,0,0,1-2.19,4c-.91,1.13-2.07,1.92-2.92,3.06s-.88,2.14-1.51,3.26-.81.8-1.52,1.15c-1.6.78-1.74,3.38-3.32,4.42a3.7,3.7,0,0,1-1.6.43,5.39,5.39,0,0,1-2.64-.21c-.23-.1-.55-.21-.31-.73.35-.75,1.11-.87,1.59-1.16,1.5-.9,3.1-3.39,3.14-4.75,0-.9-.79-.93-1.2-1.36a3.55,3.55,0,0,1-.33-3.56q-4.17,5.07-7.88,10.41a.77.77,0,0,1,.64.57c.12.44-.14.93-.54,1.57a9.65,9.65,0,0,0-.68,1.23c-.33.68-1.72,3.23-2.48,2.59a4.3,4.3,0,0,1-.52-.59,163.33,163.33,0,0,0-25.07,72.54,1.37,1.37,0,0,1,1.31.5c1.33,1.42,1.84,4.87,3.18,6.3,2.22,2.38,4.79,5.34,5.88,8.55.71,2.09,1.7,5.2,3.37,6.5,3.25,2.52,7.17,4.62,10.75,4.69s6.71,6.6,10.27,5.13c.43-.18,1.94,2.88,2.16,3.29a12.27,12.27,0,0,0,3.4,3.71,25.06,25.06,0,0,0,4.49,2.6c2.85,1.42,6.23,3.52,5.11,7.94-.69,2.66-2.14,5.11-3.15,7.66s-1.85,5.41-.7,8.25,3.19,4.91,4.35,7.63.3,6,1.5,9c1.49,3.73,4.15,4.64,7.46,6.41a12,12,0,0,1,5.75,6A105.73,105.73,0,0,1,177,297c2.06,8.09,3.5,16.62,7.3,24.07a34.29,34.29,0,0,0,7,9.89c1.94,1.81,4,2.12,4.33-1,.19-1.94-1.14-3.72-1.66-5.53s.37-3.23.55-5.05c.15-1.5-.91-3.93.27-5s2.66-.1,3.43-1.64c1-1.95-1.11-3.14-1.27-4.77s2.53-1.34,3.54-2.67c.63-.84.5-2,1-2.95.38-.73.81-.81,1.34-1.3a8.44,8.44,0,0,0,1.87-3.61C205.39,295.28,203.58,292.55,204.65,290.58ZM138.56,155c1.81-1.34,5.1-4.44,6.57-3.43a6.12,6.12,0,0,1,1.55,2.49c.81,1.84,3.33,2.74,4.75,3.63s-.84,2.12-1.24,3.55-1.5,1.89-1.36,1.07c.08-.49.09-.88-.64-.67-1,.29-.71-.42-.34-1.2.5-1.08-2-2.32-2.94-.11a16,16,0,0,0-.62,1.85c-.68,2.29-2.92,2-2.23-.29.09-.28.19-.57.3-.86.83-2.25.4-5.08-1.48-5.08C138.73,155.92,136.62,156.42,138.56,155Z" style="fill:#f5f5f5"></path><path d="M153.34,84.92c.21.9,1.46.26,1.74-.09s1.82-2.47,1.38-3.48c-.21-.49-.74-.45-1.32-.19-.75.71-1.47,1.44-2.2,2.16A6.57,6.57,0,0,0,153.34,84.92Z" style="fill:#f5f5f5"></path><path d="M255.52,144.19c.47,1.64,2.25.75,3.22.51a4.49,4.49,0,0,0,2.68-2.8,4.28,4.28,0,0,0-.23-3c-.42-.86-1.58-2.38-2.5-1.81-.37.22-.29.71-.6,1s-1.23,0-1.72.08c-1.39.25-.4,1.78-.22,2.62a2.94,2.94,0,0,1-.2,1.71C255.76,143,255.34,143.57,255.52,144.19Z" style="fill:#f5f5f5"></path><path d="M284.86,170.08c.94-2.07-.44-8.43-1.41-6.21a8.49,8.49,0,0,0-.41,1.26C282.42,167.53,283.91,172.16,284.86,170.08Z" style="fill:#f5f5f5"></path><path d="M427.07,237.08c1-1.4,1.26-3.38-.31-3.71s-2.4,1.28-3.64,2.48a33,33,0,0,1-4.84,3.75c-1,.68-2.67-.21-3.14,1.63a8.7,8.7,0,0,0,.34,4.89,8.38,8.38,0,0,0,1.39,3.24c1.44,1.63,3.76,2.48,5.88.68a4.15,4.15,0,0,0,.86-1c.38-.63.87-1.92,1.38-2.69.64-2.14,1.23-4.3,1.78-6.46A2.56,2.56,0,0,1,427.07,237.08Z" style="fill:#f5f5f5"></path><path d="M157.7,203.81a9.63,9.63,0,0,1-4.28-1.74c-1.25-.83-2.73-1.82-4.13-1.3-1,.39.18,1.6.84,2.13a14.3,14.3,0,0,0,1.53,1c.86.54,2,1.55,2.67,2a2.14,2.14,0,0,0,1.28.35c1.78-.07,3.64-1.09,5.39.33.41.34,1.07,1.31,1.62,1.26l.1,0c.59-.19.52-1.24.29-1.8C162.11,203.85,159.25,204,157.7,203.81Z" style="fill:#f5f5f5"></path><path d="M291.55,176.39a1.73,1.73,0,0,0-1-2.29c-.54-.29-.67.35-.73,1.1C289.74,176.16,290.92,177.8,291.55,176.39Z" style="fill:#f5f5f5"></path><path d="M275.61,170c.75-.72.64-1.51-1.5-1.51-.34,0-.88.52-1.24,1.13C272.36,170.5,274.34,171.22,275.61,170Z" style="fill:#f5f5f5"></path><path d="M249.62,109c1.24-2.21-1.31-5.84-2.48-5.73-.71.07-1.42.69-2,.9a11.71,11.71,0,0,1-2.3.12c-1.27.08-2.61,1.8-3.46.55s-1.91,2.55-.73,4.84C241.36,115,247.75,112.37,249.62,109Z" style="fill:#f5f5f5"></path><path d="M156.22,112.82c-1,2.08-1.35,4-.41,4.54s3.53-.83,5.31-1.21c2.56-.56.58-1.84-1-3.62C159.09,111.35,157.25,110.75,156.22,112.82Z" style="fill:#f5f5f5"></path><path d="M235.83,83.32c1.4-.92,3.87-2.81,3.48-5.42-.23-1.56-1.08-2.17-1-3.89a6.4,6.4,0,0,1,.42-1.88,19.29,19.29,0,0,1,1.76-2.77,2.06,2.06,0,0,0,.27-1.73c-.34-1.19-1.45-1.35-2-2.1-2.73-3.82,7.35-10.48,6.5-12.26a1.39,1.39,0,0,0-.82-.6,8,8,0,0,0-2.09-.42,3.94,3.94,0,0,0-1.21.14,3.77,3.77,0,0,0-1.47,1.17c-.77.86-1.74,1.8-2,1.49-.1-.12-.14-.41-.36-.79-.61-1.09-.73-.28-1.57.13-.41.19-1.81.25-1.83-1s1.35-2.48,1.76-3.13a3.15,3.15,0,0,1,1.2-1.15c.71-.34.73-2-.29-3a7.24,7.24,0,0,0-3.38-1.77,11,11,0,0,0-7.25.53,16,16,0,0,0-3.74,2.06c-1.67,1.23-3.39,4.16-5.29,5.56a2.64,2.64,0,0,1-2.93.29c-1.64-.56-3.74-1.26-6.88,1.72-1.93,1.85-.71,2.07-1.58,3.82s-2.94,1.27-3.74,1.57a4.94,4.94,0,0,0-1.15.62,5.37,5.37,0,0,0-1.56,3.09c0,.39-.12.72-1.26,1.63a31.41,31.41,0,0,1-4.63,2.93,7.57,7.57,0,0,0-3.19,3.13c-.78,1.38-.27,1.37.12,1.84a2.16,2.16,0,0,1,.41.83c.14.55.11,2,.77,2.28s2.83-.56,4.44-1.07c2.73-.87,5.3-1.44,6.44.84a5.23,5.23,0,0,1,.5,2.54c0,1.72-1.19,4.79-1.85,6.49a4.88,4.88,0,0,0-.5,2.89c.53,1.61,2.43,1.69,3,3.51.43,1.43-.2,3.39-1.18,5.12-1.08,1.92-2.32,2.57-3.53,4.18s-.94,3.46-1.28,5.15a16.64,16.64,0,0,0,.05,6.22,47.48,47.48,0,0,0,1.65,6.49,7.17,7.17,0,0,0,1.09,2.29c.8,1,3.17,1.38,4.86,1.07a5.6,5.6,0,0,0,3-1.59c1.93-2.06,1.72-5.39,2.6-8a6.9,6.9,0,0,1,3.89-4.49c1.61-.74,3.73-1.18,5.15-2.75,1.16-1.29,1.93-3.35,3.15-4.53,1.64-1.58,4.06-1.39,5.83-2.06,1.21-.46,3.65-1.57,4-3.33.17-1-.16-1.47.34-2.36a3.46,3.46,0,0,1,1.38-1.17c.2-.11.57-.19.92-.32.51-.2.75-1.4.42-2-.23-.42-.5-.81-.61-1.09C234.23,86.11,234.16,84.42,235.83,83.32Z" style="fill:#f5f5f5"></path><path d="M152.4,90.65c.74-.52,1.65-1.16,1.33-1.55-.08-.14-.31-.15-.41-.27s-1.21-.21-3.12.67-2.5,2.61-3.85,3.12-.48,3,.63,3.72c1.66,1.07,3.92-.73,5.24-2.48C153.89,91.65,151.35,91.41,152.4,90.65Z" style="fill:#f5f5f5"></path><path d="M333,63c-98.23-46-128.58,21.07-81,73.95s138.74,82.28,156,55.12S406,97.18,333,63Z" style="fill:#fff;opacity:0.2"></path><g style="opacity:0.05"><path d="M184.6,281.37c-80-67.65-29.18-218,56.74-243.25h0c-3.12.52-6.24,1.11-9.37,1.82A163.64,163.64,0,1,0,407.41,285.58C382.49,316.68,268.55,352.36,184.6,281.37Z"></path></g></g></g><g id="freepik--Airplanes--inject-13"><g id="freepik--Planes--inject-13"><g id="freepik--Plane--inject-13"><path d="M395.61,46.54a.49.49,0,0,0-.59.77l.71.53-1.91.81c-5.44-4.09-9.71-6.33-10.74-5s2.29,4.86,7.7,9l-.26,2.06-.7-.53a.49.49,0,0,0-.59.77l1.16.87L389.05,66.5l.53.4L395.53,56c4.73,3.05,9.52,5.63,9.52,5.63l.43,5.13.48.37,1.48-3.82s1.19.82,1.72.13-.59-1.61-.59-1.61l3.26-2.46-.48-.37-5.05,1s-3.79-3.9-8-7.62l8.9-8.71-.53-.4-9.9,4.19Z" style="fill:#455a64"></path><path d="M412.44,66l.53.4c.35.27.87.64,1.5,1.15s1.39,1.15,2.24,1.9,1.82,1.59,2.8,2.58,2.07,2,3.17,3.2,2.24,2.41,3.37,3.74,2.3,2.71,3.41,4.17,2.21,3,3.32,4.45,2.13,3.07,3.09,4.63,1.92,3.09,2.79,4.6,1.65,3,2.41,4.43,1.35,2.8,1.95,4.06,1.05,2.46,1.49,3.5.76,2,1,2.74c.55,1.53.85,2.41.85,2.41s-.43-.82-1.14-2.28c-.36-.73-.76-1.62-1.31-2.61l-1.77-3.34c-.69-1.2-1.4-2.53-2.19-3.9s-1.64-2.81-2.57-4.27c-.46-.73-.93-1.47-1.4-2.23l-1.48-2.25c-1-1.53-2.06-3-3.1-4.53s-2.13-3-3.25-4.44L426.56,82l-1.63-2.06c-1.09-1.34-2.14-2.64-3.16-3.85s-2-2.35-2.94-3.37-1.79-2-2.54-2.8-1.47-1.51-2-2.09Z" style="fill:#ebebeb"></path></g><g id="freepik--plane--inject-13"><path d="M460.28,141.32a.48.48,0,0,0-.92.3l.28.85-2-.43c-2.15-6.45-4.39-10.73-6-10.19s-.89,5.3,1.23,11.77l-1.38,1.55-.28-.85a.48.48,0,0,0-.61-.3.47.47,0,0,0-.31.61l.45,1.37-7.16,8,.21.63L454.86,149c2.15,5.2,4.63,10,4.63,10l-2.56,4.47.18.57,3.39-2.29s.51,1.35,1.34,1.08.43-1.67.43-1.67l4.08-.17-.18-.57-4.72-2.07s-.89-5.36-2.25-10.82l12.27-2.1-.21-.63-10.53-2.19Z" style="fill:#FFC100"></path><path d="M463.22,166.82s0,.22.16.64.27,1,.44,1.84.36,1.76.55,2.88.42,2.38.56,3.77.33,2.89.46,4.48.22,3.28.26,5,.09,3.55,0,5.38-.13,3.7-.2,5.56-.28,3.71-.5,5.54-.46,3.61-.72,5.33-.62,3.38-.91,4.95-.71,3-1,4.39-.73,2.58-1.05,3.66-.65,2-.9,2.79c-.54,1.54-.86,2.41-.86,2.41s.18-.91.55-2.49c.18-.79.42-1.75.62-2.86s.45-2.35.72-3.71.5-2.84.74-4.41.49-3.21.68-4.93c.1-.86.21-1.73.31-2.61s.18-1.78.27-2.69c.2-1.8.29-3.64.43-5.48s.24-3.67.26-5.49c0-.9.06-1.8.08-2.69s0-1.77,0-2.63c0-1.73,0-3.4,0-5s-.08-3.09-.17-4.47-.16-2.65-.22-3.77-.19-2.1-.26-2.91C463.32,167.74,463.22,166.82,463.22,166.82Z" style="fill:#ebebeb"></path></g></g></g><g id="freepik--Plant--inject-13"><g id="freepik--Plants--inject-13"><path d="M438.85,396.35a.7.7,0,0,1-.25,0l-7.16-1.84a.62.62,0,0,1-.42-.4c-.07-.18-6.3-18.81,7-44.07,9.47-18,24.3-29.74,33.74-26.66a10.5,10.5,0,0,1,7.36,7.49c.91,3.89-.53,8.14-3.84,11.38-.74.72-1.9,1.7-3.36,2.95-9,7.69-30.23,25.71-32.52,50.6a.62.62,0,0,1-.26.45A.66.66,0,0,1,438.85,396.35Zm-6.76-3,6.12,1.57c2.67-25,23.81-43,32.88-50.71,1.44-1.23,2.59-2.2,3.3-2.9,3-2.93,4.31-6.75,3.5-10.21a9.18,9.18,0,0,0-6.54-6.59c-8.89-2.89-23.06,8.55-32.26,26.05C427,373.59,431.35,390.88,432.09,393.39Z" style="fill:#FFC100"></path><path d="M434.78,395.3h-.08a.62.62,0,0,1-.63-.61c-.53-29.08,19.6-57.09,33.14-62.86a.62.62,0,1,1,.49,1.13c-13.39,5.71-32.89,34.13-32.39,61.71A.63.63,0,0,1,434.78,395.3Z" style="fill:#FFC100"></path><path d="M431.69,394.51a.62.62,0,0,1-.27,0L426.57,393a.61.61,0,0,1-.41-.4c-.09-.28-8.65-28.06-2.34-65.49,3.21-19.06,14.32-37.66,26.42-44.22,5.82-3.15,11.54-3.54,17-1.17,3.09,1.35,5,3.33,5.74,5.89,2,7.08-5.34,17.62-13.13,28.78-5.44,7.81-11.07,15.88-13.64,23a.62.62,0,1,1-1.16-.42c2.62-7.28,8.3-15.42,13.79-23.3,7.61-10.91,14.8-21.22,13-27.74-.63-2.21-2.28-3.88-5.05-5.08-5.09-2.22-10.45-1.85-15.92,1.12C439,290.39,428.19,308.62,425,327.34c-5.9,35,1.29,61.46,2.2,64.6l4.54,1.37a.62.62,0,0,1,.41.77A.63.63,0,0,1,431.69,394.51Z" style="fill:#FFC100"></path><path d="M430.49,376.81h0a.62.62,0,0,1-.67-.57c-3.66-45,21.44-81,28.86-87.18a.62.62,0,1,1,.79.95c-7.31,6.09-32,41.63-28.42,86.13A.6.6,0,0,1,430.49,376.81Z" style="fill:#FFC100"></path></g></g><g id="freepik--Shadows--inject-13"><path id="freepik--Shadow--inject-13" d="M106,404.56c-23.52-12.78-49-23.32-63.47-17.32S28.36,411,65.81,433.57c39.79,24,68.3,28.44,82.92,18.9C168.05,439.86,136.75,421.27,106,404.56Z" style="fill:#e0e0e0"></path><path id="freepik--shadow--inject-13" d="M333.07,456.47l-68.75-39.63c-1.94-1.12-1.94-2.93,0-4L365,354.64a7.73,7.73,0,0,1,7,0l68.75,39.63c1.94,1.12,1.94,2.93,0,4.05L340.08,456.47A7.73,7.73,0,0,1,333.07,456.47Z" style="fill:#e0e0e0"></path></g><g id="freepik--Books--inject-13"><g id="freepik--books--inject-13"><g id="freepik--Book--inject-13"><path d="M275.22,415.62l2.67-1.42-2.43-.58A1.86,1.86,0,0,0,275.22,415.62Z" style="fill:#FFC100"></path><path d="M275.22,415.62l2.67-1.42-2.43-.58A1.86,1.86,0,0,0,275.22,415.62Z" style="opacity:0.5"></path><path d="M339.42,447.42a6,6,0,0,1-5.42,0l-54.44-31.37,91.14-51.77,2.13-1.23,54.44,30.51c1.49.87,1.49,2.28,0,3.13Z" style="fill:#FFC100"></path><path d="M323,385.65l-21.23,12.22L288,389.94l-16,9.23v10.67c0,1.4,1.56,3.39,2.13,3.06a16,16,0,0,1,3.06,1.09,23.24,23.24,0,0,1,4.41,3.26l48.79-27.31Z" style="fill:#FFC100"></path><path d="M323,385.65l-21.23,12.22L288,389.94l-16,9.23v10.67c0,1.4,1.56,3.39,2.13,3.06a16,16,0,0,1,3.06,1.09,23.24,23.24,0,0,1,4.41,3.26l48.79-27.31Z" style="opacity:0.15"></path><path d="M280.82,400.46V412l-.19-.12a5.54,5.54,0,0,0-2.6-.81,2.69,2.69,0,0,0-1.71.4V397.86Z" style="fill:#37474f"></path><path d="M283.8,416a3.56,3.56,0,0,0-.76-2,7.57,7.57,0,0,0-.75-.86l-.26-.24-.33-.28-.28-.21c-.2-.15-.4-.28-.6-.41V400.51l3,1.72V416Z" style="fill:#e0e0e0"></path><path d="M272.05,409.84c0,1.4,1.56,3.39,2.13,3.06h0l2.14-1.39v-8.8L274.18,399l-1.17-.42-1,.56Z" style="opacity:0.4"></path><path d="M336.71,432.67v13.21a3.53,3.53,0,0,1-1.8-.43l-6.68-3.85L283.8,416V402.17Z" style="fill:#ebebeb"></path><path d="M425.74,383v10a4,4,0,0,1-1.8,3.14L345.19,441.6l-6.67,3.85a3.54,3.54,0,0,1-1.81.43V434.16Z" style="fill:#f5f5f5"></path><path d="M370.7,347.11l-91.14,52.62V401c0,.68-.95.93-2.12.25s-2.12-1.52-2.12-2.69l-.12-1.16,92.86-53.61.38-.22a1.31,1.31,0,0,1,.15.57v.56C368.59,345.33,369.53,346.42,370.7,347.11Z" style="fill:#FFC100"></path><path d="M370.7,347.11l-91.14,52.62V401c0,.68-.95.93-2.12.25s-2.12-1.52-2.12-2.69l-.12-1.16,92.86-53.61.38-.22a1.31,1.31,0,0,1,.15.57v.56C368.59,345.33,369.53,346.42,370.7,347.11Z" style="opacity:0.1"></path><path d="M334,431.1l-53.09-30.59c-.75-.4-1.44-.72-1.74-.56l.39-.22,91.14-52.62,1.07-.62a3.41,3.41,0,0,1,2.87.43l52.63,30.32c1.49.87,1.49,2.28,0,3.13L339.42,431.1A6,6,0,0,1,334,431.1Z" style="fill:#FFC100"></path><path d="M368.44,343.52l-.38.22L275.2,397.35a.63.63,0,0,0-.2-.25c-.08-.05-.19-.1-.31-.18l-.67-.38-.82-.48a.86.86,0,0,0-1.06.09.28.28,0,0,0-.1.09,1.62,1.62,0,0,0-.28.39,2.25,2.25,0,0,0-.24.52,3.94,3.94,0,0,0-.19.61c-.05.23-.1.46-.14.71a2.82,2.82,0,0,0-.05.43c0,.11,0,.21,0,.34s0,.53,0,.81v-2.61a5.57,5.57,0,0,1,2.71-4.17l87.85-50.73a5.48,5.48,0,0,1,4.84-.34l1.1.65,0,0,.47.27h0A1,1,0,0,1,368.44,343.52Z" style="fill:#FFC100"></path><path d="M334,447.41l-3.68-2.12-48.67-28a3.55,3.55,0,0,0-.75-2,8.17,8.17,0,0,0-2.41-2.12,5.54,5.54,0,0,0-2.6-.81,2.78,2.78,0,0,0-1.71.56,9.4,9.4,0,0,1-1-4.56h-2.09c0,2.88.95,5.77,2.12,6.44l1.05.62c.6.34,1.07.36,1.07,0v-.56c0-.63.95-.6,2.12.08s2.12,1.73,2.12,2.36v.56c0,.33.82,1.05,1.81,1.62l46.86,27,5.77,3.33h0a5.75,5.75,0,0,0,2.7.63v-2.41A5.46,5.46,0,0,1,334,447.41Z" style="fill:#FFC100"></path><path d="M334,447.41l-3.68-2.12-48.67-28a3.55,3.55,0,0,0-.75-2,8.17,8.17,0,0,0-2.41-2.12,5.54,5.54,0,0,0-2.6-.81,2.78,2.78,0,0,0-1.71.56,9.4,9.4,0,0,1-1-4.56h-2.09c0,2.88.95,5.77,2.12,6.44l1.05.62c.6.34,1.07.36,1.07,0v-.56c0-.63.95-.6,2.12.08s2.12,1.73,2.12,2.36v.56c0,.33.82,1.05,1.81,1.62l46.86,27,5.77,3.33h0a5.75,5.75,0,0,0,2.7.63v-2.41A5.46,5.46,0,0,1,334,447.41Z" style="opacity:0.30000000000000004"></path><path d="M334,431.11h0L330.32,429l-35.89-20.65-13.52-7.81c-1-.56-1.74-.76-1.8-.47a0,0,0,0,0,0,0v.62c0,.68-1,.68-2.11,0a2.82,2.82,0,0,1-1.67-2.13v-.67a1,1,0,0,0-.32-.79l-.31-.18-.67-.38-.82-.48a.86.86,0,0,0-1.06.09.28.28,0,0,0-.1.09,1.5,1.5,0,0,0-.19.25,1.1,1.1,0,0,0-.09.14,2.25,2.25,0,0,0-.24.52,3.94,3.94,0,0,0-.19.61c-.05.23-.1.46-.14.71a2.82,2.82,0,0,0-.05.43c0,.11,0,.21,0,.34s0,.53,0,.81v8.29h2.09v-8.29c0-.22,0-.43,0-.64l.05-.53a.09.09,0,0,1,0-.05c.19,1.66,1.77,3.14,3.15,3.93a5.34,5.34,0,0,0,2.55.79,2.79,2.79,0,0,0,1.87-.69l.18.11.37.21,46.86,27,5.77,3.33h0l0,0a5.61,5.61,0,0,0,2.66.62v-2.41A5.57,5.57,0,0,1,334,431.11Z" style="fill:#FFC100"></path><path d="M334,431.11h0L330.32,429l-35.89-20.65-13.52-7.81c-1-.56-1.74-.76-1.8-.47a0,0,0,0,0,0,0v.62c0,.68-1,.68-2.11,0a2.82,2.82,0,0,1-1.67-2.13v-.67a1,1,0,0,0-.32-.79l-.31-.18-.67-.38-.82-.48a.86.86,0,0,0-1.06.09.28.28,0,0,0-.1.09,1.5,1.5,0,0,0-.19.25,1.1,1.1,0,0,0-.09.14,2.25,2.25,0,0,0-.24.52,3.94,3.94,0,0,0-.19.61c-.05.23-.1.46-.14.71a2.82,2.82,0,0,0-.05.43c0,.11,0,.21,0,.34s0,.53,0,.81v8.29h2.09v-8.29c0-.22,0-.43,0-.64l.05-.53a.09.09,0,0,1,0-.05c.19,1.66,1.77,3.14,3.15,3.93a5.34,5.34,0,0,0,2.55.79,2.79,2.79,0,0,0,1.87-.69l.18.11.37.21,46.86,27,5.77,3.33h0l0,0a5.61,5.61,0,0,0,2.66.62v-2.41A5.57,5.57,0,0,1,334,431.11Z" style="opacity:0.30000000000000004"></path><path d="M428.38,378.78v2.45a1.86,1.86,0,0,1-1.07,1.55l0,0-82.08,47.38-5.76,3.33h0a5.71,5.71,0,0,1-2.71.64v-2.41a5.53,5.53,0,0,0,2.72-.65l3.66-2.12h0l84.17-48.6A1.87,1.87,0,0,0,428.38,378.78Z" style="fill:#FFC100"></path><path d="M428.38,378.78v2.45a1.86,1.86,0,0,1-1.07,1.55l0,0-82.08,47.38-5.76,3.33h0a5.71,5.71,0,0,1-2.71.64v-2.41a5.53,5.53,0,0,0,2.72-.65l3.66-2.12h0l84.17-48.6A1.87,1.87,0,0,0,428.38,378.78Z" style="opacity:0.2"></path><path d="M428.38,395.09v2.46a1.86,1.86,0,0,1-1.07,1.54l0,0L345.19,446.5l-5.76,3.33h0a5.82,5.82,0,0,1-2.71.63v-2.41a5.53,5.53,0,0,0,2.72-.65l3.66-2.11h0l84.17-48.61A1.86,1.86,0,0,0,428.38,395.09Z" style="fill:#FFC100"></path><path d="M428.38,395.09v2.46a1.86,1.86,0,0,1-1.07,1.54l0,0L345.19,446.5l-5.76,3.33h0a5.82,5.82,0,0,1-2.71.63v-2.41a5.53,5.53,0,0,0,2.72-.65l3.66-2.11h0l84.17-48.61A1.86,1.86,0,0,0,428.38,395.09Z" style="opacity:0.2"></path></g><g id="freepik--book--inject-13"><polygon points="275.2 388.9 339.94 425.66 434.61 371.33 369.88 334.56 275.2 388.9" style="fill:#FFC100"></polygon><polygon points="275.2 388.9 339.94 425.66 434.61 371.33 369.88 334.56 275.2 388.9" style="fill:#fff;opacity:0.2"></polygon><path d="M340.59,423.18l-62.71-35.82q2.16-6.15-.3-14.34l62.36,35.49S341,412,340.59,423.18Z" style="fill:#f5f5f5"></path><path d="M337.12,404a11.66,11.66,0,0,1,5.31,9.14v10.69c0,3.36-2.38,4.73-5.31,3.05l-61.91-35.37V388.9l61.19,34.75c1.76,1,3.18.19,3.18-1.83l-.05-9.9a7,7,0,0,0-3.19-5.49l-61.12-34.76v-3Z" style="fill:#FFC100"></path><path d="M337.12,404a11.66,11.66,0,0,1,5.31,9.14v10.69c0,3.36-2.38,4.73-5.31,3.05l-61.91-35.37V388.9l61.19,34.75c1.76,1,3.18.19,3.18-1.83l-.05-9.9a7,7,0,0,0-3.19-5.49l-61.12-34.76v-3Z" style="fill:#fff;opacity:0.4"></path><path d="M275.21,368.67l94.67-54.33,61.91,35.36a11.66,11.66,0,0,1,5.31,9.15v10.68a3.67,3.67,0,0,1-1.56,3.41l-94.67,54.34a3.72,3.72,0,0,0,1.56-3.42V413.17a11.66,11.66,0,0,0-5.31-9.14Z" style="fill:#FFC100"></path><path d="M275.21,368.67l94.67-54.33,61.91,35.36a11.66,11.66,0,0,1,5.31,9.15v10.68a3.67,3.67,0,0,1-1.56,3.41l-94.67,54.34a3.72,3.72,0,0,0,1.56-3.42V413.17a11.66,11.66,0,0,0-5.31-9.14Z" style="fill:#fff;opacity:0.85"></path><path d="M340.88,408a10.75,10.75,0,0,1,1.56,5.2v10.69a3.72,3.72,0,0,1-1.56,3.42l94.67-54.34a3.67,3.67,0,0,0,1.56-3.41V358.85a10.78,10.78,0,0,0-1.56-5.21Z" style="fill:#FFC100"></path><path d="M340.88,408a10.75,10.75,0,0,1,1.56,5.2v10.69a3.72,3.72,0,0,1-1.56,3.42l94.67-54.34a3.67,3.67,0,0,0,1.56-3.41V358.85a10.78,10.78,0,0,0-1.56-5.21Z" style="fill:#fff;opacity:0.6000000000000001"></path><path d="M423.06,360.73c1.72,7.48,1.7,13.94,0,19.42l-4.4,2.54c1.7-5.48,1.72-11.94,0-19.42Z" style="fill:#fff"></path><path d="M360.18,397c1.72,7.48,1.7,13.94,0,19.42l-4.4,2.54c1.7-5.48,1.73-11.94,0-19.42Z" style="fill:#fff"></path></g></g><g id="freepik--Apple--inject-13"><path d="M337.14,373.92c8.9,5.14,23.35,5.14,32.26,0s8.91-13.49,0-18.63-23.36-5.14-32.26,0S328.23,368.77,337.14,373.92Z" style="fill:#FFC100;opacity:0.30000000000000004"></path><path d="M348.09,327.72c-4-.45-11-1.1-16.88,7-6.64,9.28-3.86,22.71,2.78,29.31,8.35,8.28,23.15,11.22,33.26,4.73,11.18-7.17,14.74-23.77,9.38-32.21s-15.88-8.09-18.72-7.42C353.64,330.19,351.22,328.07,348.09,327.72Z" style="fill:#FFC100"></path><path d="M362.11,365.82c-11.28,3.89-25.07-.28-32.5-8.26a21.51,21.51,0,0,0,4.38,6.52c8.35,8.28,23.15,11.22,33.26,4.73,8.48-5.44,12.57-16.29,11.71-24.9C379,346.28,374.53,361.55,362.11,365.82Z" style="opacity:0.1"></path><g style="opacity:0.1"><path d="M343.35,330.56c-2.53-.66-6.65,1-9.2,4.15-3.17,3.94-4.52,10-4.52,14.62,0,9.26,7.89,15.47,8.86,14.84s-4.35-7.58.66-15.95S347.5,331.64,343.35,330.56Z" style="fill:#fff"></path></g><g style="opacity:0.1"><path d="M341.12,331.67c-2.77.44-6.51,4.11-7.81,6.94s-1.25,4.91-.91,5.32c.62.75,6.82-3.54,9-5.58C344.36,335.46,345.58,331,341.12,331.67Z" style="fill:#fff"></path></g><path d="M350.92,336.13c-1.21-1.35-2.42-2.14-3.41-.58s2.29,4.83,6.62,4.32,6.21-2.95,6.36-4.32c0,0-2.36,2.63-5.19,2.5A7.06,7.06,0,0,1,350.92,336.13Z" style="opacity:0.2"></path><path d="M354.31,338.82a39.19,39.19,0,0,0,.06-11.59c-1-5.6-3.63-9.86-4.46-10.42a11.16,11.16,0,0,0-4.4-1.45c-2.12-.33-4.88.67-4.33,1.6s3.5,2.06,6.61,6.14,5.5,11.41,4.82,15.43A1.68,1.68,0,0,0,354.31,338.82Z" style="fill:#37474f"></path><path d="M349.77,316.72l-.19-.12h0a12.5,12.5,0,0,0-4-1.23,5.85,5.85,0,0,0-4.15.88c-.19.28.2.77,2.05,1.36a11.88,11.88,0,0,0,5.65.42C349.93,317.86,350.37,317.19,349.77,316.72Z" style="fill:#455a64"></path><path d="M352.69,331.69c-.85-5.05-5.23-9.88-8.39-12.23h0a21.64,21.64,0,0,1,3.49,3.64c3.12,4.09,5.5,11.41,4.82,15.43a1.68,1.68,0,0,0,1.7.29s.25-1.45.39-3.57C354.26,337.17,353.48,336.34,352.69,331.69Z" style="opacity:0.1"></path><path d="M354.72,330.34a10.09,10.09,0,0,0,9.84-2c3.56-3.34,2.51-8.65,2.51-8.65a9.4,9.4,0,0,0-8.55,1.16C355.48,323,354.27,328,354.72,330.34Z" style="fill:#FFC100"></path><path d="M354.72,330.34a10.09,10.09,0,0,0,9.84-2c3.56-3.34,2.51-8.65,2.51-8.65a9.4,9.4,0,0,0-8.55,1.16C355.48,323,354.27,328,354.72,330.34Z" style="opacity:0.30000000000000004"></path><path d="M367.07,319.66a9.4,9.4,0,0,0-8.55,1.16c-3,2.17-4.25,7.16-3.8,9.52C358.35,323.37,367.07,319.66,367.07,319.66Z" style="fill:#FFC100"></path></g></g><g id="freepik--Pen--inject-13"><g id="freepik--pen--inject-13"><path d="M197.48,408.23l90.11,52.11,13.92,2.83a.43.43,0,0,0,.46-.63l-4.36-8-90.12-52.11C204.74,400.86,195.33,407,197.48,408.23Z" style="opacity:0.2"></path><g id="freepik--pen--inject-13"><path d="M206.45,394.58a1.72,1.72,0,0,1,.4.14l-.78-.44-.14-.08h0l-.16-.07-.07,0-.13,0-.22,0-.23,0h0a3.33,3.33,0,0,0-1.67.51,8.26,8.26,0,0,0-3.73,6.47,3.84,3.84,0,0,0,.1.93.94.94,0,0,0,0,.16.16.16,0,0,0,0,.09,1.27,1.27,0,0,0,.06.18,2,2,0,0,0,.31.56,1.84,1.84,0,0,0,.55.49l.89.51a1.66,1.66,0,0,1-.4-.31,3,3,0,0,0,2.15-.46,8.24,8.24,0,0,0,3.73-6.46A3,3,0,0,0,206.45,394.58Z" style="fill:#FFC100"></path><path d="M293.31,444.67l-5.26,9.15-.9-.51-85.49-49.4a1.66,1.66,0,0,1-.4-.31,3,3,0,0,1-.69-2.1,8.24,8.24,0,0,1,3.74-6.47,3.3,3.3,0,0,1,1.66-.51,1.86,1.86,0,0,1,.48.06,1.72,1.72,0,0,1,.4.14l.07,0,0,0h0Z" style="fill:#f0f0f0"></path><path d="M290.67,444.93c2.06-1.19,3.73-.22,3.73,2.16a8.24,8.24,0,0,1-3.73,6.46c-2.06,1.19-3.73.23-3.73-2.15A8.26,8.26,0,0,1,290.67,444.93Z" style="fill:#FFC100"></path><path d="M298.7,450.48a.52.52,0,0,0-.1-.11l-4.76-5.23v0l0,0-.08-.09,0-.06h0c-.68-.66-1.76-.71-3,0a8.26,8.26,0,0,0-3.73,6.47c0,1.38.56,2.28,1.44,2.56h.05l.27,0,.06,0h0l6.91,1.51a1.72,1.72,0,0,0,1.2-.26,4.73,4.73,0,0,0,2.14-3.7A1.76,1.76,0,0,0,298.7,450.48Z" style="fill:#e0e0e0"></path><path d="M229,411.46h0l-.13-.07a.93.93,0,0,0-.86.12,3,3,0,0,0-1.33,2.3,1,1,0,0,0,.31.8h0l.16.09,65.37,37.77,3.73-2.15Z" style="fill:#455a64"></path><path d="M287.27,449.43l5.27,3,3.73-2.15-7.13-4.12A9,9,0,0,0,287.27,449.43Z" style="fill:#37474f"></path><path d="M300.57,453h0l-4.32-4.75-.12-.13a1.69,1.69,0,0,0-2.13,0,5.84,5.84,0,0,0-2.64,4.57,1.73,1.73,0,0,0,1,1.81h0l.17,0,6.34,1.38h0a1,1,0,0,0,.68-.15,2.65,2.65,0,0,0,1.2-2.08A.9.9,0,0,0,300.57,453Z" style="fill:#FFC100"></path><path d="M300.57,453h0l-4.32-4.75-.12-.13a1.69,1.69,0,0,0-2.13,0,5.84,5.84,0,0,0-2.64,4.57,1.73,1.73,0,0,0,1,1.81h0l.17,0,6.34,1.38h0a1,1,0,0,0,.68-.15,2.65,2.65,0,0,0,1.2-2.08A.9.9,0,0,0,300.57,453Z" style="opacity:0.1"></path><path d="M300.81,453.65a2.65,2.65,0,0,1-1.2,2.08,1,1,0,0,1-.68.15h0l-3.2-.7c-.51-.1-.84-.58-.84-1.34a4.26,4.26,0,0,1,1.92-3.33,1.24,1.24,0,0,1,1.54,0l.08.09,2.15,2.35h0A.9.9,0,0,1,300.81,453.65Z" style="fill:#FFC100"></path><path d="M299.61,453c.66-.38,1.2-.07,1.2.69a2.65,2.65,0,0,1-1.2,2.08c-.66.39-1.2.08-1.2-.69A2.65,2.65,0,0,1,299.61,453Z" style="opacity:0.1"></path><path d="M214.91,403.3a.92.92,0,0,0-.93.09,2.91,2.91,0,0,0-1.32,2.29.92.92,0,0,0,.39.86h0l14,8.06a1,1,0,0,1-.31-.8,3,3,0,0,1,1.33-2.3.93.93,0,0,1,.86-.12Z" style="fill:#fafafa"></path><path d="M215.3,404.16a2.94,2.94,0,0,1-1.32,2.29.94.94,0,0,1-.93.09.93.93,0,0,1-.39-.86,2.91,2.91,0,0,1,1.32-2.29.92.92,0,0,1,.93-.09A.94.94,0,0,1,215.3,404.16Z" style="fill:#f5f5f5"></path><path d="M212.35,398.51h0l0,0-.06,0-5.51-3.18-.13-.07,0,0h0a2.41,2.41,0,0,0-2.27.28,7.42,7.42,0,0,0-3.36,5.82,2.36,2.36,0,0,0,1,2.18h0l5.57,3.22,0,0h0a2.39,2.39,0,0,0,2.32-.26,7.4,7.4,0,0,0,3.36-5.82A2.4,2.4,0,0,0,212.35,398.51Z" style="fill:#FFC100"></path><path d="M212.35,398.51h0l0,0-.06,0-5.51-3.18-.13-.07,0,0h0a2.41,2.41,0,0,0-2.27.28,7.42,7.42,0,0,0-3.36,5.82,2.36,2.36,0,0,0,1,2.18h0l5.57,3.22,0,0h0a2.39,2.39,0,0,0,2.32-.26,7.4,7.4,0,0,0,3.36-5.82A2.4,2.4,0,0,0,212.35,398.51Z" style="opacity:0.05"></path><path d="M209.9,398.7c1.86-1.08,3.36-.21,3.36,1.93a7.4,7.4,0,0,1-3.36,5.82c-1.85,1.07-3.36.21-3.36-1.94A7.43,7.43,0,0,1,209.9,398.7Z" style="opacity:0.1"></path><path d="M302.34,455h0l-2.28-1.37h0a.42.42,0,0,0-.45,0,1.34,1.34,0,0,0-.61,1.06.41.41,0,0,0,.18.4h0l2.27,1.37h0a.85.85,0,0,0,.42.11.88.88,0,0,0,.47-1.61Z" style="fill:#455a64"></path><path d="M302.47,455.07h0a.4.4,0,0,0-.12-.1h0a.45.45,0,0,0-.39.07,1.35,1.35,0,0,0-.62,1.06.42.42,0,0,0,.18.39l0,0,0,0a.88.88,0,0,0,.88-1.47Z" style="fill:#263238"></path></g></g></g><g id="freepik--Pencil--inject-13"><g id="freepik--pencil--inject-13"><path id="freepik--shadow--inject-13" d="M236.29,451.45l-8.8-10h0l-66.28-38.4h0L159.33,402l-3-1.75-.21-.12a.09.09,0,0,1,.07,0l-2.92-1.68h0l-12-6.89c-2.31-1.58-5.77,1.62-7.12,4.85h0a7.17,7.17,0,0,0-.47,1.5,3,3,0,0,0,1,3.24l9.75,5.61,2.65,1.53,0,0,2.18,1.26.21.11,2.53,1.46h0a.45.45,0,0,0,.1.09l2.12,1.2,67.42,39.05h0L234.46,454l3.49.69a.48.48,0,0,0,.44-.12.52.52,0,0,0,0-.71Z" style="opacity:0.2"></path><g id="freepik--pencil--inject-13"><path d="M145.37,402.49l1.2.69L148,404l75.26,43.56c-.45-1-.1-3,.93-4.94,1.2-2.25,3-4,4.36-4.1l-74.88-43.35-2.76-1.58C152.65,394.73,147.12,403.6,145.37,402.49Z" style="fill:#455a64"></path><path d="M153.56,395.11l-2.68-1.53c-.76-.47-2.21.9-3.47,2.71-1.69,2.41-3.06,5.58-2,6.21l2,1.13.71.39c-1-.62.36-3.8,2.05-6.2,1.21-1.74,2.6-3.07,3.38-2.75h0S153.53,395.1,153.56,395.11Z" style="fill:#ebebeb"></path><path d="M152.89,394.74c-1.77-1.1-7.29,7.81-5.52,8.91l2.68,1.54c-1.77-1.09,3.75-10,5.51-8.91Z" style="fill:#FFC100"></path><path d="M158.11,397.75l-2.64-1.52c-1.73-1.09-7.14,7.46-5.67,8.82l.09.07,2.67,1.51C150.83,405.51,156.36,396.64,158.11,397.75Z" style="fill:#ebebeb"></path><path d="M150.92,393.59v0l0,0c-.76-.48-2.2.9-3.47,2.71-1.67,2.36-3,5.47-2.09,6.16L134.15,396a2.68,2.68,0,0,1-.87-2.91c.62-3.26,4.43-7.39,6.84-5.74Z" style="fill:#f28f8f"></path><path d="M235.69,448c-.93,1.25-.83,1.86-.83,1.86l-11.59-2.28c-1.15-1.75-.39-4.6,1.2-6.63l.51.28Z" style="fill:#f28f8f"></path><path d="M238,450.48l-3.15-.62s-.15-.61.83-1.86l2.75,1.74h0a.45.45,0,0,1,0,.63A.43.43,0,0,1,238,450.48Z" style="fill:#37474f"></path><path d="M228.55,438.54h0l7.95,9a1.4,1.4,0,0,0-.82.45L225,441.23l-.51-.28A5.55,5.55,0,0,1,228.55,438.54Z" style="fill:#ffa8a7"></path><path d="M235.69,448a1.06,1.06,0,0,1,.82-.45l1.93,2.19Z" style="fill:#455a64"></path><path d="M224.47,441l-90.06-50.54a8.3,8.3,0,0,0-1.13,2.72,2.67,2.67,0,0,0,.87,2.91l11.22,6.45,1.2.69L148,404l75.26,43.56C221.86,445.4,223.41,442.18,224.47,441Z" style="opacity:0.2"></path></g></g></g><g id="freepik--Character--inject-13"><g id="freepik--character--inject-13"><g id="freepik--Backpack--inject-13"><path d="M46.62,193.59l21.18-7.77L70.5,160s-13.23,3.29-16.12,7.68C49.72,174.76,46.07,185,46.62,193.59Z" style="fill:#FFC100"></path><path d="M46.62,193.59l21.18-7.77L70.5,160s-13.23,3.29-16.12,7.68C49.72,174.76,46.07,185,46.62,193.59Z" style="opacity:0.5"></path><path d="M101.29,152c5.9.57,12.83,5.68,14.24,8.21,2.59,4.63,4.75,62.32-1,67.84-7.17,6.92-39.86,18.38-53.39,16.41-11.17-1.62-17.54-9.85-18.9-13-2.25-5.23,10.16-56.07,14.36-61.31C63.45,161.64,93.77,151.3,101.29,152Z" style="fill:#FFC100"></path><path d="M101.29,152c5.9.57,12.83,5.68,14.24,8.21,2.59,4.63,4.75,62.32-1,67.84-7.17,6.92-39.86,18.38-53.39,16.41-11.17-1.62-17.54-9.85-18.9-13-2.25-5.23,10.78-57.68,15-62.92C64.06,160,93.77,151.3,101.29,152Z" style="opacity:0.30000000000000004"></path><path d="M67.42,210.45A261.13,261.13,0,0,0,70,172.93c.53-3.68-2.93-11.22-2.93-11.22-4.36,2.16-7.94,4.5-9.8,6.82-4.19,5.24-17.21,57.67-15,62.92h0c.07.16.15.35.25.54l0,.06c.1.19.21.39.33.59l.06.09c.12.21.26.43.41.66a.22.22,0,0,1,.05.08l.53.74h0c.4.53.86,1.1,1.38,1.69h0c.26.28.53.58.82.87l0,0a26.53,26.53,0,0,0,11.6,6.94C64.87,243.35,65,227.54,67.42,210.45Z" style="fill:#FFC100"></path><path d="M70,172.93c.53-3.68-2.93-11.22-2.93-11.22-4.36,2.16-7.94,4.5-9.8,6.82a5.05,5.05,0,0,0-.44.68c0,1.07,1.77,3.67,3,4.77a41.9,41.9,0,0,0,10.14,6.39C70,175.71,70,172.93,70,172.93Z" style="opacity:0.4"></path><path d="M48.76,204c.26-.1,4.22-2.39,4.67-2.56.78-.29,10.71,8.28,11.56,9.64.59.94-3.29,23.19-3.82,24.09-.2.32-4.48,2.23-4.67,2.56-.53.9-11-7.86-11.54-9.74S47.6,204.4,48.76,204Z" style="fill:#FFC100"></path><path d="M48.76,204c.26-.1,4.22-2.39,4.67-2.56.78-.29,10.71,8.28,11.56,9.64.59.94-3.29,23.19-3.82,24.09-.2.32-4.48,2.23-4.67,2.56-.53.9-11-7.86-11.54-9.74S47.6,204.4,48.76,204Z" style="opacity:0.18"></path><path d="M60.32,213.61c.59.94-3.28,23.19-3.82,24.09S45.46,229.84,45,228s2.64-23.56,3.8-24C49.55,203.68,59.47,212.25,60.32,213.61Z" style="fill:#FFC100"></path><path d="M53.42,201.41c-.44.16-4.4,2.47-4.66,2.56.79-.29,10.71,8.28,11.56,9.64L65,211.05C64.14,209.69,54.21,201.12,53.42,201.41Z" style="opacity:0.4"></path><path d="M60.32,213.61c.59.94-3.28,23.19-3.82,24.09S45.46,229.84,45,228s2.64-23.56,3.8-24C49.55,203.68,59.47,212.25,60.32,213.61Z" style="opacity:0.30000000000000004"></path><path d="M65,211.05c-.74-.62-3.3.37-4.44,1.14S57.79,217,55,217.34s-6.11-3.64-6.63-6-.89-7.24.61-8.78,3.87-2.2,5.64-.95S65,208.94,65,211.05Z" style="fill:#FFC100"></path><path d="M65,211.05c-.74-.62-3.3.37-4.44,1.14S57.79,217,55,217.34s-6.11-3.64-6.63-6-.89-7.24.61-8.78,3.87-2.2,5.64-.95S65,208.94,65,211.05Z" style="opacity:0.1"></path><path d="M52.72,211.46a2,2,0,0,1,.71,1.95.81.81,0,0,1-1.31.56,2,2,0,0,1-.71-1.95C51.58,211.31,52.16,211.06,52.72,211.46Z" style="fill:#37474f"></path><path d="M69.92,180.37s.94-2.16-7.8-8.86c-5.76-4.42-6.46-3.51-9.39,1.88-1.66,3.06-3.42,6.85-6.11,20.2-1.17-.16-1.67-3.87.39-11.81,3.2-12.28,6.88-18.58,13.73-21.72,17.48-8,29.21-10.8,40-8.66,10.06,2,16.51,5.74,16,14.84C116.73,166.24,102,182.1,69.92,180.37Z" style="fill:#FFC100"></path><path d="M69.92,180.37s.94-2.16-7.8-8.86c-5.76-4.42-6.46-3.51-9.39,1.88-1.66,3.06-3.42,6.85-6.11,20.2-1.17-.16-1.67-3.87.39-11.81,3.2-12.28,6.88-18.58,13.73-21.72,17.48-8,29.21-10.8,40-8.66,10.06,2,16.51,5.74,16,14.84C116.73,166.24,102,182.1,69.92,180.37Z" style="opacity:0.35000000000000003"></path></g><g id="freepik--Bottom--inject-13"><path d="M82.5,419.86c.83-3.17-2.17-5.3-3.55-7.19-2.15-2.92-2.61-7.33-2.47-10.71.18-4.2-.21-7.23,2.46-10.94,3.16-4.39,7.53-9.51,22-21.9L84.29,350.6c-3.81,5.7-13.62,25.82-13.62,25.82L70,377.67a22.88,22.88,0,0,1-5.62,5.16l-1,.47c-1.68,1.1-5.9,2.17-6,6.21s1.42,5.09,3.07,8.46a12.16,12.16,0,0,1,1.78,7.28c0,3.24-.3,4.63-.44,7.54-.11,2.44,2,6.08,6.46,7.84C74.89,423.2,81.67,423,82.5,419.86Z" style="fill:#f28f8f"></path><path d="M55.09,389.53a45.64,45.64,0,0,0-5.28,8.66l4.34,6.8,4.08-6.54A24.52,24.52,0,0,1,55.09,389.53Z" style="fill:#263238"></path><path d="M54.15,405l6.31-.21a5.7,5.7,0,0,0-.49-4,8.33,8.33,0,0,0-1.74-2.3Z"></path><path d="M56.41,388.08a4.66,4.66,0,0,0-1.26,1.31c-.32.65-.13,4.81,1.11,6.87s3.29,4.27,3.72,7.16-.91,7.22.06,11.26,4.54,8.76,12.66,10.14c5.8,1,8-.06,10-1.25.8-2.57.75-3.25-2.36-5.56S56.41,388.08,56.41,388.08Z" style="fill:#263238"></path><path d="M67.63,377.92c-2.73,3.11-3.71,4.31-6.16,5.66-3,1.64-3.6,2.32-5.06,4.5-.71,3.45-.08,4.91,2.85,9.46a13.23,13.23,0,0,1,2.42,9.3c-.24,5.05-2.07,7.37,3.71,12.75,4.5,4.2,14.64,4.85,17.49,2.16,2.6-6.8-3.46-6.53-4.63-13.89a24.56,24.56,0,0,1,.64-12.09,33.89,33.89,0,0,1,2.23-5.21c1-1.68,1.95-2.89,1.2-3.83l-1.55,1.83c-1.49.28-5-.65-7.32-2.7-5.52-4.92-3.42-8.19-3.42-8.19l.64-1.25C70.12,375.69,69.17,376.16,67.63,377.92Z" style="fill:#37474f"></path><path d="M136.3,219.47c1.09,10,5.3,22.65,7.06,46.31,1.65,22.18,2.33,33.74.41,44.67-.68,3.89-2.79,8.4-6.72,14.05-12.3,17.71-36.27,45.41-36.27,45.41s-5.21-.28-11.34-5.71a18.43,18.43,0,0,1-5.93-12.68s.75-4.12,11-20.48,12.07-34.4,12.07-34.4l-3.81-71.18C117.64,227.39,129.13,225,136.3,219.47Z" style="fill:#263238"></path><path d="M89.44,364.2a18.43,18.43,0,0,1-5.93-12.68s.75-4.12,11-20.48,12.07-34.4,12.07-34.4l-2.92-54.49c11.77-1.43,28.09-.66,28.09-.66,0,7.78-2,17.34-13,22.73,0,0,.67,38.27.54,49.46-.1,8.53-3.26,30.15-4.76,39.92-7.62,9.26-13.72,16.31-13.72,16.31S95.57,369.63,89.44,364.2Z"></path><path d="M107.85,405.8l.13-1.71,2.84-34.81-24,5.23,4.31,28.16.13,1.46s0,7.12,10.61,7.92C107.32,412.46,107.85,405.8,107.85,405.8Z" style="fill:#f28f8f"></path><polygon points="93.9 437.13 102.26 434.28 102.81 426.2 94.3 429.15 93.9 437.13"></polygon><path d="M86.51,418.68c-.45,3,1.53,14.48,1.53,14.48l5.86,4,.4-8s1.61,1.53,3.23,5.82c1.52,4,2.79,7.07,6.64,9.23s8,2.83,13.82,2.27c4.11-.4,6.69-2.11,7.41-3.16a3.72,3.72,0,0,0,.3-1.68Z" style="fill:#263238"></path><path d="M108,404.09c1.13,0,1,1.06,2.17,7.81.86,5,4.49,15.7,7.76,19.45,2.87,3.29,8.45,4.47,7.79,10.28C123.07,445,114.15,446,109,444.45c-6.56-2-8.55-5.4-11-11.95-1.94-5.25-3.8-5.87-6.56-8.05-1.83-1.43-4.32-3.5-5-5.77,0-4.92,1.94-8.06,2.67-10.52.68-2.3.44-5.19,2-5.49l.13,1.46s1.28,4,8.67,4.42,7.9-2.75,7.9-2.75Z" style="fill:#37474f"></path><path d="M136.3,219.47s1.46,12.92-3,24.48c-3.88,10-10.84,15.52-18,17.64,0,0,.77,45.78,1.19,52.16s-1.87,29.37-3.73,44.49-2.45,20.3-2.45,20.3-3.25,3.3-12,3.15-11.45-4-11.45-4-5-17.74-4.7-31.51c.13-7.89,2-11.75.76-19.62s-10.71-43.08-12-59.65,2-31,13.94-47.43C96.77,228.17,124.89,227.15,136.3,219.47Z" style="fill:#263238"></path><path d="M89.75,222.2c-6.47,8.55-16,26.32-10.58,52.49,1.54,7.44,3.08,14.62,4.57,21.57,3.49,16.27,6.25,29.11,6.51,34a40.32,40.32,0,0,1-.68,8.18,71.34,71.34,0,0,0-.67,19.28c.82,8.34,2.12,17.12,3.07,23.07-.37-.11-.71-.23-1-.36-.94-5.94-2.19-14.49-3-22.62a71.27,71.27,0,0,1,.68-19.51,39.43,39.43,0,0,0,.66-8c-.26-4.8-3-17.61-6.49-33.84-1.49-6.95-3-14.13-4.56-21.58-5.44-26.35,4-44.33,10.61-53.08Z"></path></g><g id="freepik--Top--inject-13"><g id="freepik--Arm--inject-13"><path d="M119.79,158.55c6.75-.26,12.35,1.91,17.63,8.32,5.65,6.87,12.69,15,21.07,24.3l18-10.67,8.83,12s-18.42,15-25.48,18.25c-5.28,2.47-6.84.2-11.37-3.59-5-4.2-20-18.11-20-18.11Z" style="fill:#f28f8f"></path><path d="M158.49,191.17c-4,2.08-6.77,4.58-7.4,7.9-.18-5.19,4.89-8.25,6.3-9.14Z" style="fill:#b16668"></path><path d="M196.7,152.73l-9.54,36.36a2.33,2.33,0,0,1-1.14,1.37l-20.21,8.67-.78.33,9.91-37.77-.08-.06a.23.23,0,0,1-.07-.23.5.5,0,0,1,.3-.29l21-9,.06,0a.45.45,0,0,1,.47,0h0A.62.62,0,0,1,196.7,152.73Z" style="fill:#FFC100"></path><path d="M196.7,152.73l-9.54,36.36a2.33,2.33,0,0,1-1.14,1.37l-20.21,8.67-.78.33,9.91-37.77-.08-.06a.23.23,0,0,1-.07-.23.5.5,0,0,1,.3-.29l21-9,.06,0a.45.45,0,0,1,.47,0h0A.62.62,0,0,1,196.7,152.73Z" style="opacity:0.30000000000000004"></path><polygon points="174.37 161.72 196.64 152.59 197.37 153.34 174.74 162.1 174.37 161.72" style="fill:#f5f5f5"></polygon><path d="M174.29,161.29a.5.5,0,0,0,.16.51,1.45,1.45,0,0,0,1.46.25h0l21.62-8.48h0a.52.52,0,0,1,.51,0l0,0a.66.66,0,0,1,.08.61l-9.54,36.36a2.2,2.2,0,0,1-1.15,1.34l-21.62,8.49a1.46,1.46,0,0,1-1.46-.26.54.54,0,0,1-.16-.51Z" style="fill:#FFC100"></path><path d="M174.29,161.29a.5.5,0,0,0,.16.51,1.45,1.45,0,0,0,1.46.25h0l21.62-8.48h0a.52.52,0,0,1,.51,0l0,0a.66.66,0,0,1,.08.61l-9.54,36.36a2.2,2.2,0,0,1-1.15,1.34l-21.62,8.49a1.46,1.46,0,0,1-1.46-.26.54.54,0,0,1-.16-.51Z" style="opacity:0.2"></path><path d="M175.11,162.12a1.24,1.24,0,0,1-.66-.32.5.5,0,0,1-.16-.51l-10.07,38.35a.54.54,0,0,0,.16.51,1.15,1.15,0,0,0,.66.32Z" style="opacity:0.30000000000000004"></path><path d="M175.91,162.05a1.45,1.45,0,0,1-1.46-.25c-.32-.33-.19-.77.29-1h0l21-9c.25-.11.44-.09.55,0a1.08,1.08,0,0,1,.11.11l.16.17a.45.45,0,0,0-.47,0l-21,9a.5.5,0,0,0-.3.29.23.23,0,0,0,.07.23l.08.06a.9.9,0,0,0,.74,0l21.58-8.46a.48.48,0,0,1,.52.05l.11.12.16.16a.52.52,0,0,0-.51,0l-21.63,8.49Z" style="fill:#FFC100"></path><path id="freepik--world--inject-13" d="M175.91,175.46c-.65,2.49-.52,4.52.36,5.73s2.41,1.44,4.31.66a15.15,15.15,0,0,0,5.74-4.79,21,21,0,0,0,3.81-7.43c.66-2.49.53-4.52-.35-5.73l0-.05-.07-.09c-.9-1.08-2.39-1.27-4.2-.52a15,15,0,0,0-5.73,4.76l0,0-.12.16A21.3,21.3,0,0,0,175.91,175.46Zm8.5-10.85.49-.25.06,0-1.12,4.27a6.16,6.16,0,0,1-.84.26l-.13,0a3.53,3.53,0,0,1-1.29,0c.25-.53.51-1,.78-1.52A11.44,11.44,0,0,1,184.41,164.61Zm-2.29,2.61c-.29.52-.57,1.07-.84,1.64l-.15,0-.1,0a2.31,2.31,0,0,1-.76-.51,16.14,16.14,0,0,1,3.11-3A16.52,16.52,0,0,0,182.12,167.22Zm2.06,1.77a9,9,0,0,0,1-.52l.15-.1a13.52,13.52,0,0,0,1.63-1.24,19.08,19.08,0,0,1-.61,3.79l-3,1.22Zm2,2.58a30.75,30.75,0,0,1-1.46,4.11,3.45,3.45,0,0,0-1.29,0l-.14,0a5.28,5.28,0,0,0-.88.24l.81-3.12Zm-4.26,4.51a10.73,10.73,0,0,0-1,.48l-.15.09a13.53,13.53,0,0,0-1.64,1.17,20.35,20.35,0,0,1,.59-3.62l3-1.22Zm-2-2.52a30.35,30.35,0,0,1,1.41-4,3.83,3.83,0,0,0,1.34,0l.14,0a5.77,5.77,0,0,0,.9-.28l-.82,3.13ZM186,164c.46.13.77.67.9,1.59a6.63,6.63,0,0,1,.07,1,12.54,12.54,0,0,1-1.56,1.2l-.15.09a8.57,8.57,0,0,1-.88.48l1.11-4.25h.05A4.75,4.75,0,0,1,186,164Zm.9-.14a2.45,2.45,0,0,1,2,.76q-.57.69-1.17,1.29l-.14.15-.2.18a7.82,7.82,0,0,0-.07-1.12A3.26,3.26,0,0,0,186.86,163.84Zm2.22,1c.72,1,.85,2.71.36,4.76l-2.74,1.12a20.77,20.77,0,0,0,.64-4c.09-.09.19-.17.28-.27l.16-.15C188.22,165.88,188.66,165.4,189.08,164.88Zm.19,5.4a19.12,19.12,0,0,1-3.23,6.21,2.47,2.47,0,0,0-.77-.6l-.1,0-.2-.07a30.49,30.49,0,0,0,1.56-4.36Zm-3.67,6.77a16.12,16.12,0,0,1-2.93,2.77,16.54,16.54,0,0,0,1.25-1.95c.26-.46.51-1,.76-1.46l.13.05.1,0A2.23,2.23,0,0,1,185.6,177.05Zm-4,3.43-.49.25,0,0,1.12-4.25a7,7,0,0,1,.81-.22l.13,0a3.11,3.11,0,0,1,1.23.06c-.22.47-.45.93-.69,1.36A11.44,11.44,0,0,1,181.63,180.48Zm-1.55.63c-.45-.13-.77-.67-.9-1.59a8.36,8.36,0,0,1-.07-1.17,13.76,13.76,0,0,1,1.57-1.14l.15-.08c.3-.17.6-.32.89-.45L180.6,181l-.06,0A3.5,3.5,0,0,1,180.08,181.11Zm-.9.14a2.46,2.46,0,0,1-2.1-.86,18,18,0,0,1,1.26-1.34l.14-.14.21-.19a8.31,8.31,0,0,0,.08,1.27A3.27,3.27,0,0,0,179.18,181.25Zm-2.31-1.16a6.27,6.27,0,0,1-.28-4.61l2.75-1.12a20.26,20.26,0,0,0-.63,3.83l-.29.26-.15.15A18.19,18.19,0,0,0,176.87,180.09Zm-.11-5.25a19.21,19.21,0,0,1,3.07-6,2.7,2.7,0,0,0,.85.57l.1,0,.21.05a31.43,31.43,0,0,0-1.48,4.22Z" style="fill:#FFC100"></path><path d="M170.29,193.23l-.6.24,1.14-4.31.93-.39c.47-.19,1-.22.65.92l0,.11a2.27,2.27,0,0,1-1.34,1.74l-.35.14Zm1-2.48c.16-.06.39-.24.51-.73l0-.05c.13-.49-.05-.5-.21-.43l-.37.15-.32,1.22Z" style="fill:#FFC100"></path><path d="M174.35,187.7l-.42,4-.63.26.1-.88-.7.29-.38,1-.64.27,1.85-4.62ZM173,190.59l.47-.19.18-1.5Z" style="fill:#FFC100"></path><path d="M174.88,188.63l0-.06a2.46,2.46,0,0,1,1.34-1.7c.7-.29.89.06.62,1.07l0,.12-.59.24c.15-.56.1-.78-.2-.66l0,0a.93.93,0,0,0-.5.63v0c-.08.31,0,.44.35.36.59-.13.82.06.61.86v.06a2.45,2.45,0,0,1-1.38,1.73c-.67.28-.91,0-.64-1.07l0,0L175,190c-.14.54-.06.71.22.59h0a1,1,0,0,0,.55-.68v0c.08-.31,0-.43-.37-.35C174.88,189.62,174.68,189.41,174.88,188.63Z" style="fill:#FFC100"></path><path d="M177.19,187.68l0-.06a2.46,2.46,0,0,1,1.34-1.7c.7-.28.89.06.62,1.07l0,.12-.59.24c.15-.56.1-.78-.2-.65h0a.93.93,0,0,0-.5.63v0c-.08.31,0,.45.35.36.59-.13.82.06.61.86v.06a2.45,2.45,0,0,1-1.38,1.73c-.67.28-.91,0-.64-1.07l0-.05.59-.24c-.14.54,0,.71.22.6l0,0a1,1,0,0,0,.55-.68v0c.08-.31,0-.44-.37-.35C177.19,188.67,177,188.46,177.19,187.68Z" style="fill:#FFC100"></path><path d="M179.35,189.51l-.59.24,1.13-4.31.94-.39c.47-.19.95-.22.65.92l0,.11a2.29,2.29,0,0,1-1.34,1.74l-.35.14Zm1-2.48c.17-.06.4-.24.52-.73l0-.05c.13-.49-.06-.5-.22-.43l-.37.15-.32,1.22Z" style="fill:#FFC100"></path><path d="M181.42,186.84l.06-.23c.39-1.49.9-2.26,1.64-2.56s.93.18.54,1.67l-.06.22c-.39,1.5-.9,2.26-1.65,2.57S181,188.33,181.42,186.84Zm.76.89c.36-.15.59-.68.82-1.54l.05-.22c.23-.86.26-1.3-.11-1.15h0c-.37.15-.6.67-.83,1.54l-.06.22c-.22.86-.24,1.3.12,1.15Z" style="fill:#FFC100"></path><path d="M184,187.6l-.59.25,1.13-4.32.94-.38c.47-.19,1-.23.64.92l0,.11a2.72,2.72,0,0,1-.77,1.38v1.5l-.64.26,0-1.39-.31.12Zm1-2.47a1,1,0,0,0,.52-.73l0-.06c.13-.49-.06-.5-.22-.43l-.37.15-.32,1.22Z" style="fill:#FFC100"></path><path d="M186.74,186.48l-.59.24.93-3.54-.66.27.2-.77,1.91-.79-.2.78-.66.27Z" style="fill:#FFC100"></path><g style="opacity:0.2"><path id="freepik--world--inject-13" d="M175.91,175.46c-.65,2.49-.52,4.52.36,5.73s2.41,1.44,4.31.66a15.15,15.15,0,0,0,5.74-4.79,21,21,0,0,0,3.81-7.43c.66-2.49.53-4.52-.35-5.73l0-.05-.07-.09c-.9-1.08-2.39-1.27-4.2-.52a15,15,0,0,0-5.73,4.76l0,0-.12.16A21.3,21.3,0,0,0,175.91,175.46Zm8.5-10.85.49-.25.06,0-1.12,4.27a6.16,6.16,0,0,1-.84.26l-.13,0a3.53,3.53,0,0,1-1.29,0c.25-.53.51-1,.78-1.52A11.44,11.44,0,0,1,184.41,164.61Zm-2.29,2.61c-.29.52-.57,1.07-.84,1.64l-.15,0-.1,0a2.31,2.31,0,0,1-.76-.51,16.14,16.14,0,0,1,3.11-3A16.52,16.52,0,0,0,182.12,167.22Zm2.06,1.77a9,9,0,0,0,1-.52l.15-.1a13.52,13.52,0,0,0,1.63-1.24,19.08,19.08,0,0,1-.61,3.79l-3,1.22Zm2,2.58a30.75,30.75,0,0,1-1.46,4.11,3.45,3.45,0,0,0-1.29,0l-.14,0a5.28,5.28,0,0,0-.88.24l.81-3.12Zm-4.26,4.51a10.73,10.73,0,0,0-1,.48l-.15.09a13.53,13.53,0,0,0-1.64,1.17,20.35,20.35,0,0,1,.59-3.62l3-1.22Zm-2-2.52a30.35,30.35,0,0,1,1.41-4,3.83,3.83,0,0,0,1.34,0l.14,0a5.77,5.77,0,0,0,.9-.28l-.82,3.13ZM186,164c.46.13.77.67.9,1.59a6.63,6.63,0,0,1,.07,1,12.54,12.54,0,0,1-1.56,1.2l-.15.09a8.57,8.57,0,0,1-.88.48l1.11-4.25h.05A4.75,4.75,0,0,1,186,164Zm.9-.14a2.45,2.45,0,0,1,2,.76q-.57.69-1.17,1.29l-.14.15-.2.18a7.82,7.82,0,0,0-.07-1.12A3.26,3.26,0,0,0,186.86,163.84Zm2.22,1c.72,1,.85,2.71.36,4.76l-2.74,1.12a20.77,20.77,0,0,0,.64-4c.09-.09.19-.17.28-.27l.16-.15C188.22,165.88,188.66,165.4,189.08,164.88Zm.19,5.4a19.12,19.12,0,0,1-3.23,6.21,2.47,2.47,0,0,0-.77-.6l-.1,0-.2-.07a30.49,30.49,0,0,0,1.56-4.36Zm-3.67,6.77a16.12,16.12,0,0,1-2.93,2.77,16.54,16.54,0,0,0,1.25-1.95c.26-.46.51-1,.76-1.46l.13.05.1,0A2.23,2.23,0,0,1,185.6,177.05Zm-4,3.43-.49.25,0,0,1.12-4.25a7,7,0,0,1,.81-.22l.13,0a3.11,3.11,0,0,1,1.23.06c-.22.47-.45.93-.69,1.36A11.44,11.44,0,0,1,181.63,180.48Zm-1.55.63c-.45-.13-.77-.67-.9-1.59a8.36,8.36,0,0,1-.07-1.17,13.76,13.76,0,0,1,1.57-1.14l.15-.08c.3-.17.6-.32.89-.45L180.6,181l-.06,0A3.5,3.5,0,0,1,180.08,181.11Zm-.9.14a2.46,2.46,0,0,1-2.1-.86,18,18,0,0,1,1.26-1.34l.14-.14.21-.19a8.31,8.31,0,0,0,.08,1.27A3.27,3.27,0,0,0,179.18,181.25Zm-2.31-1.16a6.27,6.27,0,0,1-.28-4.61l2.75-1.12a20.26,20.26,0,0,0-.63,3.83l-.29.26-.15.15A18.19,18.19,0,0,0,176.87,180.09Zm-.11-5.25a19.21,19.21,0,0,1,3.07-6,2.7,2.7,0,0,0,.85.57l.1,0,.21.05a31.43,31.43,0,0,0-1.48,4.22Z" style="fill:#fff"></path><path d="M170.29,193.23l-.6.24,1.14-4.31.93-.39c.47-.19,1-.22.65.92l0,.11a2.27,2.27,0,0,1-1.34,1.74l-.35.14Zm1-2.48c.16-.06.39-.24.51-.73l0-.05c.13-.49-.05-.5-.21-.43l-.37.15-.32,1.22Z" style="fill:#fff"></path><path d="M174.35,187.7l-.42,4-.63.26.1-.88-.7.29-.38,1-.64.27,1.85-4.62ZM173,190.59l.47-.19.18-1.5Z" style="fill:#fff"></path><path d="M174.88,188.63l0-.06a2.46,2.46,0,0,1,1.34-1.7c.7-.29.89.06.62,1.07l0,.12-.59.24c.15-.56.1-.78-.2-.66l0,0a.93.93,0,0,0-.5.63v0c-.08.31,0,.44.35.36.59-.13.82.06.61.86v.06a2.45,2.45,0,0,1-1.38,1.73c-.67.28-.91,0-.64-1.07l0,0L175,190c-.14.54-.06.71.22.59h0a1,1,0,0,0,.55-.68v0c.08-.31,0-.43-.37-.35C174.88,189.62,174.68,189.41,174.88,188.63Z" style="fill:#fff"></path><path d="M177.19,187.68l0-.06a2.46,2.46,0,0,1,1.34-1.7c.7-.28.89.06.62,1.07l0,.12-.59.24c.15-.56.1-.78-.2-.65h0a.93.93,0,0,0-.5.63v0c-.08.31,0,.45.35.36.59-.13.82.06.61.86v.06a2.45,2.45,0,0,1-1.38,1.73c-.67.28-.91,0-.64-1.07l0-.05.59-.24c-.14.54,0,.71.22.6l0,0a1,1,0,0,0,.55-.68v0c.08-.31,0-.44-.37-.35C177.19,188.67,177,188.46,177.19,187.68Z" style="fill:#fff"></path><path d="M179.35,189.51l-.59.24,1.13-4.31.94-.39c.47-.19.95-.22.65.92l0,.11a2.29,2.29,0,0,1-1.34,1.74l-.35.14Zm1-2.48c.17-.06.4-.24.52-.73l0-.05c.13-.49-.06-.5-.22-.43l-.37.15-.32,1.22Z" style="fill:#fff"></path><path d="M181.42,186.84l.06-.23c.39-1.49.9-2.26,1.64-2.56s.93.18.54,1.67l-.06.22c-.39,1.5-.9,2.26-1.65,2.57S181,188.33,181.42,186.84Zm.76.89c.36-.15.59-.68.82-1.54l.05-.22c.23-.86.26-1.3-.11-1.15h0c-.37.15-.6.67-.83,1.54l-.06.22c-.22.86-.24,1.3.12,1.15Z" style="fill:#fff"></path><path d="M184,187.6l-.59.25,1.13-4.32.94-.38c.47-.19,1-.23.64.92l0,.11a2.72,2.72,0,0,1-.77,1.38v1.5l-.64.26,0-1.39-.31.12Zm1-2.47a1,1,0,0,0,.52-.73l0-.06c.13-.49-.06-.5-.22-.43l-.37.15-.32,1.22Z" style="fill:#fff"></path><path d="M186.74,186.48l-.59.24.93-3.54-.66.27.2-.77,1.91-.79-.2.78-.66.27Z" style="fill:#fff"></path></g><path d="M196,175.36c1.47-2.06,1.33-2.34.53-3.39a6.5,6.5,0,0,0-5.29-2.7c-1.82.06-3.65,0-4.59.51s-.13,2.45,2.23,3c3.73.83,3.71,1.84,3.71,1.84a47.91,47.91,0,0,0-4.81-.84,35.53,35.53,0,0,0-5.47.84c-1.57.25-1.88,2.28.79,3l-2.88.47c-2,.33-2.7,1.4-1.11,2.65a3,3,0,0,0,1.82.68s-2.15,0-2.19.71c-.12,2,1.21,2.59,5.55,3.84,4.14,1.19,5,3.42,4.18,5,0,0,1.66-1,3.14-2,1.09-.76,2-1.6,1.52-3.3,0,0,2.36,0,2.5-1.42a7.43,7.43,0,0,0-.57-3.13,2.6,2.6,0,0,0,1.3-2.43,4.21,4.21,0,0,0-.87-2.57Z" style="fill:#f28f8f"></path><path d="M183.09,177.57a13.12,13.12,0,0,1,2.61-.28,8.48,8.48,0,0,1,2.54.79,31.35,31.35,0,0,1,4.57,2.44,30.91,30.91,0,0,1-4.87-1.73,13.54,13.54,0,0,0-2.31-.92C184.85,177.75,183.94,177.73,183.09,177.57Z" style="fill:#b16668"></path><path d="M180.92,181.37a5.77,5.77,0,0,1,2.83-.09,15.39,15.39,0,0,1,2.7.84,26.52,26.52,0,0,1,4.93,2.63,54.13,54.13,0,0,1-5.22-1.92A14.55,14.55,0,0,0,180.92,181.37Z" style="fill:#b16668"></path></g><g id="freepik--Chest--inject-13"><path d="M75.75,195.32s5.08-1.75,7.61-12c1.16-4.66.25-11-.92-18.41l14.34-4.33s4.65-.71,14.82-1.36l8.19-.63s13,11.18,18.75,20.82c2.32,3.89,5.27,11.84-.61,21.57-.32,7.08-1.63,18.54-1.63,18.54S130.73,228,112.15,228c-26.65-.1-29.49-8.66-29.49-8.66C83,211.7,77.67,202.89,75.75,195.32Z" style="fill:#FFC100"></path><path d="M75.75,195.32s5.08-1.75,7.61-12c1.16-4.66.25-11-.92-18.41l14.34-4.33s4.65-.71,14.82-1.36l8.19-.63s13,11.18,18.75,20.82c2.32,3.89,5.27,11.84-.61,21.57-.32,7.08-1.63,18.54-1.63,18.54S130.73,228,112.15,228c-26.65-.1-29.49-8.66-29.49-8.66C83,211.7,77.67,202.89,75.75,195.32Z" style="fill:#fff;opacity:0.6000000000000001"></path><path d="M118.87,202.59s-4.55,6-14.7,4.54-12.32-9-12.32-9-.37,9.83,11.76,11.51C115.56,211.27,118.87,202.59,118.87,202.59Z" style="fill:#FFC100;opacity:0.2"></path></g><g id="freepik--Head--inject-13"><path d="M90,107.94a10.76,10.76,0,0,1,5.91-3.19c2.16-.39,3.46-.28,5.54-1s3.73-1.9,5.7-2.58c4.35-1.51,9.38-.07,12.84,3,1.52,1.35,2.92,3,4.91,3.49a21.38,21.38,0,0,0,3,.15,9.6,9.6,0,0,1,7.47,5.26,16.46,16.46,0,0,1,1.76,7.17c.09,2.47-.91,4.7-.92,7.14a8.71,8.71,0,0,0,2,4.87,16,16,0,0,1,3,5.74,11.32,11.32,0,0,1,.18,5.54,5.6,5.6,0,0,1-3.57,4,5.7,5.7,0,0,0-.38-5.33,6.41,6.41,0,0,1-1.27,4.78,13.31,13.31,0,0,1-3.8,3.32,18.85,18.85,0,0,1-10.95,3.19c-4-.27-8.06-1.92-12.15-1.13a32.47,32.47,0,0,0-3.33,1,28.13,28.13,0,0,1-5.8,1.16c-3,.29-7,.05-9.66-1.54a4.79,4.79,0,0,1-2.37-2.79,4.21,4.21,0,0,0,.42,3.31A13,13,0,0,1,79.41,148a9.53,9.53,0,0,1-.12-10.38,9.26,9.26,0,0,0-2,1.75,3.2,3.2,0,0,0-.74,2.48,7.37,7.37,0,0,1-.15-7.3,15.82,15.82,0,0,1,2.72-3.24c1.38-1.38,2.77-2.92,3.13-4.85a11.32,11.32,0,0,0,0-2.79,12.86,12.86,0,0,1,.27-4.29,5.59,5.59,0,0,1,2.21-3.13c.29-.21,3.52-1.89,3.56-1.61A8.91,8.91,0,0,1,90,107.94Z" style="fill:#263238"></path><path d="M88.49,131.68c2.66-.91,4.84.14,6.16,2.93,1.14,2.44,3.75,1.67,3.25-2.07,6.08-5.42-.66-9.22,4.38-14.49,3.14-3.29,9.58-2.18,12.1,0a6.36,6.36,0,0,1,7.43-2.7c2.69,1,4.37,2.73,5.55,6.54,1.24,4-.19,4.67.38,7.46a51.83,51.83,0,0,1,1.19,6c1.28,11.17-2.65,15.58-5.58,17.62a14.85,14.85,0,0,1-9.2,2.63l0,5.68s3.26,5,3.33,16.75c0,0-4.35-2.13-12.34-6.61-8.2-4.6-10.67-9.07-10.67-9.07V143.47h0c-.65,1.47-3.72,3-6.68.41C84.07,140.61,83.8,133.3,88.49,131.68Z" style="fill:#f28f8f"></path><path d="M114.38,118.07c.71-3.22,5.24-5.94,10.17-4,4.45,1.79,5.62,5.16,5.54,12.63-.06,5.55.42,6.13,1.75,7.06-3,.35-4.39-2.08-4.57-5.26s.31-9.63-4.58-11.73A8,8,0,0,0,114.38,118.07Z" style="fill:#FFC100"></path><path d="M125.75,126.26l-4.11-1.83a2.15,2.15,0,0,1,2.9-1.19A2.35,2.35,0,0,1,125.75,126.26Z" style="fill:#263238"></path><path d="M108.56,124.74l-3.9,2.24a2.16,2.16,0,0,1,.75-3A2.35,2.35,0,0,1,108.56,124.74Z" style="fill:#263238"></path><path d="M111.36,141.76l6.4,1.58a3.3,3.3,0,0,1-4.3,2.32A3.1,3.1,0,0,1,111.36,141.76Z" style="fill:#b16668"></path><path d="M115.28,145.72a3.46,3.46,0,0,0-3.68-2.83,2.84,2.84,0,0,0-.31.06,2.9,2.9,0,0,0,2.17,2.71A3.76,3.76,0,0,0,115.28,145.72Z" style="fill:#ffc4c3"></path><path d="M113.85,128.2l1.91,11.08,6.44-2.05C119.47,130.8,115.28,127.59,113.85,128.2Z" style="fill:#b16668"></path><path d="M109.79,130.94a1.88,1.88,0,1,1-1.88-1.88A1.89,1.89,0,0,1,109.79,130.94Z" style="fill:#263238"></path><path d="M124.87,130.56a1.89,1.89,0,1,1-1.88-1.89A1.88,1.88,0,0,1,124.87,130.56Z" style="fill:#263238"></path><path d="M114.15,155.6c-4.17-.38-11.24-.85-14.52-5.64,0,0,.36,2.8,4.53,5.11,2.94,1.62,10,2.5,10,2.5Z" style="fill:#b16668"></path></g><g id="freepik--chest--inject-13"><path d="M93.82,161.37s5.74,7.27,6.88,23.63c1.93,27.92-20.6,41.3-20.6,41.3a130.11,130.11,0,0,1-.35-13.68s10.39-11,9.27-22.24c-1.5-15-4.31-22.14-6.64-25.65C82.38,164.73,88.66,161.54,93.82,161.37Z" style="fill:#FFC100"></path><path d="M93.82,161.37s5.74,7.27,6.88,23.63c1.93,27.92-20.6,41.3-20.6,41.3a130.11,130.11,0,0,1-.35-13.68s10.39-11,9.27-22.24c-1.5-15-4.31-22.14-6.64-25.65C82.38,164.73,88.66,161.54,93.82,161.37Z" style="opacity:0.2"></path></g><g id="freepik--Headphones--inject-13"><path d="M119.84,158.7c-1.42-1.71-4.23-1.75-5.68-1.64l0,4.16a3.38,3.38,0,0,1,2.08,1.53c1,1.41,4.07,6.28,4.07,6.28l4.18-1.58S121.79,161.06,119.84,158.7Z" style="fill:#263238"></path><path d="M118.42,156.9a11.26,11.26,0,0,0-4.28-1.3l0,1.63c1.28.14,3.58.6,4.74,2.11s5.62,8.11,5.62,8.11l1-1C123.73,163.25,120.21,158.13,118.42,156.9Z" style="fill:#455a64"></path><path d="M128,167.91l-.16,0-.13,0-.15.05-.12,0-.14.07-.11.06-.14.09-.11.08-.13.11-.09.09,0,0-.1.11,0,0a.39.39,0,0,1-.08.1l-.06.09,0,.05,0,.06-.08.12-.06.1c0,.06-.07.13-.11.2l-.06.14,0,.08,0,.09c0,.07,0,.14-.08.22l0,.1v0c0,.13-.08.25-.11.39a7.74,7.74,0,0,0-.2,1.63,10.47,10.47,0,0,0,2.22,6.49c.17.2.34.39.52.57l.08.07.13.12.1.08.1.09.12.08.09.07.12.08.09.06.12.07.1.06.11.05.14.07.07,0,0,0,1-.3a4.36,4.36,0,0,1-1.42-.95,10,10,0,0,1-2.54-8.69,3.53,3.53,0,0,1,1.48-2.32H128Z" style="fill:#263238"></path><path d="M129,167.16a3.11,3.11,0,0,0-.44.08l-1,.3h0a2.71,2.71,0,0,1,1.36,0Z" style="fill:#37474f"></path><path d="M129.62,180.13l-.07,0-.14-.07-.11-.05-.07,0,0,0-.12-.07-.09-.06-.12-.08-.09-.07-.12-.08-.1-.09-.1-.08-.14-.12a.46.46,0,0,0-.07-.07,6.52,6.52,0,0,1-.5-.55,8.57,8.57,0,0,1-1.15-1.79,10,10,0,0,1-.66-1.7,10.33,10.33,0,0,1-.43-3v-.05a7.72,7.72,0,0,1,.2-1.62c0-.12.06-.24.1-.36l0-.05v0a2.31,2.31,0,0,1,.1-.28l0-.06a.36.36,0,0,0,0-.09l.06-.12.06-.13.08-.13,0,0,0,0,.06-.11.09-.12.11-.15.08-.1,0,0,.09-.1.09-.08,0,0,.07-.06,0,0,.05,0,.09-.07,0,0,.12-.07h0l0,0,.14-.07.12,0,.15-.05.13,0,.16,0h.42l.17,0h.13l.1,0,.11-.44a2.71,2.71,0,0,0-1.36,0h0l-.19.06,0,0a2.86,2.86,0,0,0-.52.27l0,0-.14.11,0,0c-.08.06-.15.14-.23.21l-.08.09-.1.11-.09.12-.1.13-.13.2-.06.11c0,.06-.07.12-.1.19l0,.09c0,.1-.09.19-.13.3l0,.07-.09.26,0,.1a3.57,3.57,0,0,0-.1.35,8,8,0,0,0-.19,2.37,10.79,10.79,0,0,0,.14,1.26c0,.21.08.42.13.63a13,13,0,0,0,.59,1.83,9.1,9.1,0,0,0,2,3,5.32,5.32,0,0,0,1.08.82l.65-.19Z" style="fill:#455a64"></path><path d="M130.65,169.49a9.12,9.12,0,0,1,2.31,7.93c-.62,2.56-2.67,3.16-4.57,1.34a9.13,9.13,0,0,1-2.32-7.93C126.69,168.27,128.74,167.67,130.65,169.49Z" style="fill:#FFC100"></path><path d="M134.17,179.11a13.49,13.49,0,0,0-3.42-11.71c-1.41-1.35-2.86-1.8-4.09-1.44-.34.1-1.7.49-2,.6-1.22.35-2.21,1.52-2.67,3.41a13.49,13.49,0,0,0,3.42,11.71c1.41,1.35,2.87,1.8,4.09,1.44l2-.6C132.72,182.17,133.71,181,134.17,179.11Z" style="fill:#FFC100"></path><path d="M134.17,179.11a13.49,13.49,0,0,0-3.42-11.71c-1.41-1.35-2.86-1.8-4.09-1.44-.34.1-1.7.49-2,.6-1.22.35-2.21,1.52-2.67,3.41a13.49,13.49,0,0,0,3.42,11.71c1.41,1.35,2.87,1.8,4.09,1.44l2-.6C132.72,182.17,133.71,181,134.17,179.11Z" style="opacity:0.35000000000000003"></path><path d="M128.71,168a13.49,13.49,0,0,1,3.43,11.72c-.93,3.78-3.95,4.66-6.77,2A13.49,13.49,0,0,1,122,170C122.87,166.19,125.9,165.3,128.71,168Z" style="opacity:0.1"></path><path d="M132.14,179.71A13.51,13.51,0,0,0,128.72,168c-1.41-1.34-2.87-1.79-4.1-1.43l-1,.29c-1.22.36-2.21,1.52-2.67,3.41A13.48,13.48,0,0,0,124.36,182c1.41,1.35,2.87,1.8,4.09,1.44l1-.3C130.69,182.76,131.68,181.6,132.14,179.71Z" style="fill:#f0f0f0"></path><path d="M127.7,168.29A13.46,13.46,0,0,1,131.12,180c-.92,3.79-4,4.67-6.76,2a13.48,13.48,0,0,1-3.42-11.72C121.86,166.48,124.89,165.6,127.7,168.29Z" style="fill:#e0e0e0"></path><path d="M131.56,180.11A14,14,0,0,0,128,168a5.94,5.94,0,0,0-2.66-1.57,3.58,3.58,0,0,0-1.87,0c-.34.1-1.71.49-2,.6-1.39.41-2.48,1.73-3,3.73A14,14,0,0,0,122,182.9a6,6,0,0,0,2.65,1.57,3.55,3.55,0,0,0,1.89,0l2-.59C130,183.44,131.07,182.12,131.56,180.11Z" style="fill:#455a64"></path><path d="M124.66,184.47A6,6,0,0,1,122,182.9a14,14,0,0,1-3.55-12.15c.69-2.84,2.6-4.31,4.86-3.76a5.92,5.92,0,0,1,2.65,1.57,14,14,0,0,1,3.55,12.15C128.83,183.54,126.92,185,124.66,184.47Z" style="fill:#37474f"></path><path d="M124.33,180.09a3,3,0,0,1-1.33-.78,7,7,0,0,1-1.77-6.07c.34-1.41,1.3-2.15,2.43-1.88a3,3,0,0,1,1.32.79,7,7,0,0,1,1.77,6.06C126.41,179.63,125.46,180.37,124.33,180.09Z" style="fill:#263238"></path><path d="M94.49,162.35v-6.6a17.91,17.91,0,0,0-2.17,2.34c-1.48,1.89.16,6.38,1.62,7.65A3.62,3.62,0,0,1,94.49,162.35Z" style="fill:#263238"></path><path d="M94.49,156.24v-1.72a30.76,30.76,0,0,0-4.19,3.6,9.45,9.45,0,0,0-2,9.48,27.19,27.19,0,0,0,2.46,5.57l6.14-2.51s-4.28-6.66-4.53-10.07A5.51,5.51,0,0,1,94.49,156.24Z" style="fill:#455a64"></path><path d="M107.16,183.26a15.52,15.52,0,0,0-6.09-12.63,6.61,6.61,0,0,0-3.19-1.23,3.83,3.83,0,0,0-2,.37l-2.13,1c-1.45.71-2.4,2.35-2.57,4.63a15.53,15.53,0,0,0,6.09,12.63,6.64,6.64,0,0,0,3.19,1.23,3.9,3.9,0,0,0,2.06-.38l2.1-1C106,187.19,107,185.54,107.16,183.26Z" style="fill:#455a64"></path><path d="M100.42,189.28a6.64,6.64,0,0,1-3.19-1.23,15.53,15.53,0,0,1-6.09-12.63c.24-3.23,2.06-5.19,4.63-5A6.64,6.64,0,0,1,99,171.65,15.48,15.48,0,0,1,105,184.28C104.8,187.51,103,189.47,100.42,189.28Z" style="fill:#37474f"></path><path d="M104.54,184.25a14.91,14.91,0,0,0-5.87-12.19c-1.78-1.21-3.46-1.44-4.73-.82l-1,.5c-1.28.62-2.15,2.07-2.31,4.22a14.94,14.94,0,0,0,5.87,12.18c1.79,1.22,3.46,1.44,4.74.83l1-.51C103.52,187.85,104.38,186.39,104.54,184.25Z" style="fill:#f0f0f0"></path><path d="M97.62,172.57a15,15,0,0,1,5.87,12.18c-.32,4.3-3.47,5.82-7,3.39A14.94,14.94,0,0,1,90.58,176C90.9,171.66,94.05,170.14,97.62,172.57Z" style="fill:#e0e0e0"></path><path d="M103.49,184.75a15,15,0,0,0-5.87-12.18c-1.78-1.21-3.46-1.44-4.73-.83l-2.12,1c-1.28.61-2.14,2.06-2.3,4.21a14.91,14.91,0,0,0,5.87,12.18c1.78,1.22,3.45,1.44,4.72.83l2.13-1C102.46,188.36,103.33,186.9,103.49,184.75Z" style="fill:#FFC100"></path><path d="M103.49,184.75a15,15,0,0,0-5.87-12.18c-1.78-1.21-3.46-1.44-4.73-.83l-2.12,1c-1.28.61-2.14,2.06-2.3,4.21a14.91,14.91,0,0,0,5.87,12.18c1.78,1.22,3.45,1.44,4.72.83l2.13-1C102.46,188.36,103.33,186.9,103.49,184.75Z" style="opacity:0.35000000000000003"></path><path d="M95.5,173.59a15,15,0,0,1,5.87,12.18c-.32,4.3-3.47,5.82-7,3.39A14.91,14.91,0,0,1,88.47,177C88.79,172.68,91.94,171.16,95.5,173.59Z" style="fill:#FFC100"></path><path d="M94.49,177.79a7.85,7.85,0,0,1,3.08,6.4c-.16,2.26-1.82,3.06-3.69,1.78a7.85,7.85,0,0,1-3.08-6.4C91,177.31,92.62,176.52,94.49,177.79Z" style="fill:#263238"></path><path d="M96.27,180,94,182l-2.18-4.52a2.48,2.48,0,0,1,2.49.43A6.87,6.87,0,0,1,96.27,180Z" style="fill:#455a64"></path><path d="M97.41,184.27a2.47,2.47,0,0,1-1.21,2.21L94,182,96.27,180A7.57,7.57,0,0,1,97.41,184.27Z" style="fill:#37474f"></path><path d="M96.2,186.48a2.46,2.46,0,0,1-2.48-.43,6.93,6.93,0,0,1-2-2.16L94,182Z" style="fill:#455a64"></path><path d="M94,182l-2.25,1.93a7.62,7.62,0,0,1-1.14-4.24,2.51,2.51,0,0,1,1.21-2.21Z" style="fill:#37474f"></path><path d="M144.25,249.82a.48.48,0,0,0-.54-.38.47.47,0,0,0-.38.54c.51,3-.39,4.75-1.8,5.74-2,1.43-5.83,1.78-8.17-.21-6.2-5.31-6.82-18.13-7.38-28.36a71.19,71.19,0,0,0-1-10.48,29.94,29.94,0,0,1,3.53-13.53l.9-1.69c3.51-6.56,6.28-11.75,4.71-21.25a.47.47,0,0,0-.54-.38.46.46,0,0,0-.38.53c1.52,9.19-1.05,14-4.61,20.66l-.9,1.69a31.69,31.69,0,0,0-3.6,12.52c-2.21-3-5.53-4.95-8.76-6.85-1.35-.8-2.63-1.56-3.81-2.38-4.82-3.35-9.7-7.6-12.78-16a.48.48,0,0,0-.6-.28.47.47,0,0,0-.27.6c3.17,8.59,8.18,13,13.12,16.4,1.2.83,2.5,1.6,3.87,2.41,3.54,2.09,7.2,4.26,9.22,7.73a69.92,69.92,0,0,1,1,10.3c.57,10.4,1.28,23.35,7.7,29a6.61,6.61,0,0,0,4.84,1.56,8.26,8.26,0,0,0,4.27-1.24C143.84,255.28,144.69,252.42,144.25,249.82Z" style="fill:#f5f5f5"></path></g><g id="freepik--arm--inject-13"><g id="freepik--book--inject-13"><polygon points="100.39 277.28 101.12 248.66 60.92 223.62 60.19 252.23 100.39 277.28"></polygon><path d="M100,248.92l-.79,27.65a10,10,0,0,0-5.42,3.05l.73-27.44S95.67,251.07,100,248.92Z" style="fill:#f5f5f5"></path><path d="M93.43,254.18a5.06,5.06,0,0,1,2.4-3.91l4.09-2.19c1.29-.69,2.3-.06,2.26,1.4l-.78,27.25-1,.55.69-26.85c0-.88-.58-1.25-1.35-.84l-3.78,2A3,3,0,0,0,94.51,254l-.71,26.82-1.14.62Z" style="fill:#263238"></path><path d="M92.66,281.42l-40.2-25,.77-27.24a5.06,5.06,0,0,1,2.4-3.91l4.09-2.2a1.59,1.59,0,0,1,1.62-.1l40.21,25a1.64,1.64,0,0,0-1.63.11l-4.09,2.19a5.06,5.06,0,0,0-2.4,3.91Z" style="fill:#37474f"></path><path d="M94.16,251.93a4.82,4.82,0,0,1,1.67-1.66l4.09-2.19a1.64,1.64,0,0,1,1.63-.11l-40.21-25a1.59,1.59,0,0,0-1.62.1l-4.09,2.2A4.65,4.65,0,0,0,54,226.89Z" style="fill:#455a64"></path><path d="M59.23,230.21a16.13,16.13,0,0,1,7.43-4l1.87,1.16a16.2,16.2,0,0,0-7.42,4Z" style="fill:#fafafa"></path><path d="M85.81,246.76a16.23,16.23,0,0,1,7.43-4l1.87,1.16a16.23,16.23,0,0,0-7.43,4Z" style="fill:#fafafa"></path></g><g id="freepik--book--inject-13"><path d="M88.2,254.38l-.93-.58s.11.56.33.72S88.2,254.38,88.2,254.38Z"></path><path d="M88,255.22a1.13,1.13,0,0,1-.79-1.47c.3-1.2,1-1.64.82-2s-6.07,2.84-6.07,2.84l4.65,1.58Z" style="fill:#FFC100"></path><path d="M88,255.22a1.13,1.13,0,0,1-.79-1.47c.3-1.2,1-1.64.82-2s-6.07,2.84-6.07,2.84l4.65,1.58Z" style="opacity:0.30000000000000004"></path><path d="M48.74,233.49l-.06,0,0,.67-.89,28.66,37.75,20.81c.59.36,1.08.22,1.09-.32l0-1,.84-26.8-.19-.09Z" style="fill:#FFC100"></path><path d="M48.74,233.49l-.06,0,0,.67-.89,28.66,37.75,20.81c.59.36,1.08.22,1.09-.32l0-1,.84-26.8-.19-.09Z" style="opacity:0.2"></path><path d="M79.29,256.38l.52,1.76,6.35-3.41c-.11-1.17,0-2,.69-2.51Z" style="fill:#455a64"></path><path d="M86.62,255.39l-.83,26.54a1.58,1.58,0,0,1-.76,1.23l-6.25,3.35.93-26.85a2.13,2.13,0,0,0,.65-1.59c-.11-.88.46-.47.46-.47l5.34-2.87C86.42,255.4,86.62,255.39,86.62,255.39Z" style="fill:#ebebeb"></path><path d="M79.3,256.91c0,.28.07.45.18.38l.2-.1c.22-.12.39.22.37.76a1.61,1.61,0,0,1-.42,1.2l-.2.11c-.12.06-.22.48-.23.93L42.61,237.37c0-.27,0-.67,0-.67a.52.52,0,0,1,.21-.27l.2-.11a1.62,1.62,0,0,0,.43-1.19c0-.55-.15-.89-.37-.77l-.2.11c-.12.06-.2-.11-.19-.38Z" style="fill:#FFC100"></path><path d="M79.3,256.91c0,.28.07.45.18.38l.2-.1c.22-.12.39.22.37.76a1.61,1.61,0,0,1-.42,1.2l-.2.11c-.12.06-.22.48-.23.93L42.61,237.37c0-.27,0-.67,0-.67a.52.52,0,0,1,.21-.27l.2-.11a1.62,1.62,0,0,0,.43-1.19c0-.55-.15-.89-.37-.77l-.2.11c-.12.06-.2-.11-.19-.38Z" style="fill:#fff;opacity:0.25"></path><path d="M42.69,236.73l-.06,0,0,.67L41.73,266l35.52,22c.59.36,1.08.22,1.1-.32l0-1,1.33-27.07Z" style="fill:#FFC100"></path><path d="M42.69,236.73l-.06,0,0,.67L41.73,266l35.52,22c.59.36,1.08.22,1.1-.32l0-1,1.33-27.07Z" style="fill:#fff;opacity:0.4"></path><path d="M42.7,234.57,79.4,257.3l.28-1.64L43.1,233a1.39,1.39,0,0,0-.37.77Z" style="fill:#FFC100"></path><path d="M42.7,234.57,79.4,257.3l.28-1.64L43.1,233a1.39,1.39,0,0,0-.37.77Z" style="fill:#fff;opacity:0.4"></path><path d="M51.69,228.56a.2.2,0,0,0-.08,0l0,0-.12,0h-.07a.91.91,0,0,0-.23,0l-.25,0-.27.09a.52.52,0,0,0-.16.06l-.13.05-.29.14-5.44,2.93A5,5,0,0,0,43.1,233l36.58,22.66,8.6-4.44L51.7,228.57Z" style="fill:#FFC100"></path><g style="opacity:0.7000000000000001"><path d="M51.69,228.56a.2.2,0,0,0-.08,0l0,0-.12,0h-.07a.91.91,0,0,0-.23,0l-.25,0-.27.09a.52.52,0,0,0-.16.06l-.13.05-.29.14-5.44,2.93A5,5,0,0,0,43.1,233l36.58,22.66,8.6-4.44L51.7,228.57Z" style="fill:#fff"></path></g><path d="M76.65,253.78l-4.41-2.73a21.14,21.14,0,0,1,8.45-4.53l4.41,2.73A21.14,21.14,0,0,0,76.65,253.78Z" style="fill:#fafafa"></path><path d="M52.09,238.57l-4.41-2.74a21.17,21.17,0,0,1,8.44-4.53L60.53,234A21.07,21.07,0,0,0,52.09,238.57Z" style="fill:#fafafa"></path><path d="M81.18,254.46l.4.74a3.72,3.72,0,0,0-1.42,1.22,1.07,1.07,0,0,1,.52.49,2.15,2.15,0,0,1,.21,1.07,3.34,3.34,0,0,1-.29,1.25l0,.08a1.41,1.41,0,0,1-.52.56l-.78,25.42,0,.86,0,1.1a.5.5,0,0,1-.24.46l-.86.46a.52.52,0,0,0,.25-.46v0l.09-2.91.76-24.59c0-.45.11-.88.23-.94l.19-.1a.66.66,0,0,0,.26-.36,2.37,2.37,0,0,0,.17-.84c0-.54-.15-.88-.37-.76l-.2.11c-.11.06-.19-.11-.18-.39v-.48C79.33,255.89,80.17,255,81.18,254.46Z" style="fill:#FFC100"></path><path d="M81.18,254.46l.4.74a3.72,3.72,0,0,0-1.42,1.22,1.07,1.07,0,0,1,.52.49,2.15,2.15,0,0,1,.21,1.07,3.34,3.34,0,0,1-.29,1.25l0,.08a1.41,1.41,0,0,1-.52.56l-.78,25.42,0,.86,0,1.1a.5.5,0,0,1-.24.46l-.86.46a.52.52,0,0,0,.25-.46v0l.09-2.91.76-24.59c0-.45.11-.88.23-.94l.19-.1a.66.66,0,0,0,.26-.36,2.37,2.37,0,0,0,.17-.84c0-.54-.15-.88-.37-.76l-.2.11c-.11.06-.19-.11-.18-.39v-.48C79.33,255.89,80.17,255,81.18,254.46Z" style="fill:#fff;opacity:0.6000000000000001"></path><path d="M81.58,255.2,87,252.28a1.67,1.67,0,0,1,.23-.12l.19-.08h0a2.38,2.38,0,0,0-.78,1.86,2,2,0,0,0,.2,1,1.1,1.1,0,0,0,.6.53v.26l-.77,24.58s0,.64,0,1.41c0,.13,0,.27,0,.41,0,.41,0,.83,0,1.19a.51.51,0,0,1-.25.39l.24-.13.62-.34a.45.45,0,0,0,.23-.36h0c0-.14,0-.29,0-.44a2.44,2.44,0,0,0,0-.27c0-.17,0-.33,0-.48s0-.2,0-.29v-.21c0-.22,0-.36,0-.36l.6-19.53.19-6.23c0-.44-.06-.76-.17-.72h0l-.19.11c-.24.13-.42-.21-.4-.75a1.11,1.11,0,0,1,.43-1l.23-.13c.13-.06.23-.18.22-.26a.57.57,0,0,0,0-.14c0-.08,0-.19,0-.31s0-.24,0-.38a.33.33,0,0,0-.23-.35l0,0-.13,0H88a.9.9,0,0,0-.23,0,1.11,1.11,0,0,0-.25,0l-.28.08-.16.06-.12.06-.3.14-5.44,2.92Z" style="fill:#FFC100"></path><path d="M81.58,255.2,87,252.28a1.67,1.67,0,0,1,.23-.12l.19-.08h0a2.38,2.38,0,0,0-.78,1.86,2,2,0,0,0,.2,1,1.1,1.1,0,0,0,.6.53v.26l-.77,24.58s0,.64,0,1.41c0,.13,0,.27,0,.41,0,.41,0,.83,0,1.19a.51.51,0,0,1-.25.39l.24-.13.62-.34a.45.45,0,0,0,.23-.36h0c0-.14,0-.29,0-.44a2.44,2.44,0,0,0,0-.27c0-.17,0-.33,0-.48s0-.2,0-.29v-.21c0-.22,0-.36,0-.36l.6-19.53.19-6.23c0-.44-.06-.76-.17-.72h0l-.19.11c-.24.13-.42-.21-.4-.75a1.11,1.11,0,0,1,.43-1l.23-.13c.13-.06.23-.18.22-.26a.57.57,0,0,0,0-.14c0-.08,0-.19,0-.31s0-.24,0-.38a.33.33,0,0,0-.23-.35l0,0-.13,0H88a.9.9,0,0,0-.23,0,1.11,1.11,0,0,0-.25,0l-.28.08-.16.06-.12.06-.3.14-5.44,2.92Z" style="fill:#fff;opacity:0.6000000000000001"></path></g><path d="M82.38,164.73c-13.69,2.62-14.71,6.31-18.54,20.55-4,14.82-5.26,19.29-7.17,25.8s-2.25,8.63-2.3,14.88c-.07,10.88.18,19.56,0,28.74,0,1.58-1,4.54-1.44,8A67.46,67.46,0,0,0,53,276c.34,1.85,2.78,5.2,5.4,7.43,1.07.91,6.35,1.91,8.57,1.91a4.14,4.14,0,0,0,3.32-1.61l-4.17-2.58a29.77,29.77,0,0,1-.75-6.63c.12-2.91,1.89-2.3,2.29-.21s.91,4.46,1.77,5.68,2.91,2,2.82,0,0-7.73-.27-9.24c-1-4.83-4-11.68-4-14.78,0-6.11,5.17-32.68,5.17-32.68s7.36-22.3,9-27.8C83.52,190.68,87.17,175.48,82.38,164.73Z" style="fill:#f28f8f"></path></g></g></g></g><g id="freepik--Locators--inject-13"><g id="freepik--Pins--inject-13"><path id="freepik--Pin--inject-13" d="M189.74,245.22A7.75,7.75,0,0,0,182,253c0,7.36,7.75,14.32,7.75,14.32s7.76-7,7.77-14.32A7.77,7.77,0,0,0,189.74,245.22Zm0,11a3.76,3.76,0,1,1,3.76-3.76A3.76,3.76,0,0,1,189.73,256.26Z" style="fill:#FFC100"></path><path id="freepik--pin--inject-13" d="M304,123.11a12,12,0,0,0-12,12c0,11.37,12,22.13,12,22.13s12-10.75,12-22.12A12,12,0,0,0,304,123.11Zm0,17a5.81,5.81,0,1,1,5.8-5.8A5.8,5.8,0,0,1,304,140.16Z" style="fill:#FFC100"></path><path d="M292.17,154a.53.53,0,0,1,0-1c.89-.06,1.78-.09,2.66-.11h0a.53.53,0,0,1,.53.52.52.52,0,0,1-.52.53c-.87,0-1.74.06-2.61.11Z" style="fill:#455a64"></path><path d="M196.92,232.68a.63.63,0,0,1-.19,0,.53.53,0,0,1-.31-.68c.61-1.68,1.28-3.38,2-5.06a.52.52,0,0,1,.69-.28.53.53,0,0,1,.29.69c-.7,1.66-1.36,3.35-2,5A.52.52,0,0,1,196.92,232.68Zm4.18-10a.59.59,0,0,1-.22-.05.53.53,0,0,1-.25-.71c.77-1.61,1.59-3.25,2.45-4.85a.53.53,0,0,1,.71-.21.52.52,0,0,1,.22.71c-.85,1.59-1.67,3.2-2.43,4.81A.53.53,0,0,1,201.1,222.71Zm5.1-9.54a.56.56,0,0,1-.27-.08.52.52,0,0,1-.18-.72c.91-1.54,1.88-3.1,2.87-4.61a.53.53,0,1,1,.88.58c-1,1.5-1.94,3-2.84,4.57A.53.53,0,0,1,206.2,213.17Zm5.91-9.06a.49.49,0,0,1-.3-.1.53.53,0,0,1-.13-.73c1-1.46,2.14-2.92,3.25-4.35a.52.52,0,0,1,.74-.09.53.53,0,0,1,.1.74c-1.11,1.41-2.19,2.87-3.23,4.31A.5.5,0,0,1,212.11,204.11Zm6.65-8.53a.54.54,0,0,1-.34-.12.52.52,0,0,1-.06-.74c1.15-1.37,2.36-2.74,3.59-4.08a.53.53,0,0,1,.74,0,.53.53,0,0,1,0,.75c-1.21,1.32-2.41,2.68-3.56,4A.52.52,0,0,1,218.76,195.58Zm7.31-8a.51.51,0,0,1-.37-.15.53.53,0,0,1,0-.75c1.26-1.26,2.57-2.53,3.9-3.76a.52.52,0,1,1,.71.77c-1.31,1.22-2.62,2.48-3.87,3.74A.51.51,0,0,1,226.07,187.62Zm7.92-7.35a.53.53,0,0,1-.34-.93c1.38-1.17,2.79-2.33,4.2-3.44a.53.53,0,0,1,.65.83c-1.4,1.1-2.8,2.25-4.16,3.42A.57.57,0,0,1,234,180.27Zm8.5-6.69a.5.5,0,0,1-.42-.22.52.52,0,0,1,.12-.73c1.46-1.06,3-2.1,4.47-3.09a.53.53,0,1,1,.58.88c-1.49,1-3,2-4.44,3.06A.5.5,0,0,1,242.49,173.58Zm9-6a.53.53,0,0,1-.45-.25.53.53,0,0,1,.18-.73c1.55-.92,3.14-1.82,4.73-2.67a.52.52,0,0,1,.71.21.54.54,0,0,1-.21.72c-1.57.84-3.15,1.73-4.69,2.65A.52.52,0,0,1,251.53,167.63Zm9.54-5.1a.53.53,0,0,1-.23-1c1.65-.78,3.32-1.53,5-2.21a.54.54,0,0,1,.69.29.53.53,0,0,1-.29.69c-1.63.67-3.29,1.41-4.92,2.18A.59.59,0,0,1,261.07,162.53Zm10-4.11a.53.53,0,0,1-.5-.36.52.52,0,0,1,.32-.67c1.73-.6,3.47-1.16,5.19-1.64a.53.53,0,1,1,.29,1c-1.7.48-3.42,1-5.13,1.62A.38.38,0,0,1,271.07,158.42Zm10.4-2.94a.52.52,0,0,1-.51-.42.53.53,0,0,1,.4-.63c1.8-.38,3.6-.7,5.36-1a.52.52,0,0,1,.6.45.53.53,0,0,1-.45.6c-1.73.24-3.51.56-5.29.94Z" style="fill:#455a64"></path><path d="M194.44,240.37l-.14,0a.53.53,0,0,1-.37-.65q.36-1.27.75-2.55a.53.53,0,0,1,1,.31c-.26.84-.51,1.68-.74,2.52A.54.54,0,0,1,194.44,240.37Z" style="fill:#455a64"></path></g></g><g id="freepik--speech-bubble--inject-13"><g id="freepik--speech-bubble--inject-13"><g id="freepik--speech-bubble--inject-13"><path d="M67.84,93.53h0ZM33.26,76.16c4.63,9.4,15.51,17.36,34.55,17.37,8.49,0,15.34-1.59,20.75-4.18,3.65,4.48,11,6.14,16.41,4.05a.85.85,0,0,0,0-1.57c-5.44-2.28-7-6.13-7.43-8.85a27.21,27.21,0,0,0,4.82-6.82,31,31,0,0,0-2-31.35c-6.14-9.37-19.64-15.25-32.57-15.25S41.39,35.44,35.25,44.81A31,31,0,0,0,33.26,76.16Z" style="fill:#fff"></path><path d="M100,94.61c-4.37,0-8.87-1.79-11.49-4.87-5.79,2.72-12.73,4.09-20.64,4.1h-.06C45,93.82,36.2,82.85,33,76.3h0a31.29,31.29,0,0,1,2-31.66c6-9.21,19.23-15.4,32.82-15.4s26.79,6.19,32.83,15.4a31.29,31.29,0,0,1,2,31.66,27.18,27.18,0,0,1-4.77,6.79c.47,2.7,2.11,6.31,7.22,8.45a1.15,1.15,0,0,1,.71,1.1,1.12,1.12,0,0,1-.73,1.06A14.11,14.11,0,0,1,100,94.61ZM88.65,89l.16.2c3.47,4.27,10.67,6,16,4a.52.52,0,0,0,.33-.48.55.55,0,0,0-.33-.51c-5.47-2.29-7.16-6.21-7.62-9.09l0-.15.1-.12A26.69,26.69,0,0,0,102.09,76a30.71,30.71,0,0,0-2-31.05C94.28,36.08,81,29.87,67.81,29.87S41.35,36.08,35.51,45a30.71,30.71,0,0,0-2,31.05c3.16,6.41,11.82,17.18,34.27,17.19,7.93,0,14.86-1.4,20.62-4.15Z" style="fill:#455a64"></path></g><g id="freepik--graduation-cap--inject-13"><path d="M47.1,69.39l-.05-12.14h0c0-2.35,2-4.72,6.05-6.53,8.08-3.57,21.21-3.62,29.32-.11,4.1,1.78,6.13,4.12,6.09,6.47h0l0,12.1c0,2.34-2,5.93-6,7.73-8.08,3.57-21.21,3.63-29.32.11-4.05-1.75-6.08-5.29-6.1-7.61h0Z" style="fill:#263238"></path><polygon points="67.72 40.02 97.79 57.22 67.85 74.66 37.78 57.46 67.72 40.02" style="fill:#455a64"></polygon><polygon points="97.79 57.22 97.79 58.46 67.86 75.9 67.85 74.66 97.79 57.22" style="fill:#37474f"></polygon><polygon points="37.78 57.46 37.78 58.7 67.86 75.9 67.85 74.66 37.78 57.46" style="fill:#263238"></polygon><polygon points="86.03 65.31 67.86 77.76 49.65 65.48 67.86 75.9 86.03 65.31" style="opacity:0.1"></polygon><path d="M52.28,62.72,65.6,54.84a.65.65,0,0,1,.9.22.67.67,0,0,1-.14.83l-.1.07L52.93,63.85" style="fill:#e0e0e0"></path><path d="M50.31,74a2.18,2.18,0,0,0,2,0l1.71,8.36c0,2-5.28,2.06-5.29,0Z" style="fill:#FFC100"></path><path d="M50.24,80.13l-.31,3.49-.32-.13Z" style="opacity:0.15"></path><path d="M52.77,83.66,52,76.47l1.07,7.06Z" style="opacity:0.15"></path><path d="M51.58,83.85a1.82,1.82,0,0,1-.33,0l.14-5.21Z" style="opacity:0.15"></path><path d="M51.36,73.85a.66.66,0,0,0,.65-.66L52,65.54a2,2,0,0,1,1-1.69l-.65-1.13a3.26,3.26,0,0,0-1.63,2.83l.06,7.65A.65.65,0,0,0,51.36,73.85Z" style="fill:#e0e0e0"></path><path d="M52.79,73.19a1.41,1.41,0,0,0-1.43-1.42,1.43,1.43,0,1,0,1.43,1.42Z" style="fill:#FFC100"></path><path d="M49.94,73.28a1.12,1.12,0,0,0,1.59.54,1.19,1.19,0,0,0,0-2,1.43,1.43,0,1,1-1.61,1.5Z" style="opacity:0.15"></path></g></g></g></svg>
