<svg xmlns="http://www.w3.org/2000/svg" viewBox="0 0 500 500"><g id="freepik--background-complete--inject-104"><rect x="195.33" y="45.19" width="244.79" height="176.84" style="fill:#fff"></rect><path d="M443.12,225H192.33V42.19H443.12Zm-244.79-6H437.12V48.19H198.33Z" style="fill:#ebebeb"></path><path d="M235.41,178.17a.6.6,0,0,1-.29-.08l-13-7.49a.56.56,0,0,1-.29-.49v-15a.57.57,0,0,1,.29-.5l13-7.49a.58.58,0,0,1,.57,0l13,7.49a.58.58,0,0,1,.28.5v15a.58.58,0,0,1-.28.49l-13,7.49A.54.54,0,0,1,235.41,178.17ZM223,169.78l12.4,7.16,12.4-7.16V155.46l-12.4-7.16L223,155.46Z" style="fill:#ebebeb"></path><path d="M261.36,178.17a.6.6,0,0,1-.29-.08l-13-7.49a.56.56,0,0,1-.29-.49v-15a.57.57,0,0,1,.29-.5l13-7.49a.58.58,0,0,1,.57,0l13,7.49a.57.57,0,0,1,.29.5v15a.56.56,0,0,1-.29.49l-13,7.49A.6.6,0,0,1,261.36,178.17ZM249,169.78l12.41,7.16,12.4-7.16V155.46l-12.4-7.16L249,155.46Z" style="fill:#ebebeb"></path><path d="M261.36,148.21a.58.58,0,0,1-.58-.57v-8.89a.58.58,0,1,1,1.15,0v8.89A.58.58,0,0,1,261.36,148.21Z" style="fill:#ebebeb"></path><path d="M274.33,155.7a.57.57,0,0,1-.5-.3.58.58,0,0,1,.22-.78l7.55-4.13a.57.57,0,0,1,.78.23.57.57,0,0,1-.23.77l-7.55,4.14A.64.64,0,0,1,274.33,155.7Z" style="fill:#ebebeb"></path><path d="M224.8,169a.57.57,0,0,1-.57-.57V157a.57.57,0,0,1,.57-.57.58.58,0,0,1,.57.57v11.44A.58.58,0,0,1,224.8,169Z" style="fill:#ebebeb"></path><path d="M251.57,169a.58.58,0,0,1-.57-.57V157a.58.58,0,0,1,1.15,0v11.44A.58.58,0,0,1,251.57,169Z" style="fill:#ebebeb"></path><path d="M245.74,157a.6.6,0,0,1-.29-.08l-9.88-5.75a.57.57,0,0,1-.21-.78.56.56,0,0,1,.78-.21l9.89,5.75a.57.57,0,0,1,.2.78A.54.54,0,0,1,245.74,157Z" style="fill:#ebebeb"></path><path d="M271.51,157a.6.6,0,0,1-.28-.08l-9.89-5.75a.57.57,0,0,1,.58-1l9.88,5.75a.56.56,0,0,1,.21.78A.57.57,0,0,1,271.51,157Z" style="fill:#ebebeb"></path><path d="M285.48,130.16a.6.6,0,0,1-.28-.08l-13-7.49a.57.57,0,0,1-.29-.5v-15a.56.56,0,0,1,.29-.49l13-7.49a.58.58,0,0,1,.57,0l13,7.49a.56.56,0,0,1,.29.49v15a.57.57,0,0,1-.29.5l-13,7.49A.6.6,0,0,1,285.48,130.16Zm-12.4-8.4,12.4,7.16,12.41-7.16V107.44l-12.41-7.16-12.4,7.16Z" style="fill:#ebebeb"></path><path d="M285.48,100.2a.58.58,0,0,1-.57-.58V90.73a.58.58,0,0,1,1.15,0v8.89A.58.58,0,0,1,285.48,100.2Z" style="fill:#ebebeb"></path><path d="M310.13,98.19a.57.57,0,0,1-.57-.57V88.73a.58.58,0,0,1,.57-.57.57.57,0,0,1,.57.57v8.89A.56.56,0,0,1,310.13,98.19Z" style="fill:#ebebeb"></path><path d="M298.46,107.69a.57.57,0,0,1-.5-.3.58.58,0,0,1,.22-.78l7.55-4.13a.57.57,0,1,1,.55,1l-7.55,4.14A.64.64,0,0,1,298.46,107.69Z" style="fill:#ebebeb"></path><path d="M321.64,107.69a.64.64,0,0,1-.27-.07l-7.55-4.14a.57.57,0,1,1,.55-1l7.55,4.13a.58.58,0,0,1-.28,1.08Z" style="fill:#ebebeb"></path><path d="M296,121a.57.57,0,0,1-.57-.57V109a.57.57,0,1,1,1.14,0v11.44A.57.57,0,0,1,296,121Z" style="fill:#ebebeb"></path><path d="M275.4,108.94a.56.56,0,0,1-.49-.29.57.57,0,0,1,.2-.78l9.89-5.75a.56.56,0,0,1,.78.21.57.57,0,0,1-.21.78l-9.88,5.75A.6.6,0,0,1,275.4,108.94Z" style="fill:#ebebeb"></path><path d="M235.41,98.5a.6.6,0,0,1-.29-.08l-13-7.49a.56.56,0,0,1-.29-.49v-15a.57.57,0,0,1,.29-.5l13-7.49a.58.58,0,0,1,.57,0l13,7.49a.58.58,0,0,1,.28.5v15a.58.58,0,0,1-.28.49l-13,7.49A.54.54,0,0,1,235.41,98.5ZM223,90.11l12.4,7.16,12.4-7.16V75.79l-12.4-7.16L223,75.79Z" style="fill:#ebebeb"></path><path d="M248.38,76a.57.57,0,0,1-.27-1.07l7.55-4.14a.57.57,0,0,1,.55,1L248.66,76A.55.55,0,0,1,248.38,76Z" style="fill:#ebebeb"></path><path d="M225.32,89.33a.57.57,0,0,1-.57-.57V77.33a.58.58,0,1,1,1.15,0V88.76A.57.57,0,0,1,225.32,89.33Z" style="fill:#ebebeb"></path><path d="M245.85,77.28a.57.57,0,0,1-.28-.08l-9.89-5.75a.57.57,0,1,1,.58-1l9.88,5.75a.57.57,0,0,1-.29,1.07Z" style="fill:#ebebeb"></path><path d="M236,95.67a.58.58,0,0,1-.5-.28.59.59,0,0,1,.21-.79l9.89-5.75a.57.57,0,1,1,.57,1l-9.88,5.75A.51.51,0,0,1,236,95.67Z" style="fill:#ebebeb"></path><path d="M377.92,126.31a.6.6,0,0,1-.29-.08l-13-7.49a.56.56,0,0,1-.29-.49v-15a.57.57,0,0,1,.29-.5l13-7.49a.6.6,0,0,1,.58,0l13,7.49a.56.56,0,0,1,.28.5v15a.55.55,0,0,1-.28.49l-13,7.49A.6.6,0,0,1,377.92,126.31Zm-12.4-8.39,12.4,7.16,12.4-7.16V103.6l-12.4-7.16-12.4,7.16Z" style="fill:#ebebeb"></path><path d="M390.89,103.84a.58.58,0,0,1-.27-1.08l7.55-4.13a.57.57,0,0,1,.55,1l-7.55,4.14A.55.55,0,0,1,390.89,103.84Z" style="fill:#ebebeb"></path><path d="M367.83,117.14a.57.57,0,0,1-.57-.57V105.13a.58.58,0,0,1,1.15,0v11.44A.57.57,0,0,1,367.83,117.14Z" style="fill:#ebebeb"></path><path d="M388.36,105.09a.6.6,0,0,1-.28-.08l-9.89-5.75a.57.57,0,0,1,.58-1l9.88,5.75a.57.57,0,0,1-.29,1.07Z" style="fill:#ebebeb"></path><path d="M378.48,123.48a.54.54,0,0,1-.49-.29.57.57,0,0,1,.2-.78l9.89-5.75a.56.56,0,0,1,.78.21.57.57,0,0,1-.21.78l-9.88,5.75A.6.6,0,0,1,378.48,123.48Z" style="fill:#ebebeb"></path></g><g id="freepik--Shelf--inject-104"><rect x="51.96" y="51.64" width="95.9" height="101.42" style="fill:#455a64"></rect><rect x="60.67" y="60.76" width="78.49" height="35.58" style="fill:#37474f"></rect><rect x="60.67" y="60.76" width="10.94" height="35.58" style="fill:#263238"></rect><rect x="60.67" y="106.82" width="78.49" height="35.58" style="fill:#37474f"></rect><rect x="60.67" y="106.82" width="10.94" height="35.58" style="fill:#263238"></rect><g style="opacity:0.7000000000000001"><path d="M95.53,138.08a14.1,14.1,0,0,1-.71,4.44H67.43a14,14,0,0,1-.71-4.5,14.41,14.41,0,0,1,10.66-13.89l0-8H76.26v-2.29l9.88,0v2.29H85l0,8A14.41,14.41,0,0,1,95.53,138.08Z" style="fill:#fff"></path><path d="M95.53,138.08a14.28,14.28,0,0,1-.7,4.45h0l-13.7.05-13.69.1h-.12l0-.11a14.43,14.43,0,0,1,1-11.5,14.61,14.61,0,0,1,9.06-7.2l-.19.25.07-8,.23.23H76v-2.75h.22l9.88.09h.16v.16l0,2.29v.14H85l.14-.13-.11,8,0-.07a14.58,14.58,0,0,1,7.66,5.23A14.4,14.4,0,0,1,95.53,138.08Zm0,0a14.39,14.39,0,0,0-6.38-11.94,14.18,14.18,0,0,0-4.25-1.92h-.06V116h1.3l-.14.14v-2.29l.16.16-9.88,0,.23-.22v2.29l-.23-.23h1.4v.24l0,8v.2l-.19,0a14.76,14.76,0,0,0-5.1,2.56,14.59,14.59,0,0,0-3.69,4.36A14.82,14.82,0,0,0,67,136.77a14.28,14.28,0,0,0,.61,5.7l-.16-.11,13.69.1,13.7,0h0A14.53,14.53,0,0,0,95.53,138.08Z" style="fill:#263238"></path></g><path d="M93.91,136.58s-.16,3.32-.94,4.76H69.27c-.78-1.44-.41-4.76-.41-4.76Z" style="fill:#FFC727"></path><path d="M69.3,138a11.4,11.4,0,0,1,8-10.92" style="fill:#fff"></path><path d="M137,95.94H125.71V82.32a5.65,5.65,0,0,1,5.66-5.65h0A5.65,5.65,0,0,1,137,82.32Z" style="fill:#dbdbdb"></path><rect x="128.45" y="74.37" width="5.83" height="3.39" style="fill:#dbdbdb"></rect><rect x="127.42" y="72.79" width="7.89" height="3.01" style="fill:#a6a6a6"></rect><rect x="126.66" y="83.82" width="8.34" height="7.63" style="fill:#fff"></rect><path d="M124.11,95.94H112.8V82.32a5.65,5.65,0,0,1,5.65-5.65h0a5.65,5.65,0,0,1,5.66,5.65Z" style="fill:#dbdbdb"></path><rect x="115.54" y="74.37" width="5.83" height="3.39" style="fill:#dbdbdb"></rect><rect x="114.51" y="72.79" width="7.89" height="3.01" style="fill:#FFC727"></rect><rect x="113.74" y="83.82" width="8.34" height="7.63" style="fill:#fff"></rect><path d="M111.19,95.94H99.88V82.32a5.65,5.65,0,0,1,5.66-5.65h0a5.65,5.65,0,0,1,5.65,5.65Z" style="fill:#dbdbdb"></path><rect x="102.62" y="74.37" width="5.83" height="3.39" style="fill:#dbdbdb"></rect><rect x="101.6" y="72.79" width="7.89" height="3.01" style="fill:#a6a6a6"></rect><rect x="100.83" y="83.82" width="8.34" height="7.63" style="fill:#fff"></rect><rect x="65.17" y="77.28" width="11.48" height="19.11" transform="translate(141.83 173.68) rotate(180)" style="fill:#FFC727"></rect><rect x="63.6" y="74.03" width="14.63" height="3.25" transform="translate(141.83 151.31) rotate(180)" style="fill:#dbdbdb"></rect><rect x="66.65" y="81.49" width="8.54" height="11.79" transform="translate(141.83 174.77) rotate(180)" style="fill:#fff"></rect><rect x="81.02" y="77.28" width="11.48" height="19.11" transform="translate(173.53 173.68) rotate(180)" style="fill:#FFC727"></rect><rect x="79.45" y="74.03" width="14.63" height="3.25" transform="translate(173.53 151.31) rotate(180)" style="fill:#dbdbdb"></rect><rect x="82.5" y="81.49" width="8.54" height="11.79" transform="translate(173.53 174.77) rotate(180)" style="fill:#fff"></rect><g style="opacity:0.7000000000000001"><path d="M128.69,142.22H99S110.07,122,110.07,121.7v-7.37h7.6v7.37C117.67,122,128.69,142.22,128.69,142.22Z" style="fill:#fff"></path><path d="M128.69,142.22,99,142.4h-.31l.15-.26,7.31-13.49c1.21-2.25,2.44-4.51,3.6-6.77l.09-.21v0a.43.43,0,0,0,0,0v-7.59h8v4l0,1.92v1.6s0,0,0,0,.06.14.09.21c1.14,2.27,2.36,4.53,3.55,6.79Zm0,0c-2.48-4.46-5-8.92-7.43-13.41-1.22-2.25-2.46-4.48-3.63-6.76l-.11-.23a.06.06,0,0,0,0,0l0-.08v-7.37l.21.21-7.6,0,.22-.23v7.38a.62.62,0,0,1,0,.1v0a2.51,2.51,0,0,1-.11.23c-1.17,2.29-2.4,4.52-3.62,6.77-2.45,4.5-4.9,9-7.39,13.46L99,142Z" style="fill:#263238"></path><path d="M110.15,115.12a.77.77,0,1,1,.56.24A.77.77,0,0,1,110.15,115.12Z" style="fill:#263238"></path><path d="M110.15,116a.77.77,0,0,1,1.12,0,.72.72,0,0,1-.56.23A.76.76,0,0,1,110.15,116Z" style="fill:#263238"></path><path d="M110.15,116.88a.77.77,0,0,1,1.12,0,.76.76,0,0,1-.56.23A.8.8,0,0,1,110.15,116.88Z" style="fill:#263238"></path><path d="M110.15,117.68a2.5,2.5,0,0,1,1.12-.23,2.4,2.4,0,0,1,1.12.23,2.54,2.54,0,0,1-1.12.24A2.52,2.52,0,0,1,110.15,117.68Z" style="fill:#263238"></path><path d="M110.15,118.83a.77.77,0,1,1,.56.24A.77.77,0,0,1,110.15,118.83Z" style="fill:#263238"></path><path d="M110.15,119.71a.77.77,0,0,1,1.12,0,.72.72,0,0,1-.56.23A.76.76,0,0,1,110.15,119.71Z" style="fill:#263238"></path><path d="M110.15,120.59a.77.77,0,0,1,1.12,0,.76.76,0,0,1-.56.23A.8.8,0,0,1,110.15,120.59Z" style="fill:#263238"></path></g><path d="M125.77,140.72H101.91l3.85-7h16.17C123.93,137.36,125.77,140.72,125.77,140.72Z" style="fill:#FFC727"></path><rect x="147.86" y="51.64" width="10.94" height="101.42" style="fill:#37474f"></rect></g><g id="freepik--Floor--inject-104"><polygon points="33.4 452.19 87.55 451.95 141.7 451.86 250 451.7 358.3 451.86 412.45 451.95 466.6 452.19 412.45 452.44 358.3 452.53 250 452.69 141.7 452.53 87.55 452.44 33.4 452.19" style="fill:#263238"></polygon></g><g id="freepik--character-2--inject-104"><path d="M323.93,452.11c2.43.78,71.67-.12,74.28-1.83,1-.63,1.46-10.73,1.66-22.94V427c.05-2.52.08-5.11.09-7.74,0-.36,0-.72,0-1.08l-3.36-35.92-46.31.46,4.57,35.58.05,1.41.28,7.37,0,.75s-26.35,12.2-29,14.38S321.5,451.33,323.93,452.11Z" style="fill:#f7a9a0"></path><path d="M323.93,452.11c2.43.78,71.67-.12,74.28-1.83,1-.63,1.46-10.73,1.66-22.94V427c.05-2.52.08-5.11.09-7.74,0-.36,0-.72,0-1.08l-45.1.12.05,1.41.28,7.37,0,.75s-26.35,12.2-29,14.38S321.5,451.33,323.93,452.11Z" style="fill:#ebebeb"></path><path d="M323.93,452.1c1.25.4,20.06.36,38.44,0,3.7-.07,7.37-.16,10.88-.25,13.11-.36,23.94-.9,24.95-1.56s1.45-10.44,1.65-22.43c0-.17,0-.34,0-.51s0-.27,0-.39h-.05L355.2,427l0,.76s-26.35,12.2-29,14.38S321.5,451.33,323.93,452.1Z" style="fill:#a6a6a6"></path><path d="M324.68,449.41c11.67-.44,58.77-1.1,70.33-.65.1,0,.1.07,0,.08-11.55.68-58.65,1-70.33.76C324.44,449.6,324.43,449.42,324.68,449.41Z" style="fill:#263238"></path><path d="M350.23,427.23c4.58-.92,10.21-.29,13.76,2.94.14.13,0,.32-.19.27a64.86,64.86,0,0,0-13.54-2.63A.29.29,0,0,1,350.23,427.23Z" style="fill:#263238"></path><path d="M346.94,429.27c4.58-.92,10.21-.28,13.76,2.94.14.13,0,.32-.19.28A64.24,64.24,0,0,0,347,429.85.29.29,0,0,1,346.94,429.27Z" style="fill:#263238"></path><path d="M343.65,431.31c4.58-.92,10.21-.28,13.76,2.94.14.13,0,.32-.19.28a64.24,64.24,0,0,0-13.54-2.64A.29.29,0,0,1,343.65,431.31Z" style="fill:#263238"></path><path d="M362.37,452.09c3.7-.07,7.37-.16,10.88-.25,13.11-.36,23.94-.9,24.95-1.56s1.45-10.44,1.65-22.43c0-.17,0-.34,0-.51s0-.27,0-.39h-.05C393.71,431.24,372.17,445.58,362.37,452.09Z" style="fill:#263238"></path><path d="M352.16,427.19H402s-10-116.46-9.64-118.49c.49-2.61,3.44-14.4,7.36-29.79,1.23-4.82,2.55-10,3.93-15.35,3.71-14.49,7.81-30.32,11.38-44.1,5.36-20.64,9.54-36.68,9.54-36.68H382.34s-4.93,15.61-11.14,35.93c-10.11,33-23.62,78.44-25,89.49C344.08,326,352.16,427.19,352.16,427.19Z" style="fill:#263238"></path><path d="M354.37,418.68c7.62-.16,5.43-.22,13-.29,3.73,0,28.22-.25,31.71.33.07,0,.07.14,0,.15-3.49.58-28,.37-31.71.33-7.61-.07-5.42-.14-13-.29A.12.12,0,0,1,354.37,418.68Z" style="fill:#37474f"></path><path d="M383,301.58c1.64-7.21,4.08-14.27,6.21-21.35q6.48-21.56,13-43.1,3.27-10.77,6.58-21.54,1.67-5.43,3.36-10.86c1.11-3.54,2.37-7,3.38-10.62.4-1.45.63-.65.1,1.19-1.05,3.72-2.09,7.45-3.17,11.16q-3.23,11-6.48,22-6.5,21.9-13.09,43.79-3.29,11-6.6,21.94a90.56,90.56,0,0,0-2.69,10.61,48.52,48.52,0,0,0-.44,11.36c.48,7.63,1.36,15.25,2.07,22.86s1.41,15.25,2.11,22.88q2.11,22.77,4.18,45.54c.17,1.92.34,3.85.49,5.77,0,.65-.41.72-.47.1-1.65-15-3.42-30.19-4.83-45.22s-2.81-29.92-4.21-44.88c-.35-3.75-.75-7.51-.75-11.29A47,47,0,0,1,383,301.58Z" style="fill:#37474f"></path><path d="M387.13,182.78c2.94,22.7,8.53,65.25,12.61,96.13,9.53-37.41,24.85-96.13,24.85-96.13Z" style="fill:#37474f"></path><path d="M376.75,452.77c2.43.8,71.67.15,74.29-1.55,1-.63,1.5-10.72,1.74-22.94,0-.12,0-.25,0-.38,0-2.52.1-5.11.11-7.73,0-.37,0-.73,0-1.09.16-17.63-1.11-35.92-1.11-35.92l-45.26.3L407.81,419l.05,1.41.25,7.37,0,.76s-26.39,12.1-29.08,14.27S374.33,452,376.75,452.77Z" style="fill:#f7a9a0"></path><path d="M376.75,452.77c2.43.8,71.67.15,74.29-1.55,1-.63,1.5-10.72,1.74-22.94,0-.12,0-.25,0-.38,0-2.52.1-5.11.11-7.73,0-.37,0-.73,0-1.09l-45.11,0,.05,1.41.25,7.37,0,.76s-26.39,12.1-29.08,14.27S374.33,452,376.75,452.77Z" style="fill:#ebebeb"></path><path d="M376.75,452.77c2.43.8,71.67.15,74.29-1.55,1-.63,1.5-10.72,1.74-22.94,0-.12,0-.25,0-.38l-44.68-.08,0,.76s-26.39,12.1-29.08,14.27S374.33,452,376.75,452.77Z" style="fill:#a6a6a6"></path><path d="M377.51,450.08c11.67-.39,58.77-.89,70.34-.39.09,0,.09.07,0,.07-11.56.65-58.66.76-70.34.51C377.27,450.27,377.27,450.09,377.51,450.08Z" style="fill:#263238"></path><path d="M403.14,428c4.59-.9,10.21-.25,13.75,3,.14.13,0,.32-.19.28a64.36,64.36,0,0,0-13.53-2.69A.29.29,0,0,1,403.14,428Z" style="fill:#263238"></path><path d="M399.85,430c4.58-.9,10.2-.25,13.74,3,.14.13,0,.32-.19.28a64.11,64.11,0,0,0-13.53-2.69A.29.29,0,0,1,399.85,430Z" style="fill:#263238"></path><path d="M396.55,432.05c4.58-.9,10.21-.25,13.75,3,.14.13-.05.32-.19.27a65,65,0,0,0-13.54-2.68A.29.29,0,0,1,396.55,432.05Z" style="fill:#263238"></path><path d="M383.7,182.78s1,20.22,5.6,36.23c.38,1.33.78,2.63,1.21,3.88a75.36,75.36,0,0,1,12.18,6.26s.49,16.27,1,34.41c.54,20.28,1.1,42.9,1,47.7-.42,17.95,2.25,116.66,2.25,116.66l49.85.2s-9-110.23-8.95-116.81c.09-10.57-2.42-57.28-4.35-91.35a269.77,269.77,0,0,0-4.66-37.18Z" style="fill:#263238"></path><path d="M408.6,419.05c7.62-.12,5.43-.19,13-.23,3.73,0,28.22-.13,31.7.46a.08.08,0,0,1,0,.15c-3.49.56-28,.25-31.7.2-7.62-.11-5.43-.16-13-.35A.12.12,0,0,1,408.6,419.05Z" style="fill:#37474f"></path><path d="M437.1,190c.91,27.82,1.89,55.63,3.13,83.43s7.8,127.75,9.48,143.27c0,.1-.15.14-.17,0-3.63-27.59-5.65-68.43-7.43-96.19s-3-55.57-3.95-83.37c-.53-15.73-.94-31.46-1.41-47.18C436.74,189.76,437.09,189.78,437.1,190Z" style="fill:#37474f"></path><path d="M388.44,221.68a93.37,93.37,0,0,1,14.25,7.47.16.16,0,0,1-.15.29c-4.81-2.33-9.72-4.58-14.39-7.18A.32.32,0,0,1,388.44,221.68Z" style="fill:#37474f"></path><path d="M388.16,204.53c.33,1.77.76,3.53,1.14,5.29s.62,3.34,1.06,5a8.52,8.52,0,0,0,2.32,4.17c.65.6,1.36,1.13,2.05,1.68.37.3.78.59,1.16.89-.05-.23-.09-.47-.13-.71-.12-.68-.23-1.35-.34-2-.25-1.49-.49-3-.72-4.48-.45-2.94-.87-5.91-1.48-8.83a.09.09,0,0,1,.18,0c.74,2.88,1.55,5.74,2.18,8.65.32,1.42,1.43,8.47,1.48,9s.1,1,.11,1.55a6.43,6.43,0,0,1,0,1.58.13.13,0,0,1-.24,0h0a6.13,6.13,0,0,1-.45-1.53c-.13-.5-.24-1-.33-1.52,0-.19-.06-.38-.09-.57-.69-.42-1.34-1-2-1.45s-1.42-1-2.08-1.55a8,8,0,0,1-2.53-3.95,28.83,28.83,0,0,1-.83-5.07c-.22-2-.38-4-.66-6C388,204.46,388.14,204.41,388.16,204.53Z" style="fill:#37474f"></path><path d="M402,131.61c-11.31,7.13-31.67,17.1-39.4,17.73-8.59.69-20.77-22.25-29-36.43C332,110.1,353.1,96.1,354.68,99.19c4.14,8.1,12.08,26.07,14.06,26.58,1.63.42,18.45-2.06,27.93-3.57C411.76,119.81,410,126.59,402,131.61Z" style="fill:#f7a9a0"></path><path d="M358.05,104.44l-21.74,17.33s15.43,26.34,23.45,28.07,33.57-11.7,42.09-17.71,8.76-11.66-2.58-10.42-29,3.47-30.37,2.83S358.05,104.44,358.05,104.44Z" style="fill:#ebebeb"></path><path d="M341.45,127.7c7.8-8.14,17.24-15.52,18.79-16.92a.08.08,0,1,1,.1.12c-1.6,1.29-11.47,10.9-18.79,16.94C341.47,127.91,341.37,127.78,341.45,127.7Z" style="fill:#263238"></path><path d="M353.34,145.48c2.28,2.29,4.52,4,6.42,4.36,8,1.72,33.57-11.69,42.09-17.7,3.65-2.58,5.78-5.08,6.13-7C394.9,130,364.38,141.38,353.34,145.48Z" style="fill:#c7c7c7"></path><path d="M338.16,120.84l19.44-15.69c-.11-.59-1.1-2.12-1.83-4.11a41.28,41.28,0,0,1,.09-12.93c1-5.16,3.14-12.7.38-13.35-4-1-7.83,8.24-9.7,13.67-2.07-2.34-4.07-4.15-5.62-4.78-5.16-2.09-17.41,19.75-14.65,24.69C328.94,113.1,335.22,119.87,338.16,120.84Z" style="fill:#455a64"></path><rect x="338.03" y="66.09" width="7.41" height="18.87" transform="translate(683.47 151.05) rotate(180)" style="fill:#FFC727"></rect><polygon points="340.96 122.53 342.51 122.53 344.45 84.96 339.03 84.96 340.96 122.53" style="fill:#dbdbdb"></polygon><path d="M341.74,122.53s1.27,3.12,0,3.12S341.74,122.53,341.74,122.53Z" style="fill:#FFC727"></path><path d="M348.22,88.46c-.1,2.89-3.45,1.12-3.45,1.12s4.21,3.71,3,6.65-5.18.56-5.47.4c.22.19,4,3.7,2.44,6.53s-5.22,0-5.45-.23c.15.25,2.08,3.62.41,5.5-2.88,3.23-8.05-5.25-11.48-5.94,0,0-1.82,5.69-1.91,5.84s-5.09-8-3.91-12.55a3,3,0,0,1,3-2.31s-1.93-2.39-.77-4.65c.6-1.16,3-1.24,3-1.24a3.8,3.8,0,0,1-.31-3.93c.92-1.56,3.18-1.39,3.18-1.39s-.53-2.55.93-3.84C334.31,75.82,348.41,82.27,348.22,88.46Z" style="fill:#455a64"></path><path d="M330.81,82.23c-.05,0,0-.09,0-.08A26.92,26.92,0,0,1,345,89.66c.12.12,0,.37-.19.26A55,55,0,0,0,330.81,82.23Z" style="fill:#263238"></path><path d="M327.52,87.52c-.06,0,0-.12,0-.1a25.17,25.17,0,0,1,14.91,9.15c.13.16.07.44-.09.26C339.71,93.73,332.24,89.21,327.52,87.52Z" style="fill:#263238"></path><path d="M339.39,103.36c-3.68-4.59-8.46-7.54-13.81-9.86-.07,0,0-.12.05-.12,2.92.43,6.17,2.26,8.58,3.91a15.5,15.5,0,0,1,5.34,5.94C339.6,103.33,339.47,103.46,339.39,103.36Z" style="fill:#263238"></path><path d="M344.87,89.57c.14.15-.24.19-.1.35.58.66,3.72,4.91,2.6,6.43-.9,1.21-3.15.85-4,.37l-2.05-1.2,1.5,1.84a9.38,9.38,0,0,1,1.59,2.71,3.47,3.47,0,0,1,0,2.84,2,2,0,0,1-2.23,1.1,5.92,5.92,0,0,1-2.65-1.42l-2.12-1.84,1.4,2.42a9.23,9.23,0,0,1,.9,2.15,3.71,3.71,0,0,1,0,2.16,1.77,1.77,0,0,1-1.44,1.21,4,4,0,0,1-2.12-.63,31.61,31.61,0,0,1-3.91-2.9c-.64-.52-1.28-1-1.95-1.53a5.85,5.85,0,0,0-2.18-1.14,6.33,6.33,0,0,1,2,1.32c.62.53,1.22,1.1,1.82,1.66a26.32,26.32,0,0,0,3.84,3.17,4.57,4.57,0,0,0,2.51.84,2.53,2.53,0,0,0,2.2-1.7,4.57,4.57,0,0,0,0-2.69,10,10,0,0,0-1-2.4l-.72.58A6.81,6.81,0,0,0,342,105a2.9,2.9,0,0,0,1.93-.25,3.35,3.35,0,0,0,1.33-1.39,4.36,4.36,0,0,0,0-3.59,10.64,10.64,0,0,0-1.79-3l-.54.64c1.05.57,3.53,1.25,5.16-.46C349.91,94.44,345.69,90.28,344.87,89.57Z" style="fill:#263238"></path><path d="M344.77,89.58a5.93,5.93,0,0,0,1.76.25,1.36,1.36,0,0,0,1.18-.68,2.79,2.79,0,0,0,.14-1.55c-.09-.58-.21-1.18-.36-1.79a4.5,4.5,0,0,1,1,1.65,2.66,2.66,0,0,1,0,2.07,1.82,1.82,0,0,1-1.92.92A3.08,3.08,0,0,1,344.77,89.58Z" style="fill:#263238"></path><path d="M376.32,200l66.91,3.88s-8-58.9-29.21-81.61c-2.63-2.8-9.15-2.83-13.56-1.14-1.58.61-7.27,8.12-9.48,15.13S376.17,199.78,376.32,200Z" style="fill:#FFC727"></path><polygon points="402.78 136.73 401.16 131.86 396.73 135.25 397.19 138.79 400.68 139.7 402.78 136.73" style="fill:#263238"></polygon><polygon points="400.68 139.7 397.3 179.78 390.95 191.75 387.51 177.84 397.19 138.79 400.68 139.7" style="fill:#263238"></polygon><path d="M411.47,120.84A305.25,305.25,0,0,0,407,158.27c-2,47.85,1.67,132.77,3,139,.77,3.55,41.94-2.83,41.94-2.83s-3.75-98-17.46-136.51C421.83,122.21,411.47,120.84,411.47,120.84Z" style="fill:#ebebeb"></path><path d="M442.45,227.89a119.86,119.86,0,0,1-14.09,1.1c-6.59,0-13.14-.64-15-.67-.17,0-.25.56-.14.57A149.24,149.24,0,0,0,428.24,230a78.84,78.84,0,0,0,13.72-1.3c0,1.4,0,2.49,0,3.88-4.65.9-13.62,2.46-28.11.59,0-.59,0-3.69-.09-4.54,0-.13-.55-.16-.58,0-.11.84-.45,8.31-.46,9.83,0,3.74.22,14.31,1.15,16.36,2.11,4.64,11.14,4.65,13.64,4.67s10.55.27,13.57-2.68c1.61-1.58,2-10.15,1.72-17.72C442.67,235.47,442.66,228,442.45,227.89Zm-14.24,30.65c-8,0-11.46-1.67-12.69-3.33-1.43-1.94-1.55-5.33-1.66-9.06-.09-2.93,0-12.12,0-12.31,4.65.95,16.93,2.22,28.08-.37,0,4.35,0,7.83,0,12.19,0,3.16-.19,8.45-1.79,10.28C438.84,257.48,434,258.53,428.21,258.54Z" style="fill:#dbdbdb"></path><path d="M396.79,123s-8,35.23-9.09,40.93-10,124.19-12,128.42c-.7,1.44-25.4-7.3-25.4-7.3S388,142.36,390.43,135.35C394.56,123.25,396.79,123,396.79,123Z" style="fill:#ebebeb"></path><path d="M337.21,129.49l.15,34.1a4,4,0,0,0,8.05,0l-.16-34.1Z" style="fill:#dbdbdb"></path><path d="M337.72,139.35l.11,24.21a3.56,3.56,0,1,0,7.11,0l-.11-24.21Z" style="fill:#FFC727"></path><rect x="335.95" y="126.46" width="10.57" height="5.3" transform="translate(683.04 256.68) rotate(179.74)" style="fill:#455a64"></rect><path d="M412.28,132.86c-4.16,4.12-27.46,35.68-27.69,39.46-.34,5.93.92,21.47,14.32,17.6,9.28-2.68,19-34.84,22.14-49.41C423,131.48,419.71,125.51,412.28,132.86Z" style="fill:#f7a9a0"></path><path d="M370.15,158.61c-3.29-.23-18.82,19.09-14.62,21.53,19.76,11.49,37.24,11.25,41.63,10.19,5.76-1.39,7.9-8.47,6.47-12.08C401.56,173,373.41,158.84,370.15,158.61Z" style="fill:#f7a9a0"></path><path d="M371.63,159s-7.36-7.23-12.34-12c-2.77-2.69-7.94-6.86-10.88-7.9-4.39-1.55-23.78-5.24-24.77-.56-.9,4.24,16.15,5.29,16.15,5.29s-17.11-2.59-17.26,2.71,19.28,3.93,19.28,3.93-17.65-2.26-16.93,3.23c.54,4.15,18.2,3.9,18.2,3.9s-15.18-1.84-14.81,2.45c.41,4.74,16.73,5.54,16.73,5.54,2.78,10.74,9.14,16.58,15,17C361.24,182.67,371.63,159,371.63,159Z" style="fill:#455a64"></path><path d="M345.77,144.32c-2-.37-4-.77-6-1s-4.06-.33-6.09-.34a34,34,0,0,0-7.93.73c4.7-.63,12,0,14,.16s4.05.3,6.07.49C345.81,144.41,345.82,144.33,345.77,144.32Z" style="fill:#263238"></path><path d="M345.19,151.65c-2.58-.37-5.12-.83-7.71-1.09s-5.05-.27-7.63-.34c-.2,0-.14.1.06.11,2.58.18,5,.55,7.54.76s5.17.32,7.73.63A0,0,0,0,0,345.19,151.65Z" style="fill:#263238"></path><path d="M345.82,158a58.56,58.56,0,0,0-11.91-.76c-.2,0-.1.13.1.14,4,.18,7.08.29,11.79.76C345.87,158.18,345.9,158.05,345.82,158Z" style="fill:#263238"></path><path d="M371.63,158.61l-13.17,27.2s33.28,10.56,42.21,4,18.13-33,20.93-48-5.2-15.82-12.09-6.32-22.68,29.69-22.68,29.69Z" style="fill:#ebebeb"></path><path d="M367.47,186.62c3.68-10.66,9.17-21.31,10-23.24,0-.09.18,0,.14.07-.91,1.85-5.86,14.7-10,23.25C367.58,186.8,367.44,186.72,367.47,186.62Z" style="fill:#263238"></path><path d="M377.17,190.49A87,87,0,0,0,392,192.08a17.45,17.45,0,0,0,6.11-1.13,9.8,9.8,0,0,0,2.65-1.55,14.06,14.06,0,0,0,2.29-2.58,85.93,85.93,0,0,0,7.13-11.77c2.1-4.12,3.95-8.35,5.66-12.64s3.42-8.6,5-12.94c.19-.54.39-1.07.58-1.61,0-.08.16,0,.13,0-1,3.08-2,6.17-3.09,9.25.94-1.63,1.87-3.25,2.74-4.92,0-.07.14,0,.1.07a51.37,51.37,0,0,1-3.18,5.82c-.37,1.06-.75,2.12-1.14,3.17a140.9,140.9,0,0,1-5.58,12.94,88.37,88.37,0,0,1-7.15,12,14.09,14.09,0,0,1-4.7,4.67,15.46,15.46,0,0,1-6,1.59,34.76,34.76,0,0,1-7-.18c-2.47-.28-8.89-1.56-9.49-1.78C377.09,190.55,377.12,190.48,377.17,190.49Z" style="fill:#263238"></path><path d="M383.48,163.61c.56.2,1.09.49,1.63.73s1.07.49,1.6.76c1.1.55,2.18,1.11,3.27,1.68,2.17,1.13,4.22,2.47,6.27,3.81.17.11,0,.37-.15.27-2.08-1.25-4.22-2.39-6.31-3.62-1-.61-2.08-1.21-3.13-1.78l-1.55-.86c-.55-.31-1.13-.58-1.66-.91C383.41,163.66,383.43,163.59,383.48,163.61Z" style="fill:#263238"></path><path d="M386.65,165.18c.52-.71,1.07-1.4,1.63-2.08s1.13-1.39,1.76-2a0,0,0,0,1,.07,0,14.23,14.23,0,0,1-1.55,2.14,17.88,17.88,0,0,1-1.85,1.94S386.63,165.21,386.65,165.18Z" style="fill:#263238"></path><path d="M401.87,132.3c3.66.78,9.79-4.92,12.16-9.49.16-.32-.39-3.57-.86-7.55-.28-2.41-.54-5.11-.59-7.59,0-.51-15.46,4.12-15.46,4.12a39.6,39.6,0,0,1,1.71,9.48,5.45,5.45,0,0,1-.09,1,1.11,1.11,0,0,1,0,.17C398.45,124.4,398.33,131.54,401.87,132.3Z" style="fill:#f7a9a0"></path><path d="M412.78,111.44c-5.41,8.47-12.45,8-14.08,7.76a44.8,44.8,0,0,0-1.58-7.41s15.45-4.63,15.46-4.12C412.61,108.89,412.68,110.18,412.78,111.44Z" style="fill:#263238"></path><path d="M416.28,88.52c1.27,5.62-2.81,21.29-7,24.54-6.05,4.72-15.37,4.52-19.23-2.62-3.73-6.92,1.95-27.24,6.55-30.14C403.41,76,414.41,80.22,416.28,88.52Z" style="fill:#f7a9a0"></path><path d="M400,97.92s.07.08.06.12c-.31,1-.48,2.3.39,2.89,0,0,0,.07,0,.06C399.32,100.53,399.56,98.87,400,97.92Z" style="fill:#263238"></path><path d="M401.24,97.06c1.74.31,1,3.75-.61,3.47S399.79,96.81,401.24,97.06Z" style="fill:#263238"></path><path d="M393.81,96.36s-.09,0-.1.08c-.19,1.07-.6,2.27-1.64,2.42,0,0,0,.06,0,.06C393.28,99,393.8,97.41,393.81,96.36Z" style="fill:#263238"></path><path d="M393.1,95.05c-1.69-.5-2.56,2.91-1,3.37S394.51,95.46,393.1,95.05Z" style="fill:#263238"></path><path d="M402.85,96.43a13.62,13.62,0,0,1-1.43-.18,2.27,2.27,0,0,1-1.43-.46.72.72,0,0,1-.08-.9,1.86,1.86,0,0,1,1.78-.59,2.78,2.78,0,0,1,1.78.81A.8.8,0,0,1,402.85,96.43Z" style="fill:#263238"></path><path d="M392.14,93c.49,0,.95,0,1.44-.06a2.31,2.31,0,0,0,1.46-.35.73.73,0,0,0,.15-.89,1.82,1.82,0,0,0-1.72-.73,2.7,2.7,0,0,0-1.84.67A.79.79,0,0,0,392.14,93Z" style="fill:#263238"></path><path d="M399.18,107.65a1.59,1.59,0,0,1-1,.43,2.72,2.72,0,0,1-1.09-.51,0,0,0,0,0-.05.05,1.45,1.45,0,0,0,1.23.86,1.16,1.16,0,0,0,1-.76C399.31,107.66,399.23,107.62,399.18,107.65Z" style="fill:#263238"></path><path d="M398.75,104.22a3.7,3.7,0,0,1-2.77,1.09,4.3,4.3,0,0,1-1.32-.22.85.85,0,0,1-.24-.08l-.23-.08a.28.28,0,0,1-.16-.29h0a.38.38,0,0,1,0-.1h0l0-.09c.15-.83.5-2.06.5-2.06-.34.08-2,.45-1.9,0a57.3,57.3,0,0,1,3.76-10.69c.06-.11.23,0,.19.07-.8,3.41-2.19,6.65-3.05,10.06a6.54,6.54,0,0,1,1.82-.15c.11.06-.71,2.37-.75,2.74v0a5.16,5.16,0,0,0,4-.36C398.76,104.06,398.83,104.15,398.75,104.22Z" style="fill:#263238"></path><path d="M395.23,104.78a4.44,4.44,0,0,0,1.44,1.71,1.92,1.92,0,0,0,1.16.32c.9,0,1.09-.81,1.08-1.52a4.6,4.6,0,0,0-.17-1.1A5.66,5.66,0,0,1,395.23,104.78Z" style="fill:#263238"></path><path d="M396.67,106.49a1.92,1.92,0,0,0,1.16.32c.9,0,1.09-.81,1.08-1.52A2.05,2.05,0,0,0,396.67,106.49Z" style="fill:#ff9abb"></path><path d="M413.89,100.93c-2.79-.45-1.82-7.28-1.82-7.28s-4.2-1.2-5.7-7.28c0,0-5.86,2.9-10.39,1.59-7.1-2-6-11.42-3.05-13.07,4.11-2.32,10.55,2.32,10.55,2.32s10.63-1.83,13,5.48a5.34,5.34,0,0,1,4.4,5.8C420.68,93.61,416,101.27,413.89,100.93Z" style="fill:#263238"></path><path d="M413,94.56a9.57,9.57,0,0,1-5.11-3.5,7.16,7.16,0,0,1-1-6.5c0-.11-.15-.17-.19-.06a8.24,8.24,0,0,0,.46,7,6.68,6.68,0,0,0,5.8,3.29C413.06,94.76,413.11,94.6,413,94.56Z" style="fill:#263238"></path><path d="M421.55,85.54c-1.24-2-3.39-2.46-5.55-2.6-.12,0-.13.19,0,.19a6,6,0,0,1,5.05,3.45c.91,1.8.45,3.92-.18,5.75a15.09,15.09,0,0,1-6.9,8.34c-.06,0,0,.12,0,.09a15.14,15.14,0,0,0,7.73-9.12C422.3,89.7,422.69,87.34,421.55,85.54Z" style="fill:#263238"></path><path d="M403.72,77.58a7.06,7.06,0,0,0-3.66-3.44,8.47,8.47,0,0,0-6.07,0A4.78,4.78,0,0,0,391.08,78a8.46,8.46,0,0,0,1.35,5.53,0,0,0,0,0,.08,0,8.45,8.45,0,0,1-1-5,4.41,4.41,0,0,1,3-3.62c3.1-1,7.42-.36,9.06,2.85C403.61,77.78,403.78,77.69,403.72,77.58Z" style="fill:#263238"></path><path d="M390.2,101.44c-1.74-.48-2.56-3-1.84-5.63s2.73-4.38,4.47-3.9,2.56,3,1.84,5.64S391.93,101.92,390.2,101.44Zm2.45-8.89c-1.38-.38-3,1.16-3.65,3.43s0,4.44,1.37,4.83,3-1.16,3.66-3.44S394,92.94,392.65,92.55Z" style="fill:#37474f"></path><path d="M400.88,104.4a5,5,0,1,1,5.77-3.54A4.79,4.79,0,0,1,400.88,104.4Zm2.46-8.89a4.29,4.29,0,1,0,2.67,5.18A4.12,4.12,0,0,0,403.34,95.51Z" style="fill:#37474f"></path><path d="M398.08,98c-2.16-1.49-3.45-1-3.46-1l-.26-.61c.07,0,1.61-.65,4.1,1.08Z" style="fill:#37474f"></path><path d="M406.44,100.36l.06-.66c.43,0,7.23.35,8.3.58s3.33,2.42,3.58,2.67l-.47.46a12.72,12.72,0,0,0-3.2-2.47h0C413.83,100.75,410.11,100.68,406.44,100.36Z" style="fill:#37474f"></path><path d="M410.64,102.84s4.07-4.79,6.28-3.29-1.2,8.67-4,9.43a2.8,2.8,0,0,1-3.59-1.84Z" style="fill:#f7a9a0"></path><path d="M415.89,101.58a0,0,0,0,1,0,.07c-2,.6-3.17,2.28-4,4a1.55,1.55,0,0,1,2.34-.2s0,.12-.06.1a1.72,1.72,0,0,0-1.94.42,8,8,0,0,0-1,1.43c-.11.17-.41,0-.33-.15l0,0C411,104.82,413.25,101.58,415.89,101.58Z" style="fill:#263238"></path><path d="M398.82,121.56l2.56,8.85,12.56-9.2,1.89,4.31s-12.67,14.64-12.62,13.9L400.8,132,395.07,136,397.32,124Z" style="fill:#FFC727"></path><path d="M395.83,130c.44-2,.83-4,1.36-5.94,0-.07.14-.08.15,0,.12,2-1.61,9.55-1.88,11.39l0,0c.24-.18,5.28-3.55,5.31-3.48.58,1.22,2.35,6.66,2.46,7.14,2-2.32,10.4-11.42,12.68-13.56a.07.07,0,0,1,.11.09c-1.84,2.5-12.72,14.53-12.84,14.48a77.11,77.11,0,0,1-2.51-7.89c-.88.77-6,4.65-6,4.35A63.34,63.34,0,0,1,395.83,130Z" style="fill:#263238"></path></g><g id="freepik--character-1--inject-104"><polygon points="169.21 331.37 172.05 348.38 191.27 452.19 194.37 452.19 180.39 348.38 178.32 331.37 169.21 331.37" style="fill:#c7c7c7"></polygon><polygon points="178.32 331.37 169.21 331.37 172.05 348.38 180.39 348.38 178.32 331.37" style="fill:#a6a6a6"></polygon><polygon points="108.84 452.19 111.94 452.19 131.16 348.38 134 331.37 124.89 331.37 122.82 348.38 108.84 452.19" style="fill:#c7c7c7"></polygon><polygon points="124.89 331.37 122.82 348.38 131.16 348.38 134 331.37 124.89 331.37" style="fill:#a6a6a6"></polygon><polygon points="51.18 452.19 54.28 452.19 73.51 348.38 76.34 331.37 67.23 331.37 65.16 348.38 51.18 452.19" style="fill:#c7c7c7"></polygon><polygon points="65.16 348.38 73.51 348.38 76.34 331.37 67.23 331.37 65.16 348.38" style="fill:#a6a6a6"></polygon><polygon points="56.1 339.36 196.96 339.36 196.96 327.94 144.23 324.52 126.51 222.3 61.47 222.3 56.1 339.36" style="fill:#c7c7c7"></polygon><polygon points="56.1 339.36 63.78 339.36 68.78 222.3 61.47 222.3 56.1 339.36" style="fill:#a6a6a6"></polygon><path d="M138.93,182.85c7.15,8.44,3.18,18.44,5.74,24.62,1.56,3.78,7.88,8.52,8.62,12.7,1.21,6.88-4.69,8.33-4,12.07.94,5.29,7.72,6,7.61,14.38s-10.53,15.67-32.34,14.6-32.31-10.81-32-17.89,7.85-8.26,9.17-13.38c.84-3.27-3.19-6.29-2.43-12.44s7-7.18,8.72-12.23,1-18.11,9.63-23.33S135.4,178.68,138.93,182.85Z" style="fill:#263238"></path><path d="M137.94,182.88a17.89,17.89,0,0,1,4.48,7.24,39,39,0,0,1,1.71,8.91,23.83,23.83,0,0,0,.86,5.31,13,13,0,0,0,2.3,4c2,2.47,4.5,4.5,6.2,7.19s2.67,5.78,1.39,8.69c-.69,1.59-2,2.76-2.92,4.19s-1.43,3.14-.37,4.55c.91,1.21,2.38,1.94,3.46,3a13.86,13.86,0,0,1,2.64,3.54,10.59,10.59,0,0,1,.65,8.55c-2.33,6.46-9.19,9.25-15.34,10.71l-2.59.59c-.13,0-.21-.17-.07-.2,6.21-1.67,13.42-3.63,16.69-9.75a9.92,9.92,0,0,0,.38-8.76,12.47,12.47,0,0,0-2.55-3.71c-1-1-2.28-1.79-3.34-2.8a4,4,0,0,1-1.25-3.81,9.69,9.69,0,0,1,2.27-4,8,8,0,0,0,2.09-4.27,8.64,8.64,0,0,0-1-4.56c-1.39-2.84-3.79-4.95-5.87-7.26a14.68,14.68,0,0,1-4.06-8.05c-.2-1.6-.22-3.22-.36-4.82a39.13,39.13,0,0,0-.6-4.44,20.29,20.29,0,0,0-3.33-8.19,12.07,12.07,0,0,0-1.53-1.74A.07.07,0,1,1,137.94,182.88Z" style="fill:#263238"></path><path d="M92.45,238.07a8.07,8.07,0,0,1,2-2.88c.9-.82,1.93-1.48,2.89-2.22a6,6,0,0,0,2.22-2.61,5.86,5.86,0,0,0-.33-4,29.75,29.75,0,0,1-1.31-4,13.58,13.58,0,0,1-.18-4.12,13.9,13.9,0,0,1,3.43-7.62c.93-1.08,1.93-2.09,2.86-3.16a17.19,17.19,0,0,0,2.57-3.86c1.48-3.07,2.24-6.44,3.55-9.58a52,52,0,0,1,5-9.16c0-.07.15,0,.1.09a45,45,0,0,0-4.45,8.29c-1.14,2.76-1.87,5.64-2.84,8.45a22.29,22.29,0,0,1-1.76,4,23,23,0,0,1-2.44,3.29c-1.82,2.12-3.69,4.21-4.54,6.95a13.26,13.26,0,0,0,.1,8.24c.78,2.31,2,4.91.6,7.24-1.18,2-3.39,2.92-5,4.46a8.59,8.59,0,0,0-2.54,6.54c.19,6.18,5.73,10.12,11.31,11.32a.14.14,0,0,1,0,.27c-4.89-.84-9.86-3.84-11.42-8.79A10.47,10.47,0,0,1,92.45,238.07Z" style="fill:#263238"></path><path d="M243.27,421.72c-2.16,1.26-68.65,15.16-71.52,14.09-1.09-.41-3.68-10-6.48-21.62-.6-2.51-1.21-5.12-1.82-7.76-3.94-17.17-7.72-35.47-7.72-35.47l44.45-9.43,6.5,35.73,1.43,7.85S236,411.17,239,412.68,245.44,420.45,243.27,421.72Z" style="fill:#ad6359"></path><path d="M166.35,418.64c2.37,9.55,4.45,16.81,5.4,17.17,2.87,1.07,69.37-12.84,71.53-14.1s-1.3-7.51-4.3-9c-1.87-.93-13.18-3.59-21.57-5.5,7.33,1.75,21,6.72-7.28,8.77C186.74,417.65,171.31,418.42,166.35,418.64Z" style="fill:#263238"></path><path d="M183.26,455.72c-2.41.67-70.24-2.83-72.75-4.6-1-.67.65-15.55,1.36-18.17,2.41-8.87,14.88-47.95,14.88-47.95l45.39,2.21L153.5,430.7s25.37,13,27.91,15.19S185.68,455.05,183.26,455.72Z" style="fill:#ad6359"></path><path d="M110.51,451.12c2.51,1.77,70.34,5.27,72.76,4.61s.67-7.6-1.86-9.84c-1.19-1-7.32-4.4-13.53-7.69,7.8,4.39,20.14,14.18-56.66-3.27C110.52,442.69,110,450.76,110.51,451.12Z" style="fill:#263238"></path><path d="M78,321.55c13.52,15.06,59,3.17,61.67,9.16,2.39,5.29-28.61,90.18-28.61,90.18l49.61,5.35s42.82-93.76,27.51-120.85c-8.26-14.63-44.7-8.79-66.68-11.47-6.64-.81-9.75-14.49-9.75-14.49H72.48S62.57,304.34,78,321.55Z" style="fill:#37474f"></path><path d="M174.41,297l-41.65,31.88c-13.84-.29-44.12,4.5-54.73-7.33-15.46-17.22-5.55-42.11-5.55-42.11h39.29s3.11,13.67,9.74,14.48C137,295.79,159.48,293.49,174.41,297Z" style="fill:#263238"></path><path d="M162.58,415.17c-1.37-.43-14.23-1.86-17.07-2.17-5.67-.61-23.55-2.28-26.79-2.27a.08.08,0,0,0,0,.15c2.82.59,14.23,1.92,17.06,2.21,5.69.58,25.22,2.48,26.8,2.32A.12.12,0,0,0,162.58,415.17Z" style="fill:#263238"></path><path d="M145.71,325.74c-3.19-1.59-27.37-.8-44.72-2.43-5.66-.53-11.33-1.73-15.64-5.44a25.8,25.8,0,0,1-7.72-12.72C76,299.23,76.13,293,76.42,287c.07-1.49.17-3,.26-4.48,0-.08-.15-.1-.16,0-1.31,10.88-2.32,23,4.75,32.46a22.67,22.67,0,0,0,12.65,8.29c10.46,2.76,49.8,2.07,51.19,3.14,1.65,1.26-23.78,78.69-24.29,80.17-.09.27.4.46.51.19C123.84,400.77,148.48,327.12,145.71,325.74Z" style="fill:#263238"></path><path d="M190,308c-2.34-5.93-7.67-9.63-15.52-11-.13,0-.12.17,0,.2,6.84,2,11.74,4.76,14.43,10.54,1.26,2.7,1.91,6.49,2.24,11.57,1.63,25.36-20.5,82.91-20.95,83.91a.08.08,0,0,0,.14.07C173.45,398,199.64,332.52,190,308Z" style="fill:#263238"></path><path d="M207.92,395l-37.56,8s29.63-88.45,15.71-99.86c-3.86-3.17-12.27-4.27-22.26.05-14.93,6.44-32.21,19.59-48.49,24.39-15.26,4.5-33.36.36-39.59-6.49-13.09-14.41-3.25-41.65-3.25-41.65l54-2s-.8.65,1.77,2.94c0,0,31.76-7.2,45.56,1.23C198.71,296.77,207.92,395,207.92,395Z" style="fill:#37474f"></path><path d="M95.82,282.58a.1.1,0,0,0-.19,0,29.27,29.27,0,0,1-.47,6.06,10.38,10.38,0,0,1-2.71,5c-3,3-7.21,4-11.1,5.24-.2.07-.16.43.07.39,4.3-.66,8.84-1.75,12-5a10.49,10.49,0,0,0,2.79-5.42A13,13,0,0,0,95.82,282.58Z" style="fill:#263238"></path><path d="M185.14,301.43c-5.78-3.63-14.8-.87-19.13.78a.08.08,0,0,0,.05.15c4-1.43,13.87-3.59,19.16.15,12.22,8.66-4.14,67.88-14.86,100.47-.17.51.23.37.46-.12,1.77-3.86,15.59-45,19.2-72.29C190.57,326.38,193.47,306.65,185.14,301.43Z" style="fill:#263238"></path><path d="M203.64,385c-1.14,0-10.87,2.12-13,2.6-4.29,1-14.23,3.54-16.55,4.43-.06,0,0,.15,0,.14,2.23-.21,7.42-1.35,9.55-1.84,4.29-1,19-4.52,20.05-5.1C203.8,385.18,203.75,385,203.64,385Z" style="fill:#263238"></path><path d="M183.3,299.89c-3.88-2.12-8.51-2.47-12.82-1.94a44.94,44.94,0,0,0-13.11,4.1c-8.79,4-17.16,8.93-26,12.92s-18.08,7.09-27.72,7.38c-8.25.26-18.68-1.19-24-8.61-8.16-11.42-3.4-31.11-3.31-32.39,0-.09-.12-.09-.15,0-6.33,24.2,1.82,33.6,7.32,37.56,4.36,3.14,10.64,3.93,14.78,4.28,9.6.81,19.21-1.54,28.1-5.08,9.11-3.63,17.65-8.52,26.38-13,8.37-4.28,17.7-8.7,27.26-6.24a22.9,22.9,0,0,1,3.18,1.08S183.35,299.92,183.3,299.89Z" style="fill:#263238"></path><path d="M149.34,237c2.2-1.91,24.16.44,22.49,4.39-7.83,18.62-21.91,29-25.58,30.61-4.8,2.08-9.54-2.16-10.45-5.46C134.48,261.79,147.16,238.94,149.34,237Z" style="fill:#ad6359"></path><path d="M146.86,239.09l24.26,8.44s-15.72,22.56-26.23,25.09c-3.76.91-9.5-2.56-9.89-7.31S146.86,239.09,146.86,239.09Z" style="fill:#ebebeb"></path><path d="M166.29,251.92a207.07,207.07,0,0,1-20.73-7.54c-.08,0,0-.16.05-.13,1.65.7,13.09,4.37,20.74,7.54C166.44,251.82,166.38,252,166.29,251.92Z" style="fill:#263238"></path><path d="M122.79,219.05c3.57,3.74,29,31.78,30.62,32.72,0,0-.35,24-12.3,21-7.77-2-24.42-36.32-27.27-50C112.53,216.4,115.29,211.2,122.79,219.05Z" style="fill:#ebebeb"></path><path d="M147.52,271.3a6.66,6.66,0,0,1-6.41,1.44c-7.77-2-24.42-36.33-27.27-50-1.26-6.06,1.24-11.1,8.11-4.49Z" style="fill:#c7c7c7"></path><path d="M128.68,279.66l-1.49-23s6.16-6.87,4.75-13c-.71-3.13-11.52-26.87-12.57-27.84-4.23-3.9-11.32-2.29-14.22-.08C89.06,228,77.82,254.21,72.5,280Z" style="fill:#FFC727"></path><path d="M121.39,221.11a27.28,27.28,0,0,1-1,2.65,15.24,15.24,0,0,1-1.31,2.5,4.54,4.54,0,0,1-1.95,1.82,2.43,2.43,0,0,1-2.37-.75,17.13,17.13,0,0,1-3.4-4.44c-.47-.82-.91-1.66-1.3-2.52a20.11,20.11,0,0,1-1-2.64,22.9,22.9,0,0,0,3.52,7.79,12,12,0,0,0,1.91,2.18,4.62,4.62,0,0,0,1.28.78,2.45,2.45,0,0,0,.77.15,2,2,0,0,0,.78-.14,3.37,3.37,0,0,0,1.23-.86,6.52,6.52,0,0,0,.88-1.17A18.07,18.07,0,0,0,121.39,221.11Z" style="fill:#263238"></path><path d="M62.38,375l47-11.35s1.23-63.88,1.62-75.74c.87-26.64-.55-74.26-.55-74.26s-2.56,0-6.88,3-10.66,9-17.44,21.56C61.35,283.89,62.38,375,62.38,375Z" style="fill:#ebebeb"></path><path d="M75.64,323.49c-.22,7.16.11,15.26,1.63,16.75,2.86,2.78,10.45,2.55,12.83,2.53s10.9,0,12.89-4.41c.88-1.94,1.11-11.93,1.09-15.47,0-1.43-.33-8.5-.44-9.29,0-.19-.53-.16-.55,0-.12.81,0,3.74-.08,4.3-13.7,1.76-22.18.29-26.57-.56,0-1.32,0-2.35,0-3.67a74.71,74.71,0,0,0,13,1.23,142,142,0,0,0,14.23-1c.1,0,0-.54-.14-.54-1.78,0-8,.63-14.2.63a112.91,112.91,0,0,1-13.32-1C75.75,313,75.75,320.06,75.64,323.49Zm2.46,15.93c-1.51-1.74-1.69-6.74-1.69-9.72,0-4.12,0-7.41,0-11.53,10.54,2.46,22.15,1.25,26.54.36,0,.17.08,8.86,0,11.63-.1,3.53-.21,6.73-1.57,8.56-1.16,1.58-4.44,3.16-12,3.15C84,341.86,79.37,340.87,78.1,339.42Z" style="fill:#dbdbdb"></path><path d="M120.22,216.65l6.76,63,3.54-.23s-2.29-22.12-2.25-22.55,6.29-5.69,4.8-13.5S121.22,217.36,120.22,216.65Z" style="fill:#ebebeb"></path><path d="M128.27,256.89a14.63,14.63,0,0,0,4.34-5.44,11.81,11.81,0,0,0,1-7,31,31,0,0,0-2-6.71,48.32,48.32,0,0,0-3.06-6.26c.91,2.13,1.76,4.29,2.53,6.46.37,1.09.75,2.17,1.05,3.28a26.32,26.32,0,0,1,.75,3.34,12.05,12.05,0,0,1-.77,6.63A17.19,17.19,0,0,1,128.27,256.89Z" style="fill:#263238"></path><path d="M110.45,213.61q-1,2.4-2,4.8l-2,4.8q-2,4.81-3.87,9.64l-.12.29.26.2q2.59,2,5.22,4l-.09-.66-4.8,6.4-.16.22.1.24q2.12,5.3,4.34,10.54,1.1,2.63,2.24,5.24c.76,1.74,1.51,3.49,2.3,5.22-.62-1.8-1.28-3.58-1.92-5.37s-1.31-3.57-2-5.35c-1.35-3.55-2.71-7.1-4.11-10.63l-.06.46,4.81-6.4.28-.38-.38-.28q-2.62-2-5.28-4l.14.49q1.83-4.86,3.6-9.75l1.76-4.89C109.31,216.89,109.89,215.25,110.45,213.61Z" style="fill:#dbdbdb"></path><path d="M120.18,218.73c.54,1.33,1.1,2.65,1.66,4s1.12,2.64,1.7,4q1.71,3.94,3.48,7.86l.11-.5c-1.24,1-2.47,2.06-3.69,3.1l-.29.24.18.34,3.18,5.86-.05-.29c-.45,3.35-.85,6.7-1.23,10.06-.19,1.67-.37,3.35-.54,5s-.33,3.36-.47,5.05c.32-1.66.59-3.33.88-5s.55-3.34.82-5c.51-3.34,1-6.68,1.47-10l0-.15-.07-.14-3.18-5.86-.1.59c1.21-1.05,2.42-2.1,3.62-3.17l.24-.22-.13-.28c-1.23-2.59-2.48-5.18-3.75-7.75-.62-1.29-1.27-2.57-1.92-3.85S120.84,220,120.18,218.73Z" style="fill:#dbdbdb"></path><path d="M110.46,214.71c-.19,1,1.73,9.15,6.17,10.79,1.45.53,4.71-7.23,4.71-7.23l.37-.52,5.2-7.25-6.85-10-1-1.37s-1.3,2.08-2.88,4.68c-.07.12-.15.24-.22.37a4.94,4.94,0,0,0-.27.42l-.72,1.18c-.18.3-.36.6-.53.92s-.37.64-.55,1A55,55,0,0,0,110.46,214.71Z" style="fill:#ad6359"></path><path d="M116.16,203.77a17.89,17.89,0,0,0,5.55,14l5.2-7.25-6.85-10-1-1.37S117.74,201.17,116.16,203.77Z" style="fill:#263238"></path><path d="M143.7,204.13c-4.7,14.93-14.18,13.81-17.41,12.79-2.92-.92-12.76-4.44-9.63-19.78S128.22,179.27,135,181,148.4,189.19,143.7,204.13Z" style="fill:#ad6359"></path><path d="M141.66,201c-.33-.18-.6-.39-.91-.6s-.64-.38-.8-.78a.55.55,0,0,1,.25-.63,1.36,1.36,0,0,1,1.38.19,2.09,2.09,0,0,1,.93,1.14A.6.6,0,0,1,141.66,201Z" style="fill:#263238"></path><path d="M131.85,197.41a10,10,0,0,0,1.07.18,1.79,1.79,0,0,0,1.12,0,.56.56,0,0,0,.25-.64,1.41,1.41,0,0,0-1.15-.8,2,2,0,0,0-1.45.21A.59.59,0,0,0,131.85,197.41Z" style="fill:#263238"></path><path d="M132.35,201.85s-.1,0-.11.06c-.34,1-.89,2.12-1.92,2.12,0,0,0,.05,0,.06C131.47,204.33,132.19,202.86,132.35,201.85Z" style="fill:#263238"></path><path d="M131.84,200.48c-1.57-.71-2.88,2.47-1.43,3.13S133.15,201.07,131.84,200.48Z" style="fill:#263238"></path><path d="M131.14,200.39c-.35.06-.75.27-1.1.17s-.56-.58-.68-1c0-.05-.06,0-.07,0a1.25,1.25,0,0,0,.33,1.69c.56.33,1.21,0,1.62-.59C131.31,200.57,131.28,200.36,131.14,200.39Z" style="fill:#263238"></path><path d="M129.31,209.53c.13.34.21.76.55.95a2.67,2.67,0,0,0,1.15.24,0,0,0,0,1,0,.07,1.44,1.44,0,0,1-1.47,0,1.13,1.13,0,0,1-.36-1.2C129.21,209.47,129.29,209.49,129.31,209.53Z" style="fill:#263238"></path><path d="M134.88,207.6s-.38,1.56-.66,2.26c0,.07-.21,0-.45-.05h0a3.58,3.58,0,0,1-2.73-2.52.08.08,0,0,1,.14-.06,5.43,5.43,0,0,0,2.69,2.08c.12-.18.57-2.7.68-2.66a6.19,6.19,0,0,1,1.44,1c.9-3.23,1.27-6.58,2.21-9.78a.1.1,0,0,1,.2,0,54.24,54.24,0,0,1-1.93,10.63C136.34,208.93,135.11,207.83,134.88,207.6Z" style="fill:#263238"></path><path d="M141.59,205a3.17,3.17,0,0,0-.74-.49,3.1,3.1,0,0,0-.86-.28,2.54,2.54,0,0,0-1,0,2.13,2.13,0,0,0-.88.46l-.45.38.58.16a6.74,6.74,0,0,1,1.2.46,2.54,2.54,0,0,1,1,.85,2,2,0,0,0-.74-1.24,3.68,3.68,0,0,0-1.3-.68l.12.55a2.11,2.11,0,0,1,1.38-.44A7,7,0,0,1,141.59,205Z" style="fill:#263238"></path><path d="M139.13,206.63a5.41,5.41,0,0,1-1-.93c-.07-.09-.32-.47-.27-.53a2.4,2.4,0,0,1,.45-.52,1.86,1.86,0,0,0-.57.45.87.87,0,0,0,.23.73A2.65,2.65,0,0,0,139.13,206.63Z" style="fill:#263238"></path><path d="M116.78,199.25a6.38,6.38,0,0,0,5.17-3.61,16.57,16.57,0,0,0,8.27-2.72c-.21.26-1.72,2.16-2.52,3.1,9.83,1.74,15.33-4.22,15.33-4.22a16.94,16.94,0,0,1,1.81,7.33s2.19-5.61.71-10.48a9.71,9.71,0,0,0-7-6.9,13.88,13.88,0,0,0-14.15-.87C116,185.13,116.78,199.25,116.78,199.25Z" style="fill:#263238"></path><path d="M135.26,197.12a17.9,17.9,0,0,1-5.37,0s0,0,0,0a15.4,15.4,0,0,0,8.28-1.54,14.27,14.27,0,0,0,3-2,9.9,9.9,0,0,0,2.54-3c0-.09.18,0,.14.07a12,12,0,0,1-2.09,3.34,10.76,10.76,0,0,1-3.19,2.28,12.21,12.21,0,0,1-3.34,1" style="fill:#263238"></path><path d="M118.67,199s-1.29-5.82-3.81-5.54-2.84,7.81-.8,9.7a2.65,2.65,0,0,0,3.82,0Z" style="fill:#ad6359"></path><path d="M114.82,195.66a0,0,0,0,0,0,.06c1.41,1.38,1.65,3.31,1.6,5.19a1.46,1.46,0,0,0-1.87-1.21.06.06,0,0,0,0,.11A1.65,1.65,0,0,1,116,201a7.82,7.82,0,0,1,.24,1.67c0,.18.33.21.34,0v-.05C117.47,200.53,117,196.83,114.82,195.66Z" style="fill:#263238"></path><path d="M93.79,222.92c-22.87,17.2-46,57.07-37.31,62.64,7.92,5.08,35.55,6.27,47.13,5.48,3.4-.23,1.08-26.66-2.56-26.42-4.4.3-15.46,0-15.89-.07-.92-.22,14.48-28.23,19.48-38.57C111.61,211.58,102.38,216.46,93.79,222.92Z" style="fill:#ad6359"></path><path d="M135.7,264.47a4.05,4.05,0,0,1-1.1,4.5,6,6,0,0,1,2.36,3.35c.55,2.42-3,4.33-3,4.33a7.44,7.44,0,0,1,1.93,3.93c.29,2.36-3,4.81-3,4.81a6.53,6.53,0,0,1-.47,4.52c-2,3.66-8.39,4-12.44,4.3s-15.8-2.75-18.1-3.1l-2-26s17.82-6.39,22.63-6C126.55,259.39,134.45,261.56,135.7,264.47Z" style="fill:#ad6359"></path><path d="M134.39,268.57c-4.23-1.36-8.63-1.38-13-1.66-.1,0-.11.15,0,.15,4.37.23,8.64,1.32,13,1.71C134.47,268.79,134.5,268.6,134.39,268.57Z" style="fill:#263238"></path><path d="M133.84,276.32a11.29,11.29,0,0,0-3-.25c-1.07,0-2.14,0-3.21,0-2.15,0-4.3.13-6.44.29-.1,0-.11.15,0,.15q3.21-.06,6.42,0c1.07,0,2.14.06,3.21.1a13.94,13.94,0,0,0,3,0A.15.15,0,0,0,133.84,276.32Z" style="fill:#263238"></path><path d="M132.76,285.39a7.8,7.8,0,0,0-2.73-.08l-2.93.1c-2,.06-3.91.11-5.87.1a.08.08,0,0,0,0,.16c2,0,4,.06,6,.07h2.93a7.6,7.6,0,0,0,2.65-.25S132.8,285.4,132.76,285.39Z" style="fill:#263238"></path><path d="M86.3,263.9c-1.14-1.36,14.51-27.53,19.45-39.18s1.44-11.79-10.3-3.52S62.84,251.73,55.22,275c-2.38,7.26-4.79,12.33,12.5,14.93a201,201,0,0,0,30.36,2.42l.83-27.9S86.63,264.29,86.3,263.9Z" style="fill:#ebebeb"></path><path d="M92,291.1c-.4-11.16.89-22.94,1-25a.08.08,0,0,1,.15,0c-.18,2-.18,15.65-1,25C92.2,291.23,92,291.21,92,291.1Z" style="fill:#263238"></path><path d="M72.83,263.82a22.3,22.3,0,0,1,3.37-.12l3.13,0h1.35l-.12,0c-.58-.17-1.15-.36-1.72-.54s-1.14-.42-1.72-.56c-.09,0-.06-.18,0-.15.57.17,1.16.27,1.75.4l1.81.44c.53.13,1.05.29,1.57.44,1,0,2,0,3,0,.75-1.87,1.76-3.67,2.66-5.46s1.93-3.73,2.93-5.57,2-3.61,3.07-5.38c.53-.88,1.38-2.22,1.91-3.11s.36-.28-.13.68-.92,1.84-1.38,2.76c-.92,1.85-1.85,3.68-2.79,5.52s-1.88,3.66-2.81,5.5c-.85,1.68-1.64,3.43-2.56,5.08,2,.06,4.11.17,6.16.26l3.15.16c1.12.05,2.27.25,3.39.24.1,0,.11.16,0,.15-1.1-.06-2.25.09-3.37.1l-3.13,0c-2.21,0-4.41,0-6.62,0s-4.35-.15-6.53-.26L76,264.18a22.19,22.19,0,0,1-3.16-.25A.06.06,0,0,1,72.83,263.82Z" style="fill:#263238"></path><path d="M63.66,289.26C73,290.5,90,292,97.87,292.31c.11,0,.11.15,0,.15a135.4,135.4,0,0,1-34.27-2.84A.18.18,0,0,1,63.66,289.26Z" style="fill:#263238"></path><path d="M152.9,221.35c3.81.71,9.8-.13,12.31,1.28a3.3,3.3,0,0,1,1.75,3.54s2.83-1.48,4.91.17c1.07.85.65,3.3.65,3.3a4,4,0,0,1,4.08.5c1.39,1.26.77,3.53.77,3.53s2.71,0,3.72,1.74c2,3.53-7.44,16.61-13.72,15.13-2.93-.69-.44-3.76-.44-3.76s-4.65,3.55-7.39,1.66.73-5.67.73-5.67-4.54,3.39-7.19,1.15,1.37-5.53,1.37-5.53-4.08,1.47-5.71-.71c-2.7-3.6,5.67-5.93,7.07-9.3l-3.58-5Z" style="fill:#ad6359"></path><path d="M158.92,221.71c-3.55-1-4.49-7-7.75-8.39-4.41-1.94-3.79,5.06,1.06,10l4.43,3.2Z" style="fill:#ad6359"></path><path d="M177.32,234s.1,0,.08,0A28.12,28.12,0,0,1,166.82,247c-.16.09-.38-.11-.23-.25A57.17,57.17,0,0,0,177.32,234Z" style="fill:#263238"></path><path d="M172.59,229.6c0-.06.13,0,.1.06A26.28,26.28,0,0,1,160.28,243c-.2.09-.47,0-.25-.15C163.74,240.77,169.9,234.07,172.59,229.6Z" style="fill:#263238"></path><path d="M154,238.45c5.45-2.81,9.44-7.09,12.92-12.07,0-.06.13,0,.1.07-1,2.9-3.58,5.85-5.75,8a16.17,16.17,0,0,1-7.17,4.22C154,238.67,153.85,238.51,154,238.45Z" style="fill:#263238"></path></g><g id="freepik--Microscope--inject-104"><path d="M119.87,281.34h4s1-14.67,9.84-15.4c4.69-.39,9,3,12.39,6.72-3.33-3.79-9.25-8.69-14.89-8.69C122.69,264,119.87,281.34,119.87,281.34Z" style="fill:#263238"></path><polygon points="146.2 235.92 140.1 223.45 138.03 226.25 143.26 235.92 146.2 235.92" style="fill:#263238"></polygon><rect x="132.02" y="229.93" width="14.95" height="3.59" transform="translate(-0.49 463.15) rotate(-117.78)" style="fill:#455a64"></rect><polygon points="141.39 239.17 139.49 238.66 133.76 228.02 134.43 225.95 141.39 239.17" style="fill:#37474f"></polygon><rect x="157.42" y="236.86" width="2.58" height="9.47" rx="1.13" transform="translate(401.71 398.14) rotate(156.09)" style="fill:#37474f"></rect><rect x="150.14" y="241.23" width="2.58" height="9.47" rx="1.13" transform="translate(389.51 409.5) rotate(156.11)" style="fill:#37474f"></rect><rect x="154.19" y="239.56" width="3.59" height="12.19" rx="1.57" transform="translate(398.09 407.08) rotate(156.11)" style="fill:#37474f"></rect><rect x="140.33" y="203.28" width="3.59" height="12.19" rx="1.57" transform="translate(356.89 343.21) rotate(156.1)" style="fill:#37474f"></rect><rect x="134.97" y="205.66" width="3.59" height="12.19" rx="1.57" transform="translate(347.56 349.98) rotate(156.11)" style="fill:#37474f"></rect><path d="M158.4,237.49l-12.82-26.73s-3.67.12-10,4.52L149.19,242A25.67,25.67,0,0,0,158.4,237.49Z" style="fill:#37474f"></path><path d="M146.63,244.18s12.1-3.56,15.42-6.83L161,235a32.59,32.59,0,0,0-15.42,6.83Z" style="fill:#455a64"></path><path d="M135.1,216a27.06,27.06,0,0,1,11.29-5.3l-1.11-2.36c-6.86-.12-11.28,5.3-11.28,5.3Z" style="fill:#455a64"></path><path d="M144,232.12s5.29-3.5,9.85-4.63a.48.48,0,0,0,.25-.69l-1.24-2.65a.56.56,0,0,0-.69-.25,27.29,27.29,0,0,0-9.86,4.63.52.52,0,0,0-.25.69l1.25,2.65A.52.52,0,0,0,144,232.12Z" style="fill:#455a64"></path><path d="M135.49,228.86l-1-.43a23,23,0,0,0-12.67,21.83c.45,10.54,8.14,17.83,8.14,17.83s-9.35-12.07-5.84-23.24S135.49,228.86,135.49,228.86Z" style="fill:#455a64"></path><path d="M122.94,251.36A31.26,31.26,0,0,0,130,268.09h9.57C144,262.33,151,259,151,259l-7.65,1.33-.68-.35-1.35-.69s-1.94,3-4.85,2.9a4.43,4.43,0,0,1-1.73-.39c-3.41-1.47-5.12-10.52-3.53-15.92s8.58-8.73,8.58-8.73l-4.25-8.25C127.87,232.27,122.18,241.64,122.94,251.36Z" style="fill:#37474f"></path><path d="M136.41,262.15s2.51.86,6.21-2.21l-1.35-.69s-1.94,3-4.85,2.9Z" style="fill:#455a64"></path><path d="M123.86,281.35H152.4c-.71-1.11-1.94-3.12-3.58-5.33l-.1-.14-.13-.17-.09-.11-.24-.32-.07-.09-.27-.35c-.14-.18-.3-.38-.48-.59l-.37-.45c-.19-.24-.4-.49-.62-.74s-.23-.27-.36-.4c-3.37-3.76-7.7-7.11-12.39-6.72C124.82,266.68,123.86,281.35,123.86,281.35Z" style="fill:#455a64"></path><rect x="144.33" y="255.72" width="28.16" height="3.57" transform="translate(337.57 501.02) rotate(175.26)" style="fill:#263238"></rect><rect x="138.15" y="257.14" width="6.24" height="3.57" transform="translate(303.47 505.27) rotate(175.26)" style="fill:#37474f"></rect><path d="M146.77,279a1,1,0,1,0,1-1A1,1,0,0,0,146.77,279Z" style="fill:#263238"></path><path d="M126.71,279a1,1,0,1,0,1-1A1,1,0,0,0,126.71,279Z" style="fill:#263238"></path><path d="M134.67,269.06a1,1,0,1,0,1-1A1,1,0,0,0,134.67,269.06Z" style="fill:#263238"></path><path d="M142.12,217.23a1,1,0,1,0,1-1A1,1,0,0,0,142.12,217.23Z" style="fill:#263238"></path><path d="M150.47,235a1,1,0,1,0,1-1A1,1,0,0,0,150.47,235Z" style="fill:#263238"></path><path d="M132.79,235.29a1,1,0,1,0,1-1A1,1,0,0,0,132.79,235.29Z" style="fill:#263238"></path><path d="M140,263.21a1,1,0,1,0,1-1A1,1,0,0,0,140,263.21Z" style="fill:#263238"></path></g><g id="freepik--Flasks--inject-104"><path d="M198.36,220.81H197V174.69a2.14,2.14,0,0,1,2.14-2.13h17.35a2.14,2.14,0,0,1,2.14,2.13v.9h-1.33v-.9a.81.81,0,0,0-.81-.81H199.17a.81.81,0,0,0-.81.81Z" style="fill:#263238"></path><path d="M233.66,187H221.92v-1.32h11.74a.81.81,0,0,0,.81-.81V172.55a2.14,2.14,0,0,1,2.13-2.14h15.45a2.14,2.14,0,0,1,2.14,2.14V173h-1.33v-.46a.81.81,0,0,0-.81-.81H236.6a.81.81,0,0,0-.81.81v12.31A2.13,2.13,0,0,1,233.66,187Z" style="fill:#263238"></path><path d="M299.14,184.25h-1.33V183.1a.81.81,0,0,0-.81-.81H256.75V181H297a2.14,2.14,0,0,1,2.14,2.14Z" style="fill:#263238"></path><path d="M305.86,196h-5.05v-1.33h5.05a.81.81,0,0,0,.81-.8V138.74a2.14,2.14,0,0,1,2.13-2.14h7.1a2.14,2.14,0,0,1,2.14,2.14v1.07h-1.33v-1.07a.81.81,0,0,0-.81-.81h-7.1a.81.81,0,0,0-.81.81v55.11A2.13,2.13,0,0,1,305.86,196Z" style="fill:#263238"></path><path d="M328.36,208.7H327v-2.31a1,1,0,0,1,.58-.93l3.4-1.66-6.94-2.17a1,1,0,0,1,0-2l6.36-1.83-6.32-1.91a1,1,0,0,1-.73-1,1,1,0,0,1,.76-1l6.47-1.76L324,189.7a1,1,0,0,1-.67-1,1,1,0,0,1,.78-.94l6.34-1.52L324,184a1,1,0,0,1-.68-1A1,1,0,0,1,324,182l6.47-1.85-6.09-1.94a1,1,0,0,1-.71-1,1,1,0,0,1,.7-1l6.94-2.28L327,170.89V151a.81.81,0,0,0-.81-.81h-7.11v-1.33h7.11a2.14,2.14,0,0,1,2.14,2.14v19.23l4.23,3a1,1,0,0,1,.42,1,1,1,0,0,1-.7.82l-6.62,2.18,6.15,2a1,1,0,0,1,.71,1,1,1,0,0,1-.74,1L325.29,183l6.55,2.29a1,1,0,0,1-.1,2l-6.37,1.53,6.59,2.46a1,1,0,0,1,.67,1,1,1,0,0,1-.76.95L325.5,195l6.29,1.9a1,1,0,0,1,.74,1,1.05,1.05,0,0,1-.75,1l-6.37,1.83,6.7,2.09a1,1,0,0,1,.15,1.91l-3.9,1.91Z" style="fill:#263238"></path><rect x="183.08" y="225.27" width="2.6" height="54.4" style="fill:#263238"></rect><rect x="196.76" y="218.29" width="2.6" height="20.14" transform="translate(-30.3 426.43) rotate(-90)" style="fill:#263238"></rect><rect x="185.68" y="225.79" width="2.32" height="5.15" style="fill:#37474f"></rect><rect x="180.27" y="279.66" width="8.21" height="1.78" style="fill:#263238"></rect><rect x="348.8" y="225.27" width="2.6" height="54.4" transform="translate(700.2 504.93) rotate(180)" style="fill:#263238"></rect><rect x="335.11" y="218.29" width="2.6" height="20.14" transform="translate(108.05 564.78) rotate(-90)" style="fill:#263238"></rect><rect x="346.48" y="225.79" width="2.32" height="5.15" transform="translate(695.29 456.72) rotate(180)" style="fill:#37474f"></rect><rect x="346" y="279.66" width="8.21" height="1.78" style="fill:#263238"></rect><rect x="304.13" y="149.16" width="1.33" height="3.73" transform="translate(455.82 -153.77) rotate(90)" style="fill:#263238"></rect><path d="M304.53,151a3.6,3.6,0,1,1-3.59-3.6A3.59,3.59,0,0,1,304.53,151Z" style="fill:#fff"></path><path d="M304.53,151a3.71,3.71,0,0,1-6.28,2.69,3.71,3.71,0,0,1,0-5.39,3.72,3.72,0,0,1,6.28,2.7Zm0,0a3.59,3.59,0,0,0-1.08-2.52,3.42,3.42,0,0,0-2.51-.95,3.47,3.47,0,1,0,2.51,6A3.53,3.53,0,0,0,304.53,151Z" style="fill:#263238"></path><path d="M300.94,151l-2.67-1.38a3,3,0,0,1,5.34,0Z" style="fill:#FFC727"></path><path d="M301.67,151a.74.74,0,1,1-.73-.74A.73.73,0,0,1,301.67,151Z" style="fill:#263238"></path><polygon points="301.17 150.69 300.9 150.94 299.34 148.94 301.17 150.69" style="fill:#263238"></polygon><path d="M218,179.19a2.24,2.24,0,1,1,2.23-2.23A2.24,2.24,0,0,1,218,179.19Zm0-3.33a1.1,1.1,0,1,0,1.09,1.1A1.1,1.1,0,0,0,218,175.86Z" style="fill:#263238"></path><rect x="217.71" y="175.29" width="0.57" height="3.33" style="fill:#263238"></rect><rect x="216.33" y="176.67" width="3.33" height="0.57" style="fill:#263238"></rect><path d="M253.53,177.11a2.23,2.23,0,1,1,2.23-2.23A2.23,2.23,0,0,1,253.53,177.11Zm0-3.33a1.1,1.1,0,1,0,1.09,1.1A1.1,1.1,0,0,0,253.53,173.78Z" style="fill:#263238"></path><rect x="253.24" y="173.21" width="0.57" height="3.33" style="fill:#263238"></rect><rect x="251.86" y="174.59" width="3.33" height="0.57" style="fill:#263238"></rect><path d="M298.4,188.15a2.23,2.23,0,1,1,2.23-2.23A2.24,2.24,0,0,1,298.4,188.15Zm0-3.33a1.1,1.1,0,1,0,1.09,1.1A1.1,1.1,0,0,0,298.4,184.82Z" style="fill:#263238"></path><rect x="298.11" y="184.25" width="0.57" height="3.33" style="fill:#263238"></rect><rect x="296.73" y="185.63" width="3.33" height="0.57" style="fill:#263238"></rect><path d="M317.31,143.62a2.23,2.23,0,1,1,2.23-2.23A2.24,2.24,0,0,1,317.31,143.62Zm0-3.32a1.09,1.09,0,1,0,1.09,1.09A1.09,1.09,0,0,0,317.31,140.3Z" style="fill:#263238"></path><rect x="317.02" y="139.73" width="0.57" height="3.33" style="fill:#263238"></rect><rect x="315.64" y="141.11" width="3.33" height="0.57" style="fill:#263238"></rect><g style="opacity:0.7000000000000001"><path d="M212.1,248.9a14.51,14.51,0,1,1-18.28-14.05l0-11.74h-1.17V220.8l9.94,0v2.31h-1.17l-.05,11.74A14.52,14.52,0,0,1,212.1,248.9Z" style="fill:#fff"></path><path d="M212.1,248.9a14.53,14.53,0,0,1-8.1,13,14.57,14.57,0,0,1-15.31-1.47,14.64,14.64,0,0,1-1.84-21.63,14.9,14.9,0,0,1,6.91-4.17l-.15.2V229l0-5.87.2.2h-1.37v-2.7h.19l9.94.07h.14v.14l0,2.31v.12h-1.29l.11-.11-.13,11.75,0,0A14.55,14.55,0,0,1,212.1,248.9Zm0,0a14.48,14.48,0,0,0-10.7-14h0v0l0-11.74V223h1.29l-.12.12v-2.31l.13.14-9.94,0,.19-.19v2.31l-.2-.2h1.37V229l0,5.88V235l-.16.05a14.35,14.35,0,0,0-10.35,11,14.4,14.4,0,0,0,12.63,17.18A14.48,14.48,0,0,0,212.1,248.9Z" style="fill:#263238"></path></g><path d="M185.68,248.85a11.47,11.47,0,0,1,8.08-11" style="fill:#fff"></path><path d="M209.55,250.07a12,12,0,0,1-23.92,0Z" style="fill:#FFC727"></path><path d="M206.84,246.39a1.09,1.09,0,1,1-1.09-1.09A1.09,1.09,0,0,1,206.84,246.39Z" style="fill:#FFC727"></path><circle cx="200.53" cy="248.85" r="0.7" style="fill:#FFC727"></circle><path d="M192.56,245a.7.7,0,0,1-.7.71.71.71,0,0,1-.71-.71.7.7,0,0,1,.71-.7A.7.7,0,0,1,192.56,245Z" style="fill:#FFC727"></path><path d="M202.88,243.74a.54.54,0,1,1-.53-.54A.54.54,0,0,1,202.88,243.74Z" style="fill:#FFC727"></path><path d="M188.92,248.85a.54.54,0,1,1-.54-.54A.54.54,0,0,1,188.92,248.85Z" style="fill:#FFC727"></path><path d="M190.73,248.4a.22.22,0,1,1-.22-.22A.22.22,0,0,1,190.73,248.4Z" style="fill:#FFC727"></path><g style="opacity:0.7000000000000001"><path d="M345.22,254.61a17.53,17.53,0,1,1-22.08-17l.06-14.19h-1.42v-2.79l12,0v2.78h-1.42l-.06,14.19A17.52,17.52,0,0,1,345.22,254.61Z" style="fill:#fff"></path><path d="M345.22,254.61a17.57,17.57,0,0,1-9.78,15.72,17.64,17.64,0,0,1-25.1-19.21,17.71,17.71,0,0,1,12.75-13.67l-.15.2v-7.1l0-7.09.21.2h-1.62v-3.18h.19l12,.08h.14v.14l0,2.78v.13h-1.54l.11-.12-.13,14.19,0,0a17.51,17.51,0,0,1,12.9,17Zm0,0a17.43,17.43,0,0,0-3.6-10.64,17.47,17.47,0,0,0-9.32-6.26h0v0l0-14.19v-.11h1.53l-.12.12V220.7l.13.14-12,0,.2-.2v2.79l-.2-.2h1.62v7.29l0,7.1v.16l-.15,0a17.38,17.38,0,1,0,22,16.76Z" style="fill:#263238"></path></g><path d="M313.31,254.55a13.87,13.87,0,0,1,9.76-13.28" style="fill:#fff"></path><path d="M342.14,256a14.52,14.52,0,0,1-28.89,0Z" style="fill:#FFC727"></path><path d="M338.87,251.58a1.32,1.32,0,1,1-1.32-1.32A1.32,1.32,0,0,1,338.87,251.58Z" style="fill:#FFC727"></path><path d="M332.1,254.55a.85.85,0,1,1-.85-.85A.85.85,0,0,1,332.1,254.55Z" style="fill:#FFC727"></path><path d="M321.63,249.88a.85.85,0,1,1-.85-.85A.85.85,0,0,1,321.63,249.88Z" style="fill:#FFC727"></path><path d="M334.09,248.38a.65.65,0,1,1-.65-.65A.65.65,0,0,1,334.09,248.38Z" style="fill:#FFC727"></path><path d="M317.23,254.55a.65.65,0,0,1-.65.65.65.65,0,1,1,0-1.3A.65.65,0,0,1,317.23,254.55Z" style="fill:#FFC727"></path><path d="M319.42,254a.27.27,0,1,1-.27-.27A.27.27,0,0,1,319.42,254Z" style="fill:#FFC727"></path><g style="opacity:0.7000000000000001"><path d="M307.33,205.86a8.86,8.86,0,1,1-11.16-8.57l0-6.43h-.72v-1.41h6.07v1.41h-.72l0,6.43A8.85,8.85,0,0,1,307.33,205.86Z" style="fill:#fff"></path><path d="M307.33,205.86a8.87,8.87,0,0,1-4.94,8,9,9,0,0,1-4.8.9,9,9,0,0,1-7.53-5.71,9.1,9.1,0,0,1-.44-4.93,8.93,8.93,0,0,1,2.24-4.42,9.1,9.1,0,0,1,4.26-2.57l-.16.2v-3.22l0-3.22.21.21h-.92v-1.81h.19c2,0,4,.05,6.07.08h.14v.13l0,1.41V191h-.84l.11-.11-.1,6.43,0,0a8.84,8.84,0,0,1,4.72,3.2A8.75,8.75,0,0,1,307.33,205.86Zm0,0a8.84,8.84,0,0,0-6.53-8.53h0v0l0-6.43v-.11h.83l-.12.12v-1.41l.13.14c-2,0-4,0-6.07,0l.2-.19v1.41l-.2-.21h.92v3.42l0,3.22v.16l-.15,0a8.68,8.68,0,0,0-4.08,2.43,8.75,8.75,0,0,0,10.22,13.85,8.86,8.86,0,0,0,5-7.91Z" style="fill:#263238"></path></g><path d="M291.2,205.83a7,7,0,0,1,4.93-6.71" style="fill:#fff"></path><path d="M305.77,206.58a7.34,7.34,0,0,1-14.6,0Z" style="fill:#455a64"></path><path d="M304.12,204.33a.67.67,0,0,1-1.33,0,.67.67,0,1,1,1.33,0Z" style="fill:#455a64"></path><path d="M300.7,205.83a.43.43,0,1,1-.43-.43A.43.43,0,0,1,300.7,205.83Z" style="fill:#455a64"></path><path d="M295.41,203.47a.43.43,0,0,1-.43.43.43.43,0,0,1,0-.86A.43.43,0,0,1,295.41,203.47Z" style="fill:#455a64"></path><circle cx="301.38" cy="202.71" r="0.33" style="fill:#455a64"></circle><circle cx="292.85" cy="205.83" r="0.33" style="fill:#455a64"></circle><path d="M294.29,205.56a.13.13,0,0,1-.14.13.13.13,0,0,1-.13-.13.13.13,0,0,1,.13-.14A.14.14,0,0,1,294.29,205.56Z" style="fill:#455a64"></path><g style="opacity:0.7000000000000001"><path d="M324.35,158.61a7.13,7.13,0,1,1-9-6.9l0-5.18h-.58V145.4h4.89v1.13h-.58l0,5.18A7.1,7.1,0,0,1,324.35,158.61Z" style="fill:#fff"></path><path d="M324.35,158.61a7,7,0,0,1-1.07,3.76,7,7,0,0,1-2.9,2.64,7.2,7.2,0,0,1-7.55-.69,7.37,7.37,0,0,1-2.4-3.17,7.3,7.3,0,0,1-.35-4,7.22,7.22,0,0,1,1.8-3.58,7.33,7.33,0,0,1,3.44-2.08l-.15.2v-2.59l0-2.59.21.21h-.78V145.2h.19c1.63,0,3.26.05,4.89.07h.13v.13l0,1.13v.12h-.69l.11-.11-.1,5.18,0,0a7.13,7.13,0,0,1,5.24,6.93Zm0,0a7.1,7.1,0,0,0-5.25-6.86h0v0l-.05-5.18v-.11h.69l-.12.12,0-1.13.14.13c-1.63,0-3.26.05-4.89.05l.2-.19v1.13l-.2-.2h.78v2.79l0,2.59v.16l-.15,0a7,7,0,0,0-3.27,2,7.11,7.11,0,0,0-1.76,3.38,7,7,0,0,0,2.54,6.93,7.12,7.12,0,0,0,3.59,1.46,7,7,0,0,0,3.83-.67,7.13,7.13,0,0,0,2.9-2.6A7,7,0,0,0,324.35,158.61Z" style="fill:#263238"></path></g><path d="M311.38,158.58a5.64,5.64,0,0,1,4-5.4" style="fill:#fff"></path><path d="M311.35,159.18a5.91,5.91,0,0,0,11.75,0Z" style="fill:#455a64"></path><path d="M312.68,157.37a.54.54,0,1,0,.54-.53A.54.54,0,0,0,312.68,157.37Z" style="fill:#455a64"></path><circle cx="315.78" cy="158.58" r="0.35" style="fill:#455a64"></circle><circle cx="320.04" cy="156.68" r="0.35" style="fill:#455a64"></circle><path d="M314.62,156.07a.27.27,0,0,0,.27.27.27.27,0,0,0,0-.53A.27.27,0,0,0,314.62,156.07Z" style="fill:#455a64"></path><path d="M321.48,158.58a.27.27,0,0,0,.27.27.26.26,0,0,0,.26-.27.25.25,0,0,0-.26-.26A.26.26,0,0,0,321.48,158.58Z" style="fill:#455a64"></path><path d="M320.59,158.36a.11.11,0,1,0,.11-.11A.11.11,0,0,0,320.59,158.36Z" style="fill:#455a64"></path><g style="opacity:0.7000000000000001"><path d="M265.65,197.89a11.82,11.82,0,0,1-.6,3.74H242a12.13,12.13,0,0,1,8.38-15.48l0-6.73h-1v-1.93l8.32,0v1.92h-1l0,6.74A12.12,12.12,0,0,1,265.65,197.89Z" style="fill:#fff"></path><path d="M265.65,197.89a11.85,11.85,0,0,1-.59,3.74h0l-11.52.05-11.53.08h-.1l0-.09a12.26,12.26,0,0,1-.6-4.92,12.44,12.44,0,0,1,1.42-4.76,12.28,12.28,0,0,1,7.63-6.06l-.16.21.05-6.74.2.2h-1.17V177.3h.18l8.32.07h.13v.14l0,1.92v.12h-1.1l.11-.12-.09,6.74,0-.06a12.31,12.31,0,0,1,6.45,4.39A12.18,12.18,0,0,1,265.65,197.89Zm0,0a12.1,12.1,0,0,0-5.37-10,11.79,11.79,0,0,0-3.58-1.61l0,0v-6.89h1.09l-.12.12v-1.92l.14.13-8.32,0,.19-.19v1.93l-.2-.2h1.18v.2l0,6.73v.16l-.16.05a12.55,12.55,0,0,0-4.29,2.15,11.93,11.93,0,0,0-4.51,8.28,11.84,11.84,0,0,0,.51,4.8l-.14-.1,11.53.08,11.52.05h0A11.86,11.86,0,0,0,265.65,197.89Z" style="fill:#263238"></path></g><path d="M264.29,196.63a12.72,12.72,0,0,1-.79,4H243.55c-.66-1.21-.35-4-.35-4Z" style="fill:#FFC727"></path><path d="M261.26,193.45a.91.91,0,1,1-.91-.91A.91.91,0,0,1,261.26,193.45Z" style="fill:#FFC727"></path><path d="M256.58,195.51a.59.59,0,0,1-.59.58.59.59,0,1,1,0-1.17A.59.59,0,0,1,256.58,195.51Z" style="fill:#FFC727"></path><path d="M249.33,192.28a.59.59,0,0,1-.59.58.59.59,0,1,1,0-1.17A.59.59,0,0,1,249.33,192.28Z" style="fill:#FFC727"></path><path d="M258,191.24a.45.45,0,1,1-.45-.45A.45.45,0,0,1,258,191.24Z" style="fill:#FFC727"></path><circle cx="245.83" cy="195.51" r="0.45" style="fill:#FFC727"></circle><path d="M247.8,195.13a.19.19,0,0,1-.19.19.18.18,0,0,1-.18-.19.18.18,0,0,1,.18-.18A.19.19,0,0,1,247.8,195.13Z" style="fill:#FFC727"></path><path d="M243.57,197.85a9.6,9.6,0,0,1,6.75-9.19" style="fill:#fff"></path><rect x="194.13" y="180.28" width="7.13" height="19.81" rx="3.14" style="fill:#fff"></rect><path d="M197.69,200.31a3.79,3.79,0,0,1-3.78-3.79V183.84a3.79,3.79,0,0,1,7.57,0v12.68A3.79,3.79,0,0,1,197.69,200.31Zm0-19.81a3.35,3.35,0,0,0-3.34,3.34v12.68a3.35,3.35,0,0,0,6.69,0V183.84A3.35,3.35,0,0,0,197.69,180.5Z" style="fill:#263238"></path><circle cx="197.69" cy="196.65" r="1.84" style="fill:#FFC727"></circle><rect x="197.16" y="182.69" width="1.07" height="13.71" rx="0.47" style="fill:#dbdbdb"></rect><rect x="197.16" y="187.72" width="1.07" height="8.68" rx="0.47" style="fill:#FFC727"></rect><g style="opacity:0.7000000000000001"><path d="M233.23,209.42H202.76s11.37-20.71,11.37-21v-7.56h7.79v7.56C221.92,188.73,233.23,209.42,233.23,209.42Z" style="fill:#fff"></path><path d="M233.23,209.42l-30.47.17h-.28l.14-.25,7.5-13.83c1.24-2.31,2.51-4.62,3.69-6.94l.1-.21v0s0,0,0,0v-7.76h8.2v7.75h0s0,0,0,0l.1.22c1.17,2.33,2.42,4.64,3.64,7Zm0,0c-2.55-4.58-5.1-9.15-7.61-13.76-1.25-2.3-2.52-4.59-3.72-6.93l-.11-.24,0,0s0-.06,0-.08v-7.55l.19.19-7.79,0,.21-.21v7.57a.24.24,0,0,1,0,.09v0c0,.09-.08.16-.11.24-1.21,2.34-2.47,4.63-3.72,6.94-2.51,4.61-5,9.22-7.57,13.8l-.15-.24Z" style="fill:#263238"></path><path d="M214.21,181.63a.85.85,0,0,1,.58-.23.82.82,0,0,1,.57.23.86.86,0,0,1-.57.22A.88.88,0,0,1,214.21,181.63Z" style="fill:#263238"></path><path d="M214.21,182.53a.79.79,0,0,1,.58-.22.77.77,0,0,1,.57.22.86.86,0,0,1-.57.22A.88.88,0,0,1,214.21,182.53Z" style="fill:#263238"></path><path d="M214.21,183.43a.79.79,0,0,1,.58-.22.77.77,0,0,1,.57.22.86.86,0,0,1-.57.22A.88.88,0,0,1,214.21,183.43Z" style="fill:#263238"></path><path d="M214.21,184.25a3.12,3.12,0,0,1,2.3,0,3,3,0,0,1-2.3,0Z" style="fill:#263238"></path><path d="M214.21,185.43a.88.88,0,0,1,.58-.22.86.86,0,0,1,.57.22.77.77,0,0,1-.57.22A.83.83,0,0,1,214.21,185.43Z" style="fill:#263238"></path><path d="M214.21,186.33a.88.88,0,0,1,.58-.22.86.86,0,0,1,.57.22.77.77,0,0,1-.57.22A.79.79,0,0,1,214.21,186.33Z" style="fill:#263238"></path><path d="M214.21,187.23a.88.88,0,0,1,.58-.22.86.86,0,0,1,.57.22.77.77,0,0,1-.57.22A.79.79,0,0,1,214.21,187.23Z" style="fill:#263238"></path></g><path d="M230.23,207.88H205.76s1.89-3.44,4-7.22H226.3C228.35,204.44,230.23,207.88,230.23,207.88Z" style="fill:#455a64"></path><path d="M219.53,196.41a1.09,1.09,0,1,1-1.09-1.1A1.09,1.09,0,0,1,219.53,196.41Z" style="fill:#455a64"></path><path d="M212.28,199.57a.7.7,0,0,1-.7.7.7.7,0,1,1,0-1.4A.7.7,0,0,1,212.28,199.57Z" style="fill:#455a64"></path><path d="M222.46,199.57a.7.7,0,0,1-.71.7.7.7,0,0,1,0-1.4A.7.7,0,0,1,222.46,199.57Z" style="fill:#455a64"></path><path d="M215.58,193.76a.54.54,0,1,1-.54-.54A.54.54,0,0,1,215.58,193.76Z" style="fill:#455a64"></path><path d="M224.21,198.16a.54.54,0,1,1-.53-.54A.54.54,0,0,1,224.21,198.16Z" style="fill:#455a64"></path><path d="M225.15,200.09a.22.22,0,0,1-.23.22.22.22,0,0,1-.22-.22.22.22,0,0,1,.22-.22A.22.22,0,0,1,225.15,200.09Z" style="fill:#455a64"></path><g style="opacity:0.7000000000000001"><path d="M304.12,281.09H273.47s11.43-20.84,11.43-21.18v-7.6h7.85v7.6C292.75,260.26,304.12,281.09,304.12,281.09Z" style="fill:#fff"></path><path d="M304.12,281.09l-30.65.18h-.31l.15-.28,7.55-13.92c1.24-2.32,2.51-4.65,3.7-7l.1-.21v0a.43.43,0,0,0,0,.05v-7.83H293v7.82s0,0,0,0h0a2.14,2.14,0,0,0,.1.22c1.17,2.35,2.43,4.67,3.66,7Zm0,0c-2.56-4.61-5.14-9.21-7.67-13.84-1.26-2.32-2.54-4.62-3.75-7,0-.08-.07-.15-.1-.24s0,0,0,0a.22.22,0,0,1,0-.08v-7.6l.22.21-7.85,0,.23-.23v7.61a.36.36,0,0,1,0,.11l0,0a1.85,1.85,0,0,1-.11.24c-1.21,2.37-2.48,4.67-3.74,7-2.53,4.64-5.05,9.27-7.62,13.89l-.16-.28Z" style="fill:#263238"></path><path d="M285,253.12a.8.8,0,0,1,.58-.24.76.76,0,0,1,.57.24.77.77,0,0,1-.57.25A.81.81,0,0,1,285,253.12Z" style="fill:#263238"></path><path d="M285,254a.79.79,0,0,1,1.15,0,.76.76,0,0,1-.57.24A.8.8,0,0,1,285,254Z" style="fill:#263238"></path><path d="M285,254.93a.81.81,0,0,1,1.15,0,.79.79,0,0,1-1.15,0Z" style="fill:#263238"></path><path d="M285,255.77a2.52,2.52,0,0,1,1.15-.25,2.56,2.56,0,0,1,1.16.25,2.69,2.69,0,0,1-1.16.24A2.64,2.64,0,0,1,285,255.77Z" style="fill:#263238"></path><path d="M285,257a.81.81,0,1,1,.58.24A.76.76,0,0,1,285,257Z" style="fill:#263238"></path><path d="M285,257.86a.79.79,0,0,1,1.15,0,.81.81,0,0,1-1.15,0Z" style="fill:#263238"></path><path d="M285,258.76a.81.81,0,0,1,1.15,0,.79.79,0,0,1-1.15,0Z" style="fill:#263238"></path></g><path d="M301.1,279.54H276.49l4-7.27h16.69Z" style="fill:#FFC727"></path><path d="M290.34,268a1.1,1.1,0,1,1-1.1-1.1A1.1,1.1,0,0,1,290.34,268Z" style="fill:#FFC727"></path><path d="M291.86,251.26a1.1,1.1,0,1,1-1.09-1.1A1.1,1.1,0,0,1,291.86,251.26Z" style="fill:#FFC727"></path><path d="M283.05,271.17a.71.71,0,1,1-.71-.7A.71.71,0,0,1,283.05,271.17Z" style="fill:#FFC727"></path><path d="M293.28,271.17a.71.71,0,1,1-.71-.7A.71.71,0,0,1,293.28,271.17Z" style="fill:#FFC727"></path><path d="M290,258.76a.71.71,0,1,1-.71-.71A.71.71,0,0,1,290,258.76Z" style="fill:#FFC727"></path><circle cx="290.34" cy="260.77" r="0.54" style="fill:#FFC727"></circle><path d="M295.05,269.76a.54.54,0,1,1-.54-.54A.54.54,0,0,1,295.05,269.76Z" style="fill:#FFC727"></path><path d="M296,271.69a.23.23,0,1,1-.22-.22A.22.22,0,0,1,296,271.69Z" style="fill:#FFC727"></path><path d="M287.52,247.18a.22.22,0,0,1-.22.22.22.22,0,1,1,0-.44A.22.22,0,0,1,287.52,247.18Z" style="fill:#FFC727"></path><path d="M327.69,218.26c-3.28,0,0-6.61,0-6.61S331,218.26,327.69,218.26Z" style="fill:#FFC727"></path><rect x="225.98" y="251.21" width="1.54" height="30.07" style="fill:#263238"></rect><rect x="227.52" y="279.17" width="32.85" height="2.11" style="fill:#263238"></rect><path d="M238.75,249.21l-.11,25.17a3,3,0,1,1-5.94,0l.11-25.17Z" style="fill:#ebebeb"></path><path d="M238.37,256.49l-.08,17.87a2.63,2.63,0,1,1-5.25,0l.08-17.87Z" style="fill:#c7c7c7"></path><rect x="231.88" y="246.98" width="7.8" height="3.91" transform="translate(1.13 -1.06) rotate(0.26)" style="fill:#FFC727"></rect><path d="M257.15,249.21,257,274.38a3,3,0,1,1-5.94,0l.11-25.17Z" style="fill:#ebebeb"></path><path d="M256.77,256.49l-.08,17.87a2.63,2.63,0,1,1-5.25,0l.08-17.87Z" style="fill:#c7c7c7"></path><rect x="250.28" y="246.98" width="7.8" height="3.91" transform="translate(1.13 -1.14) rotate(0.26)" style="fill:#FFC727"></rect><path d="M247.9,249.21l-.11,25.17a3,3,0,1,1-5.94,0l.11-25.17Z" style="fill:#ebebeb"></path><path d="M247.52,256.49l-.08,17.87a2.63,2.63,0,1,1-5.25,0l.08-17.87Z" style="fill:#37474f"></path><rect x="241.03" y="246.98" width="7.8" height="3.91" transform="translate(1.13 -1.1) rotate(0.26)" style="fill:#455a64"></rect><path d="M260.37,262.44v2.81H227.52v-2.81h5.34v.94c0,.46,1.31.84,2.92.84s2.93-.38,2.93-.84v-.94H242v.94c0,.46,1.31.84,2.92.84s2.93-.38,2.93-.84v-.94h3.3v.94c0,.46,1.31.84,2.92.84s2.93-.38,2.93-.84v-.94Z" style="fill:#455a64"></path><rect x="227.52" y="265.25" width="32.85" height="1.13" style="fill:#263238"></rect><rect x="260.37" y="251.21" width="1.54" height="30.07" style="fill:#263238"></rect><rect x="192.43" y="275.59" width="10.53" height="5.68" style="fill:#dbdbdb"></rect><rect x="197.46" y="273.31" width="0.47" height="2.28" style="fill:#263238"></rect><path d="M197.69,273.85c-3,0,0-6.12,0-6.12S200.74,273.85,197.69,273.85Z" style="fill:#FFC727"></path><path d="M197.69,273.85c-3,0,0-6.12,0-6.12S200.74,273.85,197.69,273.85Z" style="opacity:0.2"></path><path d="M197.69,273.85c-1.87,0,0-3.77,0-3.77S199.57,273.85,197.69,273.85Z" style="fill:#FFC727"></path></g><g id="freepik--Desk--inject-104"><rect x="251.23" y="294.38" width="95.9" height="157.81" style="fill:#455a64"></rect><rect x="251.23" y="294.38" width="95.9" height="10.29" style="fill:#263238"></rect><rect x="259.94" y="313.8" width="78.49" height="35.58" style="fill:#37474f"></rect><rect x="259.94" y="313.8" width="10.94" height="35.58" style="fill:#263238"></rect><rect x="259.94" y="359.86" width="78.49" height="35.58" style="fill:#37474f"></rect><rect x="259.94" y="359.86" width="10.94" height="35.58" style="fill:#263238"></rect><rect x="259.94" y="405.91" width="78.49" height="35.58" style="fill:#37474f"></rect><rect x="259.94" y="405.91" width="10.94" height="35.58" style="fill:#263238"></rect><g style="opacity:0.7000000000000001"><path d="M286.91,384.63a10.82,10.82,0,1,1-13.62-10.46l0-8.76h-.87v-1.72l7.41,0v1.72H279l0,8.75A10.82,10.82,0,0,1,286.91,384.63Z" style="fill:#fff"></path><path d="M286.91,384.63a10.85,10.85,0,0,1-6,9.71,11,11,0,0,1-5.86,1.07,10.9,10.9,0,0,1-9.14-7,11,11,0,0,1-.51-6,10.8,10.8,0,0,1,2.73-5.35,11,11,0,0,1,5.15-3.11l-.12.15v-4.38l0-4.38.15.15h-1v-2h.15l7.41.06h.1v1.91h-1l.08-.08-.09,8.75,0,0a10.81,10.81,0,0,1,8,10.47Zm0,0a10.79,10.79,0,0,0-8-10.42h0v0l0-8.75v-.09h1l-.09.09v-1.72l.1.1-7.41,0,.14-.15v1.72l-.15-.15h1v4.53l0,4.38v.12l-.11,0a10.71,10.71,0,0,0-7.72,8.21,10.8,10.8,0,0,0,.46,5.85,10.69,10.69,0,0,0,3.48,4.75,10.78,10.78,0,0,0,17.36-8.5Z" style="fill:#263238"></path></g><path d="M267.22,384.59a8.57,8.57,0,0,1,6-8.19" style="fill:#fff"></path><path d="M285,385.51a9,9,0,0,1-17.83,0Z" style="fill:#FFC727"></path><path d="M283,382.76a.81.81,0,1,1-.81-.81A.81.81,0,0,1,283,382.76Z" style="fill:#FFC727"></path><path d="M278.82,384.59a.53.53,0,0,1-.53.53.52.52,0,0,1-.52-.53.52.52,0,0,1,.52-.52A.52.52,0,0,1,278.82,384.59Z" style="fill:#FFC727"></path><path d="M272.35,381.71a.52.52,0,0,1-.52.53.53.53,0,0,1-.53-.53.52.52,0,0,1,.53-.52A.52.52,0,0,1,272.35,381.71Z" style="fill:#FFC727"></path><path d="M280.05,380.79a.41.41,0,1,1-.41-.4A.4.4,0,0,1,280.05,380.79Z" style="fill:#FFC727"></path><circle cx="269.24" cy="384.59" r="0.4" style="fill:#FFC727"></circle><path d="M271,384.26a.17.17,0,0,1-.17.17.17.17,0,0,1-.16-.17.16.16,0,0,1,.16-.16A.16.16,0,0,1,271,384.26Z" style="fill:#FFC727"></path><g style="opacity:0.7000000000000001"><path d="M297.58,344.77a14.15,14.15,0,0,1-.72,4.44H269.48a14.24,14.24,0,0,1-.72-4.5,14.41,14.41,0,0,1,10.66-13.89l.05-8h-1.16v-2.29l9.87,0v2.29H287l-.05,8A14.41,14.41,0,0,1,297.58,344.77Z" style="fill:#fff"></path><path d="M297.58,344.77a14.32,14.32,0,0,1-.7,4.45h0l-13.69,0-13.69.1h-.13l0-.11a14.51,14.51,0,0,1-.71-5.85,14.79,14.79,0,0,1,1.68-5.65,15.35,15.35,0,0,1,3.79-4.54,15,15,0,0,1,5.28-2.66l-.19.25.06-8,.24.23h-1.4V320.3h.23l9.87.09h.16v.16l0,2.29V323H287l.13-.13-.1,8-.06-.07a14.68,14.68,0,0,1,7.67,5.22A14.43,14.43,0,0,1,297.58,344.77Zm0,0a14.38,14.38,0,0,0-3-8.74,14.15,14.15,0,0,0-7.66-5.12h-.05v-8.19h1.29l-.14.14v-2.29l.16.16-9.88,0,.23-.22v2.29l-.23-.23h1.39v.24l0,8V331l-.19.06A14.2,14.2,0,0,0,269,343.46a13.94,13.94,0,0,0,.61,5.7l-.16-.11,13.69.09,13.69.06h0A14.25,14.25,0,0,0,297.58,344.77Z" style="fill:#263238"></path></g><path d="M296,343.27s-.15,3.32-.93,4.76H271.31c-.78-1.44-.41-4.76-.41-4.76Z" style="fill:#FFC727"></path><circle cx="291.27" cy="339.49" r="1.08" style="fill:#FFC727"></circle><path d="M286.79,341.94a.7.7,0,0,1-1.4,0,.7.7,0,1,1,1.4,0Z" style="fill:#FFC727"></path><circle cx="277.48" cy="338.1" r="0.7" style="fill:#FFC727"></circle><path d="M288.43,336.86a.54.54,0,1,1-.54-.53A.54.54,0,0,1,288.43,336.86Z" style="fill:#FFC727"></path><path d="M274.56,341.94a.54.54,0,1,1-.53-.54A.53.53,0,0,1,274.56,341.94Z" style="fill:#FFC727"></path><path d="M276.36,341.49a.22.22,0,1,1-.22-.22A.22.22,0,0,1,276.36,341.49Z" style="fill:#FFC727"></path><path d="M271.34,344.72a11.41,11.41,0,0,1,8-10.92" style="fill:#fff"></path><rect x="305.76" y="324.2" width="1.29" height="25.18" style="fill:#263238"></rect><rect x="307.05" y="347.62" width="27.51" height="1.76" style="fill:#263238"></rect><path d="M316.46,322.53l-.1,21.08a2.49,2.49,0,1,1-5,0l.09-21.08Z" style="fill:#ebebeb"></path><path d="M316.14,328.63l-.07,15a2.2,2.2,0,0,1-4.4,0l.07-15Z" style="fill:#c7c7c7"></path><rect x="310.7" y="320.66" width="6.53" height="3.28" transform="translate(1.46 -1.42) rotate(0.26)" style="fill:#FFC727"></rect><path d="M331.86,322.53l-.09,21.08a2.49,2.49,0,1,1-5,0l.1-21.08Z" style="fill:#ebebeb"></path><path d="M331.55,328.63l-.07,15a2.2,2.2,0,0,1-4.4,0l.07-15Z" style="fill:#c7c7c7"></path><rect x="326.11" y="320.66" width="6.53" height="3.28" transform="translate(1.46 -1.49) rotate(0.26)" style="fill:#FFC727"></rect><path d="M324.12,322.53l-.1,21.08a2.49,2.49,0,1,1-5,0l.09-21.08Z" style="fill:#ebebeb"></path><path d="M323.8,328.63l-.06,15a2.2,2.2,0,0,1-4.4,0l.07-15Z" style="fill:#37474f"></path><rect x="318.37" y="320.66" width="6.53" height="3.28" transform="translate(1.46 -1.45) rotate(0.26)" style="fill:#455a64"></rect><path d="M334.56,333.61V336h-27.5v-2.35h4.47v.78c0,.39,1.1.71,2.45.71s2.45-.32,2.45-.71v-.78h2.76v.78c0,.39,1.1.71,2.45.71s2.45-.32,2.45-.71v-.78h2.77v.78c0,.39,1.09.71,2.45.71s2.45-.32,2.45-.71v-.78Z" style="fill:#455a64"></path><rect x="307.05" y="335.96" width="27.51" height="0.95" style="fill:#263238"></rect><rect x="334.56" y="324.2" width="1.29" height="25.18" style="fill:#263238"></rect><path d="M333.38,395.26H322.07V381.65a5.66,5.66,0,0,1,5.65-5.66h0a5.66,5.66,0,0,1,5.66,5.66Z" style="fill:#dbdbdb"></path><rect x="324.81" y="373.69" width="5.83" height="3.39" style="fill:#dbdbdb"></rect><rect x="323.78" y="372.11" width="7.89" height="3.01" style="fill:#a6a6a6"></rect><rect x="323.01" y="383.14" width="8.34" height="7.63" style="fill:#fff"></rect><path d="M320.47,395.26H309.15V381.65a5.67,5.67,0,0,1,5.66-5.66h0a5.67,5.67,0,0,1,5.66,5.66Z" style="fill:#dbdbdb"></path><rect x="311.9" y="373.69" width="5.83" height="3.39" style="fill:#dbdbdb"></rect><rect x="310.87" y="372.11" width="7.89" height="3.01" style="fill:#FFC727"></rect><rect x="310.1" y="383.14" width="8.34" height="7.63" style="fill:#fff"></rect><path d="M301.9,376h0a5.66,5.66,0,0,1,5.66,5.66v13.61a0,0,0,0,1,0,0H296.24a0,0,0,0,1,0,0V381.65A5.66,5.66,0,0,1,301.9,376Z" style="fill:#dbdbdb"></path><rect x="298.98" y="373.69" width="5.83" height="3.39" style="fill:#dbdbdb"></rect><rect x="297.95" y="372.11" width="7.89" height="3.01" style="fill:#a6a6a6"></rect><rect x="297.19" y="383.14" width="8.34" height="7.63" style="fill:#fff"></rect><rect x="264.45" y="422.38" width="11.48" height="19.11" transform="translate(540.37 863.88) rotate(180)" style="fill:#FFC727"></rect><rect x="262.87" y="419.13" width="14.63" height="3.25" transform="translate(540.37 841.51) rotate(180)" style="fill:#dbdbdb"></rect><rect x="265.92" y="426.59" width="8.54" height="11.79" transform="translate(540.37 864.97) rotate(180)" style="fill:#fff"></rect><rect x="280.3" y="422.38" width="11.48" height="19.11" transform="translate(572.08 863.88) rotate(180)" style="fill:#FFC727"></rect><rect x="278.72" y="419.13" width="14.63" height="3.25" transform="translate(572.08 841.51) rotate(180)" style="fill:#dbdbdb"></rect><rect x="281.77" y="426.59" width="8.54" height="11.79" transform="translate(572.08 864.97) rotate(180)" style="fill:#fff"></rect><rect x="296.15" y="422.38" width="11.48" height="19.11" transform="translate(603.78 863.88) rotate(180)" style="fill:#FFC727"></rect><rect x="294.57" y="419.13" width="14.63" height="3.25" transform="translate(603.78 841.51) rotate(180)" style="fill:#dbdbdb"></rect><rect x="297.62" y="426.59" width="8.54" height="11.79" transform="translate(603.78 864.97) rotate(180)" style="fill:#fff"></rect><rect x="33.42" y="281.36" width="353.37" height="13.03" style="fill:#455a64"></rect><polygon points="54.42 294.38 54.15 304.67 50.53 452.19 43.97 452.19 43.97 294.38 54.42 294.38" style="fill:#455a64"></polygon><polygon points="43.97 294.38 54.42 294.38 54.15 304.67 43.97 304.67 43.97 294.38" style="fill:#263238"></polygon><rect x="347.13" y="294.38" width="29.11" height="157.81" style="fill:#37474f"></rect><rect x="347.13" y="294.38" width="29.11" height="10.29" style="fill:#263238"></rect></g></svg>