<svg xmlns="http://www.w3.org/2000/svg" viewBox="0 0 500 500"><g id="freepik--background-complete--inject-18"><polygon points="387.46 459.19 386.46 459.19 386.46 374.27 353.44 329.21 353.44 289.41 354.44 289.41 354.44 328.88 387.46 373.95 387.46 459.19" style="fill:#ebebeb"></polygon><path d="M354,290a3.44,3.44,0,1,1,3.43-3.44A3.44,3.44,0,0,1,354,290Zm0-5.87a2.44,2.44,0,1,0,2.43,2.43A2.43,2.43,0,0,0,354,284.09Z" style="fill:#ebebeb"></path><polygon points="378.96 459.19 377.96 459.19 377.96 379.72 344.94 334.65 344.94 312.57 345.94 312.57 345.94 334.32 378.96 379.39 378.96 459.19" style="fill:#ebebeb"></polygon><path d="M345.44,313.12a3.44,3.44,0,1,1,3.43-3.44A3.44,3.44,0,0,1,345.44,313.12Zm0-5.87a2.44,2.44,0,1,0,2.43,2.43A2.43,2.43,0,0,0,345.44,307.25Z" style="fill:#ebebeb"></path><rect x="394.66" y="323.77" width="1" height="135.42" style="fill:#ebebeb"></rect><path d="M395.16,324.27a3.43,3.43,0,1,1,3.43-3.43A3.44,3.44,0,0,1,395.16,324.27Zm0-5.86a2.43,2.43,0,1,0,2.43,2.43A2.44,2.44,0,0,0,395.16,318.41Z" style="fill:#ebebeb"></path><polygon points="403.55 458.45 402.55 458.45 402.55 387.68 424.96 345.4 424.96 258.69 425.96 258.69 425.96 345.65 403.55 387.93 403.55 458.45" style="fill:#ebebeb"></polygon><path d="M425.46,259.19a3.44,3.44,0,1,1,3.44-3.43A3.44,3.44,0,0,1,425.46,259.19Zm0-5.87a2.44,2.44,0,1,0,2.44,2.44A2.44,2.44,0,0,0,425.46,253.32Z" style="fill:#ebebeb"></path><polygon points="411.39 458.6 410.39 458.6 410.39 392.19 410.45 392.08 436.82 345.45 436.82 295.65 437.82 295.65 437.82 345.71 437.75 345.82 411.39 392.45 411.39 458.6" style="fill:#ebebeb"></polygon><path d="M437.32,296.15a3.43,3.43,0,1,1,3.43-3.43A3.44,3.44,0,0,1,437.32,296.15Zm0-5.86a2.43,2.43,0,1,0,2.43,2.43A2.44,2.44,0,0,0,437.32,290.29Z" style="fill:#ebebeb"></path><polygon points="113.53 459.19 112.53 459.19 112.53 285.72 145.56 240.65 145.56 201.18 146.56 201.18 146.56 240.98 113.53 286.05 113.53 459.19" style="fill:#ebebeb"></polygon><path d="M146.06,201.73a3.44,3.44,0,1,1,3.43-3.43A3.44,3.44,0,0,1,146.06,201.73Zm0-5.87a2.44,2.44,0,1,0,2.43,2.44A2.44,2.44,0,0,0,146.06,195.86Z" style="fill:#ebebeb"></path><polygon points="122.04 459.19 121.04 459.19 121.04 291.17 121.14 291.03 154.06 246.1 154.06 224.34 155.06 224.34 155.06 246.43 122.04 291.49 122.04 459.19" style="fill:#ebebeb"></polygon><path d="M154.56,224.89a3.44,3.44,0,1,1,3.43-3.43A3.44,3.44,0,0,1,154.56,224.89Zm0-5.87a2.44,2.44,0,1,0,2.43,2.44A2.44,2.44,0,0,0,154.56,219Z" style="fill:#ebebeb"></path><rect x="104.34" y="191.44" width="1" height="267.76" style="fill:#ebebeb"></rect><path d="M104.84,191.94a3.44,3.44,0,1,1,3.44-3.44A3.44,3.44,0,0,1,104.84,191.94Zm0-5.87a2.44,2.44,0,1,0,2.44,2.43A2.43,2.43,0,0,0,104.84,186.07Z" style="fill:#ebebeb"></path><polygon points="97.45 458.45 96.45 458.45 96.45 299.7 74.04 257.42 74.04 159.44 75.04 159.44 75.04 257.17 97.45 299.46 97.45 458.45" style="fill:#ebebeb"></polygon><path d="M74.54,159.94A3.44,3.44,0,1,1,78,156.5,3.44,3.44,0,0,1,74.54,159.94Zm0-5.87A2.44,2.44,0,1,0,77,156.5,2.43,2.43,0,0,0,74.54,154.07Z" style="fill:#ebebeb"></path><polygon points="89.61 458.6 88.61 458.6 88.61 304.23 62.18 257.49 62.18 196.4 63.18 196.4 63.18 257.22 89.61 303.97 89.61 458.6" style="fill:#ebebeb"></polygon><path d="M62.68,196.9a3.44,3.44,0,1,1,3.44-3.43A3.44,3.44,0,0,1,62.68,196.9Zm0-5.87a2.44,2.44,0,1,0,2.44,2.44A2.43,2.43,0,0,0,62.68,191Z" style="fill:#ebebeb"></path><g style="opacity:0.5"><path d="M102.76,109.59a26,26,0,1,0,26,26A26.06,26.06,0,0,0,102.76,109.59Zm0,46.51a20.49,20.49,0,1,1,20.47-20.48A20.49,20.49,0,0,1,102.76,156.1Zm0-46.51a26,26,0,1,0,26,26A26.06,26.06,0,0,0,102.76,109.59Zm0,46.51a20.49,20.49,0,1,1,20.47-20.48A20.49,20.49,0,0,1,102.76,156.1Zm0-64.35a43.87,43.87,0,1,0,43.85,43.87A43.87,43.87,0,0,0,102.76,91.75Zm0,72.38a28.52,28.52,0,1,1,28.5-28.51A28.55,28.55,0,0,1,102.76,164.13Zm0-54.54a26,26,0,1,0,26,26A26.06,26.06,0,0,0,102.76,109.59Zm0,46.51a20.49,20.49,0,1,1,20.47-20.48A20.49,20.49,0,0,1,102.76,156.1Z" style="fill:#ebebeb"></path><polygon points="107.9 92.54 97.85 92.54 98.85 82.52 106.9 82.52 107.9 92.54" style="fill:#ebebeb"></polygon><polygon points="85.67 95.74 76.97 100.76 72.83 91.58 79.79 87.56 85.67 95.74" style="fill:#ebebeb"></polygon><polygon points="68.02 109.62 63 118.31 54.82 112.44 58.84 105.47 68.02 109.62" style="fill:#ebebeb"></polygon><polygon points="59.67 130.46 59.67 140.51 49.65 139.51 49.65 131.46 59.67 130.46" style="fill:#ebebeb"></polygon><polygon points="62.87 152.69 67.89 161.39 58.71 165.53 54.69 158.57 62.87 152.69" style="fill:#ebebeb"></polygon><polygon points="76.75 170.34 85.45 175.36 79.57 183.54 72.6 179.52 76.75 170.34" style="fill:#ebebeb"></polygon><polygon points="97.59 178.69 107.64 178.69 106.64 188.71 98.59 188.71 97.59 178.69" style="fill:#ebebeb"></polygon><polygon points="119.82 175.49 128.52 170.47 132.66 179.65 125.7 183.67 119.82 175.49" style="fill:#ebebeb"></polygon><polygon points="137.47 161.61 142.49 152.91 150.68 158.79 146.65 165.76 137.47 161.61" style="fill:#ebebeb"></polygon><polygon points="145.82 140.76 145.82 130.72 155.84 131.72 155.84 139.76 145.82 140.76" style="fill:#ebebeb"></polygon><polygon points="142.62 118.54 137.6 109.84 146.78 105.69 150.81 112.66 142.62 118.54" style="fill:#ebebeb"></polygon><polygon points="128.74 100.89 120.05 95.87 125.92 87.69 132.89 91.71 128.74 100.89" style="fill:#ebebeb"></polygon><path d="M88.64,139.8l10.68,10.12,14.1-4.18,3.44-14.3L106.18,121.3l-14.11,4.18Zm9.44-4.07a4.67,4.67,0,1,1,4.79,4.55A4.67,4.67,0,0,1,98.08,135.73Z" style="fill:#ebebeb"></path></g><path d="M418.85,204.3A25.53,25.53,0,1,0,445,229.15,25.53,25.53,0,0,0,418.85,204.3ZM420,246.4a16.58,16.58,0,1,1,16.14-17A16.57,16.57,0,0,1,420,246.4Z" style="fill:#ebebeb"></path><polygon points="423.78 205.23 413.97 205.49 414.33 198.53 423.06 198.3 423.78 205.23" style="fill:#ebebeb"></polygon><polygon points="405.19 209.03 398.44 216.15 393.77 210.98 399.78 204.64 405.19 209.03" style="fill:#ebebeb"></polygon><polygon points="394.73 224.87 394.99 234.68 388.03 234.32 387.8 225.59 394.73 224.87" style="fill:#ebebeb"></polygon><polygon points="398.53 243.46 405.65 250.21 400.48 254.88 394.14 248.87 398.53 243.46" style="fill:#ebebeb"></polygon><polygon points="414.36 253.92 424.18 253.66 423.82 260.62 415.09 260.85 414.36 253.92" style="fill:#ebebeb"></polygon><polygon points="432.96 250.12 439.71 243 444.38 248.17 438.37 254.51 432.96 250.12" style="fill:#ebebeb"></polygon><polygon points="443.42 234.28 443.16 224.47 450.12 224.83 450.35 233.56 443.42 234.28" style="fill:#ebebeb"></polygon><polygon points="439.62 215.69 432.5 208.94 437.67 204.27 444.01 210.28 439.62 215.69" style="fill:#ebebeb"></polygon><path d="M163.31,48A25.53,25.53,0,1,0,189.5,72.87,25.52,25.52,0,0,0,163.31,48Zm1.11,42.09a16.58,16.58,0,1,1,16.13-17A16.59,16.59,0,0,1,164.42,90.11Z" style="fill:#ebebeb"></path><polygon points="168.24 48.95 158.42 49.21 158.78 42.24 167.51 42.02 168.24 48.95" style="fill:#ebebeb"></polygon><polygon points="149.65 52.75 142.89 59.87 138.22 54.69 144.23 48.36 149.65 52.75" style="fill:#ebebeb"></polygon><polygon points="139.19 68.58 139.44 78.39 132.48 78.04 132.25 69.31 139.19 68.58" style="fill:#ebebeb"></polygon><polygon points="142.99 87.17 150.11 93.93 144.93 98.6 138.6 92.59 142.99 87.17" style="fill:#ebebeb"></polygon><polygon points="158.82 97.63 168.63 97.37 168.27 104.34 159.54 104.57 158.82 97.63" style="fill:#ebebeb"></polygon><polygon points="177.41 93.83 184.17 86.71 188.84 91.89 182.83 98.22 177.41 93.83" style="fill:#ebebeb"></polygon><polygon points="187.87 78 187.61 68.19 194.57 68.55 194.8 77.27 187.87 78" style="fill:#ebebeb"></polygon><polygon points="184.07 59.41 176.95 52.65 182.13 47.98 188.46 53.99 184.07 59.41" style="fill:#ebebeb"></polygon></g><g id="freepik--Floor--inject-18"><polygon points="47.15 458.7 97.86 458.45 148.57 458.37 250 458.2 351.43 458.36 402.14 458.45 452.86 458.7 402.14 458.94 351.43 459.03 250 459.2 148.57 459.03 97.86 458.94 47.15 458.7" style="fill:#263238"></polygon></g><g id="freepik--robotic-arm--inject-18"><path d="M264.81,347.72l-.94-.36c4.73-12.49,10-56.42-15.05-87.44-7.11-8.81-16.56-17.25-25.7-25.4-11.61-10.36-22.57-20.15-29.09-30.61-6.78-10.91-8.5-24.19-4.48-34.68A24.78,24.78,0,0,1,206,153.85l.27,1a23.82,23.82,0,0,0-15.82,14.78c-3.92,10.2-2.23,23.15,4.39,33.79,6.44,10.34,17.35,20.08,28.91,30.39,9.17,8.19,18.65,16.65,25.81,25.52C274.88,290.65,269.59,335.08,264.81,347.72Z" style="fill:#263238"></path><path d="M267.49,337l-1,0c.7-19.71-1.15-55.88-21.32-76.59-2.63-2.69-5.64-5.64-8.82-8.76-16.42-16.07-38.89-38.07-42.38-59.27-4.14-25.12,11.79-34.95,11.95-35l.51.86c-.15.09-15.5,9.61-11.48,34,3.44,20.87,25.78,42.74,42.1,58.72,3.19,3.12,6.2,6.07,8.83,8.77C266.32,280.63,268.19,317.1,267.49,337Z" style="fill:#263238"></path><path d="M145.15,425.5c-.64-1.81-15.8-44.67-15.8-65.74a43.84,43.84,0,0,1,11.91-30.67c9.2-9.69,22.85-15.46,40.59-17.17l.19,2c-47,4.51-50.69,36.23-50.69,45.84,0,20.73,15.53,64.63,15.69,65.07Z" style="fill:#263238"></path><path d="M138.82,427.88c-.32-1.9-7.58-46.69-4.84-67.55,3.19-24.32,17.92-37.54,47.79-42.87l.35,2C152.86,324.65,139.06,337,136,360.59c-2.7,20.57,4.75,66.5,4.83,67Z" style="fill:#263238"></path><path d="M367.83,426l-1.77-1c.15-.27,14.56-27.68,10.24-51.11-2.15-11.64-12-30.93-54.1-29.62l-.07-2c43.6-1.4,53.87,19,56.13,31.26C382.72,397.68,368.44,424.83,367.83,426Z" style="fill:#263238"></path><path d="M372.57,430.32l-2-.28c.06-.39,5.52-39.63,1.19-55-5-17.66-19.69-25.58-49.2-26.49l.07-2c30.53.94,45.8,9.3,51.06,27.95C378.15,390.28,372.8,428.7,372.57,430.32Z" style="fill:#263238"></path><path d="M271.67,143.19l-10.84-23.63L201.14,144.4A15.33,15.33,0,0,0,192.88,165h0a15.31,15.31,0,0,0,21,7.19Z" style="fill:#FFC100"></path><polygon points="351.65 138.53 353.19 127.7 366.48 127.53 369.27 137.04 351.65 138.53" style="fill:#FFC100"></polygon><polygon points="341.29 124.45 353.17 127.72 348.68 138.14 314.93 132.41 341.29 124.45" style="fill:#FFC100"></polygon><polygon points="366.48 127.53 371.52 136.45 383.28 128.37 380.19 123.8 366.48 127.53" style="fill:#FFC100"></polygon><polygon points="353.19 127.7 348.91 137.61 351.73 137.95 353.19 127.7" style="fill:#37474f"></polygon><polygon points="366.48 127.53 369.1 136.44 371.15 135.82 366.48 127.53" style="fill:#37474f"></polygon><path d="M346.77,135.69A2.52,2.52,0,1,1,348,132.6,2.5,2.5,0,0,1,346.77,135.69Zm-1.51-4.1a1.9,1.9,0,1,0,2.7,1A1.89,1.89,0,0,0,345.26,131.59Z" style="opacity:0.1"></path><path d="M365.66,136.67a2.51,2.51,0,1,1,.8-3.22A2.51,2.51,0,0,1,365.66,136.67Zm-2-3.88a1.9,1.9,0,1,0,2.8.66A1.9,1.9,0,0,0,363.66,132.79Z" style="opacity:0.1"></path><polygon points="343.07 68.75 348.16 78.7 363.72 74.37 362.6 64.75 343.07 68.75" style="fill:#FFC100"></polygon><polygon points="326.22 97.51 348.16 78.7 340.6 70.23 314.4 87.39 326.22 97.51" style="fill:#FFC100"></polygon><polygon points="363.72 74.37 364.85 64.42 381.71 68.57 379.91 74.08 363.72 74.37" style="fill:#FFC100"></polygon><polygon points="348.16 78.7 341.18 70.88 343.45 69.48 348.16 78.7" style="fill:#37474f"></polygon><polygon points="363.72 74.37 362.67 65.36 364.75 65.13 363.72 74.37" style="fill:#37474f"></polygon><path d="M341.3,77a2.44,2.44,0,1,1-.49-3.2A2.46,2.46,0,0,1,341.3,77Zm0,0a1.83,1.83,0,1,0-2.79.4A1.85,1.85,0,0,0,341.3,77Z" style="opacity:0.1"></path><path d="M360.94,70.09a2.44,2.44,0,1,1-.49-3.2A2.44,2.44,0,0,1,360.94,70.09Zm0,0a1.83,1.83,0,1,0-2.78.4A1.85,1.85,0,0,0,360.94,70.09Z" style="opacity:0.1"></path><path d="M380.48,72.35l-.56,1.73-16.2.29L348.16,78.7,326.22,97.51,315.08,88l1.83-1.4L338,77.86l.66-.28,2.89-1.19h0L344.88,75l1.15-.48h0l5.17-2.14,12.25-.31.52,0Z" style="opacity:0.1"></path><polygon points="364.93 87.94 367.04 98.92 384.55 98.21 386.15 88.66 364.93 87.94" style="fill:#FFC100"></polygon><polygon points="340.74 110.87 367.04 98.92 362.14 88.68 332.2 97.87 340.74 110.87" style="fill:#FFC100"></polygon><polygon points="384.55 98.21 388.4 88.97 404.58 94.62 401.33 99.41 384.55 98.21" style="fill:#FFC100"></polygon><polygon points="367.04 98.92 362.52 89.47 365.09 88.75 367.04 98.92" style="fill:#37474f"></polygon><polygon points="384.55 98.21 386.05 89.26 388.12 89.62 384.55 98.21" style="fill:#37474f"></polygon><path d="M361.2,94.74a2.44,2.44,0,1,1-.49-3.21A2.48,2.48,0,0,1,361.2,94.74Zm0,0a1.84,1.84,0,1,0-2.79.4A1.87,1.87,0,0,0,361.2,94.74Z" style="opacity:0.1"></path><path d="M383.51,93.2A2.44,2.44,0,1,1,383,90,2.46,2.46,0,0,1,383.51,93.2Zm0,0a1.84,1.84,0,1,0-2.79.4A1.86,1.86,0,0,0,383.51,93.2Z" style="opacity:0.1"></path><polygon points="359.47 102.36 340.74 110.87 338.15 106.93 359.47 102.36" style="opacity:0.1"></polygon><polygon points="370.5 104.96 370.26 116.13 387.53 119.11 391.1 110.1 370.5 104.96" style="fill:#FFC100"></polygon><polygon points="344.3 122.5 370.26 116.13 367.62 105.09 338.67 108 344.3 122.5" style="fill:#FFC100"></polygon><polygon points="387.53 119.11 393.23 110.88 406.75 119.11 403.68 123.8 387.53 119.11" style="fill:#FFC100"></polygon><polygon points="370.26 116.13 367.82 105.94 370.48 105.78 370.26 116.13" style="fill:#37474f"></polygon><polygon points="387.53 119.11 390.87 110.67 392.81 111.46 387.53 119.11" style="fill:#37474f"></polygon><path d="M365.5,110.35a2.44,2.44,0,1,1-.49-3.2A2.46,2.46,0,0,1,365.5,110.35Zm0,0a1.84,1.84,0,1,0-2.79.4A1.85,1.85,0,0,0,365.5,110.35Z" style="opacity:0.1"></path><path d="M388,113.34a2.44,2.44,0,1,1-.49-3.2A2.45,2.45,0,0,1,388,113.34Zm0,0a1.84,1.84,0,1,0-2.79.4A1.85,1.85,0,0,0,388,113.34Z" style="opacity:0.1"></path><polygon points="360.58 74.89 363.04 85.79 379.21 84.11 380.5 74.51 360.58 74.89" style="fill:#FFC100"></polygon><polygon points="337.14 98.59 363.04 85.79 357.82 75.72 328.19 85.87 337.14 98.59" style="fill:#FFC100"></polygon><polygon points="379.21 84.11 382.76 74.75 398.75 81.02 395.65 85.92 379.21 84.11" style="fill:#FFC100"></polygon><polygon points="363.04 85.79 358.22 76.49 360.76 75.7 363.04 85.79" style="fill:#37474f"></polygon><polygon points="379.21 84.11 380.42 75.12 382.49 75.41 379.21 84.11" style="fill:#37474f"></polygon><path d="M357.54,81.4a2.43,2.43,0,1,1-.46-3.2A2.45,2.45,0,0,1,357.54,81.4Zm0,0a1.83,1.83,0,1,0-2.79.38A1.86,1.86,0,0,0,357.54,81.4Z" style="opacity:0.1"></path><path d="M378.25,79.19a2.44,2.44,0,1,1-.47-3.21A2.47,2.47,0,0,1,378.25,79.19Zm0,0a1.84,1.84,0,1,0-3.08-2,1.84,1.84,0,0,0,.28,2.37A1.87,1.87,0,0,0,378.25,79.19Z" style="opacity:0.1"></path><polygon points="358.57 88 337.14 98.59 334.36 94.64 358.57 88" style="opacity:0.1"></polygon><polygon points="294.45 98.28 328.72 75.74 349.87 121.64 310.17 131.93 294.45 98.28" style="fill:#FFC100"></polygon><polygon points="294.45 98.28 328.72 75.74 349.87 121.64 310.17 131.93 294.45 98.28" style="opacity:0.1"></polygon><polygon points="292.12 98.97 319.6 79.65 341.29 124.45 308.68 134.29 292.12 98.97" style="fill:#FFC100"></polygon><path d="M319.55,89.43a2.43,2.43,0,1,1-.49-3.21A2.44,2.44,0,0,1,319.55,89.43Zm0,0a1.84,1.84,0,1,0-2.78.4A1.86,1.86,0,0,0,319.55,89.43Z" style="opacity:0.1"></path><path d="M325.17,100.4a2.43,2.43,0,1,1-.49-3.2A2.46,2.46,0,0,1,325.17,100.4Zm0,0a1.83,1.83,0,1,0-2.78.4A1.85,1.85,0,0,0,325.17,100.4Z" style="opacity:0.1"></path><path d="M330.8,111.37a2.44,2.44,0,1,1-.49-3.2A2.46,2.46,0,0,1,330.8,111.37Zm0,0a1.84,1.84,0,1,0-2.79.4A1.86,1.86,0,0,0,330.8,111.37Z" style="opacity:0.1"></path><path d="M336.42,122.35a2.44,2.44,0,1,1-.49-3.21A2.45,2.45,0,0,1,336.42,122.35Zm0,0a1.84,1.84,0,1,0-2.79.4A1.87,1.87,0,0,0,336.42,122.35Z" style="opacity:0.1"></path><rect x="252.72" y="124.94" width="35.31" height="9.09" transform="translate(275.35 -170.26) rotate(65.36)" style="fill:#455a64"></rect><rect x="269.43" y="115.63" width="25.51" height="16.88" transform="translate(277.32 -184.15) rotate(65.36)" style="fill:#37474f"></rect><rect x="272.28" y="107.74" width="51.21" height="17.88" transform="translate(279.76 -202.73) rotate(65.36)" style="fill:#455a64"></rect><path d="M293.18,106.43a4.41,4.41,0,1,0-5.84-2.17A4.4,4.4,0,0,0,293.18,106.43Z" style="fill:#37474f"></path><path d="M306.27,135a4.41,4.41,0,1,0-5.85-2.17A4.41,4.41,0,0,0,306.27,135Z" style="fill:#37474f"></path><path d="M223.15,151.34l43.11,104.83a18.11,18.11,0,0,1-9.87,23.64h0A18.11,18.11,0,0,1,232.75,270L189.64,165.12a18.11,18.11,0,0,1,9.87-23.64h0A18.11,18.11,0,0,1,223.15,151.34Z" style="fill:#37474f"></path><path d="M242.88,260a6.76,6.76,0,1,1,4,8.71A6.76,6.76,0,0,1,242.88,260Z" style="fill:#263238"></path><path d="M199.84,155.32a6.77,6.77,0,1,1,4,8.71A6.77,6.77,0,0,1,199.84,155.32Z" style="fill:#263238"></path><rect x="120.78" y="427.71" width="268.71" height="31.02" rx="14.92" style="fill:#455a64"></rect><path d="M194.46,333.45h135a16.65,16.65,0,0,1,16.64,16.65v75.07H194.46Z" style="fill:#263238"></path><polygon points="370.47 375.42 370.47 427.71 139.8 427.71 139.8 347.79 158.91 329.53 291.47 329.53 291.47 357.16 351.36 357.16 370.47 375.42" style="fill:#455a64"></polygon><polygon points="370.47 375.42 370.47 427.71 139.8 427.71 139.8 347.79 147 340.91 158.91 329.53 291.46 329.53 291.46 357.16 351.36 357.16 370.47 375.42" style="fill:#455a64"></polygon><polygon points="370.47 427.71 370.47 422.35 139.8 415.66 139.8 427.71 370.47 427.71" style="fill:#37474f"></polygon><rect x="149.9" y="402.8" width="32.04" height="3.3" style="fill:#263238"></rect><rect x="149.9" y="410.01" width="32.04" height="3.3" style="fill:#263238"></rect><rect x="149.9" y="417.23" width="32.04" height="3.3" style="fill:#263238"></rect><circle cx="333.69" cy="392.53" r="26.47" transform="translate(-84.36 693.63) rotate(-85.4)" style="fill:#263238"></circle><path d="M333.7,416.3h-.38a24.24,24.24,0,1,1,.38,0Zm-.35-2h.35a21.61,21.61,0,1,0-.35,0Z" style="fill:#455a64"></path><path d="M339.61,410.67a3,3,0,0,1,1.67-2.6,17,17,0,0,0,1.63-.9,3,3,0,0,1,3.09-.07l3.26,2,6.36-10.64-3.27-1.95a3,3,0,0,1-1.4-2.77c0-.29,0-.6,0-.9s0-.62,0-.92a3,3,0,0,1,1.49-2.71l3.32-1.85-6-10.83-3.33,1.85a3,3,0,0,1-3.09-.17,16.45,16.45,0,0,0-1.58-.94,3,3,0,0,1-1.59-2.65l.06-3.79-12.39-.2-.06,3.79A3,3,0,0,1,326.1,377c-.55.27-1.09.57-1.61.89a3,3,0,0,1-3.09.07L318.13,376l-6.36,10.63,3.28,2a3,3,0,0,1,1.4,2.74,7.08,7.08,0,0,0,0,.92,9,9,0,0,0,0,.9,3,3,0,0,1-1.5,2.73l-3.32,1.85,6,10.83,3.32-1.85a2.94,2.94,0,0,1,3.09.16c.52.34,1.05.65,1.59.94a3,3,0,0,1,1.6,2.66l-.06,3.79,12.39.19ZM325.72,392.4a8,8,0,1,1,7.84,8.1A8,8,0,0,1,325.72,392.4Z" style="fill:#455a64"></path><path d="M333.7,407.52h-.24a15.27,15.27,0,1,1,.24,0Zm-.19-3a12,12,0,1,0-11.81-12.18,12,12,0,0,0,11.81,12.18Z" style="fill:#263238"></path><path d="M225,380.81a44.1,44.1,0,0,1-78-39.9l11.91-11.38h64.38A44.09,44.09,0,0,1,225,380.81Z" style="fill:#263238"></path><rect x="283.64" y="353.65" width="3.5" height="3.5" style="fill:#263238"></rect><rect x="283.64" y="346.92" width="3.5" height="3.5" style="fill:#263238"></rect><rect x="283.64" y="340.19" width="3.5" height="3.5" style="fill:#FFC100"></rect><rect x="283.64" y="333.45" width="3.5" height="3.5" style="fill:#263238"></rect><path d="M264.05,242.55h0a25,25,0,0,0-33.61,5.53L160.55,334.7a35.2,35.2,0,0,0,8.36,50.84h0A35.21,35.21,0,0,0,219,373.62l52.9-97.93A25,25,0,0,0,264.05,242.55Z" style="fill:#FFC100"></path><path d="M148.71,362.75A40.23,40.23,0,0,0,223.4,376.1l1-1.92,38.13-70.61,13.78-25.49A30,30,0,0,0,226.46,245L158,329.93l-1.32,1.62A40.4,40.4,0,0,0,148.71,362.75Zm97.72-118.91a8.54,8.54,0,0,1,1.88-.28,11.2,11.2,0,0,1,1.72-.11,18.43,18.43,0,0,1,4.11.36,15,15,0,0,1,1.7.41l0,0a19,19,0,0,1,1.84.62c.1,0,.21.1.34.15.5.21,1,.45,1.47.69a18.87,18.87,0,0,1,1.73,1,14.17,14.17,0,0,1,1.42,1.06,3.79,3.79,0,0,1,.67.57,6.86,6.86,0,0,1,.92.85,3.68,3.68,0,0,1,.43.45,8.57,8.57,0,0,1,.94,1.07,10.44,10.44,0,0,1,.92,1.21.13.13,0,0,1,.07.09,5.65,5.65,0,0,1,.38.57,8.44,8.44,0,0,1,.52.91,6.8,6.8,0,0,1,.47.88l0,0a10.41,10.41,0,0,1,.56,1.26,11.35,11.35,0,0,1,.63,1.78,8.55,8.55,0,0,1,.46,1.84,13.35,13.35,0,0,1,.29,1.88,19.82,19.82,0,0,1-2.4,12l-11.37,21L216,368.59l-1.43,2.63-.26.39c-.28.49-.57,1-.91,1.49a31.25,31.25,0,0,1-2.48,3.25l-.82.87c-.52.55-1.07,1.06-1.62,1.56l-.15.12a30.18,30.18,0,0,1-45.75-38.33,1,1,0,0,1,.13-.23l.06-.11c.52-.84,1.1-1.64,1.72-2.46.3-.4.59-.77.91-1.12l.91-1.13,68-84.3a19.65,19.65,0,0,1,10.24-6.91A11.82,11.82,0,0,1,246.43,243.84Z" style="fill:#FFC100"></path><path d="M148.71,362.75A40.23,40.23,0,0,0,223.4,376.1l1-1.92,38.13-70.61,13.78-25.49A30,30,0,0,0,226.46,245L158,329.93l-1.32,1.62A40.4,40.4,0,0,0,148.71,362.75Zm97.72-118.91a8.54,8.54,0,0,1,1.88-.28,11.2,11.2,0,0,1,1.72-.11,18.43,18.43,0,0,1,4.11.36,15,15,0,0,1,1.7.41l0,0a19,19,0,0,1,1.84.62c.1,0,.21.1.34.15.5.21,1,.45,1.47.69a18.87,18.87,0,0,1,1.73,1,14.17,14.17,0,0,1,1.42,1.06,3.79,3.79,0,0,1,.67.57,6.86,6.86,0,0,1,.92.85,3.68,3.68,0,0,1,.43.45,8.57,8.57,0,0,1,.94,1.07,10.44,10.44,0,0,1,.92,1.21.13.13,0,0,1,.07.09,5.65,5.65,0,0,1,.38.57,8.44,8.44,0,0,1,.52.91,6.8,6.8,0,0,1,.47.88l0,0a10.41,10.41,0,0,1,.56,1.26,11.35,11.35,0,0,1,.63,1.78,8.55,8.55,0,0,1,.46,1.84,13.35,13.35,0,0,1,.29,1.88,19.82,19.82,0,0,1-2.4,12l-11.37,21L216,368.59l-1.43,2.63-.26.39c-.28.49-.57,1-.91,1.49a31.25,31.25,0,0,1-2.48,3.25l-.82.87c-.52.55-1.07,1.06-1.62,1.56l-.15.12a30.18,30.18,0,0,1-45.75-38.33,1,1,0,0,1,.13-.23l.06-.11c.52-.84,1.1-1.64,1.72-2.46.3-.4.59-.77.91-1.12l.91-1.13,68-84.3a19.65,19.65,0,0,1,10.24-6.91A11.82,11.82,0,0,1,246.43,243.84Z" style="opacity:0.1"></path><path d="M213.44,373.11a30.19,30.19,0,1,0-41.86,8.42A30.19,30.19,0,0,0,213.44,373.11Z" style="fill:#263238"></path><path d="M188.25,384.56A28.17,28.17,0,1,1,211.75,372h0a28,28,0,0,1-17.9,12A28.82,28.82,0,0,1,188.25,384.56Zm.1-55.32a27.16,27.16,0,1,0,22.57,42.19h0a27.14,27.14,0,0,0-22.57-42.19Z" style="fill:#455a64"></path><path d="M208.79,361.76a3.28,3.28,0,0,1-1.43-3.13,15.81,15.81,0,0,0,.14-2.05,3.28,3.28,0,0,1,1.8-2.92l3.78-1.88L207,339.47l-3.79,1.87a3.29,3.29,0,0,1-3.42-.36l-.82-.58-.86-.54a3.27,3.27,0,0,1-1.64-3l.27-4.21L183,331.76l-.27,4.22a3.32,3.32,0,0,1-2,2.79,19.36,19.36,0,0,0-1.83.9,3.28,3.28,0,0,1-3.43-.1l-3.51-2.33-7.61,11.45,3.5,2.33a3.3,3.3,0,0,1,1.42,3.13c-.07.68-.12,1.36-.13,2a3.31,3.31,0,0,1-1.79,2.93L163.53,361l6.11,12.32,3.8-1.87a3.27,3.27,0,0,1,3.4.34,9.64,9.64,0,0,0,.84.58c.28.19.56.38.85.54a3.29,3.29,0,0,1,1.64,3l-.27,4.21,13.73.88.26-4.21a3.3,3.3,0,0,1,2-2.79,18.57,18.57,0,0,0,1.84-.92,3.28,3.28,0,0,1,3.43.11l3.5,2.33,7.62-11.45Zm-25.39,2a8.85,8.85,0,1,1,12.27-2.45A8.83,8.83,0,0,1,183.4,363.75Z" style="fill:#455a64"></path><path d="M266.77,274.13a19.76,19.76,0,1,0-27.4,5.5A19.76,19.76,0,0,0,266.77,274.13Z" style="fill:#263238"></path><path d="M250.29,281.8a18.61,18.61,0,1,1,15.53-8.3h0A18.62,18.62,0,0,1,250.29,281.8Zm.06-36.24a18.06,18.06,0,0,0-3.5.35,17.52,17.52,0,1,0,3.5-.35Z" style="fill:#455a64"></path><path d="M263.64,266.68a2.13,2.13,0,0,1-.93-2c.05-.45.08-.89.09-1.33a2.13,2.13,0,0,1,1.16-1.9l2.46-1.22-4-8L260,253.4a2.13,2.13,0,0,1-2.22-.23l-.54-.38-.56-.35a2.13,2.13,0,0,1-1.06-2l.17-2.73-8.92-.58-.18,2.75a2.14,2.14,0,0,1-1.3,1.81,10.13,10.13,0,0,0-1.19.59,2.17,2.17,0,0,1-2.24-.07l-2.27-1.51-5,7.44,2.28,1.51a2.16,2.16,0,0,1,.93,2q-.08.66-.09,1.32a2.11,2.11,0,0,1-1.16,1.9l-2.47,1.23,4,8,2.47-1.22a2.11,2.11,0,0,1,2.21.22,5.22,5.22,0,0,0,.54.38c.18.12.37.25.55.35a2.14,2.14,0,0,1,1.07,2l-.17,2.74,8.92.57.17-2.74a2.14,2.14,0,0,1,1.3-1.81q.62-.27,1.2-.6a2.13,2.13,0,0,1,2.23.07l2.28,1.52,5-7.45ZM247.13,268a5.75,5.75,0,1,1,8-1.59A5.75,5.75,0,0,1,247.13,268Z" style="fill:#455a64"></path></g><g id="freepik--Texts--inject-18"><polygon points="250.38 261.3 250.04 260.93 250.78 260.25 251.12 260.62 250.38 261.3" style="fill:#FFC100"></polygon><path d="M252.59,259.26l-.33-.36,1.48-1.36.33.37Zm3-2.71-.34-.37,1.48-1.36.34.37Zm3-2.72-.34-.37,1.48-1.36.34.37Zm3-2.72-.34-.37,1.48-1.35.34.36Zm3-2.71-.34-.37,1.48-1.36.34.37Zm3-2.72-.34-.37,1.48-1.36.34.37Zm41.47-1.3h-2v-.5h2Zm-4,0h-2v-.5h2Zm-4,0h-2v-.5h2Zm-4,0h-2v-.5h2Zm-4,0h-2v-.5h2Zm-4,0h-2v-.5h2Zm-4,0h-2v-.5h2Zm-4,0h-2v-.5h2Zm-4,0h-2v-.5h2Zm-4,0h-2v-.5h2Z" style="fill:#FFC100"></path><rect x="310.87" y="243.88" width="1" height="0.5" style="fill:#FFC100"></rect><circle cx="311.79" cy="244.13" r="1.5" style="fill:#FFC100"></circle><rect x="319.67" y="242.2" width="7.53" height="3.36" style="fill:#FFC100"></rect><rect x="327.52" y="252.89" width="7.53" height="3.36" style="fill:#FFC100"></rect><rect x="329.93" y="242.2" width="14.27" height="3.36" style="fill:#FFC100"></rect><rect x="346.84" y="242.2" width="2.4" height="3.36" style="fill:#FFC100"></rect><rect x="350.67" y="242.2" width="2.4" height="3.36" style="fill:#FFC100"></rect><rect x="354.5" y="242.2" width="2.4" height="3.36" style="fill:#FFC100"></rect><rect x="319.67" y="247.5" width="14.27" height="3.36" style="fill:#FFC100"></rect><rect x="336.57" y="247.5" width="2.4" height="3.36" style="fill:#FFC100"></rect><rect x="340.41" y="247.5" width="2.4" height="3.36" style="fill:#FFC100"></rect><rect x="344.24" y="247.5" width="2.4" height="3.36" style="fill:#FFC100"></rect><rect x="319.67" y="252.89" width="2.4" height="3.36" style="fill:#FFC100"></rect><rect x="323.5" y="252.89" width="2.4" height="3.36" style="fill:#FFC100"></rect><rect x="327.28" y="390.22" width="1" height="0.5" transform="translate(-177.82 325.1) rotate(-42.62)" style="fill:#FFC100"></rect><path d="M329.8,389l-.34-.37,1.48-1.36.34.37Zm3-2.72-.34-.37,1.48-1.36.34.37Zm2.95-2.72-.33-.37,1.48-1.36.33.37Zm3-2.72-.34-.37,1.48-1.35.34.37Zm3-2.71-.34-.37,1.48-1.36.34.37Zm3-2.72-.34-.37,1.48-1.36.34.37Zm41.47-1.3h-2v-.5h2Zm-4,0h-2v-.5h2Zm-4,0h-2v-.5h2Zm-4,0h-2v-.5h2Zm-4,0h-2v-.5h2Zm-4,0h-2v-.5h2Zm-4,0h-2v-.5h2Zm-4,0h-2v-.5h2Zm-4,0h-2v-.5h2Zm-4,0h-2v-.5h2Z" style="fill:#FFC100"></path><rect x="388.07" y="373.57" width="1" height="0.5" style="fill:#FFC100"></rect><circle cx="389" cy="373.82" r="1.5" style="fill:#FFC100"></circle><rect x="396.87" y="371.89" width="7.53" height="3.36" style="fill:#FFC100"></rect><rect x="404.72" y="382.58" width="7.53" height="3.36" style="fill:#FFC100"></rect><rect x="407.14" y="371.89" width="14.27" height="3.36" style="fill:#FFC100"></rect><rect x="424.04" y="371.89" width="2.4" height="3.36" style="fill:#FFC100"></rect><rect x="427.88" y="371.89" width="2.4" height="3.36" style="fill:#FFC100"></rect><rect x="431.71" y="371.89" width="2.4" height="3.36" style="fill:#FFC100"></rect><rect x="396.87" y="377.19" width="14.27" height="3.36" style="fill:#FFC100"></rect><rect x="413.78" y="377.19" width="2.4" height="3.36" style="fill:#FFC100"></rect><rect x="417.61" y="377.19" width="2.4" height="3.36" style="fill:#FFC100"></rect><rect x="421.44" y="377.19" width="2.4" height="3.36" style="fill:#FFC100"></rect><rect x="396.87" y="382.58" width="2.4" height="3.36" style="fill:#FFC100"></rect><rect x="400.7" y="382.58" width="2.4" height="3.36" style="fill:#FFC100"></rect><rect x="183.62" y="356.33" width="1" height="0.5" transform="translate(-172.21 171.98) rotate(-35.3)" style="fill:#FFC100"></rect><path d="M154.64,377.75h-.31v-.5h.15l1.38-1,.29.41Zm-2.31,0h-2v-.5h2Zm-4,0h-2v-.5h2Zm-4,0h-2v-.5h2Zm-4,0h-2v-.5h2Zm-4,0h-2v-.5h2Zm-4,0h-2v-.5h2Zm-4,0h-2v-.5h2Zm-4,0h-2v-.5h2Zm-4,0h-2v-.5h2Zm-4,0h-2v-.5h2Zm41.39-2.22-.29-.41,1.63-1.15.29.41Zm3.26-2.31-.29-.4,1.63-1.16.29.41Zm3.26-2.3-.29-.41,1.63-1.16.29.41Zm3.26-2.31-.29-.41,1.63-1.15.29.41Zm3.26-2.31-.29-.41,1.63-1.15.29.41Zm3.26-2.31-.29-.41,1.63-1.15.29.41Zm3.26-2.3-.29-.41,1.63-1.16.29.41Zm3.26-2.31-.29-.41,1.63-1.15.29.4Z" style="fill:#FFC100"></path><rect x="111.39" y="377.25" width="1" height="0.5" style="fill:#FFC100"></rect><path d="M111.47,376a1.51,1.51,0,1,0,1.5,1.51A1.5,1.5,0,0,0,111.47,376Z" style="fill:#FFC100"></path><rect x="65.9" y="375.82" width="7.53" height="3.36" style="fill:#FFC100"></rect><rect x="73.75" y="386.51" width="7.53" height="3.36" style="fill:#FFC100"></rect><rect x="76.16" y="375.82" width="14.27" height="3.36" style="fill:#FFC100"></rect><rect x="93.07" y="375.82" width="2.4" height="3.36" style="fill:#FFC100"></rect><rect x="96.9" y="375.82" width="2.4" height="3.36" style="fill:#FFC100"></rect><rect x="100.73" y="375.82" width="2.4" height="3.36" style="fill:#FFC100"></rect><rect x="65.9" y="381.12" width="14.27" height="3.36" style="fill:#FFC100"></rect><rect x="82.8" y="381.12" width="2.4" height="3.36" style="fill:#FFC100"></rect><rect x="86.64" y="381.12" width="2.4" height="3.36" style="fill:#FFC100"></rect><rect x="90.47" y="381.12" width="2.4" height="3.36" style="fill:#FFC100"></rect><rect x="65.9" y="386.51" width="2.4" height="3.36" style="fill:#FFC100"></rect><rect x="69.73" y="386.51" width="2.4" height="3.36" style="fill:#FFC100"></rect><rect x="308.84" y="94.87" width="0.5" height="1" transform="translate(29.77 258.51) rotate(-47.43)" style="fill:#FFC100"></rect><path d="M307.09,93.87l-1.47-1.35.33-.37,1.47,1.35Zm-2.94-2.7-1.47-1.35.33-.37,1.47,1.35Zm-2.94-2.7-1.47-1.35.33-.37,1.47,1.35Zm-2.95-2.7-1.47-1.36.34-.36,1.47,1.35Zm-2.94-2.71-1.47-1.35.34-.36,1.47,1.35Zm-2.94-2.7L290.91,79l.34-.37L292.72,80Zm-2.94-2.7L288,76.31l.34-.37,1.47,1.35ZM286.5,75,285,73.61l.34-.37,1.47,1.35Zm-2.94-2.7-1.47-1.35.34-.37,1.47,1.35Zm-2.94-2.7-1.22-1.13h-.14v-.5h.33L281,69.19Zm-3.36-1.13h-2v-.5h2Zm-4,0h-2v-.5h2Zm-4,0h-2v-.5h2Zm-4,0h-2v-.5h2Zm-4,0h-2v-.5h2Zm-4,0h-2v-.5h2Zm-4,0h-2v-.5h2Zm-4,0h-2v-.5h2Zm-4,0h-2v-.5h2Zm-4,0h-2v-.5h2Z" style="fill:#FFC100"></path><rect x="236.33" y="67.93" width="1" height="0.5" style="fill:#FFC100"></rect><path d="M236.41,66.68a1.51,1.51,0,1,0,1.5,1.5A1.51,1.51,0,0,0,236.41,66.68Z" style="fill:#FFC100"></path><rect x="217.29" y="66.77" width="7.53" height="3.36" style="fill:#FFC100"></rect><rect x="192.04" y="72.07" width="7.53" height="3.36" style="fill:#FFC100"></rect><rect x="191.97" y="66.77" width="14.27" height="3.36" style="fill:#FFC100"></rect><rect x="208.87" y="66.77" width="2.4" height="3.36" style="fill:#FFC100"></rect><rect x="212.71" y="66.77" width="2.4" height="3.36" style="fill:#FFC100"></rect><rect x="226.81" y="66.77" width="2.4" height="3.36" style="fill:#FFC100"></rect><rect x="201.2" y="72.07" width="14.27" height="3.36" style="fill:#FFC100"></rect><rect x="217.29" y="72.07" width="2.4" height="3.36" style="fill:#FFC100"></rect><rect x="191.97" y="77.46" width="2.4" height="3.36" style="fill:#FFC100"></rect><rect x="195.8" y="77.46" width="2.4" height="3.36" style="fill:#FFC100"></rect></g></svg>