<svg xmlns="http://www.w3.org/2000/svg" viewBox="0 0 500 500"><g id="freepik--background-complete--inject-20"><rect x="158.45" y="40.13" width="6.5" height="139.68" style="fill:#e0e0e0"></rect><rect x="64.21" y="41.21" width="93.25" height="138.8" rx="0.09" style="fill:#f5f5f5"></rect><path d="M158.45,181.08H63.22a.09.09,0,0,1-.09-.09V40.22a.09.09,0,0,1,.09-.09h95.23a.09.09,0,0,1,.09.09V181A.09.09,0,0,1,158.45,181.08Zm-93.07-2.16h90.91a.09.09,0,0,0,.09-.09V42.38a.09.09,0,0,0-.09-.09H65.38a.09.09,0,0,0-.09.09V178.83A.09.09,0,0,0,65.38,178.92Z" style="fill:#ebebeb"></path><rect x="73.6" y="49.77" width="74.64" height="121.58" rx="0.09" style="fill:#fff"></rect><rect x="89.88" y="84.24" width="41.91" height="49.12" rx="0.06" style="fill:#ebebeb"></rect><path d="M128.47,127.35c.06.15-2,1.06-6,.6a14.53,14.53,0,0,1-6.69-2.67,13.55,13.55,0,0,1-5.19-8.18,11.74,11.74,0,0,1,4-11.17,10.39,10.39,0,0,1,3-1.77,8.07,8.07,0,0,1,3.78-.43,6.62,6.62,0,0,1,3.76,1.64,4.92,4.92,0,0,1,1.49,4.4,7.15,7.15,0,0,1-2.07,3.76,13.35,13.35,0,0,1-3.16,2.33,17.12,17.12,0,0,1-7.53,2.15,14.88,14.88,0,0,1-8-1.83,14.49,14.49,0,0,1-5.91-6.12,12.44,12.44,0,0,1-1.06-8.57,12.77,12.77,0,0,1,4.52-7.07,11.29,11.29,0,0,1,3.79-1.91,9.29,9.29,0,0,1,4.26-.13,6.92,6.92,0,0,1,3.88,2.18,6.4,6.4,0,0,1,1.51,4.14,7.86,7.86,0,0,1-1,3.94,10.54,10.54,0,0,1-2.39,2.87,16,16,0,0,1-5.93,3.16,15.35,15.35,0,0,1-6.25.48,13,13,0,0,1-5.43-2.08,11.81,11.81,0,0,1-5.2-8.23,9.93,9.93,0,0,1,1.93-7A8.4,8.4,0,0,1,96.13,89c1-.37,1.54-.36,1.57-.27s-.45.35-1.24.88a9.21,9.21,0,0,0-2.77,3,8.75,8.75,0,0,0-1.13,6A9.82,9.82,0,0,0,97.18,105a11.34,11.34,0,0,0,9.52.91,13.52,13.52,0,0,0,4.76-2.69,5.86,5.86,0,0,0,2.23-4.47,3.22,3.22,0,0,0-2.87-3.17,6.22,6.22,0,0,0-2.74.13,7.89,7.89,0,0,0-2.58,1.35,9.42,9.42,0,0,0-3.26,5.2,9,9,0,0,0,.8,6.23,11.22,11.22,0,0,0,4.5,4.68,11.7,11.7,0,0,0,6.21,1.45,14.21,14.21,0,0,0,6.1-1.67,10.23,10.23,0,0,0,2.43-1.72,4,4,0,0,0,1.24-2,1.76,1.76,0,0,0-.5-1.62,3.7,3.7,0,0,0-2-.89,5.23,5.23,0,0,0-2.37.2,7.75,7.75,0,0,0-2.22,1.22,9.17,9.17,0,0,0-3.37,8.54,11.78,11.78,0,0,0,4,7.08,14.15,14.15,0,0,0,5.74,2.86C126.32,127.46,128.44,127.05,128.47,127.35Z" style="fill:#e0e0e0"></path><path d="M410.6,447.68c-1.24-1-4-4.35-1.88-8.2.79-1.41,2.45-2.11,4-2.73a16.19,16.19,0,0,0,4.35-2.2c2.36-2,3-5.22,4.57-7.83a10,10,0,0,1,8.69-5.1c4.06.18,7.44,3.42,9,7.11s1.59,7.8,1.62,11.78c0,2.21-.08,4.7-1.74,6.18s-3.82,1.39-5.89,1.33l-22.16-.66" style="fill:#f5f5f5"></path><path d="M453,388.1H394.71l10.49,61.21a6.91,6.91,0,0,0,5,5.45l.2.05c.18,0,.35.1.52.13a7.89,7.89,0,0,0,1.19.14v.05l.28,0h26a7.54,7.54,0,0,0,1.43-.14,6.93,6.93,0,0,0,5.89-6l5.06-42.18.23-1.67h0l2-16.71Zm-11,39h-6l.61-17.76h6.92Zm2.14-17.76h5.72l-2.13,17.76h-5.15ZM427,446.83l-.37-15.43h8.62l-.53,15.43Zm-9.31-15.43h8.37l.36,15.43H419Zm.64,15.43h-7l-2.48-15.43h8.27Zm-1-19.69L416,409.38h9.6l.42,17.76Zm9.18,0-.41-17.76H436l-.61,17.76Zm-.51-22-.39-16.46h11.07l-.56,16.46Zm-.58,0h-9.84l-1.31-16.46h10.76Zm-10.42,0H404.65c-.37-2.28-.72-4.43-1-6.36-1.08-6.65-1.49-9.16-1.72-10.1h11.86Zm.34,4.26,1.41,17.76H408.2c-.29-1.8-.58-3.63-.88-5.45-.67-4.19-1.35-8.39-2-12.31Zm-7.79,17.76H402l-3.05-17.76h5.81C405.64,414.87,406.62,421,407.61,427.14Zm.69,4.26c.86,5.34,1.7,10.61,2.47,15.43h-5.4l-2.65-15.43Zm27,15.43.53-15.43h5.75l-1.35,15.43Zm1.42-41.71.56-16.46h8l-1.43,16.46Zm-35.42-16.46c.23,1.19,1.3,7.67,2.72,16.46h-5.85l-2.82-16.46Zm44,58.17h-4.51l1.35-15.43h5Zm5-41.71H444.5l1.44-16.46h6.4Z" style="fill:#e0e0e0"></path></g><g id="freepik--Floor--inject-20"><path d="M480.25,455c0,.05-102.86.09-229.71.09s-229.72,0-229.72-.09,102.83-.09,229.72-.09S480.25,455,480.25,455Z" style="fill:#263238"></path></g><g id="freepik--Tab--inject-20"><rect x="212.29" y="34.65" width="206.16" height="188.66" rx="6.4" style="fill:#fff"></rect><path d="M412.05,223.31a7.31,7.31,0,0,0,2-.34,6.06,6.06,0,0,0,2.13-1.2A6.34,6.34,0,0,0,418,219a12.69,12.69,0,0,0,.35-4.29c0-1.6,0-3.35,0-5.25,0-3.79,0-8.17,0-13.09,0-19.71-.05-48.22-.08-83.44,0-17.61,0-36.9,0-57.62,0-2.58,0-5.2,0-7.83v-6a7.27,7.27,0,0,0-.18-1.93,6.18,6.18,0,0,0-2-3.25,6.11,6.11,0,0,0-3.57-1.44c-2.69,0-5.45,0-8.2,0h-34l-151.53,0A6.13,6.13,0,0,0,212.56,41q0,5,0,10v58.44c0,25.34,0,49.79,0,73.08q0,17.47,0,34a6.44,6.44,0,0,0,1,3.78,6.25,6.25,0,0,0,3.07,2.37,11.45,11.45,0,0,0,3.94.36h19.83l57.62,0,83.43.08,22.68,0,5.9,0,2,0-2,0-5.9,0-22.68,0L298,223.5l-57.62,0H218.55a6.57,6.57,0,0,1-2.06-.37,6.77,6.77,0,0,1-3.3-2.55,6.86,6.86,0,0,1-1.12-4q0-16.56,0-34c0-23.29,0-47.74,0-73.08V70.79Q212,61,212,51V41a6.66,6.66,0,0,1,6.68-6.64l151.53,0h34c2.76,0,5.48,0,8.23,0a6.57,6.57,0,0,1,6,5,7.94,7.94,0,0,1,.2,2V55.31c0,20.72,0,40,0,57.62,0,35.22-.07,63.73-.08,83.44,0,4.92,0,9.3,0,13.09,0,1.9,0,3.65,0,5.25a12.9,12.9,0,0,1-.38,4.32,6.48,6.48,0,0,1-1.94,2.8,6.3,6.3,0,0,1-3.64,1.47Z" style="fill:#263238"></path><path d="M263.62,155.26a22.26,22.26,0,1,0,22.26,22.25A22.25,22.25,0,0,0,263.62,155.26Zm0,34.69a12.44,12.44,0,1,1,12.44-12.44A12.44,12.44,0,0,1,263.62,190Z" style="fill:#FFC100"></path><path d="M263.62,199.77a22.25,22.25,0,0,0,22.25-21.87H276a12.42,12.42,0,0,1-24.83,0h-9.83A22.25,22.25,0,0,0,263.62,199.77Z" style="fill:#455a64"></path><path d="M263.62,155.26h-.39v9.83l.39,0a12.44,12.44,0,0,1,12.44,12.43c0,.14,0,.26,0,.39h9.83c0-.13,0-.26,0-.39A22.25,22.25,0,0,0,263.62,155.26Z" style="fill:#e0e0e0"></path><path d="M286,178H275.91v-.13a1,1,0,0,0,0-.17,1.55,1.55,0,0,0,0-.22,12.33,12.33,0,0,0-12.31-12.31h-.51V155.14h.51A22.41,22.41,0,0,1,286,177.51c0,.08,0,.16,0,.23V178Zm-9.83-.25h9.58v-.05c0-.07,0-.14,0-.22a22.16,22.16,0,0,0-22.14-22.13h-.26V165h0l.23,0a12.58,12.58,0,0,1,12.56,12.56,1.93,1.93,0,0,1,0,.24Z" style="fill:#e0e0e0"></path><path d="M276.05,177.9a12.4,12.4,0,0,1-4.49,9.18l6.13,7.68a22.23,22.23,0,0,0,8.18-16.86Z" style="fill:#263238"></path><path d="M296.44,166.3a2,2,0,1,1-2-2A2,2,0,0,1,296.44,166.3Z" style="fill:#FFC100"></path><path d="M296.44,175.25a2,2,0,1,1-2-2A2,2,0,0,1,296.44,175.25Z" style="fill:#e0e0e0"></path><path d="M296.44,184a2,2,0,1,1-2-2A2,2,0,0,1,296.44,184Z" style="fill:#455a64"></path><path d="M296.44,192.7a2,2,0,1,1-2-2A2,2,0,0,1,296.44,192.7Z" style="fill:#263238"></path><rect x="301.35" y="165.35" width="11.4" height="2" rx="0.83" style="fill:#e0e0e0"></rect><rect x="301.35" y="174.15" width="11.4" height="2" rx="0.83" style="fill:#e0e0e0"></rect><rect x="301.35" y="182.95" width="11.4" height="2" rx="0.83" style="fill:#e0e0e0"></rect><rect x="301.35" y="191.74" width="11.4" height="2" rx="0.83" style="fill:#e0e0e0"></rect><path d="M397.52,134.19H236.57V65.28h161Zm-160.59-.33H397.16V65.61H236.93Z" style="fill:#ebebeb"></path><rect x="236.75" y="122.43" width="160.59" height="0.33" style="fill:#ebebeb"></rect><rect x="236.75" y="111" width="160.59" height="0.33" style="fill:#ebebeb"></rect><rect x="236.75" y="99.57" width="160.59" height="0.33" style="fill:#ebebeb"></rect><rect x="236.75" y="88.14" width="160.59" height="0.33" style="fill:#ebebeb"></rect><rect x="236.75" y="76.71" width="160.59" height="0.33" style="fill:#ebebeb"></rect><rect x="251.97" y="87.43" width="5.29" height="46.35" style="fill:#FFC100"></rect><rect x="260.34" y="76.22" width="6.54" height="57.56" style="fill:#455a64"></rect><rect x="289" y="120.63" width="5.29" height="13.15" style="fill:#FFC100"></rect><rect x="297.37" y="93.54" width="5.29" height="40.24" style="fill:#455a64"></rect><rect x="323.54" y="67.62" width="5.29" height="66.16" style="fill:#FFC100"></rect><rect x="333.15" y="118.01" width="5.29" height="15.77" style="fill:#455a64"></rect><rect x="358.07" y="74.32" width="5.29" height="59.46" style="fill:#FFC100"></rect><rect x="366.45" y="99.6" width="5.29" height="34.18" style="fill:#455a64"></rect><rect x="383.97" y="129.17" width="5.29" height="4.62" style="fill:#FFC100"></rect><rect x="252.11" y="139.48" width="12.44" height="2.19" rx="0.83" style="fill:#e0e0e0"></rect><rect x="288.15" y="139.48" width="12.44" height="2.19" rx="0.83" style="fill:#e0e0e0"></rect><rect x="319.96" y="139.48" width="12.44" height="2.19" rx="0.83" style="fill:#e0e0e0"></rect><rect x="352.73" y="139.48" width="12.44" height="2.19" rx="0.83" style="fill:#e0e0e0"></rect><rect x="380.5" y="139.48" width="12.44" height="2.19" rx="0.83" style="fill:#e0e0e0"></rect><rect x="339.11" y="173.42" width="22.27" height="4.49" transform="translate(700.48 351.33) rotate(180)" style="fill:#FFC100"></rect><path d="M359.94,173.5a26.33,26.33,0,0,0,0,4.35,23.7,23.7,0,0,0,0-4.35Z" style="fill:#263238"></path><path d="M357.88,173.5a23.7,23.7,0,0,0,0,4.35,26.33,26.33,0,0,0,0-4.35Z" style="fill:#263238"></path><path d="M355.84,173.5a23.7,23.7,0,0,0,0,4.35,26.33,26.33,0,0,0,0-4.35Z" style="fill:#263238"></path><path d="M353.81,173.5a23.7,23.7,0,0,0,0,4.35,26.33,26.33,0,0,0,0-4.35Z" style="fill:#263238"></path><path d="M351.78,173.5a23.7,23.7,0,0,0,0,4.35,23.7,23.7,0,0,0,0-4.35Z" style="fill:#263238"></path><path d="M349.75,173.5a23.7,23.7,0,0,0,0,4.35,23.7,23.7,0,0,0,0-4.35Z" style="fill:#263238"></path><path d="M347.72,173.5a23.7,23.7,0,0,0,0,4.35,23.7,23.7,0,0,0,0-4.35Z" style="fill:#263238"></path><path d="M345.69,173.5a23.7,23.7,0,0,0,0,4.35,23.7,23.7,0,0,0,0-4.35Z" style="fill:#263238"></path><path d="M343.66,173.5a26.33,26.33,0,0,0,0,4.35,23.7,23.7,0,0,0,0-4.35Z" style="fill:#263238"></path><path d="M341.63,173.5a26.33,26.33,0,0,0,0,4.35,23.7,23.7,0,0,0,0-4.35Z" style="fill:#263238"></path><path d="M339.6,173.5a26.33,26.33,0,0,0,0,4.35,23.7,23.7,0,0,0,0-4.35Z" style="fill:#263238"></path><rect x="338.61" y="177.84" width="22.27" height="4.49" transform="translate(699.48 360.16) rotate(180)" style="fill:#FFC100"></rect><path d="M359.44,177.91a26.45,26.45,0,0,0,0,4.36,23.81,23.81,0,0,0,0-4.36Z" style="fill:#263238"></path><path d="M357.38,177.91a23.81,23.81,0,0,0,0,4.36,26.45,26.45,0,0,0,0-4.36Z" style="fill:#263238"></path><path d="M355.34,177.91a23.81,23.81,0,0,0,0,4.36,26.45,26.45,0,0,0,0-4.36Z" style="fill:#263238"></path><path d="M353.31,177.91a23.81,23.81,0,0,0,0,4.36,26.45,26.45,0,0,0,0-4.36Z" style="fill:#263238"></path><path d="M351.28,177.91a23.81,23.81,0,0,0,0,4.36,23.81,23.81,0,0,0,0-4.36Z" style="fill:#263238"></path><path d="M349.25,177.91a23.81,23.81,0,0,0,0,4.36,23.81,23.81,0,0,0,0-4.36Z" style="fill:#263238"></path><path d="M347.22,177.91a23.81,23.81,0,0,0,0,4.36,23.81,23.81,0,0,0,0-4.36Z" style="fill:#263238"></path><path d="M345.19,177.91a23.81,23.81,0,0,0,0,4.36,23.81,23.81,0,0,0,0-4.36Z" style="fill:#263238"></path><path d="M343.16,177.91a23.81,23.81,0,0,0,0,4.36,23.81,23.81,0,0,0,0-4.36Z" style="fill:#263238"></path><path d="M341.13,177.91a26.45,26.45,0,0,0,0,4.36,23.81,23.81,0,0,0,0-4.36Z" style="fill:#263238"></path><path d="M339.1,177.91a26.45,26.45,0,0,0,0,4.36,23.81,23.81,0,0,0,0-4.36Z" style="fill:#263238"></path><g style="opacity:0.30000000000000004"><path d="M360.52,177.84a81.06,81.06,0,0,1-21.56,0Z"></path></g><path d="M338.6,177.85c0,.05,5,.1,11.12.1s11.11,0,11.11-.1-5-.1-11.11-.1S338.6,177.8,338.6,177.85Z" style="fill:#263238"></path><rect x="340.72" y="182.18" width="22.27" height="4.49" transform="translate(703.71 368.85) rotate(180)" style="fill:#FFC100"></rect><path d="M361.56,182.26a23.7,23.7,0,0,0,0,4.35,26.33,26.33,0,0,0,0-4.35Z" style="fill:#263238"></path><path d="M359.49,182.26a26.33,26.33,0,0,0,0,4.35,23.7,23.7,0,0,0,0-4.35Z" style="fill:#263238"></path><path d="M357.45,182.26a23.7,23.7,0,0,0,0,4.35,23.7,23.7,0,0,0,0-4.35Z" style="fill:#263238"></path><path d="M355.42,182.26a26.33,26.33,0,0,0,0,4.35,23.7,23.7,0,0,0,0-4.35Z" style="fill:#263238"></path><path d="M353.39,182.26a26.33,26.33,0,0,0,0,4.35,23.7,23.7,0,0,0,0-4.35Z" style="fill:#263238"></path><path d="M351.36,182.26a26.33,26.33,0,0,0,0,4.35,23.7,23.7,0,0,0,0-4.35Z" style="fill:#263238"></path><path d="M349.33,182.26a26.33,26.33,0,0,0,0,4.35,23.7,23.7,0,0,0,0-4.35Z" style="fill:#263238"></path><path d="M347.3,182.26a26.33,26.33,0,0,0,0,4.35,23.7,23.7,0,0,0,0-4.35Z" style="fill:#263238"></path><path d="M345.28,182.26a23.7,23.7,0,0,0,0,4.35,26.33,26.33,0,0,0,0-4.35Z" style="fill:#263238"></path><path d="M343.25,182.26a23.7,23.7,0,0,0,0,4.35,26.33,26.33,0,0,0,0-4.35Z" style="fill:#263238"></path><path d="M341.22,182.26a23.7,23.7,0,0,0,0,4.35,26.33,26.33,0,0,0,0-4.35Z" style="fill:#263238"></path><g style="opacity:0.30000000000000004"><path d="M362.63,182.19a81.41,81.41,0,0,1-21.55,0Z"></path></g><path d="M340.72,182.2c0,.05,5,.09,11.11.09s11.11,0,11.11-.09-5-.1-11.11-.1S340.72,182.14,340.72,182.2Z" style="fill:#263238"></path><rect x="338.11" y="186.64" width="22.27" height="4.32" transform="translate(698.49 377.6) rotate(180)" style="fill:#FFC100"></rect><path d="M359,186.71a22,22,0,0,0,0,4.19,24.43,24.43,0,0,0,0-4.19Z" style="fill:#263238"></path><path d="M356.88,186.71a24.43,24.43,0,0,0,0,4.19,22,22,0,0,0,0-4.19Z" style="fill:#263238"></path><path d="M354.84,186.71a24.43,24.43,0,0,0,0,4.19,22,22,0,0,0,0-4.19Z" style="fill:#263238"></path><path d="M352.81,186.71a24.43,24.43,0,0,0,0,4.19,22,22,0,0,0,0-4.19Z" style="fill:#263238"></path><path d="M350.78,186.71a24.43,24.43,0,0,0,0,4.19,22,22,0,0,0,0-4.19Z" style="fill:#263238"></path><path d="M348.76,186.71a22,22,0,0,0,0,4.19,24.43,24.43,0,0,0,0-4.19Z" style="fill:#263238"></path><path d="M346.73,186.71a22,22,0,0,0,0,4.19,24.43,24.43,0,0,0,0-4.19Z" style="fill:#263238"></path><path d="M344.7,186.71a22,22,0,0,0,0,4.19,24.43,24.43,0,0,0,0-4.19Z" style="fill:#263238"></path><path d="M342.67,186.71a22,22,0,0,0,0,4.19,24.43,24.43,0,0,0,0-4.19Z" style="fill:#263238"></path><path d="M340.64,186.71a22,22,0,0,0,0,4.19,24.43,24.43,0,0,0,0-4.19Z" style="fill:#263238"></path><path d="M338.61,186.71a22,22,0,0,0,0,4.19,22,22,0,0,0,0-4.19Z" style="fill:#263238"></path><g style="opacity:0.30000000000000004"><path d="M360,186.64a63.64,63.64,0,0,1-21.55,0Z"></path></g><path d="M338.11,186.65c0,.06,5,.1,11.11.1s11.11,0,11.11-.1-5-.09-11.11-.09S338.11,186.6,338.11,186.65Z" style="fill:#263238"></path><rect x="339.55" y="190.96" width="22.27" height="4.32" transform="translate(701.36 386.24) rotate(180)" style="fill:#FFC100"></rect><path d="M360.38,191a22,22,0,0,0,0,4.19,22,22,0,0,0,0-4.19Z" style="fill:#263238"></path><path d="M358.32,191a22,22,0,0,0,0,4.19,24.43,24.43,0,0,0,0-4.19Z" style="fill:#263238"></path><ellipse cx="356.27" cy="193.12" rx="0.1" ry="2.09" style="fill:#263238"></ellipse><path d="M354.25,191a22,22,0,0,0,0,4.19,24.43,24.43,0,0,0,0-4.19Z" style="fill:#263238"></path><path d="M352.22,191a22,22,0,0,0,0,4.19,24.43,24.43,0,0,0,0-4.19Z" style="fill:#263238"></path><path d="M350.19,191a22,22,0,0,0,0,4.19,24.43,24.43,0,0,0,0-4.19Z" style="fill:#263238"></path><path d="M348.16,191a22,22,0,0,0,0,4.19,24.43,24.43,0,0,0,0-4.19Z" style="fill:#263238"></path><path d="M346.13,191a22,22,0,0,0,0,4.19,24.43,24.43,0,0,0,0-4.19Z" style="fill:#263238"></path><path d="M344.1,191a22,22,0,0,0,0,4.19,22,22,0,0,0,0-4.19Z" style="fill:#263238"></path><path d="M342.07,191a22,22,0,0,0,0,4.19,22,22,0,0,0,0-4.19Z" style="fill:#263238"></path><path d="M340,191a22,22,0,0,0,0,4.19,22,22,0,0,0,0-4.19Z" style="fill:#263238"></path><g style="opacity:0.30000000000000004"><path d="M361.45,191a56.21,56.21,0,0,1-21.55,0Z"></path></g><path d="M339.54,191c0,.06,5,.1,11.11.1s11.12,0,11.12-.1-5-.09-11.12-.09S339.54,190.92,339.54,191Z" style="fill:#263238"></path><rect x="338.27" y="195.22" width="22.27" height="4.32" transform="translate(698.81 394.75) rotate(180)" style="fill:#FFC100"></rect><path d="M359.11,195.29a22,22,0,0,0,0,4.19,24.43,24.43,0,0,0,0-4.19Z" style="fill:#263238"></path><path d="M357,195.29a24.43,24.43,0,0,0,0,4.19,22,22,0,0,0,0-4.19Z" style="fill:#263238"></path><path d="M355,195.29a24.43,24.43,0,0,0,0,4.19,22,22,0,0,0,0-4.19Z" style="fill:#263238"></path><path d="M353,195.29a24.43,24.43,0,0,0,0,4.19,22,22,0,0,0,0-4.19Z" style="fill:#263238"></path><path d="M350.94,195.29a24.43,24.43,0,0,0,0,4.19,22,22,0,0,0,0-4.19Z" style="fill:#263238"></path><path d="M348.91,195.29a24.43,24.43,0,0,0,0,4.19,22,22,0,0,0,0-4.19Z" style="fill:#263238"></path><path d="M346.89,195.29a22,22,0,0,0,0,4.19,24.43,24.43,0,0,0,0-4.19Z" style="fill:#263238"></path><path d="M344.86,195.29a22,22,0,0,0,0,4.19,24.43,24.43,0,0,0,0-4.19Z" style="fill:#263238"></path><path d="M342.83,195.29a22,22,0,0,0,0,4.19,24.43,24.43,0,0,0,0-4.19Z" style="fill:#263238"></path><path d="M340.8,195.29a22,22,0,0,0,0,4.19,24.43,24.43,0,0,0,0-4.19Z" style="fill:#263238"></path><path d="M338.77,195.29a22,22,0,0,0,0,4.19,24.43,24.43,0,0,0,0-4.19Z" style="fill:#263238"></path><g style="opacity:0.30000000000000004"><path d="M360.18,195.22a63.64,63.64,0,0,1-21.55,0Z"></path></g><path d="M338.27,195.23c0,.06,5,.1,11.11.1s11.11,0,11.11-.1-5-.09-11.11-.09S338.27,195.18,338.27,195.23Z" style="fill:#263238"></path><path d="M360.54,199.54a.28.28,0,0,1,0-.08v-.22c0-.2,0-.48,0-.84,0-.74,0-1.8,0-3.12v-.05h1.28l-.06.06c0-1.26,0-2.72,0-4.32l.07.06h-1.5V191c0-1.34,0-2.78,0-4.29v-.07h2.68l-.07.07V182.1l.07.07h-2.18v-.06c0-1.56,0-3,0-4.19v0h.59l-.05,0c0-1.39,0-2.5,0-3.28,0-.38,0-.68,0-.89v-.23a.17.17,0,0,1,0-.07.42.42,0,0,0,0,.07v.23c0,.21,0,.51,0,.89,0,.77,0,1.89.05,3.28V178h-.59l.05-.05c0,1.22,0,2.63,0,4.19l-.06-.07H363v.07c0,1.44,0,3,0,4.57v.07h-2.69l.08-.07c0,1.51,0,3,0,4.29l-.07-.07h1.5V191c0,1.6,0,3.06,0,4.32v.05h-1.28l0-.05c0,1.32,0,2.38,0,3.12,0,.36,0,.64,0,.84v.22A.45.45,0,0,0,360.54,199.54Z" style="fill:#263238"></path><path d="M371.55,167.91H387.2a.73.73,0,0,0,.52-1.24l-7.82-8a.74.74,0,0,0-1,0l-7.82,8A.73.73,0,0,0,371.55,167.91Z" style="fill:#e0e0e0"></path><rect x="374.57" y="166.42" width="10.04" height="32.63" style="fill:#e0e0e0"></rect><path d="M347.35,162.39a3.68,3.68,0,0,1,1.19,2.85,4.13,4.13,0,0,1-.59,2.14,4.19,4.19,0,0,1-1.82,1.58,6.81,6.81,0,0,1-3.06.61,12,12,0,0,1-2.52-.28,7.86,7.86,0,0,1-2.19-.83l1.36-3.07a6.42,6.42,0,0,0,1.58.67,5.86,5.86,0,0,0,1.62.23,2.2,2.2,0,0,0,1.13-.25.78.78,0,0,0,.44-.72.72.72,0,0,0-.39-.66,3.29,3.29,0,0,0-1.42-.22h-3.47l.6-7.48h7.94v3.13h-4.63l-.08,1.22h.61A5.36,5.36,0,0,1,347.35,162.39Z" style="fill:#FFC100"></path><path d="M352,168.8a5.11,5.11,0,0,1-1.92-2.22,9,9,0,0,1,0-6.92,5.11,5.11,0,0,1,1.92-2.22,5.18,5.18,0,0,1,7.53,2.22,9,9,0,0,1,0,6.92A5.31,5.31,0,0,1,352,168.8Zm4.17-5.68c0-2.08-.45-3.11-1.36-3.11s-1.37,1-1.37,3.11.46,3.12,1.37,3.12S356.12,165.2,356.12,163.12Z" style="fill:#FFC100"></path><path d="M263.91,179.06H263v1.23H261.7v-1.23h-3.05v-.91l2.67-3.71h1.38L260.22,178h1.53v-1.1H263V178h.92Z" style="fill:#263238"></path><path d="M268,177.13a1.66,1.66,0,0,1,.57,1.32,1.88,1.88,0,0,1-.26,1,1.83,1.83,0,0,1-.79.71,3,3,0,0,1-1.31.26,4.72,4.72,0,0,1-1.18-.16,3.08,3.08,0,0,1-1-.47l.52-1a2.46,2.46,0,0,0,.74.38,2.56,2.56,0,0,0,.87.14,1.29,1.29,0,0,0,.78-.2.7.7,0,0,0,0-1.13,2,2,0,0,0-1-.19h-1.45l.29-3.29h3.46v1.09h-2.36l-.09,1.11h.46A2.65,2.65,0,0,1,268,177.13Z" style="fill:#263238"></path><path d="M361.82,159.56a1.35,1.35,0,0,1,0-1.59.95.95,0,0,1,1.4,0,1.18,1.18,0,0,1,.26.8,1.2,1.2,0,0,1-.26.8.89.89,0,0,1-.7.3A.87.87,0,0,1,361.82,159.56Zm1.06-.28a.84.84,0,0,0,.13-.51.85.85,0,0,0-.13-.52.4.4,0,0,0-.36-.18.43.43,0,0,0-.36.18.89.89,0,0,0-.13.52.88.88,0,0,0,.13.51.44.44,0,0,0,.36.19A.41.41,0,0,0,362.88,159.28Zm2.05-1.58h.56l-2.74,4h-.56Zm-.47,3.76a1.17,1.17,0,0,1-.27-.8,1.16,1.16,0,0,1,.27-.8.86.86,0,0,1,.69-.3.89.89,0,0,1,.7.3,1.15,1.15,0,0,1,.26.8,1.17,1.17,0,0,1-.26.8.89.89,0,0,1-.7.3A.86.86,0,0,1,364.46,161.46Zm1.05-.29a.84.84,0,0,0,.13-.51.89.89,0,0,0-.13-.52.45.45,0,0,0-.72,0,.87.87,0,0,0-.13.52.84.84,0,0,0,.13.51.44.44,0,0,0,.72,0Z" style="fill:#FFC100"></path><path d="M230.58,47.9a2.61,2.61,0,1,1-2.6-2.61A2.6,2.6,0,0,1,230.58,47.9Z" style="fill:#263238"></path><path d="M237.86,47.9a2.61,2.61,0,1,1-2.61-2.61A2.61,2.61,0,0,1,237.86,47.9Z" style="fill:#263238"></path><path d="M245.13,47.9a2.61,2.61,0,1,1-2.61-2.61A2.61,2.61,0,0,1,245.13,47.9Z" style="fill:#263238"></path></g><g id="freepik--speech-bubble--inject-20"><path d="M88.58,180.5l-3.43-6a23.15,23.15,0,1,0-4,7.25h0Z" style="fill:#fff"></path><path d="M88.58,180.5a2.49,2.49,0,0,1-.45.1l-1.41.26-5.57,1a.1.1,0,0,1-.12-.09s0,0,0-.06v0l.19.12a23.05,23.05,0,0,1-9.11,6.84,22.82,22.82,0,0,1-7.23,1.7,23.12,23.12,0,0,1-16.5-5.26,23.22,23.22,0,0,1-5.71-28.93,23,23,0,0,1,7.54-8.36A23.66,23.66,0,0,1,60.27,144a23.33,23.33,0,0,1,25.91,19.22,23,23,0,0,1-.93,11.3v-.09L87.76,179l.62,1.15.2.38s-.09-.14-.25-.4L87.65,179c-.61-1-1.47-2.51-2.6-4.42a.14.14,0,0,1,0-.09,22.95,22.95,0,0,0-6.85-24.59,23,23,0,0,0-17.87-5.37,23.25,23.25,0,0,0-9.83,3.74,22.59,22.59,0,0,0-7.36,8.17A22.85,22.85,0,0,0,64.86,190,22.59,22.59,0,0,0,72,188.32a23,23,0,0,0,9.06-6.66.11.11,0,0,1,.16,0,.12.12,0,0,1,0,.14h0l-.12-.16,5.51-.85,1.44-.21Z" style="fill:#263238"></path><path d="M56.8,167.12a2.35,2.35,0,1,1-2.34-2.35A2.34,2.34,0,0,1,56.8,167.12Z" style="fill:#263238"></path><path d="M66.19,167.12a2.35,2.35,0,1,1-2.35-2.35A2.35,2.35,0,0,1,66.19,167.12Z" style="fill:#263238"></path><path d="M75.55,165.94a2.35,2.35,0,1,1-3.2-.86A2.34,2.34,0,0,1,75.55,165.94Z" style="fill:#263238"></path></g><g id="freepik--character-1--inject-20"><path d="M217.54,212.51a34.34,34.34,0,0,1-1.36,6.73c-.87,2.13-2.18,2.88-2.13,6.18s-.06,6.84-.06,6.84-4.85,6.83-4.53,6.86,8.7,8.14,8.7,8.14l7.87-12.9,11.34-12.24,2.73-11.65-.7-.69,0-2.14s-1.75-1.92-3,.31c0,0-.56-2.76-2.8-.08s-5.83,9-6.2,9.19-4.86,3.74-4.86,3.74l-2.55.51a6.83,6.83,0,0,0,1.39-4c-.08-2.12.81-3.72-.77-4.94A2.44,2.44,0,0,0,217.54,212.51Z" style="fill:#ffbf9d"></path><path d="M221.43,228.25a5.36,5.36,0,0,0,.69-.6,13.19,13.19,0,0,1,2.07-1.36,35.69,35.69,0,0,1,7.87-2.85l.08,0,.05-.06,1.19-1.49.59-.73.05-.07V221c0-1.28,0-2.52.07-3.69a2.29,2.29,0,0,1,.42-1.45,1.38,1.38,0,0,1,1.21-.46l-.15-.13c1.08,3.41,2,5.58,2.11,5.52s-.19-.55-.5-1.53-.74-2.39-1.25-4.1l0-.12-.12,0a1.82,1.82,0,0,0-1.59.57,2.71,2.71,0,0,0-.54,1.72c0,1.16-.06,2.39-.09,3.67l.05-.13-.59.73-1.19,1.49L232,223a31.53,31.53,0,0,0-7.92,3,11,11,0,0,0-2,1.5A2.64,2.64,0,0,0,221.43,228.25Z" style="fill:#ff9a6c"></path><path d="M230.44,218.35a38.2,38.2,0,0,0,3.08-5.14,40.74,40.74,0,0,0,2.67-5.37,38.2,38.2,0,0,0-3.08,5.14A40.06,40.06,0,0,0,230.44,218.35Z" style="fill:#ff9a6c"></path><path d="M236.4,215c.06,0,.17-.35.31-.93a12.4,12.4,0,0,1,.7-2.17,4.73,4.73,0,0,1,1.37-1.72c.46-.34.82-.46.8-.53s-.41-.05-1,.25a4,4,0,0,0-1.61,1.81,7.24,7.24,0,0,0-.61,2.3C236.33,214.59,236.34,215,236.4,215Z" style="fill:#ff9a6c"></path><path d="M226.84,218.52a8.17,8.17,0,0,1,5.66,2.71c.05,0-.09-.39-.47-.87a5.62,5.62,0,0,0-4.22-2C227.2,218.35,226.83,218.46,226.84,218.52Z" style="fill:#ff9a6c"></path><rect x="146.29" y="365.5" width="10.97" height="58.66" transform="translate(303.56 789.66) rotate(180)" style="fill:#e0e0e0"></rect><path d="M191,356.06c-.18,0-33.75,10.53-33.75,10.53h-11l-38.48-10.53Z" style="fill:#e0e0e0"></path><path d="M198.35,445s-5.07-15.49-12.07-19.24c-11.24-6-37.14-8.9-37.14-8.9l-2.85,7.33s34.56,1.36,40,8.33A145.52,145.52,0,0,1,195,445Z" style="fill:#e0e0e0"></path><circle cx="194.06" cy="447.85" r="7.34" transform="translate(-259.84 268.39) rotate(-45)" style="fill:#263238"></circle><path d="M104.7,444.67s5.07-15.49,12.07-19.24c11.24-6,37.15-8.9,37.15-8.9l2.84,7.33s-34.55,1.36-40,8.33a145.52,145.52,0,0,0-8.68,12.48Z" style="fill:#e0e0e0"></path><circle cx="106.7" cy="447.85" r="7.34" transform="translate(-285.42 206.62) rotate(-45)" style="fill:#263238"></circle><polyline points="155.56 420.76 153.95 440.69 149.42 441.59 149.42 420.76" style="fill:#e0e0e0"></polyline><circle cx="151.31" cy="447.85" r="7.34" transform="translate(-319.28 492.57) rotate(-76.76)" style="fill:#263238"></circle><path d="M146.55,366.82a29,29,0,0,0,5.23.24,28.9,28.9,0,0,0,5.22-.24,30.69,30.69,0,0,0-5.22-.23A30.76,30.76,0,0,0,146.55,366.82Z" style="fill:#263238"></path><path d="M146.34,418.07a11.24,11.24,0,0,0,10.57.28,23,23,0,0,1-5.31.71A22.64,22.64,0,0,1,146.34,418.07Z" style="fill:#263238"></path><path d="M98.12,196.41h74.49a11.51,11.51,0,0,1,11.51,11.51V321.56a23,23,0,0,1-23,23H109.63a23,23,0,0,1-23-23V207.92A11.51,11.51,0,0,1,98.12,196.41Z" transform="translate(270.72 541) rotate(180)" style="fill:#455a64"></path><rect x="86.61" y="342.01" width="116.28" height="14.05" rx="6.04" transform="translate(289.49 698.07) rotate(180)" style="fill:#455a64"></rect><path d="M186.19,341.94c0-.14-21.45-.26-47.92-.26s-47.92.12-47.92.26,21.45.25,47.92.25S186.19,342.08,186.19,341.94Z" style="fill:#263238"></path><path d="M212.62,416.41l-5.49,20.29s18.21,12.56,17.55,16.41l-38.63-9.53,7.28-32Z" style="fill:#455a64"></path><path d="M195.58,432a1.64,1.64,0,0,0-1.52,1.58,1.59,1.59,0,0,0,1.51,1.57,1.75,1.75,0,0,0,1.61-1.69c-.08-.82-1-1.66-1.75-1.45" style="fill:#e0e0e0"></path><path d="M186.05,443.58l.85-3.2,36.72,10.33s1.55,1.2,1.06,2.4Z" style="fill:#263238"></path><path d="M207.8,436.66c-.05.19-1,0-2.09.44s-1.75,1.09-1.91,1,.39-1.17,1.69-1.63S207.89,436.49,207.8,436.66Z" style="fill:#fff"></path><path d="M211.45,439.38c0,.2-.89.33-1.72,1s-1.22,1.48-1.41,1.43,0-1.18,1-2S211.49,439.19,211.45,439.38Z" style="fill:#fff"></path><path d="M212.59,444.94c-.18,0-.22-1,.52-2s1.71-1.15,1.75-1-.64.62-1.22,1.4S212.78,445,212.59,444.94Z" style="fill:#fff"></path><path d="M208.55,431.89c-.12.16-.92-.32-2-.51s-2-.05-2.06-.24.9-.69,2.18-.45S208.68,431.76,208.55,431.89Z" style="fill:#fff"></path><path d="M178.61,429.28l4.08,25.13,8.8,18.92a2.64,2.64,0,0,1-1.35,3.55h0a2.49,2.49,0,0,1-2.32-.23c-4.39-2.94-20.17-14.08-20.5-15.4-.53-2.09-6.2-26.49-6.2-26.49Z" style="fill:#455a64"></path><path d="M190.14,476.88l-23.33-17.59.2,1.06a4.19,4.19,0,0,0,1.35,2.33c1.9,1.56,7.21,5.76,19.39,14a2.49,2.49,0,0,0,2.39.21Z" style="fill:#263238"></path><g style="opacity:0.6000000000000001"><path d="M170.31,450.23a1.6,1.6,0,0,1,.79,1.95,1.47,1.47,0,0,1-1.87.82,1.69,1.69,0,0,1-.82-2.06,1.51,1.51,0,0,1,2-.64" style="fill:#fff"></path></g><path d="M182.55,467a8,8,0,0,1,1.77-2.37,7.6,7.6,0,0,1,2.7-1.1c0-.06-.33-.2-.92-.17a4,4,0,0,0-2.11.82,4.17,4.17,0,0,0-1.35,1.86C182.45,466.65,182.48,467,182.55,467Z" style="fill:#fff"></path><path d="M184.9,470.05c.14.08.77-.88,2-1.5a18.55,18.55,0,0,1,2.32-.78,2.77,2.77,0,0,0-2.57.28C185.26,468.76,184.76,470,184.9,470.05Z" style="fill:#fff"></path><path d="M178.53,463.37a25.21,25.21,0,0,1,2.86-2.52,23.78,23.78,0,0,1,3.45-1.57,5.49,5.49,0,0,0-3.74,1.1A5.72,5.72,0,0,0,178.53,463.37Z" style="fill:#fff"></path><path d="M176.67,455.84c.09.14,1.33-.71,3.06-1.11s3.21-.25,3.23-.42a6.16,6.16,0,0,0-6.29,1.53Z" style="fill:#fff"></path><path d="M175.29,448.49a12.06,12.06,0,0,1,3.16-1.24,12.18,12.18,0,0,1,3.38.2c0-.06-.29-.32-.91-.55a5.38,5.38,0,0,0-4.92.79C175.47,448.09,175.24,448.44,175.29,448.49Z" style="fill:#fff"></path><path d="M178.15,445.86a2.41,2.41,0,0,0-.14-1,7,7,0,0,0-1.19-2.33,2.91,2.91,0,0,0-1.48-1.16,1,1,0,0,0-1.08.45,1.72,1.72,0,0,0-.18,1.21,3.61,3.61,0,0,0,3.71,2.75,4.2,4.2,0,0,0,3.61-3,1.52,1.52,0,0,0-.16-1.22,1,1,0,0,0-1.13-.34,3.6,3.6,0,0,0-1.44,1.17,7.42,7.42,0,0,0-1.3,2.27,2.38,2.38,0,0,0-.22.94,12.14,12.14,0,0,1,1.8-2.94,3.34,3.34,0,0,1,1.29-1,.5.5,0,0,1,.61.18,1,1,0,0,1,.06.81,3.73,3.73,0,0,1-3.16,2.55,3.12,3.12,0,0,1-3.18-2.29,1.23,1.23,0,0,1,.09-.84.55.55,0,0,1,.6-.26,2.61,2.61,0,0,1,1.26.95A9.79,9.79,0,0,1,178.15,445.86Z" style="fill:#fff"></path><path d="M187.44,309.73h0c7.36,3.94,36,20.48,43.74,25.5,5.64,3.67,9.1,13.62,7.31,19.83-7.46,25.76-28.64,78.07-28.64,78.07l-24.41-3.07,17.06-73L168,340.84l-33.66-33.42Z" style="fill:#263238"></path><path d="M147.15,311.28s30.65,35.86,31.29,43.24c.86,10,9,98,9,98l-25.56,3.85-19.63-90.84-24-28L115.19,322l3.36-16.3Z" style="fill:#263238"></path><path d="M155.46,322a2,2,0,0,0,.2.29l.63.84,2.46,3.19c2.13,2.78,5.24,6.78,9,11.77,1.89,2.5,4,5.24,6.09,8.23,1.06,1.5,2.17,3,3.18,4.71a7.24,7.24,0,0,1,.88,2.74c.19,1,.32,2,.46,3,1,8.21,1.61,17.29,2.4,26.81.41,4.76.8,9.4,1.18,13.89s.85,8.81,1.25,12.93c.8,8.23,1.53,15.65,2.14,21.88s1.13,11.24,1.48,14.75c.19,1.72.33,3.07.43,4,.05.44.1.78.13,1a1.71,1.71,0,0,0,.06.36,2.46,2.46,0,0,0,0-.36c0-.26,0-.61-.08-1.05-.07-.95-.19-2.29-.33-4-.31-3.51-.77-8.55-1.32-14.76s-1.27-13.66-2-21.89c-.39-4.13-.8-8.45-1.22-12.93s-.77-9.14-1.17-13.9c-.8-9.51-1.43-18.59-2.45-26.82-.14-1-.27-2-.47-3a15,15,0,0,0-.33-1.48,4.43,4.43,0,0,0-.62-1.4c-1-1.69-2.15-3.23-3.22-4.73-2.16-3-4.23-5.71-6.14-8.2-3.81-5-7-8.93-9.15-11.67l-2.53-3.13-.67-.81C155.55,322.1,155.47,322,155.46,322Z" style="fill:#455a64"></path><path d="M211.37,349a39.84,39.84,0,0,0-5,4.31,41.72,41.72,0,0,0-4.6,4.68,41.59,41.59,0,0,0,5-4.31A44,44,0,0,0,211.37,349Z" style="fill:#455a64"></path><path d="M165.4,218.39s7.94.72,11.39,5.43c4.05,5.52,22.83,30.62,22.83,30.62l13.82-22.56,14.31,7.2S214.44,273.91,209.22,277s-12.16,3.36-15.3,0-20.41-26-20.41-26Z" style="fill:#263238"></path><polygon points="185.74 309.07 153.57 217.53 149.21 212.15 125.03 209.03 120.92 220.6 134.36 309.8 185.74 309.07" style="fill:#fafafa"></polygon><path d="M156.52,288.56a2,2,0,0,0,0-.58c0-.44,0-1,0-1.67s-.08-1.6-.16-2.63-.16-2.19-.31-3.47c-.51-5.15-1.6-12.21-3.18-19.93s-3.29-14.66-4.58-19.66c-.64-2.51-1.19-4.52-1.57-5.91-.19-.65-.34-1.18-.46-1.6a1.91,1.91,0,0,0-.2-.55,3.43,3.43,0,0,0,.1.57c.09.43.21,1,.36,1.63l1.42,5.94c1.2,5,2.85,12,4.43,19.68s2.72,14.75,3.32,19.87c.17,1.28.29,2.44.39,3.46s.19,1.9.24,2.62l.15,1.65A2.73,2.73,0,0,0,156.52,288.56Z" style="fill:#263238"></path><path d="M186.43,296.32c0-.95-10.91-66.19-10.91-66.19l-1.73-5.08a12.28,12.28,0,0,0-8.44-7.25l-11.25-2.75-4.75-3.68-.21,2.22,5,16.13,20.38,66.75Z" style="fill:#263238"></path><path d="M137.73,294.55c0-1.89,1.78-15.93.58-27.09-.88-8.23-3.24-22.33-5-32.35a86.56,86.56,0,0,0-7-22l-2-4.27-4.2,6.7-18.18,7.19,6.86,71.84Z" style="fill:#263238"></path><polygon points="101.92 296.68 91.93 332.76 132.52 343.91 135.83 293.34 101.92 296.68" style="fill:#263238"></polygon><path d="M101.92,296.68a.7.7,0,0,0-.06.16c0,.14-.1.3-.16.5-.14.47-.33,1.12-.58,2-.49,1.74-1.21,4.23-2.11,7.38-1.79,6.37-4.31,15.37-7.3,26l-.06.22.22.06,26.67,7.35,13.91,3.82.3.08,0-.31c.91-14.47,1.71-27.1,2.28-36.15.26-4.49.47-8.09.62-10.6.06-1.21.11-2.16.14-2.84,0-.31,0-.55,0-.74a1,1,0,0,0,0-.25,1.53,1.53,0,0,0,0,.25c0,.19-.05.43-.07.73-.06.68-.14,1.63-.23,2.84-.19,2.51-.45,6.1-.77,10.59-.62,9-1.48,21.67-2.46,36.14l.31-.22-13.91-3.83L92,332.53l.16.29c2.91-10.67,5.38-19.69,7.12-26.08.85-3.16,1.52-5.66,2-7.41.22-.84.39-1.49.51-2l.12-.51C101.92,296.74,101.93,296.68,101.92,296.68Z" style="fill:#455a64"></path><path d="M143,279.7l-31.86-2.43-.93-34.66-7.23-20.3A19,19,0,0,0,91.44,240c-.27,13.58-.63,42.44,1.76,51,.08.3.18.6.28.89A14,14,0,0,0,108.67,301l37.08-5Z" style="fill:#263238"></path><path d="M109.72,244.45a3.37,3.37,0,0,0,0,.66q0,.72,0,1.89c0,1.7.12,4.05.21,6.94.22,5.91.53,14,.88,22.89v.68h.23l22.55,1.75,6.82.48,1.86.1a2.71,2.71,0,0,0,.65,0,3,3,0,0,0-.64-.1l-1.85-.2-6.81-.63L111.11,277l.23.25v-.45c-.4-8.91-.77-17-1-22.89-.16-2.88-.28-5.23-.37-6.93-.05-.78-.1-1.4-.13-1.89A2.56,2.56,0,0,0,109.72,244.45Z" style="fill:#455a64"></path><path d="M102.94,224.5a32.9,32.9,0,0,1,4.27,6.4,32.69,32.69,0,0,1,2.15,7.39,7,7,0,0,0-.1-2.29,19.15,19.15,0,0,0-4.63-9.95A7.33,7.33,0,0,0,102.94,224.5Z" style="fill:#455a64"></path><path d="M119.66,216.67a2.17,2.17,0,0,0,0,.56c0,.37.06.91.14,1.6.15,1.39.41,3.4.86,5.89a95.05,95.05,0,0,0,5.57,19.07l.08.19.2,0,2.52-.45,1.21-.22-.24-.42c-1.29,1.54-2.66,3.22-2.85,5.28a6.1,6.1,0,0,0,.5,2.86c.35.87.76,1.67,1.12,2.47l4,8.42c1.12,2.34,2,4.25,2.7,5.64l.76,1.52a2.08,2.08,0,0,0,.29.51,2.16,2.16,0,0,0-.2-.55c-.18-.41-.4-.92-.67-1.56l-2.55-5.71c-1.11-2.42-2.41-5.29-3.86-8.47-.68-1.59-1.73-3.25-1.56-5.09s1.46-3.46,2.75-5l.46-.54-.7.13L129,243l-2.52.46.28.16a102.17,102.17,0,0,1-5.7-18.95c-.49-2.46-.81-4.46-1-5.84-.1-.65-.18-1.17-.24-1.59A2,2,0,0,0,119.66,216.67Z" style="fill:#455a64"></path><path d="M167.13,264.86a1.76,1.76,0,0,0,.05-.53c0-.35,0-.86,0-1.51,0-1.31-.09-3.21-.32-5.55a137.3,137.3,0,0,0-3.24-18c-.83-3.48-1.59-6.8-2.43-9.79a52.85,52.85,0,0,0-2.75-7.78,29.25,29.25,0,0,0-2.73-4.85,15,15,0,0,0-.92-1.21,2.91,2.91,0,0,0-.35-.39s.4.61,1.1,1.71a34.35,34.35,0,0,1,2.57,4.88,56.86,56.86,0,0,1,2.62,7.76c.81,3,1.56,6.31,2.39,9.79a158.57,158.57,0,0,1,3.38,17.95c.28,2.32.4,4.21.48,5.51,0,.61.06,1.11.08,1.51A4,4,0,0,0,167.13,264.86Z" style="fill:#455a64"></path><path d="M102.8,284.53a18.1,18.1,0,0,1,3.69-4.58,17.81,17.81,0,0,1,5.21-2.72,4.18,4.18,0,0,0-1.75.28,11.4,11.4,0,0,0-6.53,5.35A4.21,4.21,0,0,0,102.8,284.53Z" style="fill:#455a64"></path><polygon points="144.71 234.58 147.42 298.31 155.46 312.91 160.82 296.06 147.85 234.02 144.71 234.58" style="fill:#FFC100"></polygon><path d="M212.72,255.51c-.12.37-22.39,49-22.39,49H149.14l18.12-45.94s14.1,1.83,26.63.79A87.94,87.94,0,0,0,212.72,255.51Z" style="fill:#e0e0e0"></path><path d="M212.72,255.51a.78.78,0,0,1-.19.09l-.6.21c-.53.17-1.31.42-2.34.72a89.68,89.68,0,0,1-9.09,2.09c-7.92,1.51-19.53,1.69-33.27.15l.24-.13-18,45.81-.05.13-.25-.35,41.19,0-.22.14c13.31-28.76,21.75-47,22.61-48.88-.84,1.87-9.13,20.2-22.18,49.07l-.06.14h-.15l-41.19,0h-.38l.14-.36.06-.13c6.65-16.83,12.86-32.55,18.1-45.79l.06-.16.17,0c13.69,1.58,25.27,1.47,33.17,0,3.95-.66,7-1.43,9.09-2l2.36-.66.61-.18Z" style="fill:#263238"></path><path d="M142.91,280l2.8.17s9.28-8.63,10.61-8.63a34.55,34.55,0,0,1,5.36,1.15l-1.13,2.86s6.83-.36,8.9,0,4.5,1.46,3.65,4c0,0,1.7,2.8-1.83,4.13,0,0,.84,1.49-1.23,2.84a6.33,6.33,0,0,1-1.08.57c-3.4,1.46-3.16,1.75-3.16,1.75a4.83,4.83,0,0,1-1.33,2.75c-1.22,1.21-8.07,3.82-11.82,4a23.13,23.13,0,0,1-7.14-1Z" style="fill:#ffbf9d"></path><path d="M152.69,275.55a16.38,16.38,0,0,0,4,.25,16.41,16.41,0,0,0,4-.27,16.05,16.05,0,0,0-4-.24A16,16,0,0,0,152.69,275.55Z" style="fill:#ff9a6c"></path><path d="M154.47,280.87a16.31,16.31,0,0,0,2.71-.1l6.51-.44,6.51-.34a16.13,16.13,0,0,0,2.7-.21,12.68,12.68,0,0,0-2.71-.15c-1.67,0-4,0-6.53.19s-4.86.38-6.52.59A13.26,13.26,0,0,0,154.47,280.87Z" style="fill:#ff9a6c"></path><path d="M158.37,285.76a44.37,44.37,0,0,0,6.68-.69,44.64,44.64,0,0,0,6.61-1.19,45.26,45.26,0,0,0-6.69.68A43.84,43.84,0,0,0,158.37,285.76Z" style="fill:#ff9a6c"></path><path d="M159.09,289.82a14.31,14.31,0,0,0,7-1.19,19.34,19.34,0,0,0-3.49.52A21,21,0,0,0,159.09,289.82Z" style="fill:#ff9a6c"></path><g style="opacity:0.30000000000000004"><polygon points="193.06 312.92 202.93 318.58 94.63 323.01 97.43 312.91 193.06 312.92"></polygon></g><polygon points="144.71 234.58 142.48 231.75 144.14 226.98 146.75 226.98 148.86 231.32 147.85 234.02 144.71 234.58" style="fill:#FFC100"></polygon><path d="M153.51,226.26a1.77,1.77,0,0,1-.09.53,8.82,8.82,0,0,1-.52,1.45,10.47,10.47,0,0,1-3.57,4.27l-.22.15-.09-.26a31,31,0,0,0-1.54-3.75,8.86,8.86,0,0,0-2.9-3.45l.39-.15c-.24.86-.5,1.75-.79,2.66a66.49,66.49,0,0,1-2.47,6.56l-.12.28-.24-.18a61,61,0,0,1-6.66-5.71c-.77-.76-1.35-1.39-1.74-1.82a3.39,3.39,0,0,1-.56-.71,3.86,3.86,0,0,1,.67.6l1.83,1.71a76,76,0,0,0,6.75,5.54l-.37.1c.83-2,1.67-4.18,2.42-6.53.28-.9.55-1.79.78-2.63l.1-.35.29.2a9.18,9.18,0,0,1,3,3.66,29.42,29.42,0,0,1,1.51,3.84l-.31-.11a10.79,10.79,0,0,0,3.59-4C153.29,227,153.45,226.24,153.51,226.26Z" style="fill:#263238"></path><path d="M155.55,151.46c-4-.76-7.73,3.19-11.82,2.85-2.49-.2-4.55-1.95-6.85-2.91a12.58,12.58,0,0,0-11.18.81c-3.12,2-5,4.08-5.09,7.82-3.2-1.4-7.81,2.95-9.11,6.8s-.45,7.58,1,11.4A53.69,53.69,0,0,0,123.36,196c.42.46,1.06.94,1.59.62a1.35,1.35,0,0,0,.46-1.15c.18-3.65-.69-7.25-1.4-10.84s-1.28-7.29-.52-10.87,3.1-7,6.59-8.11a11.53,11.53,0,0,1,7.88.79c2.49,1.05,4.74,2.58,7.13,3.82a14.86,14.86,0,0,0,7.73,2.05c2.69-.18,5.42-1.77,6.29-4.32s-.79-5.86-3.48-6.12a5.31,5.31,0,0,0-.08-10.41Z" style="fill:#263238"></path><path d="M157.88,194.58c-.67-5-2.87-15-5-24.15a19.28,19.28,0,0,0-21.59-14.75l-1,.15c-10.56,2.19-13.3,12.61-10.82,23.1l5.42,31.24L144.63,225l5.3-9.1-.38-8S159.26,204.83,157.88,194.58Z" style="fill:#ffbf9d"></path><path d="M149.55,207.83a24.47,24.47,0,0,1-14.19-1.74s4.23,6.72,14.31,4.29Z" style="fill:#ff9a6c"></path><path d="M151.2,180.5a1.49,1.49,0,0,1-1.19,1.69,1.43,1.43,0,0,1-1.71-1.1,1.48,1.48,0,0,1,1.2-1.68A1.41,1.41,0,0,1,151.2,180.5Z" style="fill:#263238"></path><path d="M151.45,175.76c-.15.22-1.38-.44-3-.2s-2.6,1.19-2.8,1,0-.44.48-.88a4.06,4.06,0,0,1,2.22-1.06,3.87,3.87,0,0,1,2.38.4C151.31,175.34,151.53,175.66,151.45,175.76Z" style="fill:#263238"></path><path d="M136.73,183a1.49,1.49,0,0,1-1.2,1.69,1.42,1.42,0,0,1-1.7-1.1,1.48,1.48,0,0,1,1.19-1.68A1.42,1.42,0,0,1,136.73,183Z" style="fill:#263238"></path><path d="M136,178.33c-.16.22-1.39-.44-3-.21s-2.61,1.2-2.81,1,0-.45.49-.89a4.09,4.09,0,0,1,2.21-1,3.88,3.88,0,0,1,2.39.4C135.89,177.91,136.1,178.23,136,178.33Z" style="fill:#263238"></path><path d="M143.45,189.16a10.2,10.2,0,0,1,2.49-.84c.4-.1.76-.24.79-.52a2.08,2.08,0,0,0-.44-1.15l-1.64-2.89c-2.29-4.11-4-7.52-3.84-7.61s2.15,3.17,4.44,7.29q.84,1.51,1.59,2.91a2.37,2.37,0,0,1,.45,1.54,1,1,0,0,1-.58.69,3,3,0,0,1-.67.19A11.11,11.11,0,0,1,143.45,189.16Z" style="fill:#263238"></path><path d="M135,170.24c-.09.45-1.69.48-3.51,1s-3.23,1.21-3.53.87c-.14-.17.06-.61.6-1.12a6.32,6.32,0,0,1,5.37-1.4C134.65,169.74,135,170,135,170.24Z" style="fill:#263238"></path><path d="M150.2,171.29c-.22.4-1.36.19-2.67.36s-2.37.6-2.68.26c-.14-.16,0-.55.42-1a3.72,3.72,0,0,1,2.08-.9,3.82,3.82,0,0,1,2.23.4C150.09,170.75,150.3,171.1,150.2,171.29Z" style="fill:#263238"></path><path d="M121,186c-.18,0-8.14-.87-6.89,6.1s8.53,4.63,8.53,4.63Z" style="fill:#ffbf9d"></path><path d="M119.43,193.89s-.1.11-.29.24a1.22,1.22,0,0,1-.9.18,3,3,0,0,1-1.88-2.44,4.18,4.18,0,0,1,0-1.8,1.46,1.46,0,0,1,.74-1.1.63.63,0,0,1,.78.21c.13.18.11.32.15.33s.13-.15,0-.42a.76.76,0,0,0-.35-.39,1,1,0,0,0-.71-.06A1.75,1.75,0,0,0,116,190a4.14,4.14,0,0,0-.07,2c.3,1.39,1.25,2.58,2.31,2.69a1.31,1.31,0,0,0,1.08-.39C119.45,194.06,119.46,193.9,119.43,193.89Z" style="fill:#ff9a6c"></path><path d="M151.63,160.86a13.49,13.49,0,0,0-5-4.32,23,23,0,0,0-13.92-2.78,18.76,18.76,0,0,0-12.3,6.83,19.82,19.82,0,0,0-3.93,10.69,34.93,34.93,0,0,0,1.29,12.55c.53,1.6,1.55,2.06,2.88,3.1.83.65,2.15,1,2.88.2a2.8,2.8,0,0,0,.58-1.73c.55-5.6,1-11.6-1.72-16.51a16,16,0,0,1,4.17-5.14,8.39,8.39,0,0,1,6.23-1.81c3.27.5,5.63,3.25,8.43,5a14.94,14.94,0,0,0,13.57,1Z" style="fill:#263238"></path><path d="M111.61,175.83c0-.08.76-.1,1.93-.35a12.73,12.73,0,0,0,7.62-5c.69-1,1-1.66,1.08-1.63a5.15,5.15,0,0,1-.82,1.81,11.46,11.46,0,0,1-7.82,5.15A5.1,5.1,0,0,1,111.61,175.83Z" style="fill:#e0e0e0"></path><path d="M112.43,177.82c0-.08.75-.1,1.92-.35a12.65,12.65,0,0,0,7.62-5c.7-1,1-1.66,1.08-1.63a4.92,4.92,0,0,1-.82,1.81,11.46,11.46,0,0,1-7.82,5.15A5.29,5.29,0,0,1,112.43,177.82Z" style="fill:#e0e0e0"></path><path d="M139.65,192a32.35,32.35,0,0,1,3.26.78l2.2.49c-.25.92-.66,2.41-1.46,2.94a3.16,3.16,0,0,1-3.1.21,3.27,3.27,0,0,1-1.31-2.12A5,5,0,0,1,139.65,192Z" style="fill:#ff9a6c"></path><path d="M144.57,194.9s0,.23-.14.59a3.27,3.27,0,0,1-.36.63,2.12,2.12,0,0,1-.33.35,1.37,1.37,0,0,1-.49.23,4.33,4.33,0,0,1-1.16.17,3.17,3.17,0,0,1-1.36-.23,2.75,2.75,0,0,1-1.21-.95,2.57,2.57,0,0,1-.44-1.6,6.89,6.89,0,0,1,.24-1.56,2.49,2.49,0,0,1,.1-.39.55.55,0,0,1,.48-.38,2.24,2.24,0,0,1,.42.08l.33.09,2.32.67a9.35,9.35,0,0,1,2.1.74,10.61,10.61,0,0,1-2.19-.39l-2.35-.55-.34-.08a1.11,1.11,0,0,0-.27-.06s0,0,0,0a.14.14,0,0,0,0,.05c0,.07,0,.22-.08.33a8,8,0,0,0-.21,1.46,2.13,2.13,0,0,0,1.32,2.1,3.85,3.85,0,0,0,2.23.15,1.08,1.08,0,0,0,.69-.41,4.54,4.54,0,0,0,.41-.54C144.46,195.08,144.54,194.89,144.57,194.9Z" style="fill:#263238"></path><path d="M178.91,259.41c-.15,0-1.1-5.25-2.14-11.77s-1.76-11.83-1.62-11.85,1.1,5.25,2.14,11.77S179.05,259.39,178.91,259.41Z" style="fill:#455a64"></path><path d="M144.93,296.06a2.14,2.14,0,0,1-.47.12l-1.35.24-5,.8c-4.2.66-10,1.53-16.45,2.46-3.22.45-6.28.93-9.09,1.2a43.24,43.24,0,0,1-7.5.19,24.09,24.09,0,0,1-5-.83c-.58-.15-1-.32-1.31-.42a1.61,1.61,0,0,1-.44-.2c0-.05.65.16,1.8.42a27.76,27.76,0,0,0,5,.67,48.06,48.06,0,0,0,7.43-.3c2.79-.3,5.85-.79,9.06-1.25,6.43-.93,12.26-1.74,16.48-2.3l5-.64,1.37-.15A1.76,1.76,0,0,1,144.93,296.06Z" style="fill:#455a64"></path></g><g id="freepik--Table--inject-20"><path d="M322.3,300.9H308.21a1.86,1.86,0,0,0-.06-.34l-9.62-40.48a4.58,4.58,0,0,0-4.45-3.52H241.56a4.58,4.58,0,0,0-4.41,5.78l11,40.48c.43,1.56,1.22,3.16,3.18,3.37h75.42v-.84A4.45,4.45,0,0,0,322.3,300.9Z" style="fill:#e0e0e0"></path><path d="M322.3,300.9a4.7,4.7,0,0,1,.5,0,4.55,4.55,0,0,1,1.43.4,4.41,4.41,0,0,1,1.85,1.6,4.5,4.5,0,0,1,.62,1.46,8.23,8.23,0,0,1,.12,1.82v.07h-.07l-75.42.11h0a3.31,3.31,0,0,1-2.28-1.24,6.45,6.45,0,0,1-1.08-2.37q-.67-2.49-1.37-5-1.37-5.07-2.8-10.32c-1.91-7-3.87-14.23-5.88-21.61-.2-.74-.4-1.49-.61-2.23a11.12,11.12,0,0,1-.49-2.28,4.82,4.82,0,0,1,2-4.08,4.72,4.72,0,0,1,2.19-.82c.79-.07,1.52,0,2.27,0h49.75a10.73,10.73,0,0,1,1.87.08,4.77,4.77,0,0,1,3.8,3.69c.27,1.15.54,2.29.8,3.41q.8,3.38,1.55,6.57,1.51,6.38,2.83,12c1.75,7.45,3.27,13.76,4.4,18.75l-.09-.07,10.49,0,2.69,0,.91,0-.91,0-2.69,0-10.49,0h-.06l0-.07c-1.19-5-2.7-11.29-4.47-18.73l-2.87-12q-.77-3.18-1.56-6.56l-.82-3.41a4.47,4.47,0,0,0-1.91-2.8,4.59,4.59,0,0,0-1.63-.64,10.91,10.91,0,0,0-1.82-.07H243.3c-.74,0-1.52,0-2.23,0a4.3,4.3,0,0,0-2,.76,4.42,4.42,0,0,0-1.88,3.75,10.34,10.34,0,0,0,.48,2.2l.6,2.23c2,7.38,4,14.61,5.88,21.61,1,3.5,1.88,6.95,2.8,10.32.45,1.69.91,3.36,1.36,5a5.9,5.9,0,0,0,1,2.25,2.94,2.94,0,0,0,2,1.1h0l75.42.12-.06.06a7.93,7.93,0,0,0-.1-1.79A4.17,4.17,0,0,0,326,303a4.29,4.29,0,0,0-1.79-1.59A4.52,4.52,0,0,0,322.3,300.9Z" style="fill:#263238"></path><polygon points="293.79 260.56 241.06 260.56 251.53 298 302.83 298 293.79 260.56" style="fill:#fff"></polygon><path d="M302.86,298H251.51L241,260.53h52.78v0Zm-51.31,0H302.8l-9-37.39H241.09Z" style="fill:#263238"></path><path d="M308.73,301c0,.11-12.42.19-27.75.19s-27.76-.08-27.76-.19,12.43-.19,27.76-.19S308.73,300.9,308.73,301Z" style="fill:#263238"></path><path d="M297.68,294.48s-.05,0-.17,0l-.51,0-2,0-7.25.06-23.89.05h-8.51l0-.14c-1.95-7-3.64-13.16-4.85-17.55l-1.38-5.13-.36-1.38a4,4,0,0,1-.1-.48,3.07,3.07,0,0,1,.17.47l.41,1.36c.35,1.22.86,2.95,1.48,5.1,1.25,4.38,3,10.49,5,17.52l-.18-.14h8.37l23.89.05,7.25.06,2,0,.51,0Z" style="fill:#263238"></path><polygon points="262.44 281.63 256.1 281.63 259.17 291.64 265.5 291.64 262.44 281.63" style="fill:#455a64"></polygon><polygon points="292.1 281.63 285.76 281.63 288.83 291.64 295.17 291.64 292.1 281.63" style="fill:#FFC100"></polygon><polygon points="271.22 278.12 264.88 278.12 268.83 291.64 275.17 291.64 271.22 278.12" style="fill:#FFC100"></polygon><polygon points="279.4 271.86 273.06 271.86 279.19 291.64 285.52 291.64 279.4 271.86" style="fill:#455a64"></polygon><rect x="331.41" y="316.71" width="10.77" height="138.42" style="fill:#e0e0e0"></rect><path d="M342.18,455.13s0-.25,0-.72,0-1.18,0-2.08c0-1.84,0-4.53,0-8,0-6.94-.05-17-.08-29.45,0-24.91-.06-59.48-.11-98.17l.26.26H331.41l.26-.26c-.08,62.91-.14,116.68-.17,138.42l-.09-.09,8,0,2.06,0,.71,0s-.22,0-.67,0l-2.05,0-8,.06h-.1v-.1c0-21.74-.09-75.51-.16-138.42v-.26h11.29v.26c0,38.76-.08,73.4-.11,98.36,0,12.44-.06,22.46-.08,29.39,0,3.44,0,6.11,0,7.94,0,.89,0,1.57,0,2.05S342.18,455.13,342.18,455.13Z" style="fill:#263238"></path><rect x="42.72" y="311.91" width="10.77" height="143.21" style="fill:#e0e0e0"></rect><path d="M53.49,455.12s0-.26,0-.75,0-1.22,0-2.15c0-1.91,0-4.69,0-8.28,0-7.19-.05-17.58-.08-30.48,0-25.77-.06-61.54-.11-101.55l.26.26H42.72l.26-.26c-.08,65.33-.14,121.13-.17,143.21l-.09-.09,8,.05,2.06,0,.7,0-.67,0-2,0-8.07,0h-.1v-.09c0-22.08-.09-77.88-.16-143.21v-.26H53.75v.26c0,40.09-.08,75.92-.11,101.74,0,12.87-.06,23.25-.08,30.42,0,3.56,0,6.33,0,8.22,0,.92,0,1.63,0,2.12S53.49,455.12,53.49,455.12Z" style="fill:#263238"></path><rect x="124.78" y="311.91" width="10.77" height="143.28" style="fill:#e0e0e0"></rect><path d="M135.55,455.18s0-.25,0-.74,0-1.22,0-2.16c0-1.9,0-4.69,0-8.28,0-7.19,0-17.59-.08-30.49,0-25.79-.06-61.57-.11-101.6l.26.26H124.78l.26-.26c-.08,65.37-.14,121.19-.17,143.27l-.09-.09,8,.05,2.06,0h.7s-.22,0-.67,0l-2,0-8.07,0h-.1v-.1c0-22.08-.09-77.9-.16-143.27v-.26h11.29v.26c0,40.1-.08,75.95-.11,101.79,0,12.88-.06,23.26-.08,30.43,0,3.57,0,6.33,0,8.22,0,.92,0,1.63,0,2.12S135.55,455.18,135.55,455.18Z" style="fill:#263238"></path><rect x="24.72" y="305.05" width="340.9" height="17.46" style="fill:#6f4439"></rect><g style="opacity:0.30000000000000004"><rect x="25.26" y="305.08" width="92.31" height="17.39"></rect></g><rect x="88.46" y="280.19" width="25.63" height="10.1" transform="translate(202.56 570.49) rotate(180)" style="fill:#ebebeb"></rect><rect x="34.67" y="278.46" width="80.49" height="2.11" transform="translate(149.83 559.04) rotate(180)" style="fill:#455a64"></rect><rect x="34.67" y="289.84" width="80.12" height="2.11" transform="translate(149.46 581.8) rotate(180)" style="fill:#455a64"></rect><polygon points="88.46 278.96 88.34 291.55 34.67 291.55 34.67 278.96 88.46 278.96" style="fill:#455a64"></polygon><path d="M75.42,285.25a2.91,2.91,0,1,0,2.9-3.14A3,3,0,0,0,75.42,285.25Z" style="fill:#263238"></path><path d="M75,285.25a3.36,3.36,0,1,1,3.35,3.58A3.48,3.48,0,0,1,75,285.25Zm.9,0a2.46,2.46,0,1,0,2.45-2.69A2.57,2.57,0,0,0,75.87,285.25Z" style="fill:#e0e0e0"></path><path d="M90.39,287.82c0,.13,5.27.23,11.76.23s11.76-.1,11.76-.23-5.26-.24-11.76-.24S90.39,287.69,90.39,287.82Z" style="fill:#263238"></path><path d="M90.39,286.06c0,.13,5.27.23,11.76.23s11.76-.1,11.76-.23-5.26-.24-11.76-.24S90.39,285.93,90.39,286.06Z" style="fill:#263238"></path><path d="M90.39,284.3c0,.13,5.27.23,11.76.23s11.76-.1,11.76-.23-5.26-.24-11.76-.24S90.39,284.17,90.39,284.3Z" style="fill:#263238"></path><path d="M90.39,282.54c0,.13,5.27.23,11.76.23s11.76-.1,11.76-.23-5.26-.23-11.76-.23S90.39,282.41,90.39,282.54Z" style="fill:#263238"></path><rect x="40.62" y="281.64" width="24.19" height="6.74" transform="translate(105.43 570.02) rotate(180)" style="fill:#fff"></rect><path d="M61,287.7a7.85,7.85,0,0,0,.24-2.69,7.76,7.76,0,0,0-.24-2.68,7.92,7.92,0,0,0-.23,2.68A8,8,0,0,0,61,287.7Z" style="fill:#e0e0e0"></path><path d="M57.84,287.7a7.85,7.85,0,0,0,.24-2.69,7.76,7.76,0,0,0-.24-2.68,7.92,7.92,0,0,0-.23,2.68A8,8,0,0,0,57.84,287.7Z" style="fill:#e0e0e0"></path><path d="M54.64,287.7a7.85,7.85,0,0,0,.24-2.69,7.76,7.76,0,0,0-.24-2.68,8.23,8.23,0,0,0-.23,2.68A8.32,8.32,0,0,0,54.64,287.7Z" style="fill:#e0e0e0"></path><path d="M51.45,287.7a8,8,0,0,0,.23-2.69,7.92,7.92,0,0,0-.23-2.68,7.76,7.76,0,0,0-.24,2.68A7.85,7.85,0,0,0,51.45,287.7Z" style="fill:#e0e0e0"></path><path d="M48.25,287.7a8,8,0,0,0,.23-2.69,7.92,7.92,0,0,0-.23-2.68A7.76,7.76,0,0,0,48,285,7.85,7.85,0,0,0,48.25,287.7Z" style="fill:#e0e0e0"></path><path d="M45.05,287.7a8,8,0,0,0,.23-2.69,7.92,7.92,0,0,0-.23-2.68,7.92,7.92,0,0,0-.23,2.68A8,8,0,0,0,45.05,287.7Z" style="fill:#e0e0e0"></path><path d="M88.1,291.93a48.22,48.22,0,0,0,.23-6.69,48.13,48.13,0,0,0-.23-6.68,48.13,48.13,0,0,0-.23,6.68A48.22,48.22,0,0,0,88.1,291.93Z" style="fill:#263238"></path><polygon points="37.4 258.82 37.4 255.53 106.19 255.68 110.17 255.68 110.17 258.87 106.19 258.87 106.19 278.56 31.89 278.56 31.89 258.82 37.4 258.82" style="fill:#f5f5f5"></polygon><polygon points="54.27 278.56 54.27 255.53 37.4 255.53 37.4 258.82 31.89 258.82 31.89 278.56 54.27 278.56" style="fill:#ebebeb"></polygon><path d="M37.4,255.53c0,.13,16.15.24,36.07.24s36.07-.11,36.07-.24-16.15-.23-36.07-.23S37.4,255.41,37.4,255.53Z" style="fill:#e0e0e0"></path><path d="M32.44,265.88c0,.13,16.45.23,36.74.23s36.73-.1,36.73-.23-16.44-.24-36.73-.24S32.44,265.75,32.44,265.88Z" style="fill:#e0e0e0"></path><path d="M31.89,272.93c0,.13,16.57.23,37,.23s37-.1,37-.23-16.56-.23-37-.23S31.89,272.8,31.89,272.93Z" style="fill:#e0e0e0"></path><path d="M109.54,258.82c0-.13-16.15-.23-36.07-.23s-36.07.1-36.07.23,16.14.24,36.07.24S109.54,259,109.54,258.82Z" style="fill:#e0e0e0"></path><rect x="85.06" y="293.32" width="25.63" height="10.1" transform="translate(195.75 596.74) rotate(180)" style="fill:#ebebeb"></rect><rect x="31.26" y="291.59" width="80.49" height="2.11" transform="translate(143.02 585.29) rotate(180)" style="fill:#FFC100"></rect><rect x="31.26" y="302.97" width="80.12" height="2.12" transform="translate(142.65 608.05) rotate(180)" style="fill:#FFC100"></rect><polygon points="85.06 292.09 84.94 304.68 31.27 304.68 31.27 292.09 85.06 292.09" style="fill:#FFC100"></polygon><path d="M72,298.37a2.91,2.91,0,1,0,2.9-3.13A3,3,0,0,0,72,298.37Z" style="fill:#263238"></path><path d="M71.56,298.37A3.36,3.36,0,1,1,74.92,302,3.48,3.48,0,0,1,71.56,298.37Zm.9,0a2.46,2.46,0,1,0,2.46-2.68A2.58,2.58,0,0,0,72.46,298.37Z" style="fill:#e0e0e0"></path><path d="M87,300.94c0,.13,5.27.24,11.76.24s11.77-.11,11.77-.24-5.27-.23-11.77-.23S87,300.81,87,300.94Z" style="fill:#263238"></path><path d="M87,299.18c0,.13,5.27.24,11.76.24s11.77-.11,11.77-.24-5.27-.23-11.77-.23S87,299.05,87,299.18Z" style="fill:#263238"></path><path d="M87,297.42c0,.13,5.27.24,11.76.24s11.77-.11,11.77-.24-5.27-.23-11.77-.23S87,297.29,87,297.42Z" style="fill:#263238"></path><path d="M87,295.66c0,.13,5.27.24,11.76.24s11.77-.11,11.77-.24-5.27-.23-11.77-.23S87,295.53,87,295.66Z" style="fill:#263238"></path><rect x="37.22" y="294.77" width="24.19" height="6.74" transform="translate(98.62 596.27) rotate(180)" style="fill:#fff"></rect><path d="M57.64,300.82a15.79,15.79,0,0,0,0-5.37,15.14,15.14,0,0,0,0,5.37Z" style="fill:#e0e0e0"></path><path d="M54.44,300.82a15.79,15.79,0,0,0,0-5.37,15.14,15.14,0,0,0,0,5.37Z" style="fill:#e0e0e0"></path><path d="M51.24,300.82a15.79,15.79,0,0,0,0-5.37,15.79,15.79,0,0,0,0,5.37Z" style="fill:#e0e0e0"></path><path d="M48,300.82a15.14,15.14,0,0,0,0-5.37,15.79,15.79,0,0,0,0,5.37Z" style="fill:#e0e0e0"></path><path d="M44.84,300.82a15.14,15.14,0,0,0,0-5.37,15.79,15.79,0,0,0,0,5.37Z" style="fill:#e0e0e0"></path><path d="M41.65,300.82a15.79,15.79,0,0,0,0-5.37,15.14,15.14,0,0,0,0,5.37Z" style="fill:#e0e0e0"></path><path d="M84.69,305.05a47.13,47.13,0,0,0,.24-6.68,47.34,47.34,0,0,0-.24-6.69,50.29,50.29,0,0,0-.23,6.69A50.07,50.07,0,0,0,84.69,305.05Z" style="fill:#263238"></path></g><g id="freepik--character-2--inject-20"><path d="M444.78,170.75a4.78,4.78,0,0,0-4.44-3.28,6.51,6.51,0,0,0-7.92-1.29,5.79,5.79,0,0,0-9.45,3.09,4.84,4.84,0,0,0-5.63,7.26,4.66,4.66,0,0,0,.29,9.26L442.94,176A4.77,4.77,0,0,0,444.78,170.75Z" style="fill:#263238"></path><path d="M416.85,186.31A19.76,19.76,0,0,1,439.49,172l1,.19c10.73,2.62,14.5,13.2,11.58,23.85l-8.95,36.45-.24.35-18.11,12.54-3.1-2.29-4-9.94,1.55-8.3s-10.14-3.53-8.35-14C411.76,205.81,414.37,195.56,416.85,186.31Z" style="fill:#ffbf9d"></path><path d="M419.26,224.86a25.67,25.67,0,0,0,14.3-1.55s-4.67,7-14.81,4.19Z" style="fill:#ff9a6c"></path><path d="M417.4,196.79a1.51,1.51,0,0,0,1.17,1.77,1.45,1.45,0,0,0,1.78-1.06,1.53,1.53,0,0,0-1.16-1.77A1.46,1.46,0,0,0,417.4,196.79Z" style="fill:#263238"></path><path d="M417.94,192.33c.15.23,1.43-.4,3-.1s2.62,1.31,2.83,1.15,0-.46-.46-.92a4.07,4.07,0,0,0-2.23-1.16,4,4,0,0,0-2.46.32C418.1,191.91,417.87,192.23,417.94,192.33Z" style="fill:#263238"></path><path d="M431.24,199.5a1.51,1.51,0,0,0,1.16,1.77,1.45,1.45,0,0,0,1.78-1.06,1.51,1.51,0,0,0-1.16-1.77A1.45,1.45,0,0,0,431.24,199.5Z" style="fill:#263238"></path><path d="M433.31,194.92c.15.22,1.44-.4,3-.11s2.63,1.32,2.84,1.15,0-.45-.47-.92a4.2,4.2,0,0,0-2.23-1.16,4,4,0,0,0-2.46.32C433.47,194.49,433.24,194.81,433.31,194.92Z" style="fill:#263238"></path><path d="M431.32,208.33c-.27-.06-.8,1.26-2.18,2.12s-2.84.78-2.88,1.05c0,.12.32.32,1,.37a4.17,4.17,0,0,0,2.44-.64,3.93,3.93,0,0,0,1.6-1.89C431.48,208.75,431.44,208.36,431.32,208.33Z" style="fill:#263238"></path><path d="M425.86,205.83a10.4,10.4,0,0,0-2.52-1c-.4-.12-.77-.27-.79-.56a2.12,2.12,0,0,1,.5-1.16l1.78-2.9c2.49-4.13,4.38-7.55,4.21-7.65s-2.32,3.17-4.82,7.29l-1.73,2.93a2.42,2.42,0,0,0-.51,1.56,1.08,1.08,0,0,0,.57.73,3.07,3.07,0,0,0,.67.22A11.06,11.06,0,0,0,425.86,205.83Z" style="fill:#263238"></path><path d="M434.13,190.34c.12.45,1.57.33,3.24.66s3,.94,3.25.56c.11-.19-.1-.62-.62-1.08a5.14,5.14,0,0,0-2.37-1.11,4.94,4.94,0,0,0-2.58.18C434.42,189.79,434.08,190.12,434.13,190.34Z" style="fill:#263238"></path><path d="M419.11,188c.18.44,1.37.36,2.67.69s2.34.89,2.7.58c.16-.15.08-.55-.31-1a3.72,3.72,0,0,0-2-1.17,3.76,3.76,0,0,0-2.31.15C419.29,187.47,419,187.8,419.11,188Z" style="fill:#263238"></path><path d="M418.73,181.71s3.94-6,7.37-7c4.15-1.15,5,3.34,8.85,3s7.78-1.46,11,2c3.5,3.82,1.2,5.63.6,10.3-2.42,18.94,0,24.88,2.63,16.22.29-.95,3.11-1.23,4.26-5.24,1.49-5.21,2.87-11.61,2.38-15.59-.42-3.36-1.83-5.88-4.63-8.89-4.42-4.76-11.44-6.13-16.3-6.52S419.79,173.46,418.73,181.71Z" style="fill:#263238"></path><path d="M448.55,205.87a2.87,2.87,0,0,1,3.55-2.16c1.92.54,3.88,2,3,6-1.53,7.09-8.33,4.09-8.3,3.88S447.88,208.83,448.55,205.87Z" style="fill:#ffbf9d"></path><path d="M448.93,211.29s.11.11.29.25a1.25,1.25,0,0,0,.92.22,3.11,3.11,0,0,0,2-2.43,4.26,4.26,0,0,0,0-1.84,1.48,1.48,0,0,0-.73-1.15.64.64,0,0,0-.8.18c-.14.18-.12.33-.16.33s-.13-.15,0-.43a.79.79,0,0,1,.38-.39,1,1,0,0,1,.72,0,1.78,1.78,0,0,1,1.05,1.38,4.26,4.26,0,0,1,0,2.07c-.35,1.42-1.37,2.59-2.46,2.67a1.37,1.37,0,0,1-1.09-.43C448.91,211.46,448.9,211.3,448.93,211.29Z" style="fill:#ff9a6c"></path><path d="M450.94,192a7,7,0,0,1-3.28.84,2.38,2.38,0,0,1-2.28-2.11c0-.51.24-1.07,0-1.51s-1.05-.52-1.66-.56a4.63,4.63,0,0,1-4.12-4.13,2,2,0,0,1-2.61-.23,10.09,10.09,0,0,1-1.56-2.43,3,3,0,0,0-2.22-1.67,7.37,7.37,0,0,1-1.62.06c-.92-.26-1.17-1.44-1.15-2.39s.12-2.06-.58-2.71a3.74,3.74,0,0,0-2.53-.54c-.89,0-2-.44-2-1.32a1.72,1.72,0,0,1,.55-1.24,4.71,4.71,0,0,1,5.77-.75,6.36,6.36,0,0,1,11.72.9,6.45,6.45,0,0,1,9.73,4.17,4.69,4.69,0,0,1,4,7.65,4.44,4.44,0,0,1,1.76,3.92c-.24,1.48-1.95,2.69-3.3,2a2.59,2.59,0,0,1-4.87,1.73" style="fill:#263238"></path><path d="M456,190.11a1.79,1.79,0,0,1-.7,1.29,2.37,2.37,0,0,1-1.58.59,2.53,2.53,0,0,1-1.93-1h.31a7.26,7.26,0,0,1-1.75,1.51,4.06,4.06,0,0,1-1.44.57,3.23,3.23,0,0,1-3.3-1.68,4.12,4.12,0,0,1-.31-1.59,1.75,1.75,0,0,1,.05-.59,1.83,1.83,0,0,1,.11.57,4.91,4.91,0,0,0,.41,1.48,3,3,0,0,0,4.27.89,7.48,7.48,0,0,0,1.66-1.42l.16-.19.15.2a2.23,2.23,0,0,0,1.62.86,2.09,2.09,0,0,0,1.41-.44A3.54,3.54,0,0,0,456,190.11Z" style="fill:#455a64"></path><path d="M445.52,171.36s-.2,0-.54.09a2.54,2.54,0,0,0-1.28.74l-.11.12-.07-.15a9,9,0,0,0-2.94-3.42,6.92,6.92,0,0,0-2.69-1.13,6,6,0,0,0-5.29,1.68,4.88,4.88,0,0,0-1.18,2l-.06.22-.21-.1a4.07,4.07,0,0,0-3-.18,4,4,0,0,0-1.94,1.44,5.46,5.46,0,0,0-.83,2,1.62,1.62,0,0,1,0-.6,4.17,4.17,0,0,1,2.65-3.18,4.42,4.42,0,0,1,3.3.14l-.27.13A5.21,5.21,0,0,1,432.3,169a6.34,6.34,0,0,1,2.26-1.48,6.24,6.24,0,0,1,3.4-.32,7.34,7.34,0,0,1,2.83,1.23,8.73,8.73,0,0,1,2.93,3.63l-.18,0a2.52,2.52,0,0,1,1.42-.7A1,1,0,0,1,445.52,171.36Z" style="fill:#455a64"></path><path d="M332.46,306.35s.73-7.68,4.21-9.88,12.77-4.1,12.77-4.1l3.7,11-6.22,7.85Z" style="fill:#ffbf9d"></path><path d="M311.9,418.63l.83,23.68s-23.67,8.3-24,12.69l45.85.55.23-37Z" style="fill:#263238"></path><path d="M326.86,440.42a1.9,1.9,0,0,1,1.31,2.16,1.81,1.81,0,0,1-2.13,1.31,2,2,0,0,1-1.37-2.29,1.88,1.88,0,0,1,2.36-1.12" style="fill:#e0e0e0"></path><path d="M334.86,455.54V452.6l-44.51.37a3.5,3.5,0,0,0-1.59,2.28Z" style="fill:#455a64"></path><path d="M312.53,442.46c0,.23,1.14.33,2.25,1.06s1.7,1.68,1.91,1.59-.13-1.4-1.49-2.25S312.48,442.26,312.53,442.46Z" style="fill:#455a64"></path><path d="M307.67,444.47c-.05.22.93.6,1.7,1.56s1,2,1.21,2,.37-1.29-.61-2.46S307.68,444.25,307.67,444.47Z" style="fill:#455a64"></path><path d="M304.91,450.28c.2,0,.52-1.09-.06-2.32s-1.64-1.74-1.73-1.55.56.85,1,1.88S304.68,450.25,304.91,450.28Z" style="fill:#455a64"></path><path d="M312.94,437c.1.2,1.14-.11,2.42,0s2.27.49,2.39.3-.84-1-2.35-1.09S312.83,436.83,312.94,437Z" style="fill:#455a64"></path><path d="M312.13,431.9a4.19,4.19,0,0,0,2.32,0,10.23,10.23,0,0,0,2.42-.74,10.65,10.65,0,0,0,1.33-.7,2.75,2.75,0,0,0,.7-.55,1,1,0,0,0,.11-1.2,1.25,1.25,0,0,0-1-.52,3.15,3.15,0,0,0-.87.12,9.35,9.35,0,0,0-1.44.49,8.26,8.26,0,0,0-2.14,1.4c-1.08,1-1.44,1.84-1.37,1.89s.63-.64,1.72-1.46a9.48,9.48,0,0,1,2.07-1.16,10.34,10.34,0,0,1,1.33-.41c.49-.13.91-.13,1,.09s.05.12-.05.26a2.69,2.69,0,0,1-.52.4c-.41.26-.82.49-1.23.7a12.24,12.24,0,0,1-2.24.85A16.68,16.68,0,0,0,312.13,431.9Z" style="fill:#455a64"></path><path d="M292.47,372.74l-11.17,20.9s-24.64-4.7-27.08-1l39.39,23.47,18.74-31.85Z" style="fill:#263238"></path><path d="M294.28,399a1.88,1.88,0,0,1,.05,2.52,1.82,1.82,0,0,1-2.5.07,2,2,0,0,1,0-2.67,1.87,1.87,0,0,1,2.6.21" style="fill:#e0e0e0"></path><path d="M293.61,416.07l1.5-2.54-38.7-22a3.47,3.47,0,0,0-2.51,1.18Z" style="fill:#455a64"></path><path d="M280.86,393.55c-.1.2.82.86,1.42,2.05s.63,2.31.85,2.33.59-1.27-.15-2.69S280.93,393.35,280.86,393.55Z" style="fill:#455a64"></path><path d="M275.66,392.85c-.16.16.49,1,.68,2.2s-.14,2.2.06,2.3,1-.92.71-2.43S275.77,392.67,275.66,392.85Z" style="fill:#455a64"></path><path d="M270.35,396.49c.15.14,1-.67,1.11-2s-.54-2.32-.72-2.2.06,1-.06,2.13S270.17,396.36,270.35,396.49Z" style="fill:#455a64"></path><path d="M284,389c0,.23,1,.48,2.09,1.2s1.72,1.56,1.92,1.46-.22-1.29-1.48-2.12S284,388.83,284,389Z" style="fill:#455a64"></path><path d="M285.81,384.22c-.05.08.65.65,2,1.15a10.82,10.82,0,0,0,2.47.58,12.38,12.38,0,0,0,1.51.06,3.4,3.4,0,0,0,.88-.12,1,1,0,0,0,.69-1,1.25,1.25,0,0,0-.59-.95,3,3,0,0,0-.82-.33,8.2,8.2,0,0,0-1.49-.3,8.63,8.63,0,0,0-2.56.14c-1.42.32-2.17.87-2.12,1s.86-.24,2.22-.4a9.48,9.48,0,0,1,2.37,0,8.89,8.89,0,0,1,1.36.32c.49.13.85.34.85.59s0,.13-.18.2a2.66,2.66,0,0,1-.64.09c-.49,0-1,0-1.41,0a13,13,0,0,1-2.37-.39A16.57,16.57,0,0,0,285.81,384.22Z" style="fill:#263238"></path><path d="M436.54,337.73c0-.5-.06-.77-.06-.77Z" style="fill:#263238"></path><path d="M437.26,337.73,384.55,318s-31.14-14.53-42.46-17.66c-12.12-3.34-23,5.78-29.81,19.92-4.58,9.57-30.14,69.27-30.14,69.27l20.26,13.13,40.49-72.18,59.22,38.44s11.67-.24,23-.24C435.27,368.68,437.62,342.39,437.26,337.73Z" style="fill:#263238"></path><polygon points="436.54 337.73 436.54 337.73 436.54 337.73 436.54 337.73" style="fill:#263238"></polygon><path d="M308.4,438.43l7.43-81.84s1.3-17,11.13-20.44,21.33-2,21.33-2l55.1,34.77-56.53,1s-2.88,11.9-3.7,17.06l-8.29,52.58Z" style="fill:#263238"></path><path d="M402.11,365.87l-.25-.17-.77-.47-3-1.79-11.19-6.66-17.11-10.13-10.36-6.13-5.57-3.29L348,333.92l0,0h-.05l-7.67-.24h0a53.4,53.4,0,0,0-9.92,1.28,18.62,18.62,0,0,0-2.48.76c-.78.41-1.56.79-2.3,1.25l-1.07.77-.53.39-.48.45-1,.91c-.31.32-.58.67-.87,1a24.46,24.46,0,0,0-4.41,8.2,35.32,35.32,0,0,0-1.68,8.89c-.53,5.89-1.05,11.57-1.53,17-1,10.83-1.84,20.58-2.57,28.77s-1.29,14.8-1.7,19.4c-.19,2.27-.34,4.05-.44,5.27,0,.59-.08,1-.1,1.37l0,.47s0-.15.07-.46.08-.78.14-1.37c.12-1.22.29-3,.51-5.27.44-4.59,1.06-11.21,1.82-19.39s1.66-17.94,2.65-28.76c.5-5.41,1-11.1,1.56-17a34.55,34.55,0,0,1,1.67-8.79,24,24,0,0,1,4.34-8.07c.28-.32.55-.67.85-1l.95-.89.47-.44.52-.38,1-.75c.72-.45,1.5-.83,2.24-1.22a19.42,19.42,0,0,1,2.42-.75,54.16,54.16,0,0,1,9.85-1.28h0l7.67.23-.09,0,5.86,3.3,5.57,3.28,10.39,6.1L386.8,357l11.25,6.57,3,1.74.78.44Z" style="fill:#455a64"></path><polygon points="391.02 296.83 375.9 299.9 362.7 304.35 384.98 318.09 388.78 309.42 391.02 296.83" style="fill:#FFC100"></polygon><path d="M445.85,231.25s12.09,16.52,7.71,38.11-11.73,63.8-11.94,68.49c-.18,3.84-2.28,3.46-2.28,3.46l-54.15-22.62,11.44-46,17.13-31.26,2.64-8,28.32-7.4Z" style="fill:#FFC100"></path><path d="M387.28,311.76s.8,9.56.89,10.76-1.57,5.08-1.59,7.25.66,4.27-.26,4.94a2.69,2.69,0,0,1-3.65-1.44c-.48-1.57-.11-6.36-.11-6.36l-1.32,4.27-.44,8a1.45,1.45,0,0,1-1.66,1.12,3.34,3.34,0,0,1-2.26-1.34,2.35,2.35,0,0,1-2.55-1.56s-2.62.69-3.31-3.69a1.73,1.73,0,0,1-1.92-.83c-.71-1.17-2.1-4.09-2.1-4.09s.32-10.58,1.07-12.86,7.36-10.13,7.36-10.13a96.41,96.41,0,0,0,9.67.35Z" style="fill:#ffbf9d"></path><path d="M377.93,320.64a3,3,0,0,0-.31.64,17.23,17.23,0,0,0-.66,1.81,26.17,26.17,0,0,0-1.1,6.24,25.6,25.6,0,0,0,.45,6.33,17.92,17.92,0,0,0,.46,1.86,2.49,2.49,0,0,0,.24.66c.06,0-.19-1-.44-2.57a30.52,30.52,0,0,1-.34-6.26,31.05,31.05,0,0,1,1-6.19C377.64,321.6,378,320.67,377.93,320.64Z" style="fill:#ff9a6c"></path><path d="M372.94,320.17a2.82,2.82,0,0,0-.17.65c-.08.43-.2,1.05-.32,1.82a32.93,32.93,0,0,0-.46,6.08,16.75,16.75,0,0,0,1.21,6,10.12,10.12,0,0,0,.85,1.65c.24.37.39.56.41.54s-.48-.84-1-2.29a18.69,18.69,0,0,1-1.07-5.89,43.7,43.7,0,0,1,.34-6A16.93,16.93,0,0,0,372.94,320.17Z" style="fill:#ff9a6c"></path><path d="M370.87,319.79a13.26,13.26,0,0,0-.34,2c-.19,1.22-.52,2.9-.66,4.8a12.74,12.74,0,0,0,.49,4.84,6.9,6.9,0,0,0,.6,1.35c.18.31.3.46.32.44s-.34-.69-.66-1.87a14,14,0,0,1-.37-4.73c.13-1.87.42-3.56.54-4.79A8.14,8.14,0,0,0,370.87,319.79Z" style="fill:#ff9a6c"></path><g style="opacity:0.30000000000000004"><path d="M361.85,306.42s9,2.54,14.65,4,8.74,1.94,11.74.64,14.73-7.22,17.45-9.31c3.81-2.91,17.25-12.58,19.66-15.16,4.59-4.88,11.16-12.6,11.16-12.6l-52.76,28.86-20.63,1.16Z"></path></g><path d="M445.93,253.35a18.81,18.81,0,0,0-1.22-3.3c-5-10.79-22.75-4.57-30.2,2-6.66,5.91-32.44,34.55-32.44,34.55l-33.3,5.74,3.69,12.38a102.11,102.11,0,0,0,15.37,2.76c11.34,1.17,13.12,1.46,19.38-.05,5.77-1.4,25.12-14.74,35.87-22.51S448.31,265.92,445.93,253.35Z" style="fill:#FFC100"></path><path d="M445.92,253.35s0,.2.1.59l.21,1.77a17.87,17.87,0,0,1-1.24,6.72,30.79,30.79,0,0,1-5.9,9.09,79.27,79.27,0,0,1-10.68,9.69c-4.23,3.27-9,6.65-14.19,10.27s-10.76,7.39-16.84,11.1c-1.52.92-3.07,1.84-4.68,2.7a27.85,27.85,0,0,1-5.08,2.3,32.28,32.28,0,0,1-5.59,1.06,34.07,34.07,0,0,1-5.8-.06c-1.94-.14-3.89-.35-5.86-.55s-3.95-.39-5.95-.67a101.36,101.36,0,0,1-12-2.36l-.13,0-.05-.14c-.6-2-1.26-4.23-1.91-6.43l-1.78-6-.09-.28.29-.05L382,286.39l-.14.08c8.33-9.22,16.14-17.73,23.24-25.22q2.67-2.82,5.23-5.41a60.29,60.29,0,0,1,5.13-4.81,35.87,35.87,0,0,1,11.09-5.68,23.34,23.34,0,0,1,10-1.11,11.71,11.71,0,0,1,3.93,1.25,9.29,9.29,0,0,1,2.69,2.15,12.8,12.8,0,0,1,2.24,4.14,10.85,10.85,0,0,1,.37,1.16,1.84,1.84,0,0,1,.07.41s0-.14-.11-.4-.21-.64-.4-1.14a13.33,13.33,0,0,0-2.29-4.06,10.24,10.24,0,0,0-6.53-3.27,23.23,23.23,0,0,0-9.92,1.16,35.9,35.9,0,0,0-10.95,5.68,61,61,0,0,0-5.08,4.8q-2.55,2.6-5.2,5.42c-7.08,7.51-14.87,16-23.18,25.26l-.06.06-.09,0-33.3,5.75.21-.33c.58,2,1.18,3.95,1.78,5.95.65,2.2,1.3,4.39,1.91,6.43l-.18-.18a101.82,101.82,0,0,0,12,2.35c2,.28,4,.47,5.94.67s3.91.41,5.84.56a34.21,34.21,0,0,0,5.72.07,32.56,32.56,0,0,0,5.5-1,28.57,28.57,0,0,0,5-2.25c1.6-.85,3.15-1.77,4.67-2.69,6.07-3.68,11.65-7.47,16.84-11s10-7,14.21-10.21a79.11,79.11,0,0,0,10.69-9.59,31.1,31.1,0,0,0,5.93-9,18.53,18.53,0,0,0,1.32-6.64c-.07-.77-.13-1.35-.17-1.77S445.92,253.35,445.92,253.35Z" style="fill:#263238"></path><path d="M445.32,230.88a1.57,1.57,0,0,0-.34.11l-1,.4-3.48,1.48c-2.95,1.23-7.05,2.85-11.67,4.41-3.73,1.27-7.22,2.3-10,3.08l.17.06a19.14,19.14,0,0,1-2.07-4.74c-.17-.59-.28-1.07-.35-1.39a2,2,0,0,0-.13-.49,2.77,2.77,0,0,0,0,.51c.05.33.13.81.28,1.42a17.7,17.7,0,0,0,2,4.85l.05.1.12,0c2.81-.73,6.31-1.74,10.05-3,4.63-1.56,8.72-3.24,11.65-4.53,1.46-.64,2.63-1.19,3.44-1.58l.92-.47A1.73,1.73,0,0,0,445.32,230.88Z" style="fill:#263238"></path><path d="M439.28,369.42h4.85a5,5,0,0,0,5-4.44c1-7.92,2.86-30,2.88-30.18l-3.46-.3c0,.22-1.92,22.21-2.87,30.06a1.57,1.57,0,0,1-1.56,1.39h-4.85Z" style="fill:#e0e0e0"></path><path d="M439.28,369.42a2.17,2.17,0,0,0,0-.24c0-.17,0-.39,0-.67,0-.61,0-1.47.05-2.56l-.08.08,2.7,0h1.61a4.56,4.56,0,0,0,.89,0,1.61,1.61,0,0,0,.85-.45,1.66,1.66,0,0,0,.48-.89c.05-.34.07-.65.11-1,.06-.67.13-1.36.2-2.07.15-1.43.3-2.95.46-4.55.62-6.43,1.37-14.17,2.19-22.56l-.23.19,2.57.22.89.08-.19-.23c-1.09,11.72-2.07,22.28-2.79,30a5,5,0,0,1-2.65,4,7.86,7.86,0,0,1-3.75.58l-2.46,0-.65,0h-.23s.06,0,.2,0h.63l2.47.05c.54,0,1.15,0,1.81,0a5.14,5.14,0,0,0,2.08-.54,5.2,5.2,0,0,0,2.84-4.21c.75-7.67,1.77-18.23,2.92-29.94l0-.21H452l-.9-.08-2.56-.22-.21,0v.21c-.79,8.38-1.51,16.12-2.12,22.55-.14,1.6-.28,3.12-.41,4.55-.07.72-.13,1.41-.19,2.08,0,.33-.05.67-.09,1a1.44,1.44,0,0,1-1.12,1.15,4.64,4.64,0,0,1-.84,0H442l-2.7,0h-.09V366c0,1.11,0,2,0,2.6,0,.27,0,.49,0,.66S439.27,369.43,439.28,369.42Z" style="fill:#263238"></path><path d="M362,373.66h77.49c2.89,0,5.23-1.94,5.23-4.33h0c0-2.39-2.34-4.33-5.23-4.33H362c-2.89,0-5.23,1.94-5.23,4.33h0C356.73,371.72,359.07,373.66,362,373.66Z" style="fill:#455a64"></path><path d="M456,337.39l10.57-82.95a5.23,5.23,0,0,0-4.52-5.85h0a5.24,5.24,0,0,0-5.85,4.53l-10.57,82.95a5.23,5.23,0,0,0,4.52,5.85h0A5.23,5.23,0,0,0,456,337.39Z" style="fill:#455a64"></path><polygon points="362.47 370.43 350.92 455.19 355.52 455.19 372.76 373.66 362.47 370.43" style="fill:#455a64"></polygon><polygon points="438.55 370.43 449.78 455.19 445.19 455.19 428.26 373.66 438.55 370.43" style="fill:#455a64"></polygon><path d="M362,373.66c0,.12,17.59.21,39.29.21s39.29-.09,39.29-.21-17.59-.2-39.29-.2S362,373.55,362,373.66Z" style="fill:#263238"></path></g></svg>
