<svg xmlns="http://www.w3.org/2000/svg" viewBox="0 0 500 500"><g id="freepik--background-complete--inject-157"><rect y="382.4" width="500" height="0.25" style="fill:#ebebeb"></rect><rect x="416.78" y="398.49" width="33.12" height="0.25" style="fill:#ebebeb"></rect><rect x="322.53" y="401.21" width="8.69" height="0.25" style="fill:#ebebeb"></rect><rect x="396.59" y="389.21" width="19.19" height="0.25" style="fill:#ebebeb"></rect><rect x="52.46" y="390.89" width="43.19" height="0.25" style="fill:#ebebeb"></rect><rect x="104.56" y="390.89" width="6.33" height="0.25" style="fill:#ebebeb"></rect><rect x="131.47" y="395.11" width="93.68" height="0.25" style="fill:#ebebeb"></rect><path d="M237,337.8H43.91a5.71,5.71,0,0,1-5.7-5.71V60.66A5.71,5.71,0,0,1,43.91,55H237a5.71,5.71,0,0,1,5.71,5.71V332.09A5.71,5.71,0,0,1,237,337.8ZM43.91,55.2a5.46,5.46,0,0,0-5.45,5.46V332.09a5.46,5.46,0,0,0,5.45,5.46H237a5.47,5.47,0,0,0,5.46-5.46V60.66A5.47,5.47,0,0,0,237,55.2Z" style="fill:#ebebeb"></path><path d="M453.31,337.8H260.21a5.72,5.72,0,0,1-5.71-5.71V60.66A5.72,5.72,0,0,1,260.21,55h193.1A5.71,5.71,0,0,1,459,60.66V332.09A5.71,5.71,0,0,1,453.31,337.8ZM260.21,55.2a5.47,5.47,0,0,0-5.46,5.46V332.09a5.47,5.47,0,0,0,5.46,5.46h193.1a5.47,5.47,0,0,0,5.46-5.46V60.66a5.47,5.47,0,0,0-5.46-5.46Z" style="fill:#ebebeb"></path><rect x="63.53" y="259.3" width="216.49" height="114.78" style="fill:#f0f0f0"></rect><rect x="119.64" y="213.7" width="104.28" height="205.99" transform="translate(488.47 144.92) rotate(90)" style="fill:#e6e6e6"></rect><rect x="28.16" y="305.17" width="104.28" height="23.04" transform="translate(396.99 236.39) rotate(90)" style="fill:#e0e0e0"></rect><rect x="229.17" y="310.16" width="114.78" height="13.06" transform="translate(603.25 30.14) rotate(90)" style="fill:#e6e6e6"></rect><rect x="168.98" y="213.7" width="5.6" height="205.99" transform="translate(488.47 144.92) rotate(90)" style="fill:#f0f0f0"></rect><polygon points="77.72 382.4 73.2 382.4 70.97 374.08 77.72 374.08 77.72 382.4" style="fill:#f0f0f0"></polygon><polygon points="265.83 382.4 270.35 382.4 272.58 374.08 265.83 374.08 265.83 382.4" style="fill:#f0f0f0"></polygon><polygon points="95.33 382.4 90.82 382.4 88.58 374.08 95.33 374.08 95.33 382.4" style="fill:#e6e6e6"></polygon><polygon points="283.45 382.4 287.96 382.4 290.2 374.08 283.45 374.08 283.45 382.4" style="fill:#e6e6e6"></polygon><rect x="87.41" y="268.37" width="10.96" height="45.53" style="fill:#f0f0f0"></rect><rect x="98.37" y="268.37" width="29.31" height="45.53" transform="translate(226.06 582.26) rotate(180)" style="fill:#e0e0e0"></rect><rect x="101.93" y="273.58" width="6.18" height="40.32" style="fill:#fafafa"></rect><rect x="108.11" y="273.58" width="16.51" height="40.32" transform="translate(232.73 587.47) rotate(180)" style="fill:#ebebeb"></rect><polygon points="126.9 313.89 117.75 313.89 112.48 275.9 121.63 275.9 126.9 313.89" style="fill:#fafafa"></polygon><polygon points="126.9 313.89 151.36 313.89 146.09 275.9 121.63 275.9 126.9 313.89" style="fill:#ebebeb"></polygon><rect x="158.16" y="335.58" width="10.96" height="33.25" style="fill:#f0f0f0"></rect><rect x="169.12" y="335.58" width="16.27" height="33.25" transform="translate(354.52 704.41) rotate(180)" style="fill:#e0e0e0"></rect><rect x="174.98" y="328.52" width="6.18" height="40.32" style="fill:#fafafa"></rect><rect x="181.16" y="328.52" width="16.51" height="40.32" transform="translate(378.83 697.35) rotate(180)" style="fill:#ebebeb"></rect><polygon points="90.12 368.83 80.97 368.83 75.7 330.84 84.85 330.84 90.12 368.83" style="fill:#f0f0f0"></polygon><polygon points="90.12 368.83 114.58 368.83 109.31 330.84 84.85 330.84 90.12 368.83" style="fill:#e0e0e0"></polygon><rect x="152.61" y="285.65" width="10.96" height="45.53" transform="translate(466.51 150.32) rotate(90)" style="fill:#e6e6e6"></rect><rect x="183.78" y="300.01" width="10.96" height="16.81" transform="translate(497.68 119.15) rotate(90)" style="fill:#e0e0e0"></rect><rect x="185.77" y="300.74" width="8.47" height="15.34" transform="translate(498.41 118.41) rotate(90)" style="fill:#f0f0f0"></rect><rect x="156.62" y="275.89" width="8.55" height="45.53" transform="translate(459.55 137.76) rotate(90)" style="fill:#f0f0f0"></rect><rect x="187.79" y="290.25" width="8.55" height="16.81" transform="translate(490.72 106.59) rotate(90)" style="fill:#e6e6e6"></rect><rect x="189.5" y="290.99" width="6.6" height="15.34" transform="translate(491.46 105.85) rotate(90)" style="fill:#f0f0f0"></rect><rect x="212.2" y="338.41" width="11.81" height="49.03" transform="translate(581.03 144.82) rotate(90)" style="fill:#f5f5f5"></rect><rect x="245.77" y="353.87" width="11.81" height="18.11" transform="translate(614.61 111.25) rotate(90)" style="fill:#e0e0e0"></rect><rect x="247.91" y="354.67" width="9.12" height="16.52" transform="translate(615.4 110.46) rotate(90)" style="fill:#f0f0f0"></rect><rect x="215.45" y="323.22" width="9.55" height="39.64" transform="translate(563.27 122.82) rotate(90)" style="fill:#fafafa"></rect><rect x="242.6" y="335.72" width="9.55" height="14.64" transform="translate(590.41 95.67) rotate(90)" style="fill:#e0e0e0"></rect><rect x="244.33" y="336.36" width="7.37" height="13.36" transform="translate(591.06 95.03) rotate(90)" style="fill:#f5f5f5"></rect><rect x="112.53" y="344.19" width="9.55" height="39.64" transform="translate(481.32 246.72) rotate(90)" style="fill:#fafafa"></rect><rect x="139.67" y="356.7" width="9.55" height="14.64" transform="translate(508.46 219.57) rotate(90)" style="fill:#e0e0e0"></rect><rect x="141.4" y="357.34" width="7.37" height="13.36" transform="translate(509.1 218.93) rotate(90)" style="fill:#f5f5f5"></rect><rect x="216.52" y="327.9" width="9.21" height="49.03" transform="translate(573.54 131.3) rotate(90)" style="fill:#f0f0f0"></rect><rect x="250.09" y="343.37" width="9.21" height="18.11" transform="translate(607.11 97.73) rotate(90)" style="fill:#e6e6e6"></rect><rect x="251.93" y="344.16" width="7.11" height="16.52" transform="translate(607.91 96.94) rotate(90)" style="fill:#f0f0f0"></rect><rect x="202.8" y="278.78" width="8.88" height="36.88" style="fill:#f0f0f0"></rect><rect x="211.69" y="278.78" width="23.75" height="36.88" transform="translate(447.12 594.44) rotate(180)" style="fill:#e0e0e0"></rect><rect x="222.8" y="283" width="8.53" height="32.67" style="fill:#fafafa"></rect><rect x="231.33" y="283" width="14.58" height="32.67" transform="translate(477.24 598.66) rotate(180)" style="fill:#ebebeb"></rect><path d="M326.72,315.87h28.94a14.08,14.08,0,0,0,13.87-11.67l7.66-44a21.3,21.3,0,0,1,21-17.64h29.08a13.47,13.47,0,0,1,13.28,15.79l-8,46.07a21.28,21.28,0,0,1-21,17.63H319.37A7.47,7.47,0,0,1,326.72,315.87Z" style="fill:#e0e0e0"></path><polygon points="407 322.05 410.33 322.05 416.36 382.4 413.03 382.4 407 322.05" style="fill:#ebebeb"></polygon><polygon points="380.33 322.05 383.66 322.05 389.68 382.4 386.35 382.4 380.33 322.05" style="fill:#ebebeb"></polygon><rect x="382.65" y="322.05" width="26.08" height="3.12" transform="translate(791.39 647.21) rotate(180)" style="fill:#ebebeb"></rect><polygon points="331.26 322.05 327.93 322.05 321.91 382.4 325.24 382.4 331.26 322.05" style="fill:#ebebeb"></polygon><polygon points="357.94 322.05 354.61 322.05 348.58 382.4 351.92 382.4 357.94 322.05" style="fill:#ebebeb"></polygon><rect x="329.55" y="322.05" width="26.08" height="3.12" transform="translate(685.18 647.21) rotate(180)" style="fill:#ebebeb"></rect><path d="M114.21,243.15a16.16,16.16,0,0,0,32.32,0Z" style="fill:#e0e0e0"></path><path d="M139.23,246.85a12.46,12.46,0,0,0,24.91,0Z" style="fill:#ebebeb"></path><rect x="135.33" y="98.09" width="234.33" height="112.89" style="fill:#f5f5f5"></rect><circle cx="199.33" cy="159.6" r="41.53" style="fill:#fafafa"></circle><rect x="133.83" y="208.09" width="237.33" height="7.61" style="fill:#ebebeb"></rect><path d="M293.58,106.76H211.42a1.36,1.36,0,0,0-1.36,1.36h0a1.36,1.36,0,0,0,1.36,1.36h82.16a1.36,1.36,0,0,0,1.36-1.36h0A1.36,1.36,0,0,0,293.58,106.76Z" style="fill:#ebebeb"></path><path d="M161,125.7s.28,10.11-1,13.12c4.78,1.34,13.89,1.32,13.89,1.32s1.55-9.71,1-13.56C172.23,126,161,125.7,161,125.7Z" style="fill:#e6e6e6"></path><path d="M161,125.7s-.68,10.09-2,13.1a97,97,0,0,0,13,2.13s3.54-10.49,2.9-14.35C172.23,126,161,125.7,161,125.7Z" style="fill:#fff"></path><path d="M188.8,148.55s1.46,15.06-.15,19.67c7.27,1.52,20.07.23,20.07.23s2.1-14.35.94-20C205.52,147.81,188.8,148.55,188.8,148.55Z" style="fill:#e6e6e6"></path><path d="M187.38,147s-.43,18.57-2,23.19c7.28,1.51,22.42.45,22.42.45s3.05-18.13,1.7-23.82C205.31,146.21,187.38,147,187.38,147Z" style="fill:#fff"></path><path d="M264.58,179.56s2.39,9.83,1.75,13c5,.32,13.69-1.59,13.69-1.59s-.34-9.85-1.64-13.5C275.58,177.5,264.58,179.56,264.58,179.56Z" style="fill:#e6e6e6"></path><path d="M264.58,179.56s1.44,10,.81,13.22c5,.32,14.11-.84,14.11-.84s.31-10.8-1.12-14.43C275.58,177.5,264.58,179.56,264.58,179.56Z" style="fill:#fff"></path><path d="M311.28,142.81s6.1,13.85,6,18.74c7.38-.84,20.1-5.1,20.1-5.1s-3.45-15.24-6.32-20.28C326.94,136.89,311.28,142.81,311.28,142.81Z" style="fill:#e6e6e6"></path><path d="M309.45,141.77s5.39,17.78,5.3,22.67c7.39-.83,21.44-6.57,21.44-6.57s-2.77-18.18-5.83-23.16C326.24,135.43,309.45,141.77,309.45,141.77Z" style="fill:#fff"></path><circle cx="329" cy="139.39" r="1.59" style="fill:#e6e6e6"></circle><path d="M214.8,139.86a.46.46,0,0,1-.23-.06.5.5,0,0,1-.22-.67c1.19-2.28,3.47-3.68,5.55-4.74,10.83-5.55,23.5-6.64,33.33-7a105.06,105.06,0,0,1,21,1.05,50.52,50.52,0,0,1,19.7,7.46.5.5,0,0,1-.56.84,49.29,49.29,0,0,0-19.31-7.31,104.38,104.38,0,0,0-20.85-1c-9.72.33-22.25,1.41-32.91,6.87-1.93,1-4.06,2.28-5.11,4.31A.5.5,0,0,1,214.8,139.86Z" style="fill:#e6e6e6"></path><path d="M282.58,140.65a.49.49,0,0,1-.42-.24.5.5,0,0,1,.15-.69,8.86,8.86,0,0,1,3.7-1.1,44.88,44.88,0,0,1,11.92.11,31.09,31.09,0,0,1-3-4.21,7.6,7.6,0,0,1-1.07-2.49,3.35,3.35,0,0,1,.69-2.82.5.5,0,1,1,.74.68,2.29,2.29,0,0,0-.44,2,6.57,6.57,0,0,0,.94,2.16,30.62,30.62,0,0,0,3.83,5.1.51.51,0,0,1,.07.58.5.5,0,0,1-.53.25,43.32,43.32,0,0,0-13-.32,7.89,7.89,0,0,0-3.28.95A.56.56,0,0,1,282.58,140.65Z" style="fill:#e6e6e6"></path><path d="M296.75,177.87a.5.5,0,0,1-.06-1,18.45,18.45,0,0,0,13.5-8.59.5.5,0,0,1,.69-.17.51.51,0,0,1,.17.69,19.49,19.49,0,0,1-14.25,9.06Z" style="fill:#e6e6e6"></path><path d="M301.29,182.19h0a35.52,35.52,0,0,1-11.84-3.1.52.52,0,0,1-.28-.39.47.47,0,0,1,.16-.44c1.62-1.45,3.23-2.95,4.78-4.46a.5.5,0,0,1,.71,0,.51.51,0,0,1,0,.71c-1.38,1.34-2.8,2.67-4.24,4a34.36,34.36,0,0,0,10.8,2.7.52.52,0,0,1,.46.54A.51.51,0,0,1,301.29,182.19Z" style="fill:#e6e6e6"></path><path d="M245,190.43c-12.95,0-25.65-5.78-31.61-11.6a.5.5,0,0,1,.7-.71c7.49,7.32,27.1,14.88,43,9.38a.5.5,0,1,1,.33.94A37.76,37.76,0,0,1,245,190.43Z" style="fill:#e6e6e6"></path><path d="M215.4,186.78a.52.52,0,0,1-.42-.22,35.5,35.5,0,0,1-5-11.15.53.53,0,0,1,.12-.47.5.5,0,0,1,.45-.15c2.14.35,4.32.66,6.47.92a.49.49,0,0,1,.43.55.5.5,0,0,1-.55.44c-1.91-.23-3.84-.5-5.75-.8a34.41,34.41,0,0,0,4.68,10.1.49.49,0,0,1-.13.69A.51.51,0,0,1,215.4,186.78Z" style="fill:#e6e6e6"></path></g><g id="freepik--Shadow--inject-157"><ellipse id="freepik--path--inject-157" cx="250" cy="416.24" rx="193.89" ry="11.32" style="fill:#f5f5f5"></ellipse></g><g id="freepik--character-1--inject-157"><circle cx="216.28" cy="171.11" r="11.25" style="fill:#263238"></circle><path d="M217.46,172.5c-3,2.75-7.33,2.92-9.66.37S206,166,209,163.29s7.33-2.92,9.66-.37S220.46,169.75,217.46,172.5Z" style="fill:#FFC100"></path><circle cx="198.71" cy="168.58" r="10.45" transform="translate(-61.01 189.89) rotate(-45)" style="fill:#263238"></circle><path d="M187.35,193.9c-1.12,3-2.38,5.61-3.72,8.34s-2.86,5.33-4.47,7.91a69.82,69.82,0,0,1-5.34,7.51q-1.47,1.8-3.11,3.51c-.54.58-1.11,1.13-1.69,1.68-.28.28-.59.54-.88.81l-.45.41a8.84,8.84,0,0,1-.94.7,6.34,6.34,0,0,1-2.46.93,6.47,6.47,0,0,1-2.35-.08,8.74,8.74,0,0,1-3.14-1.38,20.11,20.11,0,0,1-3.74-3.48,54.88,54.88,0,0,1-5.2-7.36,116.59,116.59,0,0,1-7.71-15.61l3.67-1.87c1.45,2.37,2.94,4.78,4.48,7.11s3.08,4.66,4.72,6.86a53.57,53.57,0,0,0,5.11,6.16,13.08,13.08,0,0,0,2.63,2.13,1.8,1.8,0,0,0,.76.29s-.05,0-.21,0a1.14,1.14,0,0,0-.44.14l-.07,0s-.06.05,0,0l.35-.35c.23-.23.47-.45.69-.7q.69-.71,1.35-1.47c.88-1,1.73-2.06,2.53-3.16,1.62-2.19,3.12-4.51,4.55-6.89s2.72-4.87,4-7.37,2.43-5.12,3.44-7.55Z" style="fill:#ff8b7b"></path><path d="M192.91,196.55c-1.18,2.35-4.66,6.41-7.39,9.41-2,2.15-3.53,3.76-3.53,3.76l-1.21-1-10-8.62c2.88-6.1,6.49-12.59,14.4-13.66C190.12,185.73,195,192.37,192.91,196.55Z" style="fill:#263238"></path><path d="M185.52,206c-2,2.15-3.53,3.76-3.53,3.76l-1.21-1c1-2.46,2.71-6.27,4.62-7.66A11.53,11.53,0,0,1,185.52,206Z" style="opacity:0.30000000000000004"></path><path d="M146.33,197.75l1.25-6.89-8.41.32s1.64,5.55,3.82,8Z" style="fill:#ff8b7b"></path><polygon points="145.28 187.7 139.04 189.1 139.17 191.18 147.58 190.86 145.28 187.7" style="fill:#ff8b7b"></polygon><polygon points="198.42 408.47 190.31 409.23 190.45 390.73 198.56 389.97 198.42 408.47" style="fill:#ff8b7b"></polygon><polygon points="241.36 404.61 233.37 405.83 228.48 387.81 236.47 386.58 241.36 404.61" style="fill:#ff8b7b"></polygon><path d="M232,402.87l8.91-1.82a.6.6,0,0,1,.72.41l2.26,6.8a1.33,1.33,0,0,1-1,1.66c-3.12.58-4.64.7-8.56,1.5-2.41.5-7.68,1.94-11,2.62s-4.08-2.56-2.75-3.14c6-2.6,8.43-5.1,10.21-7.28A2.13,2.13,0,0,1,232,402.87Z" style="fill:#263238"></path><path d="M189.43,406.83H199a.76.76,0,0,1,.74.58l1.86,7.55a1.21,1.21,0,0,1-1.2,1.51c-3.37,0-5-.23-9.16-.23-2.58,0-9.27.25-12.83.25s-4.12-3.53-2.67-3.85c6.51-1.43,10.3-3.4,12.35-5.29A2,2,0,0,1,189.43,406.83Z" style="fill:#263238"></path><polygon points="190.45 390.73 190.37 400.27 198.48 400.27 198.56 389.97 190.45 390.73" style="opacity:0.2"></polygon><polygon points="236.48 386.59 228.48 387.81 231 397.1 239 395.88 236.48 386.59" style="opacity:0.2"></polygon><path d="M219.68,234.32l-32.69.91c-7.68-47-4.06-48.32-4.06-48.32s5.61-1.36,11.26-2.21c.86-.13,1.72-.25,2.56-.35a103.92,103.92,0,0,1,14.85-.42c.73,0,1.46,0,2.19.07a99.41,99.41,0,0,1,11.7,1.37c-1.34,5.81-2.41,10.75-3.24,15.07-1.08,5.63-1.78,10.18-2.2,14.17A122.54,122.54,0,0,0,219.68,234.32Z" style="fill:#263238"></path><path d="M220.05,214.61c-1.58-4.91-1.34-15.14.48-18.49l1.72,4.32C221.17,206.07,220.47,210.62,220.05,214.61Z" style="opacity:0.30000000000000004"></path><path d="M209.31,173.82c-.21,4,.21,8.18,2.3,10.11,0,0-2.1,9.91-14,15.74-7.65-9.5-.83-15.33-.83-15.33,5.33-1.42,5.43-5,4-10.8L205,171.8A2.57,2.57,0,0,1,209.31,173.82Z" style="fill:#ff8b7b"></path><path d="M205,171.8a2.56,2.56,0,0,1,4.3,1.65,16.77,16.77,0,0,1-7.85,6.43,17.26,17.26,0,0,0-.69-6.34Z" style="opacity:0.2"></path><path d="M217.08,161.94c-3,7.5-4.05,10.73-9.15,13.5-7.68,4.17-16.15-.84-15.47-9,.61-7.35,5.34-18.38,13.75-19.2A10.6,10.6,0,0,1,217.08,161.94Z" style="fill:#ff8b7b"></path><path d="M212.85,155.24c-7.71,1.25-18.9-3.81-16.74-9.57,1.49-4,6.67-1.16,6.67-1.16s8.29-2.31,14.16,2.24,7.41,15-3.5,21.83C210,164.72,209.69,158.16,212.85,155.24Z" style="fill:#263238"></path><path d="M216.48,169.56a6.05,6.05,0,0,1-3.63,2.68c-2,.5-2.89-1.29-2.24-3.13.58-1.66,2.33-3.92,4.29-3.6S217.47,167.92,216.48,169.56Z" style="fill:#ff8b7b"></path><path d="M187,235.23s-3.54,48.71-3.54,80.2c0,25,5.42,81.1,5.42,81.1l11.71-1.16s1.93-60.18-.34-78c7.23-35.22,20.45-68.72,13-83Z" style="fill:#263238"></path><polygon points="202.49 392.52 187.05 392.99 187.89 398.26 202.33 398.04 202.49 392.52" style="fill:#FFC100"></polygon><path d="M205.49,253.27l-3.84,4.28c-3.67,10.92-1.24,26.08,3.14,40.15,4.47-17.73,9.19-34.09,10.38-46.59,0-.73,0-1.11,0-1.11Z" style="opacity:0.30000000000000004"></path><path d="M194.13,235.13s11.85,53.71,16.69,84.7c7.78,25,17.52,73.2,17.52,73.2l10.81-2.58s-5-57.17-11.09-75c-.35-35.23,2.1-66.82-8.38-81.11Z" style="fill:#263238"></path><polygon points="227.41 395.58 241.13 392.83 240.95 387.26 225.64 390.79 227.41 395.58" style="fill:#FFC100"></polygon><path d="M220.17,232.39l1.48,2.88c.11.23-.16.47-.53.48l-34.3.95c-.29,0-.54-.13-.55-.31l-.3-2.92c0-.2.24-.38.56-.39l33.11-.92A.56.56,0,0,1,220.17,232.39Z" style="fill:#FFC100"></path><path d="M215.73,236.21l.88,0c.18,0,.31-.1.3-.21l-.41-3.79c0-.11-.17-.2-.35-.19l-.88,0c-.18,0-.31.1-.3.21l.41,3.79C215.4,236.13,215.55,236.22,215.73,236.21Z" style="fill:#263238"></path><path d="M189.32,237l.88,0c.18,0,.31-.1.3-.21l-.41-3.79c0-.11-.17-.19-.35-.19l-.88,0c-.18,0-.31.1-.3.21l.41,3.79C189,236.87,189.14,237,189.32,237Z" style="fill:#263238"></path><path d="M202.52,236.58l.89,0c.17,0,.31-.1.3-.22l-.42-3.78c0-.11-.16-.2-.34-.2l-.89,0c-.17,0-.31.1-.3.21l.42,3.79C202.19,236.5,202.34,236.59,202.52,236.58Z" style="fill:#263238"></path><path d="M205.22,160.76c-.2.62-.69,1-1.1.91s-.56-.73-.36-1.35.69-1,1.1-.91S205.42,160.14,205.22,160.76Z" style="fill:#263238"></path><path d="M198.25,158.66c-.21.63-.7,1-1.1.91s-.57-.72-.36-1.35.69-1,1.09-.9S198.45,158,198.25,158.66Z" style="fill:#263238"></path><path d="M198.05,157.41l-1.34-.88S197.09,157.93,198.05,157.41Z" style="fill:#263238"></path><path d="M198.71,159.81a18.11,18.11,0,0,1-3.5,3.31,2.71,2.71,0,0,0,2.07,1.07Z" style="fill:#ff5652"></path><path d="M199.29,167.6a.19.19,0,0,1-.06-.2.21.21,0,0,1,.25-.13,5.22,5.22,0,0,0,4.61-.73.19.19,0,1,1,.24.29,5.54,5.54,0,0,1-5,.81Z" style="fill:#263238"></path><path d="M206.68,158.58a.38.38,0,0,1-.11-.16,2.9,2.9,0,0,0-1.92-1.91.38.38,0,0,1-.28-.46.4.4,0,0,1,.47-.29,3.67,3.67,0,0,1,2.46,2.4.4.4,0,0,1-.24.49A.37.37,0,0,1,206.68,158.58Z" style="fill:#263238"></path><path d="M195,154.21s0-.05,0-.07a.39.39,0,0,1,.31-.45,3.72,3.72,0,0,1,3.34.91.38.38,0,0,1,0,.54.39.39,0,0,1-.54,0,2.93,2.93,0,0,0-2.65-.69A.39.39,0,0,1,195,154.21Z" style="fill:#263238"></path><path d="M228.1,404.76l-.11-.06a1,1,0,0,1-.49-.93.64.64,0,0,1,.28-.6c.85-.61,3.53.45,3.83.57a.18.18,0,0,1,.12.17.2.2,0,0,1-.12.18C230.67,404.52,229,405.16,228.1,404.76Zm2.93-.83c-1.08-.39-2.59-.77-3-.46a.29.29,0,0,0-.11.27.7.7,0,0,0,.31.63C228.65,404.65,229.7,404.49,231,403.93Z" style="fill:#FFC100"></path><path d="M231.28,404c-.88-.4-2.38-1.67-2.36-2.53a.69.69,0,0,1,.54-.65,1,1,0,0,1,.84.09c1,.58,1.41,2.85,1.43,2.95a.22.22,0,0,1-.07.18.21.21,0,0,1-.19,0Zm-1.25-2.8a.66.66,0,0,0-.46,0c-.23.08-.27.2-.27.29,0,.56,1.11,1.66,2,2.1a4.21,4.21,0,0,0-1.17-2.33Z" style="fill:#FFC100"></path><path d="M185.16,408.41a3.15,3.15,0,0,1-1.86-.45,1.16,1.16,0,0,1-.45-.92.57.57,0,0,1,.25-.52c.88-.58,4.09.89,4.73,1.2a.19.19,0,0,1-.05.35A12.44,12.44,0,0,1,185.16,408.41Zm-1.48-1.65a.69.69,0,0,0-.38.08.17.17,0,0,0-.07.18.81.81,0,0,0,.31.64c.55.42,1.87.47,3.59.16A11.58,11.58,0,0,0,183.68,406.76Z" style="fill:#FFC100"></path><path d="M187.74,408.08l-.08,0c-1.06-.44-3.19-2.18-3-3.08,0-.2.18-.44.67-.5,1.9-.23,2.61,3.22,2.64,3.37a.19.19,0,0,1-.07.18A.21.21,0,0,1,187.74,408.08Zm-2.29-3.23h-.13c-.2,0-.31.08-.32.17-.09.52,1.38,1.9,2.46,2.5C187.23,406.7,186.59,404.85,185.45,404.85Z" style="fill:#FFC100"></path><path d="M205,159.5l-1.34-.87S204.06,160,205,159.5Z" style="fill:#263238"></path><path d="M226.71,190.59c.86,1.3,1.55,2.47,2.25,3.72s1.36,2.49,2,3.76c1.25,2.54,2.39,5.14,3.4,7.81a69,69,0,0,1,2.57,8.23c.19.69.31,1.42.47,2.13s.3,1.42.41,2.15.24,1.4.34,2.21l.12,1.29,0,1.27a28.58,28.58,0,0,1-1.95,9.24,52.28,52.28,0,0,1-3.91,8,85.15,85.15,0,0,1-4.82,7.2,82.41,82.41,0,0,1-5.56,6.61l-3.1-2.56c1.49-2.2,3-4.52,4.35-6.86s2.67-4.71,3.79-7.12a52.06,52.06,0,0,0,2.83-7.26,32.57,32.57,0,0,0,.84-3.59,19,19,0,0,0,.22-3.4l0-.79-.12-.75c-.09-.55-.26-1.23-.38-1.83s-.29-1.24-.46-1.86-.32-1.23-.52-1.85c-.73-2.46-1.68-4.87-2.64-7.28s-2.1-4.76-3.3-7.08c-.58-1.16-1.19-2.31-1.82-3.45s-1.31-2.29-1.91-3.28Z" style="fill:#ff8b7b"></path><path d="M225.49,185.37c3.92.94,8.5,12.7,8.5,12.7l-11.41,9s-6.62-9.65-5.75-14.82C217.57,187.83,220.5,184.18,225.49,185.37Z" style="fill:#263238"></path><rect x="129.68" y="220.11" width="14.56" height="1" transform="translate(-85.89 353.89) rotate(-89.05)" style="fill:#FFC100"></rect><rect x="134.26" y="233.97" width="4.95" height="1" transform="translate(-99.97 367.3) rotate(-89.05)" style="fill:#FFC100"></rect><polygon points="140.44 191.18 138.96 282.3 174.04 297.31 211.31 289.06 226.74 199.25 140.44 191.18" style="fill:#FFC100"></polygon><polygon points="182.84 203.18 174.83 288.94 204.33 282.41 217.39 206.41 182.84 203.18" style="fill:#fff;opacity:0.2"></polygon><polygon points="209.15 217.85 154.28 212.72 153.2 246.97 194.73 250.85 192.7 263.85 177.02 265.48 161.92 260.97 161.91 260.97 162.2 252.01 153.07 251.16 152.48 269.82 175.96 276.83 200.33 274.29 205.62 240.42 162.69 236.41 163.05 224.99 207.39 229.14 209.15 217.85" style="fill:#fff"></polygon><polygon points="209.91 257.67 214.96 261.39 219.63 257.87 214 251.78 209.91 257.67" style="fill:#ff8b7b"></polygon><path d="M220.91,249.6,214,251.78l5.64,6.09s3.42-3,3.88-6.34Z" style="fill:#ff8b7b"></path></g><g id="freepik--character-2--inject-157"><polygon points="335.02 405.68 342.07 403.39 337.69 386.76 330.64 389.05 335.02 405.68" style="fill:#ffb573"></polygon><path d="M342.18,402.45,334.25,405a.53.53,0,0,0-.36.65l1.65,6.4a1.31,1.31,0,0,0,1.64.85c2.74-.94,4-1.53,7.49-2.66,2.14-.7,7.32-2.27,10.28-3.23s1.93-3.86.59-3.72c-6,.64-9.51.1-12-.82A2.16,2.16,0,0,0,342.18,402.45Z" style="fill:#263238"></path><polygon points="330.64 389.06 337.69 386.76 339.95 395.34 332.89 397.63 330.64 389.06" style="opacity:0.2"></polygon><path d="M313.45,220.72s10,60.35,13,81.4c3.25,23.05,16,90.47,16,90.47l-13.09,3.62s-18.7-65.33-24-87.74c-5.75-24.33-18.4-87.75-18.4-87.75Z" style="fill:#263238"></path><path d="M297.38,245.47c5.12,12.79,5.7,34.53,3.62,43.44-3.14-14.63-6.74-32.13-9.51-45.74C292.48,239.68,294.27,237.69,297.38,245.47Z" style="opacity:0.30000000000000004"></path><polygon points="329.03 396.47 343.05 392.61 342.77 386.9 326.99 392.35 329.03 396.47" style="fill:#FFC100"></polygon><path d="M345.08,402.87a9.71,9.71,0,0,1-2,.36.18.18,0,0,1-.16-.09.19.19,0,0,1,0-.19c.18-.23,1.73-2.24,2.7-2.18a.62.62,0,0,1,.53.34.94.94,0,0,1,.09,1A2,2,0,0,1,345.08,402.87Zm-1.59,0c1.34-.16,2.26-.5,2.48-.93a.64.64,0,0,0-.07-.63.32.32,0,0,0-.26-.17C345.12,401.08,344.14,402.06,343.49,402.84Z" style="fill:#FFC100"></path><path d="M343.15,403.22h-.08a.16.16,0,0,1-.13-.11c0-.08-.85-2.06-.36-3a.85.85,0,0,1,.62-.45.66.66,0,0,1,.76.3c.41.72-.16,2.53-.73,3.18Zm0-3.17a.5.5,0,0,0-.31.26,3.85,3.85,0,0,0,.27,2.39,3.52,3.52,0,0,0,.51-2.53c-.05-.09-.14-.19-.39-.14Z" style="fill:#FFC100"></path><path d="M311.9,159.93c.23.49.58,1.19.89,1.8l1,1.89c.66,1.27,1.35,2.52,2.06,3.75,1.42,2.48,2.92,4.89,4.49,7.19a61.91,61.91,0,0,0,5.05,6.42,29.94,29.94,0,0,0,5.61,4.9l-1.52-.59a2.74,2.74,0,0,0,1.44.12,8.31,8.31,0,0,0,2.46-.82,27.25,27.25,0,0,0,5.75-4,70,70,0,0,0,5.58-5.48c1.8-1.94,3.59-4.06,5.24-6.07l.1-.12a3.24,3.24,0,0,1,5.47,3.35,64.34,64.34,0,0,1-4.14,7.85,60.07,60.07,0,0,1-5.26,7.31,34.46,34.46,0,0,1-7.24,6.56,19.91,19.91,0,0,1-5.25,2.44,14.2,14.2,0,0,1-6.87.27,4.65,4.65,0,0,1-1.25-.45l-.27-.14a38.5,38.5,0,0,1-8.68-6.42,60.35,60.35,0,0,1-6.65-7.59,82.59,82.59,0,0,1-5.41-8.18c-.81-1.41-1.58-2.82-2.33-4.27-.37-.72-.74-1.44-1.09-2.18s-.67-1.44-1.05-2.34a6.5,6.5,0,0,1,11.84-5.35Z" style="fill:#FFC100"></path><path d="M316.33,178.71c-3.14-8.34-9.81-8.48-12.7-6.27.21.39.43.78.65,1.17a84.91,84.91,0,0,0,5.15,7.91,65.35,65.35,0,0,0,6.27,7.38c.72.71,1.46,1.41,2.23,2.09A32,32,0,0,0,316.33,178.71Z" style="opacity:0.30000000000000004"></path><path d="M355.57,173.54l6.42,1-.77-7.09s-9.13-.75-9.63,1.74l1.06,2.17A4,4,0,0,0,355.57,173.54Z" style="fill:#ffb573"></path><polygon points="367.31 170.42 366.09 165.34 361.22 167.48 361.99 174.56 367.31 170.42" style="fill:#ffb573"></polygon><polygon points="279.51 408.92 286.92 408.92 287.88 391.75 280.47 391.75 279.51 408.92" style="fill:#ffb573"></polygon><path d="M287.31,408.06H279a.53.53,0,0,0-.55.51l-.4,6.59a1.31,1.31,0,0,0,1.29,1.32c2.9-.05,4.29-.22,7.95-.22,2.25,0,9.79.23,12.9.23s3-3.08,1.7-3.36c-5.91-1.24-11.19-3-13.29-4.61A2,2,0,0,0,287.31,408.06Z" style="fill:#263238"></path><polygon points="280.47 391.76 287.88 391.76 287.38 400.61 279.97 400.61 280.47 391.76" style="opacity:0.2"></polygon><path d="M299,220.34s-.64,64.79-1.84,86c-1.32,23.24-6.57,92.11-6.57,92.11H277s-.93-67-1.75-90c-.89-25-1.85-88.13-1.85-88.13Z" style="fill:#263238"></path><polygon points="276.44 398.47 291.11 398.47 291.93 393.32 275.73 394.12 276.44 398.47" style="fill:#FFC100"></polygon><path d="M289.94,409.35a9.51,9.51,0,0,1-2-.26.17.17,0,0,1-.13-.14.19.19,0,0,1,.07-.17c.24-.17,2.34-1.6,3.24-1.24a.64.64,0,0,1,.4.48,1,1,0,0,1-.21.94A2,2,0,0,1,289.94,409.35Zm-1.5-.51c1.32.26,2.3.22,2.64-.12a.62.62,0,0,0,.13-.62.3.3,0,0,0-.19-.24C290.53,407.67,289.3,408.29,288.44,408.84Z" style="fill:#FFC100"></path><path d="M288,409.09a.12.12,0,0,1-.08,0,.16.16,0,0,1-.09-.14c0-.09-.18-2.22.57-2.94a.89.89,0,0,1,.73-.24.66.66,0,0,1,.63.52c.17.81-.93,2.36-1.67,2.8A.15.15,0,0,1,288,409.09Zm1-3a.53.53,0,0,0-.37.15,3.82,3.82,0,0,0-.49,2.35c.65-.54,1.38-1.72,1.27-2.25,0-.1-.08-.22-.33-.25Z" style="fill:#FFC100"></path><path d="M270.08,160.94a4.73,4.73,0,0,1,4-5.5h.09c2.39-.35,5.39-.71,8.33-.85a147.89,147.89,0,0,1,16.85,0c2.59.24,5.12.67,7.14,1.06l.08,0a7.1,7.1,0,0,1,5.39,4.94c2.42,8.15,5.3,24.79,1.53,60.12H273.8c-.28-3.54.51-15.06-.07-29.73A232.84,232.84,0,0,0,270.08,160.94Z" style="fill:#FFC100"></path><path d="M270.46,163.12c.83,4.74,1.84,11.19,2.54,18,0,0,3.62-7.1,4.28-13.17S272.76,161.42,270.46,163.12Z" style="opacity:0.30000000000000004"></path><path d="M281.81,154.62s3.15,5.55,11.42,7.91c7.3-4,5.28-8,5.28-8" style="fill:#f5f5f5"></path><path d="M298.51,154.52c-4.9-1.16-5.76-4.19-5.43-7.52a19.92,19.92,0,0,1,.39-2.48l-6.14-5.1-4.51-3.74c1.25,5.43,2.66,15.32-1,18.94,0,0,3,5,11.42,4.56C300.32,158.79,298.51,154.52,298.51,154.52Z" style="fill:#ffb573"></path><polygon points="292.86 159.21 291.46 157.42 288.21 159.98 292.86 159.21" style="fill:#f5f5f5"></polygon><path d="M290,163.13a14.5,14.5,0,0,1,1.43-5.71c-2.48-.7-8.78-4.33-8.78-4.33l-2.35,1.43A16,16,0,0,0,290,163.13Z" style="fill:#fff"></path><polygon points="292.86 159.21 294.48 157.42 297.5 159.98 292.86 159.21" style="fill:#f5f5f5"></polygon><path d="M296.73,162.53a31.34,31.34,0,0,0-2.25-5.11c2.48-.7,1.65-4.19,1.65-4.19l2.64,1.11S302.93,160.53,296.73,162.53Z" style="fill:#fff"></path><path d="M293.51,160.86c.11.43,0,.82-.25.88s-.53-.23-.64-.66,0-.82.26-.88S293.41,160.43,293.51,160.86Z" style="fill:#FFC100"></path><path d="M293.47,144.52a19.92,19.92,0,0,0-.39,2.48c-2.29-.46-5.35-2.9-5.67-5.24a10.66,10.66,0,0,1-.08-2.34Z" style="opacity:0.2"></path><path d="M299.46,131.11c3.05.72,3.59-6.53,1.71-10.12-1.51-2.89-5.69-1.84-6.78-.63s2.39,9.38,2.39,9.38Z" style="fill:#263238"></path><path d="M281,127.87c1.57,7.21,2.12,11.5,6.38,14.79a9.59,9.59,0,0,0,15.51-6.91c.56-6.71-2.1-17.37-9.68-19.41A9.7,9.7,0,0,0,281,127.87Z" style="fill:#ffb573"></path><path d="M283.4,134.17c2.27-.19,5-4.95,1.71-10.12-1.76-2.75-5.68-1.83-6.78-.63-3,3.26,2.39,9.37,2.39,9.37Z" style="fill:#263238"></path><path d="M282.61,125.33c4.49-.22,13.87-3.46,15.22-7.83,2.63-8.48-6.74-8.72-11.86-4.16-3.37,3-6.52,7.34-12.64,8.44C274.15,123.32,277.62,125.58,282.61,125.33Z" style="fill:#263238"></path><path d="M281,126.53c3.16-.54,6.69-3.49,7.27-6.7,1.15-6.21-3.11-4.67-6.85-1-2.32,2.24-3,4.72-7.28,6C274.81,125.81,277.45,127.12,281,126.53Z" style="fill:#263238"></path><path d="M293.62,118c2.84,3,7.35,5.84,8.72,4s-1.27-8.57-4.76-8.86S291.56,115.81,293.62,118Z" style="fill:#263238"></path><path d="M279.3,135.4a8,8,0,0,0,4.57,2.72c2.28.38,2.79-1.72,1.63-3.76-1-1.83-3.47-4.24-5.5-3.7S277.83,133.62,279.3,135.4Z" style="fill:#ffb573"></path><ellipse cx="293.04" cy="128.5" rx="0.71" ry="1.08" transform="translate(-18.18 54.14) rotate(-10.24)" style="fill:#263238"></ellipse><path d="M299.05,127.79c.09.59.48,1,.86,1s.63-.57.54-1.16-.48-1-.87-1S299,127.2,299.05,127.79Z" style="fill:#263238"></path><path d="M297,128.34a22.28,22.28,0,0,0,3.61,4.72,3.38,3.38,0,0,1-2.75.86Z" style="fill:#ed893e"></path><path d="M295.64,135.81a5.12,5.12,0,0,1-3.73-1.54.17.17,0,1,1,.26-.23,5,5,0,0,0,4.12,1.38.17.17,0,0,1,.2.15.17.17,0,0,1-.16.19A5.6,5.6,0,0,1,295.64,135.81Z" style="fill:#263238"></path><path d="M289.93,126.68a.34.34,0,0,1-.17-.05.35.35,0,0,1-.14-.48,3.37,3.37,0,0,1,2.63-1.77.34.34,0,0,1,.36.33.35.35,0,0,1-.33.37,2.66,2.66,0,0,0-2,1.42A.35.35,0,0,1,289.93,126.68Z" style="fill:#263238"></path><path d="M301.83,125.15a.36.36,0,0,1-.29-.16,2.94,2.94,0,0,0-2.22-1.34.35.35,0,1,1,0-.7h0a3.64,3.64,0,0,1,2.8,1.65.35.35,0,0,1-.09.49A.39.39,0,0,1,301.83,125.15Z" style="fill:#263238"></path><path d="M278.82,167.16c.07,0,0,0,0,0l0,0-.1.09-.24.22L278,168c-.35.36-.72.75-1.07,1.14-.71.8-1.42,1.64-2.08,2.53a41.86,41.86,0,0,0-3.58,5.68,48.19,48.19,0,0,0-4.53,13,16.62,16.62,0,0,0-.41,2.88,15,15,0,0,0,.14,2.95,32.48,32.48,0,0,0,1.68,6.52A82.55,82.55,0,0,0,274.5,216l.09.16a3.24,3.24,0,0,1-5,4,52.78,52.78,0,0,1-5.71-6.21,55.1,55.1,0,0,1-4.75-7.09,36.88,36.88,0,0,1-3.46-8.37,25.63,25.63,0,0,1-.86-4.87,27.37,27.37,0,0,1,.16-5,51.63,51.63,0,0,1,1.61-8.65,50.09,50.09,0,0,1,3.08-8.37,47.17,47.17,0,0,1,4.62-7.78,39.36,39.36,0,0,1,2.94-3.56c.53-.57,1.07-1.14,1.66-1.69l.93-.84.5-.42.67-.53a6.5,6.5,0,1,1,7.84,10.36Z" style="fill:#FFC100"></path><path d="M275.56,214.15l4.07-.71L275.84,222s-6.73,0-6.42-3.51l.8-1.07A8.54,8.54,0,0,1,275.56,214.15Z" style="fill:#ffb573"></path><polygon points="285.14 217.73 281.67 224.63 275.84 221.98 279.63 213.44 285.14 217.73" style="fill:#ffb573"></polygon><polygon points="327.25 86.74 341.24 152.76 369.05 157.8 394.58 145.69 390.88 78.3 327.25 86.74" style="fill:#FFC100"></polygon><polygon points="327.25 86.74 341.24 152.76 369.05 157.8 394.58 145.69 390.88 78.3 327.25 86.74" style="fill:#fff;opacity:0.30000000000000004"></polygon><polygon points="359.84 88.4 368.23 151.63 388.45 142.04 385.31 85.02 359.84 88.4" style="fill:#fff;opacity:0.2"></polygon><polygon points="381.25 94.64 340.79 100.01 342.42 108.3 375.12 103.97 376.98 130.56 365.93 134.33 354.28 133.57 353.01 127.06 346.27 127.95 348.93 141.52 367.04 142.7 384.22 136.84 381.25 94.64" style="fill:#fff"></polygon></g></svg>